<?xml version="1.0" encoding="UTF-8" standalone="no"?>
<!-- Created with Inkscape (http://www.inkscape.org/) -->

<svg
   width="210mm"
   height="297mm"
   viewBox="0 0 210 297"
   version="1.1"
   id="svg840"
   inkscape:version="1.1.1 (c3084ef, 2021-09-22)"
   sodipodi:docname="check2.svg"
   xmlns:inkscape="http://www.inkscape.org/namespaces/inkscape"
   xmlns:sodipodi="http://sodipodi.sourceforge.net/DTD/sodipodi-0.dtd"
   xmlns="http://www.w3.org/2000/svg"
   xmlns:svg="http://www.w3.org/2000/svg">
  <sodipodi:namedview
     id="namedview842"
     pagecolor=var(--bg-color)
     bordercolor="#666666"
     borderopacity="1.0"
     inkscape:pageshadow="2"
     inkscape:pageopacity="0.0"
     inkscape:pagecheckerboard="0"
     inkscape:document-units="mm"
     showgrid="false"
     inkscape:zoom="0.53540264"
     inkscape:cx="299.77439"
     inkscape:cy="191.44471"
     inkscape:window-width="1312"
     inkscape:window-height="781"
     inkscape:window-x="0"
     inkscape:window-y="25"
     inkscape:window-maximized="0"
     inkscape:current-layer="layer1" />
  <defs
     id="defs837" />
  <g
     inkscape:label="Layer 1"
     inkscape:groupmode="layer"
     id="layer1">
    <path
       d="m 173.41313,125.12984 c -4.84535,13.13182 -12.17321,24.54996 -21.78276,33.93396 -10.93814,10.68095 -25.26102,19.16822 -42.57114,25.2225 -0.56802,0.19805 -1.1608,0.36034 -1.75632,0.48 -0.7867,0.15541 -1.58716,0.23931 -2.38073,0.25031 h -0.15542 c -0.84583,0 -1.6958,-0.0853 -2.53889,-0.25031 -0.59552,-0.11966 -1.18005,-0.28195 -1.74531,-0.47587 C 83.151799,178.24577 68.811047,169.76263 57.861902,159.08167 48.248221,149.69768 40.921742,138.28642 36.083269,125.1546 27.285168,101.27856 27.785795,74.976403 28.188772,53.840057 l 0.0069,-0.32458 C 28.276794,51.770161 28.329057,49.936822 28.35794,47.91231 28.505102,37.97267 36.407851,29.749465 46.348865,29.1952 67.075357,28.038533 83.109161,21.278698 96.809002,7.9254458 l 0.119654,-0.1100279 c 2.274827,-2.0864029 5.141054,-3.1096617 7.993524,-3.0670258 2.7507,0.035759 5.49039,1.0576424 7.68407,3.0670258 l 0.1169,0.1100279 c 13.70259,13.3532522 29.7364,20.1130872 50.46289,21.2697542 9.94101,0.554265 17.84376,8.77747 17.99092,18.71711 0.0289,2.038265 0.0811,3.868854 0.1623,5.603167 l 0.004,0.137533 c 0.4016,21.17623 0.89948,47.53065 -7.93025,71.47683 z m 0,0"
       style="fill:#2a4770;fill-opacity:1;fill-rule:nonzero;stroke:none;stroke-width:0.352089"
       id="path2" />
    <path
       d="m 173.41313,125.12984 c -4.84535,13.13182 -12.17321,24.54996 -21.78276,33.93396 -10.93814,10.68095 -25.26102,19.16822 -42.57114,25.2225 -0.56802,0.19805 -1.1608,0.36034 -1.75632,0.48 -0.7867,0.15541 -1.58716,0.23931 -2.38073,0.25031 V 4.7483921 c 2.7507,0.035759 5.49039,1.0576424 7.68407,3.0670258 l 0.1169,0.1100279 c 13.70259,13.3532522 29.7364,20.1130872 50.46289,21.2697542 9.94101,0.554265 17.84376,8.77747 17.99092,18.71711 0.0289,2.038265 0.0811,3.868854 0.1623,5.603167 l 0.004,0.137533 c 0.4016,21.17623 0.89948,47.53065 -7.93025,71.47683 z m 0,0"
       style="fill:#2a4770;fill-opacity:1;fill-rule:nonzero;stroke:none;stroke-width:0.352089"
       id="path4" />
    <path
       d="m 149.69113,94.881814 c 0,24.719126 -20.07045,44.840466 -44.76895,44.928486 h -0.15817 c -24.771386,0 -44.928484,-20.15572 -44.928484,-44.928486 0,-24.771391 20.157098,-44.927112 44.928484,-44.927112 h 0.15817 c 24.6985,0.08802 44.76895,20.209358 44.76895,44.927112 z m 0,0"
       style="fill:var(--bg-color);fill-opacity:1;fill-rule:nonzero;stroke:none;stroke-width:0.352089"
       id="path6" />
    <path
       d="m 125.1563,88.412177 -20.23412,20.236863 -4.37223,4.37224 c -1.032886,1.03288 -2.387605,1.54864 -3.740948,1.54864 -1.354719,0 -2.708061,-0.51576 -3.742322,-1.54864 l -9.400503,-9.40463 c -2.06577,-2.06577 -2.06577,-5.411996 0,-7.479142 2.063023,-2.065774 5.413369,-2.065774 7.479142,0 l 5.663683,5.663682 20.868148,-20.868155 c 2.06578,-2.067147 5.41612,-2.067147 7.47915,0 2.06577,2.065773 2.06577,5.416119 0,7.479142 z m 0,0"
       style="fill:#2a4770;fill-opacity:1;fill-rule:nonzero;stroke:none;stroke-width:0.352089"
       id="path10" />
    <path
       d="M 125.1563,88.412177 104.92218,108.64904 V 93.686637 l 12.75497,-12.753602 c 2.06578,-2.067147 5.41612,-2.067147 7.47915,0 2.06577,2.065773 2.06577,5.416119 0,7.479142 z m 0,0"
       style="fill:#2a4770;fill-opacity:1;fill-rule:nonzero;stroke:none;stroke-width:0.352089"
       id="path12" />
  </g>
</svg>
