<svg width="90" height="90" viewBox="0 0 90 90" fill="none" xmlns="http://www.w3.org/2000/svg">
<g id="Frame" clip-path="url(#clip0_232_334)">
<g id="Group">
<path id="Vector" d="M-2.22119e-05 45.0001C-0.0519313 20.3254 20.1407 0.0520037 44.8183 0.000100569C69.6828 -0.0518025 89.9377 19.9932 90 44.7302C90.0623 69.8409 70.0565 89.9793 45.0259 90.0001C20.1615 90.0209 0.0518869 69.9344 -2.22119e-05 45.0001ZM33.772 39.8306C33.2841 39.706 32.9 39.6022 32.5158 39.4984C28.8095 38.533 25.0721 37.9309 21.2204 38.4292C15.9153 39.1143 12.2194 42.1766 11.3265 46.8375C10.7348 49.9517 11.4304 52.8998 12.8215 55.6921C15.3547 60.7994 19.4451 64.3703 24.2623 67.225C26.7332 68.6887 29.3909 67.9205 30.7509 65.3565C33.0661 61.007 35.3708 56.6472 37.6964 52.2977C37.8625 51.9966 38.0597 51.706 38.2778 51.3634C40.188 52.225 42.036 53.0036 43.8424 53.8652C51.9921 57.7683 59.7266 62.398 67.3365 67.2458C69.2467 68.4603 71.1155 68.3669 72.5585 67.0901C74.0743 65.751 74.5311 63.5088 73.6382 61.5883C73.2126 60.6852 72.7454 59.7925 72.2886 58.8998C65.748 45.9551 59.1971 33.0105 52.6773 20.0555C51.7637 18.2285 50.4141 17.1593 48.3585 17.1593C46.334 17.1593 44.9948 18.27 44.1123 20.0139C43.749 20.7302 43.3648 21.4361 43.0015 22.142C39.9492 27.9966 36.897 33.8513 33.772 39.8306Z" fill="black"/>
<path id="Vector_2" d="M42.2748 43.1939C44.102 39.4049 45.9707 35.5226 47.9433 31.4326C51.5042 38.1074 54.9406 44.5641 58.5119 51.2596C52.9888 48.5087 47.6733 45.8721 42.2748 43.1939Z" fill="black"/>
<path id="Vector_3" d="M29.8062 48.1974C28.2697 51.2701 26.837 54.1247 25.3213 57.1559C22.7777 55.1005 20.5871 52.9517 19.8812 49.7337C19.5905 48.4154 20.203 47.5123 21.5734 47.3047C22.8192 47.1178 24.1273 47.149 25.3835 47.2943C26.7955 47.4708 28.1866 47.8652 29.8062 48.1974Z" fill="black"/>
</g>
</g>
<defs>
<clipPath id="clip0_232_334">
<rect width="90" height="90" fill="white"/>
</clipPath>
</defs>
</svg>
