<svg width="90" height="90" viewBox="0 0 90 90" fill="none" xmlns="http://www.w3.org/2000/svg">
<g id="instagram-1-svgrepo-com 1">
<path id="Vector" d="M67.5 5.625H22.5C13.1802 5.625 5.625 13.1802 5.625 22.5V67.5C5.625 76.8198 13.1802 84.375 22.5 84.375H67.5C76.8198 84.375 84.375 76.8198 84.375 67.5V22.5C84.375 13.1802 76.8198 5.625 67.5 5.625Z" fill="url(#paint0_radial_232_191)"/>
<path id="Vector_2" d="M67.5 5.625H22.5C13.1802 5.625 5.625 13.1802 5.625 22.5V67.5C5.625 76.8198 13.1802 84.375 22.5 84.375H67.5C76.8198 84.375 84.375 76.8198 84.375 67.5V22.5C84.375 13.1802 76.8198 5.625 67.5 5.625Z" fill="url(#paint1_radial_232_191)"/>
<path id="Vector_3" d="M67.5 5.625H22.5C13.1802 5.625 5.625 13.1802 5.625 22.5V67.5C5.625 76.8198 13.1802 84.375 22.5 84.375H67.5C76.8198 84.375 84.375 76.8198 84.375 67.5V22.5C84.375 13.1802 76.8198 5.625 67.5 5.625Z" fill="url(#paint2_radial_232_191)"/>
<path id="Vector_4" d="M64.6875 29.5312C64.6875 31.8611 62.7986 33.75 60.4688 33.75C58.1389 33.75 56.25 31.8611 56.25 29.5312C56.25 27.2013 58.1389 25.3125 60.4688 25.3125C62.7986 25.3125 64.6875 27.2013 64.6875 29.5312Z" fill="white"/>
<path id="Vector_5" fill-rule="evenodd" clip-rule="evenodd" d="M45 59.0625C52.7664 59.0625 59.0625 52.7664 59.0625 45C59.0625 37.2336 52.7664 30.9375 45 30.9375C37.2336 30.9375 30.9375 37.2336 30.9375 45C30.9375 52.7664 37.2336 59.0625 45 59.0625ZM45 53.4375C49.66 53.4375 53.4375 49.66 53.4375 45C53.4375 40.34 49.66 36.5625 45 36.5625C40.34 36.5625 36.5625 40.34 36.5625 45C36.5625 49.66 40.34 53.4375 45 53.4375Z" fill="white"/>
<path id="Vector_6" fill-rule="evenodd" clip-rule="evenodd" d="M16.875 43.875C16.875 34.4242 16.875 29.6986 18.7143 26.0889C20.3321 22.9137 22.9137 20.3321 26.0889 18.7143C29.6986 16.875 34.4242 16.875 43.875 16.875H46.125C55.5758 16.875 60.3014 16.875 63.911 18.7143C67.0863 20.3321 69.6679 22.9137 71.2856 26.0889C73.125 29.6986 73.125 34.4242 73.125 43.875V46.125C73.125 55.5758 73.125 60.3014 71.2856 63.911C69.6679 67.0863 67.0863 69.6679 63.911 71.2856C60.3014 73.125 55.5758 73.125 46.125 73.125H43.875C34.4242 73.125 29.6986 73.125 26.0889 71.2856C22.9137 69.6679 20.3321 67.0863 18.7143 63.911C16.875 60.3014 16.875 55.5758 16.875 46.125V43.875ZM43.875 22.5H46.125C50.9434 22.5 54.2185 22.5044 56.7503 22.7112C59.2166 22.9127 60.4777 23.2779 61.3575 23.7262C63.4742 24.8048 65.1952 26.5258 66.2737 28.6425C66.7221 29.5223 67.0874 30.7834 67.2888 33.2497C67.4955 35.7815 67.5 39.0566 67.5 43.875V46.125C67.5 50.9434 67.4955 54.2185 67.2888 56.7503C67.0874 59.2166 66.7221 60.4777 66.2737 61.3575C65.1952 63.4742 63.4742 65.1952 61.3575 66.2737C60.4777 66.7221 59.2166 67.0874 56.7503 67.2888C54.2185 67.4955 50.9434 67.5 46.125 67.5H43.875C39.0566 67.5 35.7815 67.4955 33.2497 67.2888C30.7834 67.0874 29.5223 66.7221 28.6425 66.2737C26.5258 65.1952 24.8048 63.4742 23.7262 61.3575C23.2779 60.4777 22.9127 59.2166 22.7112 56.7503C22.5044 54.2185 22.5 50.9434 22.5 46.125V43.875C22.5 39.0566 22.5044 35.7815 22.7112 33.2497C22.9127 30.7834 23.2779 29.5223 23.7262 28.6425C24.8048 26.5258 26.5258 24.8048 28.6425 23.7262C29.5223 23.2779 30.7834 22.9127 33.2497 22.7112C35.7815 22.5044 39.0566 22.5 43.875 22.5Z" fill="white"/>
</g>
<defs>
<radialGradient id="paint0_radial_232_191" cx="0" cy="0" r="1" gradientUnits="userSpaceOnUse" gradientTransform="translate(33.75 64.6875) rotate(-55.3758) scale(71.7739)">
<stop stop-color="#B13589"/>
<stop offset="0.79309" stop-color="#C62F94"/>
<stop offset="1" stop-color="#8A3AC8"/>
</radialGradient>
<radialGradient id="paint1_radial_232_191" cx="0" cy="0" r="1" gradientUnits="userSpaceOnUse" gradientTransform="translate(30.9375 87.1875) rotate(-65.1363) scale(63.5462)">
<stop stop-color="#E0E8B7"/>
<stop offset="0.444662" stop-color="#FB8A2E"/>
<stop offset="0.71474" stop-color="#E2425C"/>
<stop offset="1" stop-color="#E2425C" stop-opacity="0"/>
</radialGradient>
<radialGradient id="paint2_radial_232_191" cx="0" cy="0" r="1" gradientUnits="userSpaceOnUse" gradientTransform="translate(1.40625 8.4375) rotate(-8.1301) scale(109.381 23.3954)">
<stop offset="0.156701" stop-color="#406ADC"/>
<stop offset="0.467799" stop-color="#6A45BE"/>
<stop offset="1" stop-color="#6A45BE" stop-opacity="0"/>
</radialGradient>
</defs>
</svg>
