<svg width="90" height="90" viewBox="0 0 90 90" fill="none" xmlns="http://www.w3.org/2000/svg">
<g id="logo-tiktok 1">
<path id="Vector" d="M72.4553 20.8582C71.8858 20.5639 71.3314 20.2412 70.7942 19.8914C69.2319 18.8586 67.7996 17.6417 66.528 16.2668C63.3463 12.6264 62.158 8.9332 61.7203 6.34746H61.7379C61.3723 4.20117 61.5235 2.8125 61.5463 2.8125H47.0549V58.848C47.0549 59.6004 47.0549 60.3439 47.0233 61.0787C47.0233 61.1701 47.0145 61.2545 47.0092 61.3529C47.0092 61.3934 47.0092 61.4355 47.0004 61.4777C47.0004 61.4883 47.0004 61.4988 47.0004 61.5094C46.8477 63.5199 46.2032 65.4621 45.1236 67.1651C44.0441 68.8681 42.5626 70.2797 40.8094 71.2758C38.9822 72.3153 36.9157 72.8605 34.8135 72.8578C28.0617 72.8578 22.5897 67.3523 22.5897 60.5531C22.5897 53.7539 28.0617 48.2484 34.8135 48.2484C36.0916 48.2472 37.3618 48.4484 38.577 48.8443L38.5946 34.0893C34.9055 33.6127 31.1578 33.9059 27.5878 34.9503C24.0178 35.9947 20.7029 37.7676 17.8524 40.1572C15.3546 42.3274 13.2548 44.9169 11.6473 47.809C11.0356 48.8637 8.72756 53.1018 8.44807 59.9801C8.27229 63.8842 9.44475 67.9289 10.0037 69.6006V69.6357C10.3553 70.6201 11.7176 73.9793 13.9377 76.8111C15.7279 79.0827 17.843 81.0781 20.2149 82.7332V82.698L20.25 82.7332C27.2655 87.5004 35.0438 87.1875 35.0438 87.1875C36.3903 87.133 40.9008 87.1875 46.0231 84.76C51.7043 82.0687 54.9387 78.0592 54.9387 78.0592C57.005 75.6634 58.648 72.9332 59.7973 69.9855C61.1086 66.5385 61.5463 62.4041 61.5463 60.7518V31.0236C61.7221 31.1291 64.0635 32.6777 64.0635 32.6777C64.0635 32.6777 67.4367 34.8398 72.6996 36.2478C76.4754 37.2498 81.5625 37.4607 81.5625 37.4607V23.0748C79.7801 23.2682 76.1608 22.7057 72.4553 20.8582Z" fill="black"/>
</g>
</svg>
