<svg width="90" height="90" viewBox="0 0 90 90" fill="none" xmlns="http://www.w3.org/2000/svg">
<g id="snapchat-snap-chat-svgrepo-com 1" clip-path="url(#clip0_232_580)">
<path id="Vector" d="M64.6875 0H25.3125C11.25 0 0 11.25 0 25.3125V64.6875C0 78.75 11.25 90 25.3125 90H64.6875C78.75 90 90 78.75 90 64.6875V25.3125C90 11.25 78.75 0 64.6875 0Z" fill="#FFEC06"/>
<g id="Group">
<path id="Vector_2" d="M45.2812 80.1562C43.3125 80.1562 41.3437 79.875 39.375 79.3125C37.125 78.4688 34.875 77.3438 33.1875 76.2188C31.2187 75.0938 28.9687 74.5312 26.4375 74.5312H26.1562C25.5937 74.5312 25.0312 74.5312 24.1875 74.25H23.625C21.6562 73.9688 19.125 73.125 18.5625 69.75C18.2812 69.75 18 69.4688 17.7188 69.4688L16.3125 68.9062C15.1875 68.3438 14.0625 68.0625 12.9375 67.5C10.125 66.0938 9.84375 63.8438 9.84375 63C9.84375 62.1562 10.125 59.9063 12.9375 58.2188C16.3125 56.5313 18.5625 54.5625 20.25 52.5938C21.6562 51.1875 22.5 49.5 23.0625 47.8125C22.5 47.5312 22.2187 47.25 21.9375 46.9688C21.0938 46.4063 20.5312 45.8438 19.6875 45.5625C18.8437 45 18.2812 44.4375 17.4375 43.5938C15.4687 41.625 15.1875 39.0938 16.3125 36.5625C17.4375 34.3125 19.4062 32.9062 21.9375 32.9062C22.2187 32.9062 22.5 32.9062 22.7812 32.9062C23.3438 32.9062 23.9062 33.1875 24.4687 33.1875C24.4687 31.2188 24.4687 29.25 24.75 27.2812C25.3125 20.25 29.25 14.9062 35.7187 11.8125C39.375 10.125 41.3437 9.84375 45 9.84375C51.4687 9.84375 56.8125 12.0938 61.0312 16.5938C63.8437 19.4062 65.25 23.0625 65.8125 27C66.0937 28.9688 66.0937 30.9375 66.0937 33.1875C66.6562 33.1875 67.5 32.9062 68.0625 32.9062C70.875 32.9062 73.125 34.5938 73.9687 36.8438C74.8125 39.375 74.25 42.1875 72.2812 43.875C71.1562 44.7188 70.3125 45.5625 69.1875 46.4062L68.3437 46.9688C68.0625 47.25 67.5 47.5312 67.2187 47.8125C67.2187 47.8125 66.9375 47.8125 66.9375 48.0938C68.0625 50.9062 69.75 53.4375 72.5625 55.4063C73.4062 55.9688 74.5312 56.8125 75.6562 57.375C76.2187 57.6562 77.0625 58.2187 77.625 58.5C80.4375 60.1875 80.4375 62.4375 80.1562 63.5625C79.875 65.25 78.4687 66.9375 76.7812 67.7812C75.0937 68.3438 73.4062 69.1875 71.7187 69.75C71.1562 72.2812 69.1875 74.25 66.375 74.25H66.0937C65.5312 74.25 64.9687 74.5312 64.125 74.5312H63.5625C60.75 74.5312 58.2187 75.375 55.9687 77.0625C52.5937 79.0312 48.9375 80.1562 45.2812 80.1562Z" fill="white"/>
<path id="Vector_3" d="M45 11.25C51.1875 11.25 55.9687 13.5 59.9062 17.4375C62.4375 20.25 63.8438 23.3438 64.4062 27.2812C64.6875 29.8125 64.6875 32.3438 64.6875 35.1562C64.9688 35.1562 64.9688 35.1562 65.25 34.875C66.375 34.5937 67.2187 34.3125 68.3437 34.3125C68.3437 34.3125 68.3438 34.3125 68.625 34.3125C70.5938 34.3125 72.2812 35.4375 72.8438 37.4062C73.6875 39.375 73.125 41.625 71.4375 42.75C70.3125 43.5938 69.4687 44.4375 68.3437 45L67.5 45.8437C67.2188 46.125 66.9375 46.4062 66.375 46.6875C66.0938 46.9688 65.8125 46.9687 65.5312 47.25L65.25 47.5312V47.8125C66.375 51.1875 68.3438 54 71.4375 56.25C72.2812 57.0938 73.4062 57.6563 74.5312 58.2188C75.0938 58.5 75.9375 59.0625 76.5 59.3438C78.4688 60.4688 78.75 61.875 78.4688 63C78.1875 64.4062 77.3438 65.5312 75.9375 66.0938C73.9688 66.9375 72 67.7812 70.0312 68.3437C69.75 70.875 68.0625 72.5625 65.8125 72.5625C65.5312 72.5625 65.5313 72.5625 65.25 72.5625C64.6875 72.5625 64.125 72.8438 63.5625 72.8438H63.2812C60.1875 72.8438 57.375 73.6875 54.8438 75.375C51.75 77.3438 48.375 78.4688 45 78.4688C43.3125 78.4688 41.3438 78.1875 39.375 77.625C37.125 77.0625 35.1562 75.6562 33.4687 74.8125C31.2187 73.4062 28.9688 72.8438 26.1562 72.8438H25.875C25.3125 72.8438 24.75 72.8438 24.1875 72.8438H23.625C21.375 72.5625 19.9688 71.7188 19.4062 68.625C19.125 68.625 19.125 68.625 18.8437 68.3437C18.5625 68.3437 18 68.0625 17.7188 68.0625L16.875 67.5C15.75 67.2188 14.625 66.6562 13.7813 66.0938C11.5313 65.25 11.25 63.5625 11.25 62.7187C11.25 61.875 11.5313 60.4688 13.5 59.3438C16.875 57.375 19.4062 55.6875 21.375 53.4375C23.0625 51.4688 24.1875 49.5 24.75 47.5312C23.9063 46.9688 23.3438 46.4062 22.5 46.125C21.6562 45.5625 21.0938 45.2812 20.5313 44.7188C19.9688 44.1562 19.125 43.5938 18.5625 42.75C17.1562 41.3438 16.875 39.0938 17.7188 37.4062C18.5625 35.7188 20.25 34.5938 21.9375 34.5938C22.2188 34.5938 22.5 34.5938 22.5 34.5938C23.625 34.875 24.75 35.1563 25.5938 35.4375C25.5938 32.9063 25.5938 30.375 25.5938 27.8437C26.1563 21.375 29.8125 16.3125 35.7188 13.5C39.6562 11.5313 41.3438 11.25 45 11.25ZM45 8.4375H44.7188C41.0625 8.4375 38.8125 8.71875 34.875 10.6875C27.8437 14.0625 23.625 19.9688 23.0625 27.2812C23.0625 28.6875 22.7813 30.0938 22.7813 31.5C22.5 31.5 22.2187 31.5 21.6562 31.5C18.8437 31.5 16.3125 33.1875 14.9063 36C13.5 38.8125 14.0625 42.1875 16.3125 44.7188C17.1563 45.5625 18 46.4063 18.8437 46.9688C19.6875 47.25 20.25 47.8125 21.0938 48.375L21.375 48.6562C20.8125 49.7812 19.9688 50.9062 19.125 52.0312C17.4375 54 15.1875 55.6875 12.0938 57.375C8.71875 58.7812 8.4375 61.5938 8.4375 63C8.4375 65.5312 9.84375 67.5 12.375 68.625C13.5 69.1875 14.9062 69.75 15.75 70.0312L17.1562 70.5938H17.4375C18.8437 74.5312 22.2187 75.375 23.625 75.375H24.1875C24.75 75.6562 25.3125 75.9375 26.1562 75.9375H26.4375C28.6875 75.9375 30.6562 76.5 32.3438 77.625C34.0312 78.75 36.2812 80.1562 38.8125 80.7188C41.0625 81.2812 43.0312 81.5625 45.2812 81.5625C49.2188 81.5625 53.1563 80.4375 56.8125 77.9062C59.0625 76.5 61.3125 75.6562 63.8438 75.6562H64.125C64.9687 75.6562 65.5312 75.6562 66.0938 75.375C66.375 75.375 66.375 75.375 66.375 75.375C69.4688 75.0938 71.7188 73.125 72.8438 70.5938C74.5312 70.0312 75.9375 69.4688 77.3438 68.9062C79.5938 68.0625 81.2812 65.8125 81.5625 63.5625C81.8438 62.4375 81.8438 59.3437 78.1875 57.0937C77.625 56.5312 76.7812 56.25 76.2188 55.9688C75.0938 55.4062 74.25 54.8438 73.4062 54C71.1562 52.3125 69.75 50.3438 68.625 48.375C68.9062 48.375 68.9062 48.0938 69.1875 48.0938L70.0312 47.5312C71.1562 46.6875 72.2812 45.8438 73.125 45C75.6562 43.0312 76.5 39.6562 75.375 36.5625C74.25 33.4688 71.4375 31.5 68.3437 31.5H68.0625C67.7813 31.5 67.7812 31.5 67.5 31.5C67.5 29.8125 67.2188 28.4062 67.2188 26.7188C66.6562 22.5 64.9688 18.5625 62.1562 15.4688C57.6562 10.9688 52.0312 8.4375 45 8.4375Z" fill="black"/>
</g>
</g>
<defs>
<clipPath id="clip0_232_580">
<rect width="90" height="90" fill="white"/>
</clipPath>
</defs>
</svg>
