<?xml version="1.0" encoding="UTF-8" standalone="no"?>
<!-- Generator: Adobe Illustrator 19.0.0, SVG Export Plug-In . SVG Version: 6.00 Build 0)  -->

<svg
   version="1.1"
   id="Layer_1"
   x="0px"
   y="0px"
   viewBox="0 0 512 512"
   style="enable-background:new 0 0 512 512;"
   xml:space="preserve"
   sodipodi:docname="two.svg"
   inkscape:version="1.1.1 (c3084ef, 2021-09-22)"
   xmlns:inkscape="http://www.inkscape.org/namespaces/inkscape"
   xmlns:sodipodi="http://sodipodi.sourceforge.net/DTD/sodipodi-0.dtd"
   xmlns="http://www.w3.org/2000/svg"
   xmlns:svg="http://www.w3.org/2000/svg"><defs
   id="defs1326">
		
	</defs><sodipodi:namedview
   id="namedview1324"
   pagecolor="#ffffff"
   bordercolor="#666666"
   borderopacity="1.0"
   inkscape:pageshadow="2"
   inkscape:pageopacity="0.0"
   inkscape:pagecheckerboard="0"
   showgrid="false"
   inkscape:zoom="1.1738281"
   inkscape:cx="256"
   inkscape:cy="256"
   inkscape:window-width="1312"
   inkscape:window-height="785"
   inkscape:window-x="0"
   inkscape:window-y="25"
   inkscape:window-maximized="0"
   inkscape:current-layer="Layer_1" />
<g
   id="g1273">
	<g
   id="g1271">
		<path
   d="M503.467,320H8.533C3.814,320,0,323.823,0,328.533v102.4c0,4.71,3.814,8.533,8.533,8.533h494.933    c4.719,0,8.533-3.823,8.533-8.533v-102.4C512,323.823,508.186,320,503.467,320z"
   id="path1269"
   style="fill:var(--primary-color);fill-opacity:1" />
	</g>
</g>
<g
   id="g1279">
	<g
   id="g1277">
		<path
   d="M503.467,217.6H8.533C3.814,217.6,0,221.423,0,226.133V294.4c0,4.71,3.814,8.533,8.533,8.533h494.933    c4.719,0,8.533-3.823,8.533-8.533v-68.267C512,221.423,508.186,217.6,503.467,217.6z"
   id="path1275"
   style="fill:var(--primary-color);fill-opacity:1" />
	</g>
</g>
<g
   id="g1285">
	<path
   d="M 503.467,132.267 H 8.533 C 3.814,132.267 0,136.09 0,140.8 V 192 c 0,4.71 3.814,8.533 8.533,8.533 h 494.933 c 4.719,0 8.533,-3.823 8.533,-8.533 v -51.2 c 10e-4,-4.71 -3.813,-8.533 -8.532,-8.533 z"
   id="path1281"
   style="mix-blend-mode:color-dodge;fill:var(--primary-color);fill-opacity:1" />
</g>
<g
   id="g1291">
	<g
   id="g1289">
		<path
   d="M503.467,72.533H8.533C3.814,72.533,0,76.356,0,81.067v25.6c0,4.71,3.814,8.533,8.533,8.533h494.933    c4.719,0,8.533-3.823,8.533-8.533v-25.6C512,76.356,508.186,72.533,503.467,72.533z"
   id="path1287"
   style="fill:var(--primary-color);fill-opacity:1" />
	</g>
</g>
<g
   id="g1293">
</g>
<g
   id="g1295">
</g>
<g
   id="g1297">
</g>
<g
   id="g1299">
</g>
<g
   id="g1301">
</g>
<g
   id="g1303">
</g>
<g
   id="g1305">
</g>
<g
   id="g1307">
</g>
<g
   id="g1309">
</g>
<g
   id="g1311">
</g>
<g
   id="g1313">
</g>
<g
   id="g1315">
</g>
<g
   id="g1317">
</g>
<g
   id="g1319">
</g>
<g
   id="g1321">
</g>
</svg>
