<svg width="30" height="30" viewBox="0 0 30 30" fill="none" xmlns="http://www.w3.org/2000/svg">
<g id="adjust logo">
<path id="Vector" d="M3.32861e-05 15C-0.0172697 6.77512 6.71361 0.0173346 14.9395 3.35229e-05C23.2276 -0.0172675 29.9793 6.66439 30 14.9101C30.0208 23.2803 23.3522 29.9931 15.0087 30C6.72053 30.007 0.0173363 23.3115 3.32861e-05 15ZM11.2574 13.2769C11.0947 13.2353 10.9667 13.2007 10.8387 13.1661C9.60322 12.8443 8.3574 12.6436 7.07351 12.8097C5.30514 13.0381 4.07317 14.0589 3.77556 15.6125C3.5783 16.6506 3.81016 17.6333 4.27388 18.564C5.11827 20.2665 6.48175 21.4568 8.08747 22.4083C8.9111 22.8962 9.79701 22.6402 10.2504 21.7855C11.0221 20.3357 11.7903 18.8824 12.5655 17.4326C12.6209 17.3322 12.6866 17.2353 12.7593 17.1211C13.396 17.4083 14.012 17.6679 14.6142 17.9551C17.3308 19.2561 19.9089 20.7993 22.4455 22.4153C23.0823 22.8201 23.7052 22.789 24.1862 22.3634C24.6915 21.917 24.8437 21.1696 24.5461 20.5294C24.4042 20.2284 24.2485 19.9308 24.0962 19.6333C21.9161 15.3184 19.7324 11.0035 17.5592 6.68515C17.2546 6.07616 16.8047 5.71976 16.1195 5.71976C15.4447 5.71976 14.9983 6.09 14.7042 6.67131C14.583 6.91007 14.455 7.14536 14.3339 7.38066C13.3165 9.33221 12.299 11.2838 11.2574 13.2769Z" fill="white"/>
<path id="Vector_2" d="M14.0918 14.398C14.7009 13.135 15.3238 11.8409 15.9813 10.4775C17.1683 12.7025 18.3137 14.8547 19.5042 17.0865C17.6631 16.1696 15.8913 15.2907 14.0918 14.398Z" fill="white"/>
<path id="Vector_3" d="M9.93545 16.066C9.42328 17.0902 8.94572 18.0417 8.44047 19.0521C7.59262 18.367 6.86243 17.6507 6.62711 16.5781C6.53021 16.1386 6.73439 15.8376 7.19119 15.7684C7.60646 15.7061 8.0425 15.7165 8.46123 15.7649C8.93187 15.8238 9.3956 15.9552 9.93545 16.066Z" fill="white"/>
</g>
</svg>
