<svg xmlns="http://www.w3.org/2000/svg" width="121" height="120" viewBox="0 0 121 120" fill="none">
  <g clip-path="url(#clip0_3361_9609)">
    <path d="M75.2625 111.278H60.7375C60.7375 110.859 60.425 110.706 60.1125 110.522C53.825 106.881 47.55 103.219 41.2594 99.5844C32.5094 94.5302 23.7542 89.4875 14.9937 84.4562C14.5812 84.2156 14.1656 84.0031 14.125 83.4531H28.4156C28.4363 83.6481 28.509 83.8339 28.6261 83.9911C28.7432 84.1484 28.9004 84.2712 29.0813 84.3469C32.6833 86.4302 36.2896 88.5073 39.9 90.5781C45.1938 93.626 50.4875 96.6698 55.7813 99.7094C61.2063 102.834 66.6375 105.959 72.0313 109.134C73.1313 109.791 74.4531 110.159 75.2625 111.278Z" fill="#DEEBF8"/>
    <path d="M75.2594 111.278C74.45 110.159 73.1281 109.791 72.0187 109.134C66.625 105.953 61.1937 102.837 55.7687 99.7094C50.4792 96.6594 45.1813 93.6156 39.875 90.5781C36.2667 88.4948 32.6604 86.4177 29.0563 84.3469C28.8754 84.2712 28.7182 84.1484 28.6011 83.9911C28.484 83.8339 28.4113 83.6481 28.3906 83.4531H41.75C41.7707 83.6481 41.8434 83.8339 41.9605 83.9911C42.0776 84.1484 42.2348 84.2712 42.4156 84.3469C44.5385 85.5698 46.6615 86.7885 48.7844 88.0031C54.6177 91.349 60.451 94.6979 66.2844 98.05C72.6813 101.741 79.0781 105.422 85.4375 109.172C86.4656 109.778 87.7875 110.047 88.3875 111.278H75.2594Z" fill="#DEEBF8"/>
    <path d="M88.3812 111.275C87.7812 110.044 86.4594 109.775 85.4313 109.169C79.0719 105.419 72.675 101.737 66.2781 98.0469C60.4573 94.6885 54.624 91.3396 48.7781 88C46.6573 86.7813 44.5344 85.5625 42.4094 84.3437C42.2279 84.2662 42.0709 84.141 41.9548 83.9815C41.8387 83.822 41.7679 83.634 41.75 83.4375H56.0437C56.0844 84.1281 56.7156 84.2813 57.1469 84.5344C61.3094 86.9656 65.5 89.35 69.675 91.7625C74.5562 94.575 79.4 97.4688 84.325 100.2C85.6219 100.919 86.725 102.116 88.3625 102.156L91.175 106.844C91.7812 107.856 91.925 108.9 91.2781 109.934C90.9958 110.432 90.5646 110.83 90.045 111.07C89.5254 111.31 88.9436 111.382 88.3812 111.275Z" fill="#DEEBF8"/>
    <path d="M14.1125 83.4359C14.1531 83.9859 14.5687 84.1984 14.9812 84.4391C23.7312 89.4766 32.4865 94.5193 41.2469 99.5672C47.5375 103.202 53.8125 106.864 60.1 110.505C60.4125 110.689 60.725 110.842 60.725 111.261H47.6C47.5876 111.146 47.5433 111.036 47.4721 110.944C47.4009 110.853 47.3056 110.783 47.1969 110.742C44.1094 108.97 41.0156 107.214 37.95 105.408C36.1594 104.352 34.2656 103.464 32.6156 102.173L35.3844 97.1984H24.4187C24.3594 96.5203 23.7281 96.3828 23.3 96.1141C22.1125 95.3766 20.8687 94.7328 19.6562 94.0297C14.7781 91.2172 9.93125 88.3328 5.0125 85.5922C3.64062 84.8266 2.4375 83.6797 0.796875 83.4234V77.3359C1.1875 77.4984 1.57812 77.6484 1.96875 77.8234C2.8125 78.1828 3.45937 78.9672 4.46875 78.9766C4.46875 79.9859 4.6 81.0078 4.46875 81.9984C4.32188 83.2484 4.83125 83.4547 5.95 83.4266C8.675 83.3609 11.3937 83.4359 14.1125 83.4359Z" fill="#DEEBF8"/>
    <path d="M115.997 96.1734C115.064 96.887 113.914 97.2578 112.741 97.2234C107.041 97.2453 101.344 97.2234 95.6469 97.2234C95.6469 96.7359 95.2375 96.5984 94.9031 96.4172C88.1906 92.5578 81.4656 88.7109 74.7875 84.8078C74.2031 84.4641 73.3125 84.3672 73.1562 83.4609H94.7188C94.8281 84.2141 95.5219 84.3641 96.0281 84.6609C98.8406 86.3172 101.653 87.9422 104.491 89.5703C108.322 91.7724 112.157 93.9734 115.997 96.1734Z" fill="#DEEBF8"/>
    <path d="M73.15 83.4375C73.3062 84.3438 74.1969 84.4406 74.7813 84.7844C81.4688 88.6875 88.1844 92.5344 94.8969 96.3937C95.2313 96.5875 95.6281 96.7063 95.6406 97.2H85.6062C86.5812 98.9531 87.4812 100.559 88.3656 102.163C86.7281 102.122 85.625 100.913 84.3281 100.206C79.4031 97.4656 74.5594 94.5813 69.6781 91.7688C65.4969 89.375 61.3125 86.975 57.15 84.5438C56.7187 84.2906 56.0875 84.1375 56.0469 83.4469L73.15 83.4375Z" fill="#DEEBF8"/>
    <path d="M84.3984 8.72187C93.8693 8.72187 103.341 8.71562 112.814 8.70312C113.321 8.72183 113.823 8.80157 114.311 8.94062C117.573 9.74375 120.164 12.7437 120.205 16.1C120.286 22.5312 120.205 28.9625 120.205 35.3938C119.633 35.2813 119.173 34.9406 118.673 34.6719C117.989 34.3063 117.423 33.6531 116.533 33.7562C116.52 28.2521 116.506 22.749 116.489 17.2469C116.509 16.7416 116.476 16.2357 116.389 15.7375C115.933 13.6656 114.314 12.4406 112.014 12.4312C104.285 12.4104 96.5578 12.3958 88.8328 12.3875C88.8797 11.8437 88.5828 11.5188 88.1422 11.2719C87.4795 10.949 86.8395 10.5815 86.2266 10.1719C85.6203 9.70625 84.6547 9.65312 84.3984 8.72187Z" fill="#DEEBF8"/>
    <path d="M115.991 96.1775C112.153 93.9712 108.315 91.766 104.475 89.5618C101.662 87.9337 98.8219 86.3087 96.0125 84.6525C95.5063 84.3556 94.8125 84.2056 94.7031 83.4525C101.53 83.4379 108.359 83.4181 115.191 83.3931C115.634 83.3931 116.128 83.59 116.522 83.1993C116.888 83.1618 117.147 83.3962 117.459 83.5118C118.397 83.8962 119.109 84.7618 120.203 84.8275C120.203 86.9587 120.516 89.1181 119.978 91.2118C119.406 93.44 118.256 95.2775 115.991 96.1775Z" fill="#DEEBF8"/>
    <path d="M0.81627 83.4375C2.4569 83.6938 3.66002 84.8406 5.03189 85.6063C9.95064 88.3563 14.7975 91.2313 19.6756 94.0438C20.8881 94.7469 22.1319 95.3906 23.3194 96.1281C23.7475 96.3969 24.3788 96.5344 24.4381 97.2125C19.0319 97.2125 13.6194 97.3156 8.21315 97.2125C4.29127 97.1344 0.96627 93.7531 0.806895 89.85C0.70377 87.7125 0.79127 85.5688 0.81627 83.4375Z" fill="#DEEBF8"/>
    <path d="M84.3984 8.72813C84.6547 9.66563 85.6203 9.7125 86.2453 10.1781C86.8582 10.5877 87.4982 10.9553 88.1609 11.2781C88.6016 11.525 88.8984 11.85 88.8516 12.3938C81.6891 12.4063 74.5266 12.4188 67.3641 12.4313C62.3422 12.4313 57.3234 12.4063 52.3016 12.3938C52.1484 11.65 51.5016 11.4188 50.9578 11.0531C49.8328 10.2938 48.4109 9.95625 47.6172 8.72813C54.2318 8.71354 60.8484 8.7 67.4672 8.6875C73.1109 8.6875 78.7547 8.7125 84.3984 8.72813Z" fill="#DEEBF8"/>
    <path d="M116.531 33.7531C117.416 33.65 117.987 34.3031 118.672 34.6687C119.172 34.9375 119.631 35.2781 120.203 35.3906V59.7656C119.803 59.627 119.412 59.4609 119.034 59.2687C118.234 58.8062 117.503 58.2062 116.534 58.1281L116.531 33.7531Z" fill="#DEEBF8"/>
    <path d="M2.53906 11.6975C3.16428 10.7993 3.9949 10.0633 4.96184 9.55077C5.92879 9.03822 7.00413 8.76391 8.09844 8.75066C13.8516 8.65378 19.6047 8.73191 25.3578 8.75066C25.3578 9.22878 25.7453 9.37566 26.0828 9.55379C27.0828 10.1225 28.0859 10.685 29.0641 11.2913C29.4922 11.5569 30.1016 11.7132 30.0453 12.4194C23.1703 12.4194 16.3234 12.4663 9.46094 12.4444C8.21259 12.387 6.97794 12.7249 5.93282 13.41C4.61719 13.1913 3.74219 12.11 2.53906 11.6975Z" fill="#DEEBF8"/>
    <path d="M32.6299 102.188C34.2799 103.478 36.1737 104.375 37.9643 105.422C41.0299 107.228 44.1237 108.984 47.2112 110.756C47.3199 110.797 47.4152 110.867 47.4864 110.958C47.5576 111.05 47.6019 111.16 47.6143 111.275C42.4331 111.275 37.2518 111.338 32.0706 111.294C31.5879 111.301 31.1118 111.181 30.6909 110.944C30.2699 110.708 29.9192 110.364 29.6743 109.948C29.4294 109.532 29.2992 109.059 29.2969 108.576C29.2946 108.093 29.4203 107.618 29.6612 107.2C30.5768 105.491 31.6362 103.856 32.6299 102.188Z" fill="#DEEBF8"/>
    <path d="M30.0469 12.3875C30.1031 11.6812 29.4937 11.525 29.0656 11.2594C28.0875 10.6531 27.0844 10.0906 26.0844 9.52187C25.7469 9.33125 25.3687 9.20938 25.3594 8.71875H47.6187C48.4125 9.94687 49.8344 10.2813 50.9594 11.0438C51.5031 11.4094 52.15 11.6406 52.3031 12.3844L30.0469 12.3875Z" fill="#DEEBF8"/>
    <path d="M2.53576 11.6953C3.73888 12.1078 4.61389 13.1891 5.92951 13.3797C4.83889 14.5078 4.46701 15.8516 4.48264 17.4141C4.52951 21.9266 4.48264 26.4359 4.46389 30.9453C3.89514 30.8297 3.43576 30.4891 2.93576 30.2234C2.25138 29.8578 1.68576 29.2047 0.792014 29.3078C0.792014 24.9328 0.732639 20.5328 0.792014 16.1453C0.795081 14.4959 1.4174 12.9077 2.53576 11.6953Z" fill="#DEEBF8"/>
    <path d="M0.796875 29.3078C1.68437 29.2047 2.25625 29.8578 2.94062 30.2234C3.44062 30.489 3.9 30.8297 4.46875 30.9453V47.3484C4.07045 47.2055 3.68119 47.0385 3.30312 46.8484C2.50312 46.3859 1.77187 45.7859 0.803122 45.7078L0.796875 29.3078Z" fill="#DEEBF8"/>
    <path d="M0.8125 45.7109C1.78437 45.7891 2.51562 46.3891 3.3125 46.8516C3.69057 47.0417 4.07983 47.2086 4.47813 47.3516V61.4141C3.99063 61.4453 3.62813 61.1703 3.22813 60.9547C2.44063 60.5328 1.75 59.8953 0.815628 59.7734L0.8125 45.7109Z" fill="#DEEBF8"/>
    <path d="M120.205 84.8359C119.111 84.7797 118.405 83.8984 117.461 83.5203C117.148 83.3953 116.889 83.1609 116.523 83.2078V69.8516C116.914 70.0141 117.308 70.1641 117.695 70.3391C118.539 70.6984 119.189 71.4828 120.195 71.4922L120.205 84.8359Z" fill="#DEEBF8"/>
    <path d="M120.203 71.4812C119.197 71.4812 118.547 70.6875 117.703 70.3281C117.316 70.1625 116.922 70.0156 116.531 69.8406V58.125C117.503 58.2031 118.234 58.8031 119.031 59.2656C119.409 59.4579 119.799 59.6239 120.2 59.7625L120.203 71.4812Z" fill="#DEEBF8"/>
    <path d="M0.815624 59.7656C1.75312 59.8875 2.44062 60.525 3.22812 60.9469C3.63437 61.1625 3.99687 61.4375 4.47812 61.4062V71.95C4.04868 71.9492 3.63222 71.8026 3.29688 71.5344C2.52474 71.0115 1.68325 70.5991 0.796875 70.3094L0.815624 59.7656Z" fill="#DEEBF8"/>
    <path d="M0.8125 70.3125C1.69887 70.6023 2.54036 71.0146 3.3125 71.5375C3.64785 71.8058 4.0643 71.9523 4.49375 71.9531V78.9812C3.4875 78.9812 2.84062 78.1875 1.99375 77.8281C1.60312 77.6625 1.2125 77.5156 0.821875 77.3406L0.8125 70.3125Z" fill="#DEEBF8"/>
    <path d="M4.46534 78.9797V30.9391C4.48097 26.4297 4.53097 21.9203 4.48409 17.4078C4.46847 15.8453 4.84034 14.5016 5.93097 13.3734C6.97609 12.6883 8.21074 12.3504 9.4591 12.4078C16.3341 12.4297 23.181 12.4078 30.0435 12.3828H52.2997C57.3216 12.3828 62.3404 12.4234 67.3622 12.4203C74.5247 12.4203 81.6872 12.4078 88.8497 12.3828C96.5747 12.3953 104.302 12.4099 112.031 12.4266C114.315 12.4266 115.934 13.6766 116.406 15.7328C116.493 16.231 116.526 16.7369 116.506 17.2422C116.525 22.7464 116.539 28.2495 116.55 33.7516V69.8422V83.1984C116.156 83.5891 115.662 83.3922 115.218 83.3922C108.389 83.4234 101.56 83.4432 94.731 83.4516H14.1122C11.3935 83.4359 8.67472 83.3641 5.95909 83.4297C4.84034 83.4578 4.33097 83.2547 4.47785 82.0016C4.5966 81.0109 4.47784 80.0016 4.46534 78.9797ZM68.4841 43.8422C71.7403 42.0859 74.9445 40.2359 78.0966 38.2922C81.8216 36.2484 85.5122 34.1453 89.1278 31.9109C90.7091 31.0266 92.2872 30.1297 93.8778 29.2609C95.3091 28.4797 96.631 27.5016 98.1685 26.9172L98.2404 26.9859C98.1779 27.8953 97.7185 28.6891 97.481 29.5516C97.1685 30.7203 97.5497 31.7078 98.5247 32.0672C99.581 32.4547 100.6 31.9578 101.025 30.7609C101.903 28.2609 102.765 25.7609 103.584 23.2359C104.018 21.8891 103.45 20.9203 102.062 20.6234C99.4726 20.0672 96.8758 19.5464 94.2716 19.0609C93.0904 18.8359 92.1435 19.4391 91.9185 20.4547C91.681 21.5422 92.3247 22.4672 93.5466 22.7484C94.4403 22.9516 95.3466 23.1141 96.5466 23.3578C95.5247 23.9609 94.7403 24.4297 93.9528 24.8922L85.6935 29.7203L75.2622 35.7109L65.4028 41.4391C62.4997 43.0922 59.581 44.7203 56.6966 46.4078C56.4811 46.5247 56.2913 46.6837 56.1383 46.8753C55.9854 47.0669 55.8725 47.2873 55.8064 47.5234C55.7402 47.7594 55.7221 48.0064 55.7532 48.2495C55.7843 48.4927 55.8638 48.7272 55.9872 48.9391C56.5028 49.8578 57.581 50.1891 58.6153 49.5922C61.9185 47.7016 65.1872 45.7641 68.4841 43.8422ZM35.2028 61.9266C38.856 62.1328 42.5122 62.0547 46.1685 61.9641C47.3185 61.9359 47.9403 61.0828 47.8872 60.0109C47.8341 58.9984 47.1716 58.3047 46.0497 58.3016C40.9497 58.3016 35.8497 58.3172 30.7528 58.3328C28.0278 58.1109 25.2997 58.2203 22.5747 58.2766C22.3284 58.278 22.085 58.3291 21.8588 58.4267C21.6327 58.5243 21.4285 58.6664 21.2585 58.8446C21.0885 59.0228 20.9561 59.2334 20.8692 59.4638C20.7823 59.6943 20.7428 59.9399 20.7528 60.1859C20.7748 60.6814 20.9892 61.1487 21.3505 61.4884C21.7118 61.8281 22.1914 62.0133 22.6872 62.0047C24.4028 62.0609 26.1247 62.0484 27.8403 62.0047C30.2935 61.9828 32.7497 62.1516 35.2028 61.9266ZM33.556 75.2578C29.9716 75.2422 26.3903 75.2172 22.806 75.2234C21.5966 75.2234 20.806 75.9641 20.7685 77.0203C20.731 78.0766 21.5778 78.9484 22.8153 78.9516C27.8778 78.9516 32.9435 78.9297 38.006 78.9141C40.6528 78.9297 43.2997 78.9703 45.9435 78.9484C47.1497 78.9484 47.8872 78.1609 47.8872 77.0734C47.8872 75.9859 47.1622 75.2297 45.931 75.2266C41.806 75.2172 37.6872 75.2453 33.556 75.2578ZM50.9966 61.6016C50.8091 64.3453 50.9091 67.0953 50.9466 69.8422C50.931 71.3641 50.906 72.8859 50.906 74.4078C50.906 76.1453 51.5747 76.8328 53.2935 76.8391C56.0653 76.8391 58.8372 76.8391 61.6091 76.8391C62.156 76.8391 62.706 76.8609 63.1372 76.4297C63.7997 76.0797 64.006 75.4922 64.0029 74.7922C64.0029 72.6734 63.9779 70.5516 63.9654 68.4328C63.9529 66.3141 64.0185 64.2297 63.9966 62.1266C63.981 60.8453 63.2529 60.1016 61.9341 60.0797C58.9747 60.0391 56.0153 60.0484 53.056 60.0797C52.0403 60.0891 51.231 60.4797 50.9966 61.6016ZM67.2997 53.4391C67.2997 56.4057 67.2997 59.3734 67.2997 62.3422C67.2997 66.5172 67.2529 70.6953 67.2654 74.8703C67.2654 76.1203 67.9779 76.8109 69.2591 76.8266C72.2654 76.8599 75.2716 76.8599 78.2779 76.8266C79.4935 76.8266 80.2185 76.1828 80.281 74.9797C80.4143 73.0346 80.4007 71.0821 80.2403 69.1391C80.4028 66.2518 80.4028 63.3576 80.2403 60.4703C80.3893 58.1064 80.407 55.7361 80.2935 53.3703C80.2654 52.2109 79.4779 51.5672 78.281 51.5609C75.2497 51.5422 72.2174 51.5422 69.1841 51.5609C67.9778 51.5828 67.4247 52.1891 67.2997 53.4391ZM99.8903 68.4391C99.8903 70.5797 99.8404 72.7234 99.8622 74.8641C99.8622 76.0891 100.593 76.8172 101.85 76.8328C104.887 76.8661 107.926 76.8661 110.965 76.8328C111.95 76.8328 112.675 76.3422 112.84 75.2703C113.078 71.6672 112.953 68.0641 112.906 64.4609V51.0984C112.922 46.2203 112.959 41.3422 112.937 36.4641C112.937 35.1984 112.178 34.4797 110.959 34.4672C107.915 34.438 104.871 34.438 101.825 34.4672C100.575 34.4672 99.8778 35.1891 99.8716 36.4578C99.8528 38.9922 99.8716 41.5297 99.8997 44.0672V68.4422L99.8903 68.4391ZM83.6403 44.5266C83.5807 44.6226 83.5384 44.7284 83.5154 44.8391C83.5154 48.9536 83.5279 53.0703 83.5529 57.1891C83.5529 63.0672 83.4997 68.9484 83.5154 74.8266C83.5154 76.0766 84.2841 76.8109 85.4997 76.8266C88.5372 76.8599 91.5747 76.8599 94.6122 76.8266C95.8622 76.8109 96.5747 76.0828 96.581 74.8453C96.581 71.3016 96.5622 67.7578 96.5466 64.2203V51.5641C96.5466 49.3766 96.5966 47.1891 96.581 45.0172C96.581 43.7672 95.8997 43.0172 94.6497 42.9984C91.6091 42.9516 88.5685 42.9578 85.5279 42.9984C84.5622 43.0141 83.781 43.4016 83.6497 44.5234L83.6403 44.5266ZM22.5466 18.3266C18.9803 19.7003 15.9783 22.2313 14.0216 25.5141C11.981 28.5629 10.9933 32.1954 11.2091 35.8578C11.5466 43.4297 15.2372 48.8578 22.006 52.0391C27.531 54.6359 33.106 54.2953 38.481 51.3328C41.6566 49.6859 44.2246 47.0697 45.8122 43.8641C47.1435 41.1203 48.0153 38.2609 47.9528 35.1703C47.9859 34.9793 48.0036 34.786 48.006 34.5922C47.6091 28.5484 45.0653 23.6234 40.056 20.1859C34.606 16.4453 28.7122 15.8359 22.5466 18.3266ZM34.3872 66.7641C30.6018 66.7641 26.8174 66.7641 23.0341 66.7641C21.6216 66.7641 20.781 67.4422 20.756 68.5609C20.731 69.6797 21.6341 70.5016 23.056 70.5016C30.5872 70.5141 38.1185 70.5141 45.6497 70.5016C47.1185 70.5016 47.9216 69.7547 47.8903 68.5391C47.8591 67.3797 47.0935 66.7672 45.6247 66.7641C41.881 66.7557 38.1351 66.7536 34.3872 66.7578V66.7641ZM14.7716 62.0609V61.9859C15.4306 62.0266 16.0916 62.0204 16.7497 61.9672C17.756 61.8203 18.356 61.2016 18.3591 60.1422C18.3622 59.0828 17.7841 58.4297 16.7685 58.3078C15.4548 58.1437 14.1259 58.1437 12.8122 58.3078C12.3758 58.3383 11.9689 58.5393 11.6795 58.8674C11.3901 59.1954 11.2413 59.6241 11.2653 60.0609C11.2403 61.1078 11.7747 61.7734 12.7935 61.9359C13.4498 62.0163 14.1104 62.056 14.7716 62.0547V62.0609ZM14.8435 75.2234C14.2622 75.2234 13.6747 75.1984 13.0935 75.2234C12.0122 75.2797 11.3185 75.9516 11.2622 76.9547C11.206 77.9578 11.8247 78.8297 12.8528 78.9109C14.1718 79.0094 15.4963 79.0094 16.8153 78.9109C17.8247 78.8297 18.4528 77.9172 18.3528 76.9109C18.2528 75.9047 17.6247 75.3078 16.5935 75.2359C16.0153 75.1891 15.4278 75.2203 14.8435 75.2172V75.2234ZM14.8122 66.7859C14.1872 66.7859 13.5622 66.7484 12.9372 66.7859C12.5019 66.785 12.0835 66.9545 11.7716 67.2582C11.4597 67.562 11.2791 67.9757 11.2685 68.4109C11.1716 69.3797 11.581 70.1547 12.5466 70.3547C14.0329 70.6625 15.5665 70.6625 17.0528 70.3547C18.0216 70.1547 18.4341 69.3828 18.3372 68.4141C18.3258 67.9788 18.1451 67.5652 17.8335 67.2611C17.5218 66.9571 17.1039 66.7866 16.6685 66.7859C16.0591 66.7266 15.4341 66.7672 14.8122 66.7672V66.7859Z" fill="#FEFEFD"/>
    <path d="M11.2166 35.8594C11.0009 32.197 11.9886 28.5645 14.0291 25.5156C16.9135 27.1906 19.826 28.8125 22.6604 30.5625C23.6791 31.1875 25.0291 31.4031 25.626 32.6469C24.6385 34.5594 24.5479 36.4312 25.9229 38.2094C27.7541 40.5844 32.051 40.9594 34.0104 36.9844L45.8229 43.8594C44.2379 47.0664 41.6721 49.6848 38.4979 51.3344C35.1812 49.4031 31.8635 47.4708 28.5447 45.5375C24.1479 42.9937 19.7666 40.4219 15.3291 37.9469C13.9854 37.2031 12.8229 36.0844 11.2166 35.8594Z" fill="#347BFA"/>
    <path d="M25.6203 32.6469C25.0234 31.3969 23.6734 31.1937 22.6547 30.5625C19.8203 28.8125 16.9078 27.1906 14.0234 25.5156C15.9801 22.2328 18.9821 19.7018 22.5484 18.3281C22.5448 18.4452 22.5717 18.5613 22.6265 18.6648C22.6813 18.7684 22.7621 18.8559 22.8609 18.9187C25.6891 20.5406 28.3891 22.3906 31.3984 23.6875C31.4489 24.305 31.4572 24.9251 31.4234 25.5437C31.2922 26.6062 31.5422 27.2625 32.7234 27.5125C33.4085 27.6653 34.0334 28.0163 34.5203 28.5219C35.4266 29.5031 36.2797 29.5125 37.2641 28.75C37.4016 29.6875 38.2766 29.8156 38.8922 30.2188C39.3641 30.5313 39.9859 30.65 40.1047 31.3375C39.6211 31.6654 39.117 31.9618 38.5953 32.225C37.7984 32.5719 37.6422 33.0781 37.8578 33.8906C38.1006 34.8804 38.0899 35.9155 37.8266 36.9C37.6922 37.4312 37.6984 37.8375 38.2922 38.15C39.7016 38.9 41.0859 39.7125 42.4516 40.5281C43.0766 40.8969 43.2141 40.65 43.3891 40.0969C44.1151 38 44.3784 35.7708 44.1609 33.5625C44.7078 33.4781 45.1328 33.7906 45.5547 34.0406C46.3141 34.4906 47.0266 35.025 47.9328 35.1625C47.9953 38.2531 47.1234 41.1 45.7922 43.8563L33.9797 36.9813C35.1609 33.2719 32.2016 30.1063 28.6859 30.6875C27.3766 30.9125 26.4766 31.7187 25.6203 32.6469Z" fill="#347BFA"/>
    <path d="M96.5547 64.2156C96.5547 67.7594 96.6016 71.3031 96.5891 74.8406C96.5891 76.0906 95.8734 76.8062 94.6203 76.8219C91.5828 76.8594 88.5453 76.8594 85.5078 76.8219C84.2922 76.8062 83.5266 76.0656 83.5234 74.8219C83.5234 68.9437 83.5453 63.0625 83.5609 57.1844C83.8695 57.1615 84.1785 57.223 84.4547 57.3625C86.488 58.5562 88.5297 59.7385 90.5797 60.9094C92.5578 62.0437 94.4391 63.3437 96.5547 64.2156Z" fill="#347BFA"/>
    <path d="M11.2188 35.8594C12.825 36.0844 13.9875 37.2031 15.3219 37.9469C19.7594 40.4219 24.1406 42.9937 28.5375 45.5375C31.8583 47.4625 35.176 49.3948 38.4906 51.3344C33.1156 54.2969 27.5531 54.6375 22.0156 52.0406C15.2469 48.8594 11.5563 43.4344 11.2188 35.8594Z" fill="#347BFA"/>
    <path d="M112.897 51.0969V64.45C112.588 64.4744 112.279 64.4161 112 64.2813C109.934 63.0625 107.866 61.8438 105.778 60.6656C103.825 59.5656 101.975 58.2813 99.8906 57.4219V44.0625C102.934 45.5094 105.716 47.4219 108.684 49C110.069 49.7406 111.25 50.8875 112.897 51.0969Z" fill="#347BFA"/>
    <path d="M112.898 51.0969C111.251 50.8875 110.086 49.7406 108.686 49.0063C105.717 47.4281 102.936 45.5156 99.8919 44.0688C99.8919 41.5313 99.8451 38.9937 99.8638 36.4594C99.8638 35.1906 100.561 34.4812 101.817 34.4688C104.861 34.4375 107.905 34.4375 110.951 34.4688C112.17 34.4688 112.926 35.2 112.929 36.4656C112.951 41.3406 112.914 46.2188 112.898 51.0969Z" fill="#347BFA"/>
    <path d="M96.5547 64.2187C94.4391 63.3469 92.5578 62.0469 90.5797 60.9187C88.5297 59.7479 86.488 58.5656 84.4547 57.3719C84.1785 57.2324 83.8695 57.1708 83.5609 57.1938C83.5484 53.075 83.5359 48.9583 83.5234 44.8437C83.5465 44.7331 83.5888 44.6273 83.6484 44.5312C83.9815 44.6288 84.3064 44.7521 84.6203 44.9C87.4109 46.4937 90.1859 48.1281 92.9984 49.7094C94.1672 50.3687 95.2141 51.2719 96.5703 51.5688L96.5547 64.2187Z" fill="#347BFA"/>
    <path d="M80.2406 69.1424C80.401 71.0855 80.4146 73.0379 80.2812 74.9831C80.2187 76.1862 79.4937 76.8174 78.2781 76.8299C75.2719 76.857 72.2656 76.857 69.2594 76.8299C67.9781 76.8143 67.2687 76.1206 67.2656 74.8737C67.2656 70.6987 67.2844 66.5206 67.3 62.3456C67.9656 62.3143 68.4687 62.6955 69.0031 63.0049C72.2062 64.8799 75.4094 66.7362 78.6219 68.5831C79.1156 68.8643 79.6156 69.2049 80.2406 69.1424Z" fill="#347BFA"/>
    <path d="M99.8906 57.4219C101.975 58.2812 103.825 59.5656 105.778 60.6656C107.866 61.8438 109.934 63.0625 112 64.2813C112.279 64.4161 112.588 64.4744 112.897 64.45C112.944 68.0531 113.069 71.6562 112.831 75.2594C112.403 75.247 111.987 75.1196 111.625 74.8906C108.859 73.275 106.112 71.6188 103.306 70.0719C102.206 69.4656 101.228 68.5562 99.8906 68.4344V57.4219Z" fill="#347BFA"/>
    <path d="M47.9581 35.1687C47.0519 35.0312 46.3394 34.4969 45.58 34.0469C45.1581 33.7969 44.7331 33.4844 44.1863 33.5687C44.0091 32.5383 43.7649 31.5205 43.455 30.5219C43.23 29.85 43.0019 29.6344 42.3394 30.0719C41.6769 30.5094 40.8613 30.9187 40.1175 31.3219C39.9988 30.6344 39.3769 30.5125 38.905 30.2031C38.28 29.8 37.4144 29.6719 37.2769 28.7344C38.3144 28.1094 39.3331 27.4844 40.4019 26.8937C41.0675 26.5344 41.2175 26.2687 40.6394 25.625C38.7152 23.446 36.1964 21.8766 33.3925 21.1094C31.4675 20.5875 31.4675 20.6 31.4581 22.6219C31.4581 22.9719 31.4331 23.3219 31.4206 23.6719C28.4113 22.375 25.7113 20.525 22.8831 18.9031C22.7843 18.8403 22.7035 18.7527 22.6487 18.6492C22.5939 18.5456 22.567 18.4296 22.5706 18.3125C28.7363 15.8125 34.63 16.4375 40.0706 20.1875C45.0706 23.625 47.6238 28.55 48.0206 34.5937C48.015 34.7868 47.9941 34.979 47.9581 35.1687Z" fill="#347BFA"/>
    <path d="M85.6953 29.7188L93.9391 24.8782C94.7266 24.4157 95.5016 23.9407 96.5328 23.3438C95.3328 23.1001 94.4266 22.9376 93.5328 22.7344C92.3109 22.4532 91.6578 21.5282 91.9047 20.4407C92.1297 19.4251 93.0766 18.8219 94.2578 19.0469C96.862 19.5428 99.4589 20.0636 102.048 20.6094C103.436 20.9063 104.005 21.8594 103.57 23.2219C102.752 25.7407 101.889 28.2501 101.011 30.7469C100.592 31.9438 99.5734 32.4407 98.5109 32.0532C97.5359 31.6938 97.1422 30.7063 97.4672 29.5376C97.7047 28.6751 98.1641 27.8813 98.2266 26.9719L98.3547 26.8532C98.2578 26.7313 98.1984 26.7876 98.1547 26.9032C96.6172 27.4876 95.2953 28.4657 93.8641 29.2469C92.2734 30.1157 90.6953 31.0126 89.1141 31.897L85.6953 29.7188Z" fill="#347BFA"/>
    <path d="M80.2375 69.1406C79.6125 69.2031 79.1125 68.8625 78.6187 68.5781C75.4062 66.7312 72.2031 64.8625 69 63C68.4656 62.6875 67.9625 62.3094 67.2969 62.3406C67.2969 59.3719 67.2969 56.4042 67.2969 53.4375C70.3312 54.6656 72.9656 56.6219 75.8469 58.125C77.3156 58.8938 78.6187 59.975 80.2219 60.4688C80.3897 63.3568 80.3949 66.252 80.2375 69.1406Z" fill="#347BFA"/>
    <path d="M63.9619 68.4359C63.9619 70.5547 63.9932 72.6766 63.9994 74.7953C63.9994 75.4891 63.7963 76.0828 63.1338 76.4328C59.8869 74.5359 56.6432 72.6328 53.3869 70.7516C52.6307 70.3141 51.9432 69.6453 50.9432 69.8422C50.9057 67.0953 50.8057 64.3453 50.9932 61.6016C51.4115 61.6837 51.8193 61.8127 52.2088 61.9859C54.7276 63.4297 57.2088 64.9609 59.7463 66.3609C61.1213 67.0953 62.3244 68.2109 63.9619 68.4359Z" fill="#347BFA"/>
    <path d="M34.385 66.7531C38.135 66.7531 41.885 66.7531 45.635 66.7531C47.1038 66.7531 47.8694 67.3781 47.9006 68.5281C47.9319 69.7437 47.1288 70.4875 45.66 70.4906C38.1288 70.5031 30.5975 70.5031 23.0663 70.4906C21.6444 70.4906 20.7381 69.6937 20.7663 68.55C20.7944 67.4062 21.6319 66.7562 23.0444 66.7531C26.8215 66.749 30.6017 66.749 34.385 66.7531Z" fill="#347BFA"/>
    <path d="M80.2375 60.4719C78.6187 59.9781 77.3156 58.9094 75.8625 58.1281C72.9812 56.6219 70.3469 54.6656 67.3125 53.4406C67.4375 52.175 67.9906 51.5812 69.1875 51.5656C72.2188 51.5406 75.251 51.5406 78.2844 51.5656C79.4812 51.5656 80.2687 52.2156 80.2969 53.375C80.4082 55.7399 80.3884 58.1092 80.2375 60.4719Z" fill="#347BFA"/>
    <path d="M96.5547 51.5594C95.1984 51.2469 94.1516 50.3594 92.9828 49.7C90.1703 48.1188 87.4109 46.4844 84.6203 44.8844C84.3064 44.7365 83.9815 44.6132 83.6484 44.5157C83.7797 43.3938 84.5859 43.0063 85.5234 42.9938C88.5641 42.9532 91.6047 42.9469 94.6453 42.9938C95.8953 43.0125 96.5703 43.7594 96.5766 45.0125C96.6047 47.2 96.5703 49.3719 96.5547 51.5594Z" fill="#347BFA"/>
    <path d="M63.9688 68.4372C62.3313 68.2154 61.125 67.0997 59.7531 66.3529C57.2063 64.9622 54.7344 63.431 52.2156 61.9779C51.8261 61.8046 51.4183 61.6757 51 61.5935C51.2344 60.4716 52.0437 60.081 53.0594 60.0716C56.0187 60.0435 58.9781 60.0341 61.9375 60.0716C63.2563 60.0935 63.9844 60.8372 64 62.1185C64.0219 64.231 63.9813 66.331 63.9688 68.4372Z" fill="#347BFA"/>
    <path d="M99.8917 68.4375C101.229 68.5594 102.207 69.4687 103.307 70.075C106.12 71.6219 108.86 73.2781 111.626 74.8938C111.988 75.1227 112.404 75.2501 112.832 75.2625C112.676 76.3375 111.951 76.825 110.957 76.825C107.92 76.8625 104.881 76.8625 101.842 76.825C100.592 76.8094 99.8667 76.0813 99.8542 74.8563C99.8417 72.7188 99.8761 70.575 99.8917 68.4375Z" fill="#347BFA"/>
    <path d="M37.9967 78.9094C32.9342 78.925 27.8686 78.9531 22.8061 78.9469C21.5561 78.9469 20.7186 78.0875 20.7592 77.0156C20.7999 75.9437 21.5873 75.2188 22.7967 75.2188C26.3811 75.2188 29.9624 75.2375 33.5467 75.2531C33.5936 75.8 34.0061 76.0156 34.4217 76.25C35.3999 76.8031 36.3561 77.3969 37.3405 77.9344C37.7624 78.1594 38.0592 78.4 37.9967 78.9094Z" fill="#347BFA"/>
    <path d="M30.75 58.3312C35.8469 58.3156 40.9469 58.2875 46.0469 58.3C47.1688 58.3 47.8313 58.9969 47.8844 60.0094C47.9375 61.0812 47.3156 61.9344 46.1656 61.9625C42.5094 62.0531 38.8531 62.1312 35.2 61.925C35.0437 60.8906 34.0625 60.7531 33.3969 60.2719C32.5094 59.6281 31.2969 59.4375 30.75 58.3312Z" fill="#347BFA"/>
    <path d="M50.9469 69.8401C51.9469 69.6432 52.6344 70.312 53.3906 70.7495C56.6469 72.6245 59.8906 74.5338 63.1375 76.4307C62.7063 76.862 62.1562 76.8401 61.6094 76.8401C58.8375 76.8401 56.0656 76.8401 53.2938 76.8401C51.575 76.8401 50.9063 76.1463 50.9063 74.4088C50.9062 72.8838 50.9313 71.362 50.9469 69.8401Z" fill="#347BFA"/>
    <path d="M30.7515 58.3287C31.2984 59.4349 32.5109 59.6255 33.3984 60.2693C34.064 60.7505 35.0453 60.8943 35.2015 61.9224C32.7484 62.1474 30.2922 61.9786 27.839 62.0161C26.1203 62.0443 24.4015 62.0568 22.6859 62.0161C22.1901 62.0248 21.7105 61.8395 21.3492 61.4998C20.9879 61.1601 20.7734 60.6928 20.7515 60.1974C20.7415 59.9513 20.781 59.7057 20.8679 59.4753C20.9548 59.2448 21.0872 59.0342 21.2572 58.856C21.4272 58.6778 21.6314 58.5357 21.8575 58.4381C22.0837 58.3405 22.3271 58.2895 22.5734 58.288C25.2984 58.2162 28.0265 58.1224 30.7515 58.3287Z" fill="#347BFA"/>
    <path d="M85.6937 29.7188L89.1312 31.9062C85.5156 34.1406 81.825 36.2437 78.1 38.2875C78.0625 37.6625 77.5531 37.4406 77.1156 37.1219C76.4906 36.6625 75.5688 36.5812 75.2656 35.7062L85.6937 29.7188Z" fill="#347BFA"/>
    <path d="M68.4878 43.8406C65.2003 45.7625 61.9253 47.7 58.6191 49.5906C57.5847 50.1812 56.5066 49.8562 55.991 48.9375C55.8676 48.7256 55.788 48.4912 55.7569 48.248C55.7259 48.0048 55.744 47.7579 55.8101 47.5218C55.8763 47.2857 55.9892 47.0654 56.1421 46.8737C56.295 46.6821 56.4848 46.5231 56.7003 46.4062C59.5847 44.7187 62.5035 43.0906 65.4066 41.4375C65.413 41.6316 65.4814 41.8185 65.6018 41.9708C65.7221 42.1232 65.8881 42.2331 66.0753 42.2844C66.938 42.7063 67.7478 43.2286 68.4878 43.8406Z" fill="#347BFA"/>
    <path d="M37.9969 78.91C38.0531 78.4007 37.7562 78.16 37.3406 77.935C36.3562 77.3975 35.4 76.8038 34.4219 76.2507C34.0062 76.0163 33.5937 75.8007 33.5469 75.2538C37.6719 75.2538 41.7969 75.2132 45.9219 75.2194C47.1531 75.2194 47.8781 75.96 47.8781 77.0663C47.8781 78.1725 47.1406 78.9413 45.9344 78.9413C43.3094 78.9663 40.65 78.9257 37.9969 78.91Z" fill="#347BFA"/>
    <path d="M68.4875 43.8406C67.7478 43.2265 66.938 42.702 66.075 42.2781C65.8877 42.2269 65.7218 42.117 65.6014 41.9646C65.4811 41.8122 65.4127 41.6253 65.4062 41.4313L75.2656 35.7031C75.5781 36.5781 76.4906 36.6594 77.1156 37.1187C77.5531 37.4312 78.0531 37.6469 78.1 38.2844C74.9479 40.226 71.7437 42.0781 68.4875 43.8406Z" fill="#347BFA"/>
    <path d="M14.7744 62.0559C14.1134 62.0603 13.4527 62.0238 12.7963 61.9465C11.7775 61.7746 11.2338 61.109 11.2681 60.0715C11.2441 59.6347 11.3929 59.2059 11.6823 58.8779C11.9717 58.5499 12.3786 58.3489 12.815 58.3184C14.1287 58.1543 15.4576 58.1543 16.7713 58.3184C17.7869 58.4402 18.365 59.0996 18.3619 60.1527C18.3588 61.2059 17.7588 61.8309 16.7525 61.9777C16.0944 62.0309 15.4334 62.0372 14.7744 61.9965V62.0559Z" fill="#347BFA"/>
    <path d="M14.8422 75.2207C15.4266 75.2207 16.0141 75.1895 16.5922 75.2207C17.6235 75.2926 18.2454 75.8457 18.3516 76.8957C18.4579 77.9457 17.8235 78.8145 16.8141 78.8957C15.4951 78.9942 14.1706 78.9942 12.8516 78.8957C11.8235 78.8207 11.2079 77.9582 11.261 76.9395C11.3141 75.9207 12.011 75.2645 13.0922 75.2082C13.6735 75.1926 14.2485 75.2176 14.8422 75.2207Z" fill="#347BFA"/>
    <path d="M14.8124 66.7681C15.4374 66.7681 16.0624 66.7274 16.6874 66.7681C17.1228 66.7687 17.5407 66.9392 17.8524 67.2433C18.164 67.5473 18.3447 67.9609 18.3561 68.3962C18.453 69.3649 18.0436 70.1368 17.0718 70.3368C15.5854 70.6447 14.0518 70.6447 12.5655 70.3368C11.5967 70.1368 11.1905 69.3618 11.2874 68.3931C11.298 67.9578 11.4786 67.5441 11.7905 67.2404C12.1024 66.9366 12.5208 66.7671 12.9561 66.7681C13.5655 66.7306 14.1905 66.7681 14.8124 66.7681Z" fill="#347BFA"/>
    <path d="M25.622 32.653C26.4783 31.7155 27.3908 30.9186 28.7126 30.6968C32.2283 30.103 35.1876 33.2811 34.0064 36.9905C32.047 40.9655 27.7564 40.5905 25.9189 38.2155C24.5439 36.4374 24.6345 34.5655 25.622 32.653Z" fill="#DEEBF8"/>
    <path d="M40.118 31.3377C40.8618 30.9221 41.6337 30.5439 42.3399 30.0877C43.0462 29.6314 43.2305 29.8658 43.4555 30.5377C43.7654 31.5363 44.0097 32.5541 44.1868 33.5846C44.4042 35.7929 44.1409 38.0221 43.4149 40.1189C43.2274 40.6721 43.0774 40.9189 42.4774 40.5502C41.1118 39.7221 39.7274 38.9221 38.318 38.1721C37.7243 37.8596 37.718 37.4439 37.8524 36.9221C38.1157 35.9375 38.1265 34.9025 37.8837 33.9127C37.668 33.1002 37.8243 32.5939 38.6212 32.2471C39.1391 31.9764 39.6391 31.6726 40.118 31.3377Z" fill="#DEEBF8"/>
    <path d="M31.4065 23.6876C31.4065 23.3376 31.444 22.9876 31.444 22.6376C31.444 20.6157 31.444 20.6032 33.3784 21.1251C36.1808 21.8888 38.6994 23.4538 40.6253 25.6282C41.2034 26.2532 41.0534 26.5376 40.3878 26.8969C39.3284 27.4751 38.3096 28.1219 37.2628 28.7376C36.2784 29.5001 35.4253 29.4907 34.519 28.5094C34.0321 28.0039 33.4072 27.6528 32.7221 27.5001C31.5409 27.2501 31.2909 26.5938 31.4221 25.5313C31.4585 24.9171 31.4533 24.3011 31.4065 23.6876Z" fill="#DEEBF8"/>
    <path d="M98.1719 26.9152C98.2156 26.7996 98.275 26.7434 98.3719 26.8652L98.2438 26.984L98.1719 26.9152Z" fill="#FEFEFD"/>
  </g>
  <defs>
    <clipPath id="clip0_3361_9609">
      <rect width="120" height="120" fill="white" transform="translate(0.5)"/>
    </clipPath>
  </defs>
</svg>