<svg width="30" height="30" viewBox="0 0 30 30" fill="none" xmlns="http://www.w3.org/2000/svg">
<g id="asana-svgrepo-com 1">
<path id="Vector" d="M21.1152 8.12068C21.1152 11.4985 18.3768 14.236 14.9999 14.236C11.623 14.236 8.8846 11.4976 8.8846 8.12068C8.8846 4.74287 11.623 2.00537 14.9999 2.00537C18.3777 2.00537 21.1152 4.74287 21.1152 8.12068ZM7.05647 15.7651C3.67866 15.7651 0.941162 18.5035 0.941162 21.8804C0.941162 25.2572 3.6796 27.9957 7.05647 27.9957C10.4343 27.9957 13.1718 25.2572 13.1718 21.8804C13.1708 18.5035 10.4333 15.766 7.05647 15.7651ZM22.9433 15.7651C19.5655 15.7651 16.828 18.5035 16.828 21.8804C16.828 25.2572 19.5665 27.9957 22.9433 27.9957C26.3212 27.9957 29.0587 25.2572 29.0587 21.8804C29.0587 18.5026 26.3212 15.7651 22.9433 15.7651Z" fill="white"/>
</g>
</svg>
