<svg xmlns="http://www.w3.org/2000/svg" width="192" height="192" viewBox="0 0 192 192" fill="none">
  <path d="M172.14 99.5043C147.665 87.7414 125.949 91.2394 105.932 110.263C105.932 106.202 105.822 102.616 105.932 99.0519C106.032 96.845 105.557 95.8519 103.052 95.9512C98.2413 96.1498 93.4081 96.0836 88.5859 95.9512C86.6328 95.9512 85.9818 96.4808 86.0038 98.5002C86.0811 110.075 86.1363 121.673 86.0038 133.226C86.0038 136.669 88.2108 135.301 89.8549 135.753C91.0908 136.106 93.7612 134.252 93.3308 137.43C93.066 139.461 94.0812 142.418 89.8439 142.396C60.9001 142.23 31.9563 142.286 3.02348 142.396C0.728274 142.396 0 141.822 0 139.45C0.0809206 101.689 0.0809206 63.9287 0 26.1682C0 23.7958 0.717263 23.2109 3.01246 23.2109C52.0724 23.2771 101.136 23.2771 150.203 23.2109C154.772 23.2109 154.065 27.0951 155.842 29.1034C157.619 31.1117 155.323 32.0276 154.319 33.0538C149.21 38.2842 144.002 43.3933 138.871 48.5906C137.547 49.9258 136.399 51.1616 134.28 50.014C133.526 49.6389 132.654 49.5755 131.853 49.8375C126.644 51.9672 125.111 47.1119 122.253 44.8388C121.149 43.934 122.043 42.8415 122.253 41.8043C122.652 39.8312 122.436 37.7831 121.635 35.9363C120.834 34.0895 119.486 32.5327 117.773 31.4759C116.223 30.4155 114.386 29.8545 112.508 29.8683C110.63 29.8821 108.802 30.47 107.268 31.5531C103.582 33.9918 101.872 37.556 102.964 41.8815C103.219 42.6396 103.229 43.4585 102.994 44.2227C102.758 44.9869 102.288 45.6579 101.651 46.1409C97.4136 50.2825 93.2205 54.4683 89.0715 58.6983C88.595 59.3407 87.9268 59.8151 87.1632 60.0531C86.3997 60.2911 85.5802 60.2804 84.8231 60.0225C82.7267 59.5178 80.5214 59.7344 78.5633 60.6374C76.6052 61.5404 75.0086 63.077 74.0313 64.999C73.0793 66.8727 72.7462 69.0001 73.08 71.075C73.4138 73.15 74.3973 75.0656 75.8889 76.5461C77.3804 78.0266 79.3033 78.9958 81.3806 79.3142C83.458 79.6326 85.5829 79.2837 87.4494 78.3178C89.3658 77.3319 90.8927 75.7271 91.7821 73.764C92.6715 71.8009 92.8712 69.5948 92.3488 67.5039C91.8081 65.4405 92.5363 64.4804 93.7501 63.2776C97.9764 59.1176 102.192 54.9465 106.319 50.6982C107.588 49.3851 108.724 48.5795 110.589 49.5175C111.346 49.8825 112.214 49.9456 113.017 49.694C118.17 47.6306 119.803 52.3203 122.65 54.6376C123.753 55.5534 122.915 56.6238 122.716 57.661C122.297 59.6292 122.496 61.6788 123.286 63.5296C124.076 65.3803 125.419 66.9418 127.13 68.0005C128.679 69.0599 130.511 69.6267 132.388 69.6267C134.264 69.6267 136.097 69.0599 137.646 68.0005C139.388 66.9786 140.757 65.4252 141.551 63.5683C142.345 61.7114 142.524 59.6488 142.06 57.6831C141.662 55.9948 141.729 54.9465 142.998 53.6996C148.611 48.2117 154.161 42.6539 159.649 37.0263C161.083 35.5587 162.264 35.2939 163.842 36.5959C164.353 37.0697 164.988 37.3875 165.674 37.5118C172.537 38.1518 172.295 42.7863 172.217 48.0278C171.953 63.7301 172.118 79.4434 172.118 95.1567L172.14 99.5043ZM59.587 109.016C59.587 116.994 59.6532 124.972 59.587 132.95C59.587 135.069 60.1056 135.83 62.3236 135.753C67.1347 135.588 71.9568 135.599 76.7679 135.753C78.9748 135.819 79.5376 135.135 79.5265 132.972C79.4383 117.156 79.4383 101.34 79.5265 85.5234C79.5265 83.4048 79.0189 82.6324 76.7899 82.7096C72.1113 82.8752 67.4326 82.9193 62.7649 82.7096C60.1828 82.5993 59.5207 83.3827 59.5759 85.9207C59.7194 93.6228 59.587 101.325 59.587 109.016ZM26.4831 119.587C26.4831 114.776 26.4059 109.965 26.4831 105.165C26.5383 103.212 25.9534 102.528 23.9562 102.583C19.0126 102.715 14.025 102.704 9.11461 102.583C7.13941 102.583 6.54354 103.168 6.56561 105.143C6.65389 114.493 6.65389 123.836 6.56561 133.171C6.56561 135.113 7.09526 135.797 9.10356 135.742C14.0471 135.617 18.9906 135.617 23.9341 135.742C25.9203 135.797 26.5383 135.157 26.4831 133.182C26.4831 128.658 26.4831 124.123 26.4831 119.587ZM33.1039 122.247C33.1039 125.954 33.1811 129.662 33.1039 133.37C33.0487 135.135 33.5784 135.775 35.4211 135.742C40.4971 135.632 45.584 135.643 50.66 135.742C52.4365 135.742 53.0434 135.223 53.0213 133.414C52.9331 126.131 52.9331 118.852 53.0213 111.576C53.0213 109.811 52.5469 109.171 50.7041 109.204C45.6282 109.314 40.5412 109.303 35.4653 109.204C33.6887 109.204 33.0487 109.722 33.1149 111.543C33.2363 115.107 33.1039 118.682 33.1039 122.247ZM43.3109 29.7986C36.4363 29.7986 29.5618 29.92 22.6982 29.7324C20.1492 29.7324 19.7078 30.7034 19.8844 32.8662C20.0278 34.7311 19.4209 36.5297 22.621 36.4856C36.2267 36.309 49.8324 36.3421 63.4491 36.4856C65.987 36.4856 66.4505 35.5256 66.2739 33.3628C66.1195 31.4979 66.7484 29.611 63.5263 29.7324C56.7842 30.0193 50.042 29.7986 43.3109 29.7986ZM43.035 49.6609C49.7772 49.6609 56.5083 49.5064 63.2394 49.7271C65.9539 49.8154 66.4284 48.8002 66.3291 46.4167C66.2519 44.3091 66.3291 42.9298 63.3939 42.9629C49.917 43.1395 36.4473 43.1395 22.9851 42.9629C20.2706 42.9629 19.7961 43.8898 19.8954 46.2733C19.9727 48.3919 19.8954 49.8375 22.8417 49.7382C29.5176 49.5175 36.2598 49.6609 43.035 49.6609ZM43.035 56.2817C36.3039 56.2817 29.5618 56.4472 22.8417 56.2155C19.9506 56.1052 19.8844 57.4293 19.8513 59.6252C19.8182 61.8211 20.1161 63.0018 22.8968 62.9356C36.3591 62.7811 49.825 62.7811 63.2946 62.9356C66.1746 62.9356 66.2519 61.7107 66.285 59.5148C66.3181 57.3189 66.0312 56.072 63.2394 56.2045C56.5083 56.4582 49.7772 56.2817 43.035 56.2817ZM42.8585 76.144C49.733 76.144 56.6076 76.0226 63.4711 76.2102C66.0753 76.2764 66.3953 75.1068 66.2629 73.0433C66.1415 71.1343 66.6491 69.4019 63.4711 69.446C49.8765 69.6446 36.2708 69.6005 22.643 69.446C20.0389 69.446 19.7189 70.5495 19.8513 72.6129C19.9837 74.5109 19.454 76.3206 22.643 76.1992C29.3852 75.9675 36.1273 76.144 42.8585 76.144ZM10.0194 29.909C7.2718 29.2579 6.58767 30.4497 6.58767 33.109C6.58767 35.7683 7.23871 36.5739 9.89806 36.5408C12.5574 36.5077 13.396 35.8897 13.3298 33.1642C13.3298 30.6262 12.8664 29.2248 10.0194 29.92V29.909ZM9.64425 49.6609C12.0277 50.0471 13.6719 49.8485 13.374 46.6926C13.1643 44.4857 13.4512 42.7091 10.2512 43.0402C8.04425 43.2608 6.24559 42.9629 6.60973 46.1629C6.85249 48.2264 6.38904 50.4554 9.64425 49.6609ZM13.1533 59.5259C14.1354 56.7783 12.6898 56.2817 10.0636 56.2707C7.43733 56.2596 6.49938 56.7672 6.57663 59.581C6.65387 62.108 7.09525 63.1784 9.88701 63.057C12.3698 62.9025 13.9478 62.6376 13.1533 59.4817V59.5259ZM13.1533 72.7674C14.1354 70.0198 12.6898 69.5343 10.0636 69.5122C7.43733 69.4901 6.48835 70.0088 6.57663 72.8226C6.65387 75.3495 7.09525 76.4199 9.88701 76.2985C12.3698 76.144 13.9478 75.8682 13.1533 72.7123V72.7674Z" fill="#DEEBF8"/>
  <path d="M145.202 191.999C130.857 191.58 118.62 185.742 109.152 174.178C107.541 172.214 107.398 171.166 109.914 169.996C112.639 168.716 115.045 166.222 117.836 165.759C121.059 165.229 122.25 169.235 124.457 171.044C138.449 182.355 158.113 181.064 170.152 167.579C172.226 165.262 173.661 165.063 175.856 166.851C176.538 167.316 177.258 167.722 178.008 168.065C184.574 171.795 184.629 171.85 179.222 177.466C170.063 186.945 158.896 191.679 145.202 191.999Z" fill="#347BFA"/>
  <path d="M142.341 106.28C142.258 107.382 142.258 108.489 142.341 109.591C142.738 112.073 141.58 112.824 139.274 113.309C131.484 114.778 124.488 119.014 119.576 125.236C114.664 131.458 112.168 139.246 112.548 147.163C112.578 150.192 113.181 153.187 114.324 155.991C115.527 158.706 114.71 159.986 112.283 161.067C110.645 161.789 109.091 162.689 107.648 163.749C104.923 165.746 103.621 165.58 102.252 161.994C91.935 134.948 109.447 104.426 137.883 99.9353C141.613 99.3505 142.937 100.024 142.297 103.786C142.244 104.618 142.259 105.452 142.341 106.28Z" fill="#347BFA"/>
  <path d="M191.999 145.657C191.911 151.582 190.771 157.444 188.633 162.971C187.728 165.464 186.68 165.784 184.517 164.284C182.035 162.573 178.669 161.713 176.881 159.517C174.95 157.133 177.731 154.198 178.217 151.473C179.73 143.049 177.905 134.367 173.129 127.265C168.353 120.164 161 115.2 152.627 113.425C149.836 112.851 148.423 112.002 148.942 109.011C149.047 107.778 149.047 106.537 148.942 105.304C148.942 99.1133 148.942 99.1133 155.165 100.371C176.263 104.564 191.844 123.765 191.999 145.657Z" fill="#347BFA"/>
  <path d="M119.173 145.434C119.216 140.201 120.809 135.098 123.751 130.77C126.692 126.442 130.85 123.082 135.699 121.115C140.548 119.147 145.872 118.661 150.997 119.716C156.123 120.772 160.821 123.322 164.498 127.046C168.175 130.769 170.667 135.499 171.658 140.637C172.65 145.775 172.097 151.092 170.069 155.916C168.042 160.741 164.63 164.856 160.265 167.743C155.901 170.63 150.779 172.159 145.546 172.138C142.058 172.123 138.608 171.42 135.394 170.069C132.179 168.718 129.263 166.745 126.812 164.264C124.362 161.783 122.426 158.842 121.115 155.611C119.804 152.38 119.144 148.921 119.173 145.434ZM145.49 125.792C141.566 125.812 137.736 126.994 134.483 129.188C131.229 131.382 128.699 134.491 127.211 138.122C125.723 141.753 125.344 145.744 126.121 149.59C126.899 153.437 128.798 156.966 131.58 159.734C134.362 162.502 137.901 164.384 141.751 165.142C145.601 165.901 149.59 165.502 153.213 163.995C156.837 162.489 159.933 159.943 162.111 156.679C164.29 153.415 165.452 149.579 165.452 145.655C165.432 140.376 163.319 135.321 159.577 131.597C155.835 127.874 150.769 125.787 145.49 125.792Z" fill="#347BFA"/>
  <path d="M175.258 33.1034C171.983 33.0793 168.789 32.0841 166.08 30.2439C163.371 28.4037 161.268 25.8012 160.039 22.7657C158.809 19.7302 158.508 16.3982 159.173 13.1914C159.838 9.98462 161.439 7.04712 163.774 4.75073C166.109 2.45434 169.073 0.902266 172.29 0.290932C175.508 -0.320401 178.834 0.0364905 181.849 1.31644C184.863 2.59638 187.431 4.74185 189.225 7.48132C191.02 10.2208 191.962 13.4311 191.931 16.706C191.89 21.0901 190.112 25.2789 186.986 28.3531C183.86 31.4274 179.642 33.1358 175.258 33.1034Z" fill="#347BFA"/>
  <path d="M92.6855 115.726C92.6855 112.019 92.7849 108.311 92.6855 104.614C92.5862 102.021 94.3739 102.518 95.7311 102.672C97.0884 102.827 99.4167 101.481 99.3063 104.46C99.0194 111.875 100.785 119.577 96.3932 126.529C95.698 127.633 95.7311 129.475 93.8001 129.056C91.7035 128.604 92.818 126.849 92.7628 125.658C92.5862 122.325 92.6855 119.026 92.6855 115.726Z" fill="#347BFA"/>
  <path d="M115.862 39.5349C115.498 41.7418 114.417 43.0991 112.309 42.9887C111.892 42.9962 111.479 42.9164 111.095 42.7546C110.711 42.5927 110.365 42.3524 110.079 42.049C109.793 41.7457 109.574 41.3859 109.436 40.9929C109.297 40.5998 109.242 40.1821 109.275 39.7666C109.245 39.3167 109.316 38.8658 109.481 38.4461C109.645 38.0264 109.901 37.6482 110.228 37.3384C110.556 37.0286 110.948 36.7949 111.376 36.6539C111.805 36.5129 112.259 36.468 112.706 36.5225C114.682 36.5666 115.487 37.9901 115.862 39.5349Z" fill="#347BFA"/>
  <path d="M132.42 56.2734C134.329 56.5383 135.576 57.5755 135.62 59.4404C135.671 59.8905 135.622 60.3464 135.474 60.7748C135.327 61.2032 135.086 61.5933 134.769 61.9168C134.452 62.2403 134.066 62.489 133.641 62.6447C133.216 62.8004 132.761 62.8593 132.31 62.817C131.893 62.8419 131.476 62.7793 131.085 62.6332C130.693 62.4871 130.337 62.2608 130.039 61.9687C129.741 61.6766 129.507 61.3253 129.352 60.9373C129.198 60.5494 129.127 60.1334 129.143 59.7162C129.11 57.6307 130.434 56.5714 132.42 56.2734Z" fill="#347BFA"/>
  <path d="M86.0723 69.5681C85.7302 71.5543 84.6488 72.8785 82.5412 72.7571C82.1244 72.7631 81.711 72.6819 81.3275 72.5187C80.9439 72.3555 80.5987 72.114 80.3141 71.8095C80.0294 71.5051 79.8114 71.1445 79.6743 70.7509C79.5372 70.3573 79.4838 69.9394 79.5177 69.524C79.4896 69.0728 79.5616 68.621 79.7284 68.2008C79.8953 67.7807 80.153 67.4027 80.483 67.0938C80.813 66.7848 81.2072 66.5526 81.6374 66.4138C82.0677 66.275 82.5232 66.233 82.9716 66.2908C84.8805 66.3791 85.8295 67.6922 86.0723 69.5681Z" fill="#347BFA"/>
  <path d="M59.5891 109.018C59.5891 101.294 59.6994 93.5695 59.5891 85.9225C59.5339 83.3845 60.196 82.6121 62.7781 82.7115C67.4457 82.9321 72.1244 82.888 76.8031 82.7115C79.01 82.6342 79.5507 83.4066 79.5396 85.5253C79.4514 101.342 79.4514 117.158 79.5396 132.974C79.5396 135.181 78.9658 135.821 76.781 135.755C71.9699 135.6 67.1478 135.589 62.3367 135.755C60.1297 135.832 59.567 135.071 59.6001 132.952C59.6773 124.974 59.5891 116.974 59.5891 109.018ZM66.2098 108.808C66.2098 114.712 66.3533 120.626 66.1436 126.53C66.0333 129.41 67.6554 129.134 69.454 129.112C71.2527 129.09 72.8858 129.498 72.8416 126.574C72.6872 115.032 72.6872 103.493 72.8416 91.9584C72.8416 89.0784 71.3299 89.3543 69.5313 89.3763C67.7326 89.3984 66.0333 88.9791 66.1436 91.9143C66.3754 97.5309 66.2098 103.17 66.2098 108.808Z" fill="#FEFEFE"/>
  <path d="M26.4884 119.585C26.4884 124.12 26.4001 128.655 26.4884 133.179C26.5436 135.154 25.9257 135.795 23.9394 135.739C18.9959 135.614 14.0524 135.614 9.10889 135.739C7.10059 135.795 6.54887 135.11 6.57094 133.168C6.65922 123.818 6.65922 114.476 6.57094 105.14C6.57094 103.165 7.14474 102.536 9.11994 102.58C14.0634 102.702 19.0511 102.713 23.9615 102.58C25.9587 102.58 26.5436 103.209 26.4884 105.162C26.4884 109.962 26.4884 114.762 26.4884 119.585ZM19.8676 119.176C19.8676 116.705 19.6911 114.222 19.8676 111.783C20.1325 108.881 18.3338 109.201 16.5573 109.223C14.7807 109.245 13.0262 108.826 13.1696 111.75C13.4014 116.263 13.3351 120.798 13.1696 125.312C13.0813 127.816 13.2248 129.24 16.48 129.229C19.7352 129.218 20.0442 127.894 19.8456 125.345C19.7904 123.303 19.9228 121.229 19.8676 119.176Z" fill="#FEFEFE"/>
  <path d="M33.1008 122.247C33.1008 118.683 33.1891 115.108 33.1008 111.544C33.0346 109.723 33.6746 109.171 35.4512 109.205C40.5271 109.304 45.6141 109.315 50.69 109.205C52.5328 109.205 53.0293 109.811 53.0073 111.577C52.9337 118.845 52.9337 126.124 53.0073 133.414C53.0073 135.224 52.4224 135.776 50.6459 135.743C45.5699 135.643 40.483 135.632 35.407 135.743C33.5643 135.743 33.0346 135.136 33.0898 133.37C33.2222 129.663 33.1008 125.955 33.1008 122.247ZM46.3424 122.59C46.3424 121.089 46.232 119.566 46.3424 118.076C46.5079 116.189 45.603 115.958 43.9589 115.792C40.6485 115.45 39.0926 116.278 39.6554 119.897C39.8761 121.803 39.8761 123.729 39.6554 125.635C39.4457 128.096 39.9754 129.199 42.8775 129.21C45.7796 129.221 46.7286 128.184 46.3313 125.459C46.2687 124.503 46.2724 123.544 46.3424 122.59Z" fill="#FEFEFE"/>
  <path d="M43.3078 29.7937C50.0389 29.7937 56.7811 29.9703 63.5122 29.7165C66.7343 29.5951 66.1053 31.482 66.2598 33.3469C66.4364 35.5538 65.9729 36.4918 63.4349 36.4697C49.8293 36.3373 36.2236 36.3042 22.6068 36.4697C19.4068 36.4697 20.0137 34.7152 19.8703 32.8503C19.6937 30.6434 20.1351 29.6613 22.6841 29.7165C29.5587 29.9593 36.4112 29.7937 43.3078 29.7937Z" fill="#FEFEFE"/>
  <path d="M43.0344 49.659C36.3033 49.659 29.5611 49.4824 22.841 49.7362C19.8727 49.8355 19.972 48.39 19.8948 46.2713C19.7955 43.8989 20.27 42.9609 22.9845 42.9609C36.4541 43.1154 49.9237 43.1154 63.3933 42.9609C66.3395 42.9609 66.2512 44.3072 66.3285 46.4148C66.4278 48.7983 65.9533 49.8134 63.2388 49.7252C56.4635 49.5376 49.7324 49.659 43.0344 49.659Z" fill="#FEFEFE"/>
  <path d="M43.0312 56.2828C49.7734 56.2828 56.5045 56.4373 63.2356 56.2166C66.0274 56.1173 66.3253 57.3201 66.2812 59.527C66.237 61.7339 66.1708 62.9809 63.2908 62.9478C49.8285 62.7712 36.3626 62.7712 22.893 62.9478C20.1123 62.9478 19.8033 61.8995 19.8475 59.6374C19.8916 57.3753 19.9468 56.1173 22.8379 56.2277C29.558 56.4704 36.3001 56.2828 43.0312 56.2828Z" fill="#FEFEFE"/>
  <path d="M42.8538 76.145C36.1227 76.145 29.3806 75.9574 22.6605 76.2223C19.4715 76.3436 20.0011 74.534 19.8687 72.636C19.7363 70.5174 20.0563 69.447 22.6605 69.4691C36.2662 69.6015 49.8719 69.6456 63.4886 69.4691C66.6665 69.4691 66.159 71.1574 66.2803 73.0663C66.4128 75.174 66.0927 76.2995 63.4886 76.2333C56.603 76.0347 49.7284 76.145 42.8538 76.145Z" fill="#FEFEFE"/>
  <path d="M10.025 29.9118C12.872 29.2167 13.3354 30.6181 13.3906 33.1671C13.4568 35.8926 12.574 36.4774 9.95882 36.5436C7.34362 36.6099 6.64844 35.7271 6.64844 33.1119C6.64844 30.4967 7.27741 29.2608 10.025 29.9118Z" fill="#FEFEFE"/>
  <path d="M9.64343 49.6522C6.38821 50.4908 6.85167 48.2618 6.60891 46.1542C6.24476 42.9542 8.07653 43.2521 10.2504 43.0314C13.4504 42.7004 13.1635 44.5101 13.3731 46.6839C13.6711 49.7957 12.0269 49.9943 9.64343 49.6522Z" fill="#FEFEFE"/>
  <path d="M13.1524 59.4818C13.9468 62.6377 12.3689 62.9135 9.90817 63.0128C7.09435 63.1342 6.59779 62.0639 6.59779 59.5369C6.52055 56.7231 7.54677 56.2266 10.0847 56.2266C12.6227 56.2266 14.1344 56.7341 13.1524 59.4818Z" fill="#FEFEFE"/>
  <path d="M13.1535 72.7005C13.948 75.8564 12.37 76.1323 9.90931 76.2316C7.09548 76.353 6.59892 75.2826 6.59892 72.7557C6.51064 69.9419 7.5479 69.4453 10.0859 69.4453C12.6238 69.4453 14.1356 69.9529 13.1535 72.7005Z" fill="#FEFEFE"/>
  <path d="M145.494 125.798C149.434 125.765 153.296 126.905 156.586 129.073C159.877 131.241 162.448 134.338 163.974 137.972C165.499 141.605 165.909 145.61 165.151 149.477C164.394 153.344 162.503 156.899 159.72 159.688C156.936 162.478 153.386 164.376 149.521 165.142C145.656 165.909 141.65 165.508 138.013 163.991C134.376 162.474 131.272 159.909 129.097 156.623C126.922 153.338 125.773 149.479 125.797 145.539C125.846 140.326 127.935 135.339 131.618 131.649C135.3 127.959 140.281 125.858 145.494 125.798ZM158.901 145.715C158.912 143.094 158.145 140.528 156.696 138.343C155.248 136.159 153.184 134.453 150.765 133.442C148.347 132.432 145.682 132.161 143.11 132.666C140.538 133.171 138.173 134.428 136.316 136.277C134.459 138.127 133.192 140.486 132.677 143.056C132.161 145.626 132.42 148.292 133.421 150.714C134.421 153.137 136.119 155.208 138.297 156.666C140.476 158.123 143.038 158.901 145.66 158.901C149.155 158.878 152.501 157.484 154.978 155.017C157.455 152.551 158.864 149.21 158.901 145.715Z" fill="#F9FAFD"/>
  <path d="M66.2089 108.8C66.2089 103.162 66.3523 97.5229 66.1427 91.9063C66.0323 88.9711 67.7537 89.3904 69.5303 89.3683C71.3069 89.3462 72.929 89.0703 72.8407 91.9504C72.6862 103.485 72.6862 115.024 72.8407 126.566C72.8407 129.49 71.2296 129.082 69.453 129.104C67.6765 129.126 65.9882 129.402 66.1427 126.522C66.3744 120.618 66.2089 114.759 66.2089 108.8Z" fill="#347BFA"/>
  <path d="M19.8621 119.181C19.8621 121.233 19.7407 123.308 19.8621 125.349C20.0607 127.898 19.7297 129.222 16.4966 129.233C13.2634 129.244 13.0758 127.821 13.1862 125.316C13.3296 120.803 13.3958 116.268 13.1862 111.754C13.0427 108.83 14.7972 109.239 16.5738 109.228C18.3503 109.217 20.1821 108.885 19.8842 111.788C19.7297 114.226 19.8621 116.709 19.8621 119.181Z" fill="#347BFA"/>
  <path d="M46.3494 122.585C46.2831 123.54 46.2831 124.499 46.3494 125.454C46.7466 128.179 45.9411 129.228 42.8955 129.205C39.85 129.183 39.4638 128.102 39.6734 125.63C39.8941 123.724 39.8941 121.799 39.6734 119.892C39.1107 116.273 40.7107 115.478 43.9769 115.787C45.6211 115.953 46.5259 116.185 46.3604 118.072C46.2721 119.561 46.3494 121.084 46.3494 122.585Z" fill="#347BFA"/>
  <path d="M158.897 145.712C158.886 148.335 158.096 150.895 156.627 153.069C155.159 155.242 153.078 156.931 150.648 157.92C148.219 158.909 145.55 159.154 142.981 158.624C140.412 158.094 138.058 156.814 136.218 154.944C134.378 153.075 133.135 150.701 132.646 148.124C132.157 145.546 132.445 142.882 133.472 140.469C134.5 138.055 136.221 136.001 138.418 134.567C140.614 133.134 143.187 132.384 145.81 132.415C149.298 132.476 152.623 133.903 155.071 136.389C157.518 138.876 158.892 142.223 158.897 145.712Z" fill="#347BFA"/>
</svg>