<svg xmlns="http://www.w3.org/2000/svg" width="192" height="192" viewBox="0 0 192 192" fill="none">
  <path d="M170.566 70.5686C170.566 54.0355 170.566 37.5024 170.566 20.9584C170.566 11.6688 165.688 6.60277 156.874 6.59183C142.166 6.59183 127.454 6.59183 112.739 6.59183C104.204 6.59183 99.1302 12.0627 99.1095 21.1554C99.1095 27.0311 98.9855 32.9178 99.1095 38.7826C99.1818 41.3977 98.2415 41.9886 96.0095 41.9776C93.7774 41.9667 92.7751 41.4524 92.8474 38.8045C93.0024 32.1191 92.7647 25.4117 92.9404 18.7263C93.1073 13.7535 95.0754 9.03949 98.4366 5.56194C101.798 2.0844 106.294 0.11015 110.993 0.0486303C126.349 -0.0607878 141.715 0.0486303 157.07 0.0486303C169.274 0.0486303 177.117 8.34251 177.138 21.3523C177.179 54.1777 177.179 86.974 177.138 119.741C177.138 121.929 176.807 123.986 179.205 125.704C181.271 127.16 180.238 130.322 180.114 132.696C179.98 135.607 180.744 137.401 183.297 138.9C188.65 142.062 191.274 147.38 191.822 153.672C192.184 157.873 191.884 162.141 191.936 166.375C191.936 167.973 191.605 169.132 189.817 168.924C187.048 168.618 187.079 170.489 187.1 172.557C187.151 177.35 187.172 182.131 187.1 186.913C187.1 189.298 186.728 191.913 183.731 191.869C180.734 191.826 180.631 189.189 180.569 186.792C180.569 181.869 180.486 176.945 180.569 172.032C180.62 169.778 179.969 168.979 177.737 168.892C167.114 168.432 167.114 168.356 167.114 179.724C167.114 182.591 167.114 185.469 167.114 188.335C167.052 190.524 165.957 191.979 163.746 191.924C161.534 191.869 160.945 190.36 160.945 188.324C160.945 182.996 160.863 177.656 160.945 172.327C160.945 170.03 160.584 168.585 158.021 168.924C156.409 169.143 155.675 168.345 155.717 166.572C155.789 162.195 155.489 157.819 155.872 153.442C156.43 147.128 159.199 141.909 164.531 138.747C166.949 137.325 167.538 135.585 167.559 132.86C167.559 129.797 166.66 126.295 170.122 124.107C170.711 123.735 170.525 121.809 170.525 120.605C170.559 103.916 170.573 87.2366 170.566 70.5686Z" fill="#347BFA"/>
  <path d="M14.8387 121.151C14.8387 104.475 14.8387 87.8038 14.8387 71.1358C14.8387 69.4289 15.035 67.8532 13.0923 66.6606C10.7156 65.1616 11.7903 62.1526 11.8523 59.822C11.9246 56.7035 11.3149 54.6246 8.4422 52.9067C2.85176 49.5476 0.41305 43.8688 0.0823769 37.2052C-0.0829596 33.9227 0.0823794 30.6402 0.0203782 27.3576C-0.0312895 24.9285 -0.22762 22.6636 3.22378 22.9809C5.17682 23.145 4.82547 21.2521 4.83581 19.961C4.83581 15.0481 4.76347 10.1133 4.89781 5.21138C4.95981 2.94643 4.89779 0.112503 8.08052 0.134387C11.2632 0.15627 11.3976 2.92455 11.4183 5.45211C11.4183 10.3759 11.4906 15.2997 11.4183 20.2126C11.4183 22.2697 12.0176 23.0137 14.0636 23.1341C24.8725 23.7906 24.8622 23.8453 24.8725 12.4986C24.8725 9.63188 24.8725 6.75419 24.8725 3.88744C24.8725 1.69907 25.8335 0.156272 28.0656 0.101562C30.4629 0.101562 31.0726 1.69907 31.0726 3.89837C31.0726 9.22703 31.0726 14.5557 31.0726 19.8844C31.0726 21.9961 31.393 23.3967 33.78 23.0903C35.5677 22.8605 36.3531 23.6593 36.3014 25.6398C36.2084 29.8742 36.5391 34.1415 36.1671 38.3432C35.609 44.8098 32.8087 50.1275 27.3319 53.3554C25.0585 54.6903 24.4488 56.3206 24.4488 58.9138C24.4488 62.1088 25.7509 65.8728 21.8138 67.9408C21.3798 68.1705 21.4831 69.7243 21.4831 70.6543C21.4831 104.413 21.4831 138.162 21.4831 171.899C21.4831 180.127 26.5879 185.368 34.431 185.39C49.5318 185.441 64.6291 185.441 79.7229 185.39C87.5764 185.39 92.9188 179.919 92.8362 171.56C92.8362 168.036 93.8695 167.019 96.9696 167.358C98.6953 167.533 99.0363 168.299 99.1293 169.907C100.049 182.25 91.6891 191.922 79.8986 191.966C64.7978 192.01 49.7006 192.01 34.6067 191.966C22.8885 191.966 14.973 183.628 14.8697 171.177C14.7663 154.469 14.8387 137.804 14.8387 121.151Z" fill="#347BFA"/>
  <path d="M96.5838 76.8202C82.9952 76.3388 70.1299 75.5729 58.112 69.8722C54.857 68.3294 50.6719 66.8851 50.6719 62.5083C50.6719 58.3176 54.8053 56.9499 57.9053 55.4181C67.0505 50.9319 76.8984 49.4329 86.7876 48.7654C101.916 47.726 116.92 48.7654 131.356 54.2363C133.784 55.1569 136.098 56.3839 138.249 57.8909C142.496 60.8889 142.496 64.0511 138.362 67.2024C132.896 71.3603 126.458 72.9468 120.041 74.424C112.105 76.295 103.972 76.4154 96.5838 76.8202Z" fill="#DEEBF8"/>
  <path d="M50.3644 73.9141C80.8484 86.5737 110.919 86.5519 141.434 74.0016C141.434 79.4725 141.672 85.3702 141.331 91.235C141.176 93.9814 138.664 95.4257 136.484 96.7059C128.755 101.137 120.26 102.877 111.684 103.96C96.359 105.897 81.1067 105.273 66.1127 101.017C64.8624 100.667 63.6224 100.328 62.403 99.9228C51.3875 96.0165 50.3438 94.4518 50.3438 82.1314L50.3644 73.9141ZM95.739 97.4937C96.886 97.4937 98.0434 97.5812 99.1904 97.4937C101.205 97.3186 102.704 96.2791 102.538 93.9485C102.394 91.9243 101.092 90.9067 99.0974 90.9942C97.692 91.049 96.2866 90.9942 94.8813 90.9942C92.4839 90.9942 89.4149 90.4909 89.4769 94.2768C89.5389 98.0626 92.5769 97.5593 94.9743 97.5593L95.739 97.4937Z" fill="#DEEBF8"/>
  <path d="M95.3052 132.959C82.905 132.719 70.4117 131.504 58.5282 126.329C51.4807 123.254 50.375 121.449 50.375 113.461C50.375 110.321 50.375 107.181 50.375 104.04C50.375 101.95 50.809 101.381 52.8344 102.421C69.0787 110.802 86.4184 111.995 104.078 111.01C114.949 110.397 125.593 108.822 135.699 104.281C141.61 101.622 141.61 101.633 141.61 108.537C141.48 110.307 141.48 112.085 141.61 113.855C142.643 120.584 139.006 123.932 133.798 126.197C121.573 131.537 108.677 132.795 95.3052 132.959ZM95.9562 125.366V125.464C97.1136 125.464 98.2606 125.464 99.418 125.464C99.8251 125.455 100.226 125.361 100.599 125.187C100.972 125.014 101.309 124.764 101.59 124.453C101.872 124.141 102.093 123.774 102.241 123.372C102.388 122.97 102.46 122.542 102.451 122.111C102.442 121.68 102.353 121.255 102.189 120.86C102.025 120.465 101.789 120.109 101.495 119.81C101.201 119.512 100.855 119.278 100.475 119.122C100.096 118.966 99.6907 118.89 99.2836 118.899C96.8449 118.899 94.4062 118.899 91.9675 118.976C91.6099 118.994 91.2593 119.087 90.9363 119.251C90.6133 119.414 90.3245 119.645 90.0867 119.928C89.8489 120.211 89.667 120.542 89.5517 120.901C89.4363 121.26 89.3899 121.64 89.4151 122.018C89.3117 122.778 89.4973 123.55 89.9313 124.166C90.3652 124.781 91.0121 125.189 91.7298 125.3C93.1452 125.439 94.5686 125.461 95.9872 125.366H95.9562Z" fill="#DEEBF8"/>
  <path d="M96.7981 160.86C83.7262 161.014 71.7393 159.679 60.2381 155.094C58.195 154.26 56.2213 153.246 54.3376 152.063C53.0151 151.329 51.9282 150.196 51.2144 148.807C50.5007 147.418 50.1923 145.836 50.3282 144.262C50.5246 140.312 50.4316 136.34 50.3282 132.379C50.3282 130.256 50.5039 129.304 52.8496 130.519C70.2409 139.48 88.769 140.366 107.617 138.856C118.736 137.948 129.628 136.066 139.579 130.3C141.212 129.359 141.646 130.048 141.646 131.701C141.646 136.482 141.728 141.264 141.646 146.045C141.532 149.689 138.938 151.516 136.283 152.971C129.111 156.998 121.278 158.628 113.363 159.876C107.877 160.697 102.336 161.027 96.7981 160.86ZM95.4754 153.42C96.9635 153.42 98.1208 153.42 99.2782 153.42C99.6975 153.484 100.125 153.448 100.53 153.316C100.935 153.184 101.307 152.959 101.62 152.657C101.933 152.354 102.179 151.983 102.341 151.568C102.502 151.153 102.575 150.706 102.554 150.258C102.59 149.814 102.536 149.366 102.394 148.946C102.252 148.526 102.026 148.144 101.732 147.825C101.438 147.506 101.082 147.258 100.689 147.098C100.295 146.938 99.8742 146.87 99.4538 146.899C98.3009 146.828 97.145 146.828 95.9921 146.899C93.388 147.118 89.482 145.706 89.5336 150.302C89.5646 154.635 93.3467 153.125 95.4754 153.42Z" fill="#DEEBF8"/>
  <path d="M95.7444 97.5013H94.959C92.5203 97.5013 89.5133 97.8077 89.4616 94.2187C89.4099 90.6298 92.4687 90.9362 94.866 90.9362C96.2714 90.9362 97.6767 90.9909 99.0821 90.9362C101.076 90.8487 102.379 91.8662 102.523 93.8905C102.689 96.2211 101.19 97.2606 99.1751 97.4356C98.0281 97.5451 96.8707 97.4356 95.7237 97.4356L95.7444 97.5013Z" fill="#FDFEFE"/>
  <path d="M95.9832 125.37C94.5765 125.486 93.1635 125.486 91.7568 125.37C91.039 125.26 90.3922 124.852 89.9582 124.236C89.5243 123.621 89.3386 122.848 89.442 122.088C89.4169 121.71 89.4633 121.33 89.5786 120.971C89.6939 120.612 89.8758 120.282 90.1136 119.998C90.3514 119.715 90.6403 119.485 90.9633 119.321C91.2862 119.158 91.6368 119.064 91.9944 119.046C94.4331 118.937 96.8718 119.046 99.3106 118.97C99.7177 118.96 100.123 119.036 100.502 119.192C100.881 119.349 101.228 119.582 101.522 119.881C101.816 120.179 102.052 120.536 102.216 120.93C102.38 121.325 102.469 121.75 102.478 122.181C102.487 122.612 102.415 123.041 102.268 123.443C102.12 123.844 101.899 124.211 101.617 124.523C101.336 124.834 100.999 125.084 100.626 125.258C100.253 125.431 99.852 125.525 99.4449 125.535C98.2875 125.535 97.1405 125.535 95.9832 125.535V125.37Z" fill="#FDFEFE"/>
  <path d="M95.4708 153.426C93.342 153.131 89.56 154.641 89.5083 150.308C89.4567 145.712 93.3627 147.124 95.9668 146.905C97.1197 146.834 98.2756 146.834 99.4285 146.905C99.8488 146.876 100.27 146.944 100.663 147.104C101.056 147.264 101.412 147.512 101.707 147.831C102.001 148.15 102.227 148.532 102.369 148.952C102.511 149.372 102.565 149.82 102.529 150.264C102.55 150.712 102.477 151.159 102.315 151.574C102.154 151.989 101.908 152.361 101.595 152.663C101.282 152.965 100.909 153.19 100.505 153.322C100.1 153.454 99.6722 153.49 99.2528 153.426C98.1161 153.404 96.9588 153.426 95.4708 153.426Z" fill="#FDFEFE"/>
</svg>