<svg xmlns="http://www.w3.org/2000/svg" width="120" height="120" viewBox="0 0 120 120" fill="none">
  <g clip-path="url(#clip0_3405_16468)">
    <path d="M28.6625 80.8684H27.3656C20.8052 80.8684 14.2427 80.8684 7.67813 80.8684C3.07501 80.8684 0.25 78.0309 0.25 73.4215C0.25 53.784 0.25 34.1465 0.25 14.509C0.25 9.90898 3.09062 7.05273 7.68125 7.05273C35.8312 7.05273 63.9813 7.05273 92.1313 7.05273C96.8188 7.05273 99.6 9.86523 99.6031 14.5746C99.6031 27.46 99.6031 40.3444 99.6031 53.2277C99.6031 57.1527 99.6406 61.0402 100.488 64.9434C101.819 71.1027 100.447 76.9527 97.1594 82.3121C96.6875 83.084 96.75 83.4902 97.375 84.0434C98.0969 84.6871 98.625 85.5465 99.875 84.8746C100.528 84.5277 101.313 84.9559 101.875 85.5184C107.256 90.9059 112.684 96.2434 117.997 101.696C120.528 104.296 120.306 108.453 117.741 110.993C115.175 113.534 111.044 113.678 108.441 111.128C103.028 105.831 97.7094 100.44 92.35 95.0871C91.6844 94.4215 91.3406 93.5684 91.725 92.7465C92.1094 91.9246 91.8719 91.5934 91.3469 91.0902C90.05 89.8402 90.0813 89.8402 88.5344 90.7246C82.0115 94.4079 75.175 95.1131 68.025 92.8402C67.3602 92.629 66.6663 92.5235 65.9688 92.5277C53.0062 92.5277 40.0438 92.5277 27.0813 92.5277C24.8938 92.5277 23.6438 91.3027 23.8938 89.4465C23.9921 88.95 24.1909 88.4789 24.4781 88.0621C25.8406 85.7059 27.2094 83.3652 28.6625 80.8684ZM95.8219 53.9559C95.8438 53.5527 95.8594 53.3996 95.8594 53.2496C95.8594 40.2496 95.8594 27.2496 95.8594 14.2496C95.8594 12.034 94.6094 10.8121 92.3469 10.8121H7.55625C5.24688 10.8121 4.0125 12.0621 4.0125 14.3496C4.0125 32.1538 4.00625 49.9559 3.99375 67.7559C3.99375 68.5371 4.13438 68.8121 4.99063 68.7996C8.93021 68.7496 12.8719 68.7496 16.8156 68.7996C17.6781 68.7996 17.9281 68.609 17.9188 67.7152C17.8688 63.2652 17.8875 58.8152 17.9 54.3652C17.9 52.5871 18.525 51.9715 20.2938 51.9652C23.1438 51.9652 25.9937 51.9652 28.8438 51.9652C30.7594 51.9652 31.3438 52.5527 31.3438 54.4934C31.3438 58.6309 31.3438 62.7684 31.3438 66.9059C31.3438 68.7809 31.3438 68.7809 33.2563 68.7809C34.775 68.7809 34.775 68.7809 34.775 67.2184C34.775 56.7559 34.775 46.2934 34.775 35.8309C34.775 33.8965 35.375 33.2965 37.275 33.2934H45.475C47.6969 33.2934 48.2219 33.8215 48.2219 36.059V67.1871C48.2219 68.7496 48.2219 68.7496 49.8438 68.7496C50 68.7496 50.1563 68.7496 50.3125 68.7496C50.7406 68.7902 50.9906 68.6371 50.9813 68.1746C50.9313 66.0184 51.675 63.9496 51.6656 61.7902C51.6406 55.8152 51.6656 49.8434 51.6656 43.8715C51.6656 41.8652 52.2625 41.2684 54.2313 41.2652C56.9667 41.2652 59.699 41.2652 62.4281 41.2652C64.5469 41.2652 65.1 41.8402 65.1125 44.0027C65.1125 44.7809 64.8469 45.9496 65.2344 46.2465C65.8594 46.709 66.6375 45.7496 67.4219 45.6215C68.3594 45.4621 68.5813 44.9184 68.575 43.984C68.5219 38.6715 68.5406 33.359 68.5531 28.0465C68.5531 26.3309 69.1781 25.7152 70.875 25.709C73.7625 25.709 76.6511 25.709 79.5406 25.709C81.3719 25.709 81.9812 26.334 81.9844 28.1777C81.9844 33.059 81.9844 37.9392 81.9844 42.8184C81.9844 44.7715 81.9844 44.7871 83.8187 45.3902C88.6219 46.9996 92.5188 49.8621 95.8219 53.9559ZM97.2125 69.0871C97.2014 64.8822 95.9441 60.7749 93.5995 57.2842C91.2548 53.7936 87.9281 51.0763 84.0397 49.4757C80.1513 47.8751 75.8757 47.463 71.7532 48.2916C67.6306 49.1201 63.8462 51.152 60.8781 54.1306C57.91 57.1092 55.8914 60.9008 55.0774 65.0262C54.2634 69.1516 54.6905 73.4257 56.3048 77.3085C57.9191 81.1912 60.6481 84.5083 64.147 86.8407C67.6458 89.173 71.7576 90.4158 75.9625 90.4121C81.6058 90.3939 87.0116 88.1389 90.9949 84.1415C94.9783 80.1441 97.2142 74.7304 97.2125 69.0871ZM28.4625 88.6996H60.3688C57.8688 86.6309 55.8687 84.409 54.4094 81.7527C54.0031 81.0121 53.525 80.8496 52.7563 80.8527C46.9375 80.8777 41.1188 80.9496 35.3031 80.8152C33.5406 80.7746 32.5625 81.2621 31.8031 82.859C30.8625 84.8402 29.6281 86.684 28.4531 88.6996H28.4625ZM38.5344 52.8402C38.5344 57.7965 38.5563 62.7496 38.5094 67.7027C38.5094 68.5965 38.7563 68.8402 39.6219 68.7934C40.9844 68.7215 42.3531 68.7496 43.7156 68.7934C44.3406 68.809 44.5031 68.5902 44.5031 67.984C44.4865 57.9215 44.4865 47.859 44.5031 37.7965C44.5031 37.1715 44.2875 37.009 43.6969 37.0246C42.3312 37.059 40.9625 37.0934 39.6031 37.0246C38.7156 36.9715 38.5 37.2402 38.5094 38.1184C38.5469 43.0121 38.525 47.9277 38.525 52.8402H38.5344ZM78.25 36.7996C78.25 34.6559 78.2313 32.5121 78.25 30.3684C78.25 29.7684 78.1813 29.4309 77.45 29.4684C75.9688 29.5215 74.4875 29.5059 73.0063 29.4684C72.4281 29.4527 72.2906 29.6715 72.2938 30.2121C72.3125 34.6934 72.3125 39.1725 72.2938 43.6496C72.2938 44.2402 72.4937 44.3652 73.0406 44.3152C74.475 44.184 75.9188 43.9777 77.3531 44.1934C78.1406 44.3121 78.2656 44.0309 78.2531 43.334C78.2156 41.1621 78.2406 38.9809 78.2406 36.7996H78.25ZM27.625 62.3465C27.625 60.3996 27.6063 58.4527 27.625 56.5059C27.625 55.9152 27.475 55.6715 26.8438 55.6871C25.3656 55.7246 23.8844 55.7277 22.4063 55.6871C21.75 55.6715 21.6406 55.9527 21.6438 56.5246C21.6625 60.3402 21.6719 64.1559 21.6438 67.9715C21.6438 68.6996 21.9406 68.7965 22.5438 68.784C23.9469 68.7527 25.3563 68.7309 26.75 68.784C27.5156 68.8184 27.65 68.509 27.6344 67.8309C27.575 66.009 27.6 64.1777 27.6 62.3465H27.625ZM55.4375 54.4496C56.7844 53.0121 57.9594 51.4465 59.5313 50.3871C61.1969 49.2746 61.6594 47.8871 61.4063 46.0684C61.3891 45.9513 61.3891 45.8323 61.4063 45.7152C61.4813 45.1246 61.1781 44.9996 60.65 45.009C59.1719 45.0371 57.6906 45.034 56.2094 45.009C55.6906 45.009 55.4281 45.1027 55.4344 45.7027C55.4188 48.6277 55.4062 51.5402 55.4062 54.4496H55.4375ZM102.072 90.8121C101.643 90.5051 101.242 90.16 100.875 89.7809C100.372 89.1559 100.022 89.2652 99.525 89.8027C98.5875 90.8277 97.5875 91.8246 96.5562 92.7684C96.0219 93.2559 95.9719 93.5934 96.5562 94.0184C96.8357 94.229 97.0858 94.476 97.3 94.7527C97.6344 95.1777 97.8781 95.0902 98.2188 94.7371C99.325 93.5902 100.466 92.4746 101.591 91.3465C101.722 91.2309 101.831 91.0871 102.072 90.8121Z" fill="#DEEBF8"/>
    <path d="M95.8219 53.957C92.5188 49.8633 88.6344 47.0008 83.8219 45.4195C81.9844 44.8164 81.9875 44.7945 81.9875 42.8477C81.9875 37.9664 81.9875 33.0862 81.9875 28.207C81.9875 26.357 81.3625 25.7414 79.5438 25.7383C76.6563 25.7383 73.7678 25.7383 70.8782 25.7383C69.1844 25.7383 68.5626 26.3633 68.5563 28.0758C68.5563 33.3883 68.5251 38.7008 68.5782 44.0133C68.5782 44.9508 68.3751 45.4914 67.4251 45.6508C66.6376 45.7789 65.8438 46.7383 65.2376 46.2758C64.8501 45.9633 65.1188 44.8102 65.1157 44.032C65.1157 41.8695 64.5501 41.2977 62.4313 41.2945C59.7001 41.2945 56.9678 41.2945 54.2344 41.2945C52.2657 41.2945 51.6719 41.8945 51.6688 43.9008C51.6688 49.8727 51.6501 55.8445 51.6688 61.8195C51.6688 63.9789 50.9344 66.0477 50.9844 68.2039C50.9844 68.6664 50.7438 68.8289 50.3157 68.7789C50.1626 68.7789 50.0032 68.7789 49.8469 68.7789C48.2251 68.7789 48.2251 68.7789 48.2251 67.2164V36.0477C48.2251 33.8102 47.7001 33.282 45.4782 33.282H37.2813C35.3813 33.282 34.7813 33.8852 34.7813 35.8195C34.7813 46.282 34.7813 56.7445 34.7813 67.207C34.7813 68.7695 34.7813 68.7695 33.2626 68.7695C31.3501 68.7695 31.3501 68.7695 31.3501 66.8945C31.3501 62.757 31.3501 58.6195 31.3501 54.482C31.3501 52.5414 30.7657 51.957 28.8501 51.9539C26.0001 51.9539 23.15 51.9539 20.3001 51.9539C18.5282 51.9539 17.9094 52.5789 17.9063 54.3539C17.9063 58.8039 17.875 63.2539 17.925 67.7039C17.925 68.5977 17.6844 68.7977 16.8219 68.7883C12.8803 68.7383 8.93859 68.7383 4.99692 68.7883C4.14067 68.7883 3.99692 68.5258 4.00005 67.7445C4.02297 49.9404 4.02922 32.1383 4.0188 14.3383C4.0188 12.0383 5.26881 10.8008 7.56256 10.8008H92.3469C94.6032 10.8008 95.8563 12.032 95.8594 14.2383C95.8594 27.2383 95.8594 40.2383 95.8594 53.2383C95.8594 53.4008 95.8438 53.5539 95.8219 53.957ZM70.9376 17.1039C70.8844 17.3508 70.8969 17.4477 70.8532 17.4883C67.8469 20.2758 64.8282 23.0477 61.8407 25.8508C61.4313 26.2352 61.1251 26.1258 60.7063 25.957C59.827 25.5707 58.8658 25.4079 57.9084 25.4832C56.9509 25.5584 56.0269 25.8694 55.2188 26.3883C54.6844 26.7195 54.3625 26.6445 53.8938 26.3227C52 25.0164 50.0896 23.7362 48.1626 22.482C47.6282 22.1352 47.4001 21.857 47.5219 21.1008C47.716 19.8375 47.5015 18.5453 46.9095 17.4126C46.3176 16.2798 45.3792 15.3658 44.2313 14.8039C43.0866 14.2302 41.7905 14.0311 40.5264 14.2347C39.2623 14.4382 38.0942 15.0342 37.1876 15.9383C36.2696 16.827 35.6627 17.9882 35.4573 19.2493C35.2518 20.5104 35.4586 21.8041 36.0469 22.9383C36.2039 23.1734 36.2747 23.4556 36.2474 23.7369C36.22 24.0183 36.0962 24.2815 35.8969 24.482C33.0282 28.1737 30.1803 31.8883 27.3532 35.6258C26.8907 36.2508 26.4969 36.407 25.7094 36.2508C21.5625 35.3445 17.6938 39.3039 18.6501 43.4383C19.2313 45.9383 20.8032 47.5758 23.3126 48.1414C25.7282 48.6883 27.8157 47.9477 29.3626 46.007C30.9657 43.9945 31.1782 41.757 30.0282 39.4445C29.8032 38.9883 29.6907 38.6664 30.0532 38.1945C33.0719 34.3174 36.0719 30.4237 39.0532 26.5133C39.148 26.3517 39.297 26.2288 39.4737 26.1664C39.6505 26.1041 39.8435 26.1063 40.0188 26.1727C40.8324 26.3892 41.683 26.4287 42.5132 26.2886C43.3434 26.1484 44.1339 25.8318 44.8313 25.3602C44.9602 25.2449 45.1271 25.1811 45.3 25.1811C45.473 25.1811 45.6399 25.2449 45.7688 25.3602C47.8625 26.7852 49.9667 28.1966 52.0813 29.5945C52.2291 29.6774 52.3436 29.809 52.4052 29.9669C52.4668 30.1247 52.4716 30.2991 52.4188 30.4602C52.0126 33.2727 53.1188 35.6039 55.4157 36.8977C56.4571 37.488 57.6504 37.7559 58.8442 37.6674C60.0381 37.579 61.1788 37.1381 62.1219 36.4008C64.15 34.8383 64.9594 32.2945 64.1719 29.6914C64.0094 29.1477 64.075 28.8664 64.4844 28.5008C67.2969 25.9508 70.0594 23.3758 72.8407 20.807C72.9251 20.732 73.0126 20.6758 73.1282 20.8227C73.0532 21.2977 72.9376 21.7945 72.9001 22.2945C72.8157 23.432 73.4532 24.2695 74.4626 24.4039C74.7053 24.446 74.954 24.4386 75.1938 24.3822C75.4336 24.3258 75.6596 24.2215 75.858 24.0755C76.0565 23.9296 76.2234 23.745 76.3488 23.533C76.4742 23.3209 76.5554 23.0857 76.5876 22.8414C77.0344 20.5883 77.4532 18.3258 77.8126 16.0539C78.0344 14.6477 77.3251 13.757 75.9376 13.6695C73.6407 13.5289 71.3375 13.4383 69.0344 13.3789C67.8875 13.3477 67.1251 14.0633 67.0563 15.0883C66.9876 16.1727 67.7094 17.0008 68.8844 17.0977C69.5282 17.1508 70.2157 17.1039 70.9376 17.1039Z" fill="#FDFDFD"/>
    <path d="M97.2132 69.0867C97.2237 73.2971 95.9843 77.4159 93.652 80.9214C91.3197 84.4268 87.9995 87.1611 84.1119 88.7779C80.2243 90.3948 75.9442 90.8213 71.814 90.0036C67.6837 89.186 63.8891 87.1608 60.9108 84.1847C57.9325 81.2085 55.9045 77.4154 55.0838 73.2857C54.263 69.1561 54.6865 64.8758 56.3005 60.987C57.9144 57.0982 60.6463 53.7759 64.15 51.441C67.6537 49.1061 71.7716 47.8637 75.982 47.8711C81.6026 47.8958 86.9862 50.1384 90.962 54.1113C94.9379 58.0843 97.1845 63.4662 97.2132 69.0867ZM94.8757 69.2149C94.8735 64.2058 92.8953 59.3998 89.3706 55.8407C85.846 52.2815 81.0595 50.2565 76.0507 50.2055C65.6851 50.1336 57.1101 58.6024 57.0132 68.9992C56.9164 79.3961 65.4695 88.0399 75.8945 88.0617C80.9034 88.0553 85.7073 86.0719 89.2618 82.5426C92.8162 79.0134 94.8337 74.2236 94.8757 69.2149Z" fill="#F7F7F7"/>
    <path d="M28.4531 88.6992C29.6281 86.6836 30.8625 84.8398 31.8031 82.8586C32.5625 81.2617 33.5406 80.7742 35.3031 80.8148C41.1188 80.9492 46.9375 80.8773 52.7563 80.8523C53.525 80.8523 54.0062 81.0117 54.4094 81.7523C55.8687 84.4086 57.8719 86.6304 60.3688 88.6992H28.4531Z" fill="#FAFAFA"/>
    <path d="M38.5259 52.8408C38.5259 47.9283 38.5478 43.0127 38.504 38.1002C38.504 37.222 38.7103 36.9533 39.5978 37.0064C40.9571 37.0877 42.3259 37.0533 43.6915 37.0064C44.2821 36.9908 44.4978 37.1408 44.4978 37.7783C44.4749 47.8408 44.4749 57.9033 44.4978 67.9658C44.4978 68.572 44.329 68.7908 43.7103 68.7752C42.3478 68.7377 40.979 68.7095 39.6165 68.7752C38.7509 68.822 38.4978 68.5783 38.504 67.6845C38.5478 62.7502 38.5259 57.8127 38.5259 52.8408Z" fill="#F7F7F7"/>
    <path d="M78.2407 36.8001C78.2407 38.9876 78.2157 41.1751 78.2407 43.3438C78.2407 44.0407 78.1282 44.3219 77.3407 44.2032C75.9063 43.9876 74.4625 44.2032 73.0282 44.3251C72.4813 44.3751 72.2782 44.2501 72.2813 43.6594C72.3 39.1782 72.3 34.699 72.2813 30.2219C72.2813 29.6813 72.4157 29.4626 72.9938 29.4782C74.475 29.5126 75.9563 29.5282 77.4375 29.4782C78.1688 29.4501 78.2469 29.7907 78.2375 30.3782C78.2219 32.5001 78.2407 34.6563 78.2407 36.8001Z" fill="#FBFBFB"/>
    <path d="M27.6001 62.3472C27.6001 64.1784 27.5751 66.0097 27.6157 67.8378C27.6313 68.5159 27.497 68.8253 26.7313 68.7909C25.3313 68.7316 23.9188 68.7534 22.5251 68.7909C21.922 68.7909 21.6188 68.7066 21.6251 67.9784C21.6595 64.1628 21.6501 60.3472 21.6251 56.5316C21.6251 55.9597 21.7313 55.6784 22.3876 55.6941C23.8657 55.7347 25.347 55.7316 26.8251 55.6941C27.4501 55.6784 27.6157 55.9222 27.6063 56.5128C27.5813 58.4534 27.6001 60.4003 27.6001 62.3472Z" fill="#F7F7F7"/>
    <path d="M55.4062 54.4502C55.4062 51.5408 55.4062 48.6283 55.4062 45.7002C55.4062 45.1002 55.6625 44.997 56.1813 45.0064C57.6625 45.0283 59.1438 45.0314 60.6219 45.0064C61.15 45.0064 61.4531 45.122 61.3781 45.7127C61.3609 45.8297 61.3609 45.9487 61.3781 46.0658C61.6375 47.8845 61.175 49.272 59.5031 50.3845C57.9281 51.447 56.7531 53.0127 55.4062 54.4502Z" fill="#F3F3F3"/>
    <path d="M102.072 90.8116C101.831 91.0866 101.722 91.2304 101.594 91.3585C100.469 92.4866 99.3283 93.6022 98.2221 94.7491C97.8815 95.1022 97.6377 95.1897 97.3033 94.7647C97.0901 94.4882 96.841 94.2412 96.5627 94.0303C95.9752 93.5928 96.0252 93.2553 96.5627 92.7803C97.594 91.8428 98.5815 90.8397 99.5315 89.8147C100.028 89.2772 100.378 89.1647 100.881 89.7929C101.247 90.1674 101.646 90.5083 102.072 90.8116Z" fill="#F6F6F6"/>
    <path d="M70.938 17.1025C70.2192 17.1025 69.5317 17.1494 68.8505 17.1025C67.6755 17.0057 66.9536 16.165 67.0224 15.0932C67.0911 14.0682 67.8536 13.3525 69.0005 13.3838C71.3036 13.4432 73.6067 13.5338 75.9036 13.6744C77.3067 13.7619 78.0161 14.6525 77.7786 16.0588C77.4192 18.3307 77.0005 20.5932 76.5536 22.8463C76.5214 23.0905 76.4402 23.3258 76.3149 23.5378C76.1895 23.7499 76.0226 23.9345 75.8241 24.0804C75.6256 24.2264 75.3997 24.3307 75.1599 24.3871C74.9201 24.4435 74.6713 24.4509 74.4286 24.4088C73.4224 24.2744 72.7849 23.4369 72.8661 22.2994C72.9036 21.7994 73.0192 21.3025 73.0942 20.8275C72.9786 20.6807 72.8911 20.7369 72.8067 20.8119C70.0255 23.3807 67.2474 25.9557 64.4505 28.5057C64.0505 28.8713 63.9849 29.1525 64.138 29.6963C64.9255 32.2994 64.1161 34.8369 62.088 36.4057C61.1449 37.143 60.0042 37.5839 58.8103 37.6723C57.6164 37.7608 56.4232 37.4929 55.3817 36.9025C53.0849 35.6088 51.9786 33.2713 52.3849 30.465C52.4376 30.304 52.4328 30.1296 52.3713 29.9717C52.3097 29.8139 52.1952 29.6822 52.0474 29.5994C49.9349 28.1994 47.8307 26.788 45.7349 25.365C45.606 25.2497 45.4391 25.186 45.2661 25.186C45.0932 25.186 44.9263 25.2497 44.7974 25.365C44.0999 25.8367 43.3095 26.1533 42.4793 26.2935C41.6491 26.4336 40.7985 26.3941 39.9849 26.1775C39.8096 26.1112 39.6165 26.109 39.4398 26.1713C39.2631 26.2337 39.1141 26.3565 39.0192 26.5182C36.0317 30.4203 33.0317 34.314 30.0192 38.1994C29.6567 38.6682 29.7692 38.99 29.9942 39.4494C31.1442 41.7713 30.9317 44.0088 29.3286 46.0119C27.7817 47.9525 25.6942 48.6932 23.2786 48.1463C20.7786 47.5807 19.1974 45.9588 18.6161 43.4432C17.6599 39.3057 21.513 35.3463 25.6755 36.2307C26.463 36.3963 26.8567 36.2307 27.3192 35.6057C30.1442 31.8744 32.9963 28.163 35.8755 24.4713C36.0748 24.2708 36.1986 24.0076 36.2259 23.7262C36.2533 23.4448 36.1824 23.1627 36.0255 22.9275C35.4421 21.7922 35.2401 20.499 35.4495 19.2398C35.6589 17.9806 36.2685 16.8224 37.188 15.9369C38.0938 15.0368 39.2592 14.4434 40.52 14.2405C41.7809 14.0376 43.0736 14.2352 44.2161 14.8057C45.364 15.3676 46.3024 16.2816 46.8943 17.4143C47.4863 18.5471 47.7008 19.8393 47.5067 21.1025C47.3849 21.8463 47.613 22.1369 48.1474 22.4838C50.0724 23.7338 51.9828 25.014 53.8786 26.3244C54.3474 26.6369 54.6692 26.7213 55.2036 26.39C56.0118 25.8711 56.9357 25.5602 57.8932 25.4849C58.8506 25.4097 59.8118 25.5725 60.6911 25.9588C61.1099 26.1275 61.4161 26.2369 61.8255 25.8525C64.813 23.04 67.8317 20.2775 70.838 17.49C70.8942 17.4463 70.8817 17.3494 70.938 17.1025Z" fill="#347BFA"/>
    <path d="M94.875 69.2157C94.8338 74.225 92.8166 79.0155 89.2621 82.5454C85.7076 86.0754 80.9032 88.0593 75.8937 88.0657C65.4687 88.0407 56.9187 79.4063 57.0125 69.0032C57.1062 58.6001 65.6844 50.1376 76.05 50.2094C81.0583 50.2605 85.8442 52.285 89.3688 55.8435C92.8934 59.402 94.8719 64.2072 94.875 69.2157ZM81.2844 69.1157C81.2794 68.0608 80.9622 67.0309 80.3726 66.1561C79.783 65.2813 78.9476 64.6006 77.9717 64.2001C76.9958 63.7995 75.923 63.6969 74.8889 63.9053C73.8547 64.1137 72.9054 64.6237 72.1608 65.3709C71.4161 66.1182 70.9095 67.0692 70.7047 68.1041C70.5 69.139 70.6063 70.2113 71.0103 71.1859C71.4143 72.1604 72.0978 72.9934 72.9747 73.5799C73.8516 74.1664 74.8825 74.4801 75.9375 74.4813C77.354 74.4658 78.7078 73.8949 79.7077 72.8915C80.7077 71.8881 81.2738 70.5322 81.2844 69.1157ZM83.7687 82.1594C79.0812 77.3501 71.2219 78.4407 68.2 82.2126C73.3812 85.0157 78.525 85.0313 83.7687 82.1594Z" fill="#347BFA"/>
    <path d="M81.2847 69.1152C81.2902 70.1706 80.9829 71.2038 80.4017 72.0847C79.8204 72.9655 78.9912 73.6544 78.0188 74.0643C77.0463 74.4743 75.9742 74.5869 74.9378 74.3881C73.9013 74.1892 72.9471 73.6877 72.1954 72.947C71.4437 72.2062 70.9284 71.2594 70.7144 70.2259C70.5005 69.1925 70.5975 68.1189 70.9932 67.1406C71.3889 66.1622 72.0656 65.3231 72.9378 64.729C73.8101 64.135 74.8388 63.8126 75.8941 63.8027C77.3086 63.8082 78.6648 64.3672 79.6723 65.3601C80.6798 66.353 81.2586 67.7009 81.2847 69.1152Z" fill="#FAFAFA"/>
    <path d="M83.768 82.1598C78.5242 85.0317 73.3805 85.016 68.1992 82.2129C71.2211 78.4379 79.0867 77.3504 83.768 82.1598Z" fill="#F9F9F9"/>
  </g>
  <defs>
    <clipPath id="clip0_3405_16468">
      <rect width="120" height="120" fill="white"/>
    </clipPath>
  </defs>
</svg>