<svg width="220" height="220" viewBox="0 0 220 220" fill="none" xmlns="http://www.w3.org/2000/svg">
<g id="empty-state">
<rect width="219" height="219" transform="translate(0.5 0.5)" fill="white"/>
<g id="Group">
<g id="Layer_3">
<g id="Group_2">
<path id="Vector" d="M41.2969 132.872C41.2969 132.264 41.2969 131.676 41.2969 131.067C46.2649 126.261 51.2127 121.456 56.2213 116.609C54.2138 114.602 52.5308 112.98 50.8883 111.296C47.7047 108.032 44.3385 104.949 41.2969 101.543C41.2969 100.934 41.2969 100.346 41.2969 99.7381C41.9052 98.8459 42.7974 98.2984 43.7302 97.7712C58.8777 89.5181 74.0049 81.2042 89.1524 72.8903C91.4235 71.6331 92.0724 71.7345 93.9583 73.6203C97.953 77.6151 101.968 81.5692 105.902 85.6045C106.733 86.4562 107.159 86.5778 108.051 85.6451C112.107 81.4678 116.244 77.392 120.36 73.2959C121.82 71.8359 122.692 71.7142 124.456 72.6673C128.654 74.9587 132.831 77.2501 137.008 79.5617C138.874 80.5959 139.218 81.5287 138.549 83.5767C137.069 84.9151 136.258 84.9962 134.453 84.0431C132.364 82.9278 130.276 81.8126 128.207 80.7176C126.808 79.9064 125.389 79.1359 124.01 78.2842C123.341 77.8584 122.915 77.98 122.388 78.5275C119.123 81.8531 115.818 85.1381 112.512 88.4231C112.107 88.8287 111.64 89.1531 111.032 89.6601C112.979 90.6739 114.601 91.5256 116.203 92.3773C116.365 92.4989 116.527 92.6409 116.71 92.7423C128.856 99.4137 141.003 106.085 153.129 112.777C153.879 113.182 154.224 113 154.731 112.473C158.158 109.005 161.605 105.558 165.072 102.151C165.721 101.523 165.823 101.259 164.91 100.772C160.895 98.6228 156.9 96.3923 152.906 94.182C151.02 93.1276 150.675 92.3773 151.142 90.3495C152.602 88.7678 153.453 88.6259 155.38 89.7006C160.449 92.4787 165.498 95.277 170.568 98.0145C171.48 98.5012 172.21 99.1298 172.677 100.063C172.677 100.569 172.677 101.097 172.677 101.604C172.17 102.171 171.683 102.759 171.156 103.287C167.12 107.342 163.085 111.398 159.009 115.413C158.259 116.163 158.117 116.508 158.969 117.339C163.004 121.273 166.958 125.288 170.953 129.263C171.602 129.911 172.271 130.54 172.697 131.371C172.697 131.878 172.697 132.406 172.697 132.913C172.109 133.845 171.237 134.413 170.284 134.92C166.167 137.151 162.071 139.442 157.935 141.652C157.245 142.017 157.002 142.443 157.002 143.234C157.042 151.406 157.002 159.558 157.042 167.729C157.042 169.331 156.454 170.366 155.055 171.116C139.644 179.551 124.253 188.007 108.862 196.483C107.565 197.193 106.429 197.193 105.131 196.483C89.7405 188.007 74.3497 179.551 58.9385 171.116C57.5394 170.345 56.931 169.331 56.9513 167.729C56.9919 159.558 56.9513 151.406 56.9919 143.234C56.9919 142.443 56.7688 142.017 56.0591 141.652C51.9224 139.422 47.8263 137.151 43.7099 134.92C42.7569 134.373 41.8849 133.805 41.2969 132.872ZM65.1638 110.262C65.326 110.201 65.4883 110.141 65.6302 110.08C77.7766 103.408 89.9433 96.737 102.09 90.0656C102.292 89.9439 102.576 89.9034 102.597 89.5384C98.9872 85.9289 95.3372 82.3195 91.748 78.6695C91.1194 78.0206 90.6733 77.8989 89.8216 78.3653C82.2174 82.6034 74.5727 86.7603 66.9483 90.9578C62.4669 93.4317 58.0058 95.9259 53.5244 98.3998C51.9224 99.2717 50.3205 100.144 48.6983 100.975C48.171 101.239 48.2522 101.441 48.6172 101.806C52.2672 105.456 55.9172 109.086 59.5672 112.756C59.8713 113.061 60.1147 113.182 60.5405 112.919C62.041 112.006 63.6227 111.134 65.1638 110.262ZM127.579 152.379C127.802 152.278 128.045 152.197 128.268 152.075C140.536 145.343 152.804 138.611 165.052 131.858C165.295 131.716 165.62 131.676 165.742 131.29C162.092 127.64 158.421 124.011 154.812 120.3C154.183 119.671 153.778 119.59 152.987 120.036C145.565 124.153 138.123 128.228 130.681 132.324C125.754 135.042 120.847 137.779 115.919 140.496C114.378 141.308 112.837 142.098 111.194 142.97C115.088 146.864 118.9 150.656 122.672 154.468C123.016 154.813 123.3 154.792 123.685 154.569C124.983 153.839 126.281 153.13 127.579 152.379ZM52.3483 133.683C52.4497 133.764 52.5308 133.845 52.6322 133.906C65.0827 140.74 77.5333 147.573 89.9635 154.427C90.6327 154.792 91.0383 154.772 91.5858 154.204C94.1813 151.548 96.8174 148.932 99.4535 146.296C100.528 145.221 101.623 144.167 102.799 143.031C97.5272 140.131 92.4577 137.353 87.368 134.555C79.6219 130.317 71.896 126.099 64.1499 121.861C63.0347 121.233 61.8991 120.665 60.8447 119.975C60.1552 119.529 59.7699 119.712 59.263 120.239C57.0324 122.53 54.7613 124.761 52.5105 127.012C51.0708 128.451 49.631 129.891 48.0899 131.412C49.5905 132.243 50.9694 132.953 52.3483 133.683ZM116.791 155.928C115.149 154.265 113.526 152.562 111.864 150.919C110.262 149.358 108.802 147.614 107.017 146.235C106.53 146.276 106.348 146.722 106.044 147.006C101.887 151.142 97.7705 155.279 93.6135 159.416C92.1738 160.855 91.2613 160.977 89.4972 160.024C88.0372 159.233 86.5974 158.402 85.1374 157.611C79.5205 154.549 73.9035 151.487 68.2866 148.445C66.2791 147.31 64.2716 146.174 62.1019 144.958C62.1019 152.278 62.1019 159.314 62.0816 166.33C62.0816 166.858 62.3047 167.081 62.7102 167.283C64.5555 168.257 66.3805 169.25 68.2055 170.244C68.3069 170.325 68.4083 170.406 68.5097 170.467C80.2708 176.936 92.0522 183.384 103.813 189.853C103.975 189.954 104.158 190.136 104.401 189.913C104.401 181.559 104.401 173.205 104.401 164.83C104.401 162.599 104.888 161.95 106.977 161.342C109.025 161.95 109.532 162.599 109.532 164.728C109.532 172.758 109.532 180.809 109.532 188.839C109.532 189.244 109.532 189.63 109.532 190.197C112.066 188.778 114.398 187.48 116.75 186.162C116.832 186.142 116.913 186.121 116.994 186.081C128.37 179.835 139.725 173.59 151.121 167.365C151.851 166.959 151.892 166.472 151.872 165.823C151.851 159.314 151.872 152.825 151.872 146.316C151.872 144.958 151.872 144.958 150.614 145.647C141.976 150.392 133.317 155.137 124.679 159.862C122.631 160.997 121.84 160.876 120.157 159.213C119.062 158.118 117.927 157.023 116.791 155.928ZM69.6858 118.961C69.7466 119.022 69.8074 119.083 69.8885 119.124C82.0147 125.775 94.1205 132.426 106.226 139.118C106.936 139.503 107.423 139.28 107.99 138.955C121.333 131.615 134.696 124.294 148.039 116.954C148.343 116.792 148.749 116.711 148.911 116.265C141.205 112.026 133.5 107.788 125.774 103.571C121.07 100.995 116.325 98.4403 111.62 95.865C110.363 95.1553 109.085 94.4659 107.869 93.6953C107.2 93.2695 106.672 93.3506 106.003 93.7359C97.8922 98.2173 89.7608 102.699 81.6294 107.16C76.0733 110.201 70.5374 113.243 64.8394 116.366C66.563 117.278 68.1244 118.11 69.6858 118.961Z" fill="#0E0E0E"/>
<path id="Vector_2" d="M111.638 95.8672C116.362 98.4425 121.087 100.977 125.791 103.573C133.497 107.791 141.203 112.029 148.928 116.267C148.766 116.692 148.361 116.774 148.056 116.956C134.714 124.297 121.351 131.637 108.008 138.957C107.44 139.262 106.953 139.505 106.244 139.12C94.1378 132.428 82.0117 125.797 69.9059 119.126C69.8248 119.085 69.764 119.024 69.7031 118.964C70.0681 118.741 70.4129 118.497 70.7981 118.294C84.4045 110.812 98.0312 103.35 111.638 95.8672Z" fill="#697386"/>
<path id="Vector_3" d="M106.998 161.338C104.909 161.947 104.422 162.595 104.422 164.826C104.422 173.201 104.422 181.575 104.422 189.91C104.179 190.133 104.017 189.95 103.834 189.849C92.053 183.4 80.2918 176.932 68.5307 170.463C68.4293 170.402 68.328 170.321 68.2266 170.24C68.2266 169.307 68.2468 168.375 68.2468 167.442C68.2671 161.095 68.2671 154.768 68.2874 148.421C73.9043 151.483 79.5213 154.525 85.1382 157.587C86.5982 158.378 88.038 159.209 89.4979 160C91.2418 160.953 92.1746 160.831 93.6143 159.391C97.751 155.255 101.888 151.118 106.045 146.982C106.329 146.698 106.531 146.272 107.018 146.211C107.018 148.421 107.018 150.611 107.018 152.822C106.004 152.963 105.173 153.389 104.706 154.363C104.037 155.762 104.808 157.729 107.018 158.013C106.998 159.148 106.998 160.243 106.998 161.338Z" fill="#FDC458"/>
<path id="Vector_4" d="M116.794 155.926C117.929 157.021 119.065 158.116 120.18 159.231C121.863 160.894 122.654 161.016 124.702 159.88C133.34 155.135 141.999 150.39 150.637 145.665C151.895 144.976 151.895 144.976 151.895 146.334C151.895 152.844 151.895 159.332 151.895 165.842C151.895 166.511 151.854 166.997 151.144 167.383C139.748 173.588 128.393 179.854 117.017 186.099C116.936 186.14 116.855 186.16 116.773 186.18C116.773 176.102 116.773 166.004 116.794 155.926Z" fill="#FDB638"/>
<path id="Vector_5" d="M147.451 88.2215C148.546 89.1543 149.824 89.7829 151.142 90.3304C150.675 92.3582 151.02 93.1085 152.906 94.1629C156.901 96.3732 160.875 98.6037 164.91 100.753C165.823 101.24 165.721 101.503 165.073 102.132C161.605 105.559 158.158 109.006 154.731 112.453C154.224 112.96 153.879 113.163 153.129 112.758C141.003 106.066 128.856 99.3946 116.71 92.7232C116.528 92.6218 116.365 92.4799 116.203 92.3582C119.772 88.8096 123.341 85.261 126.91 81.7326C127.295 81.3474 127.599 80.8607 128.187 80.7188C130.276 81.834 132.365 82.9493 134.433 84.0443C136.238 85.0176 137.049 84.9163 138.529 83.5779C139.969 84.3282 141.449 84.9771 142.726 85.991C142.524 87.816 142.929 88.7487 144.126 89.2962C145.322 89.8235 146.376 89.4788 147.451 88.2215Z" fill="#A3ACB9"/>
<path id="Vector_6" d="M64.1532 121.883C71.8993 126.121 79.6455 130.339 87.3713 134.577C92.461 137.355 97.5305 140.153 102.803 143.053C101.647 144.188 100.532 145.243 99.4568 146.318C96.8207 148.933 94.1846 151.549 91.5891 154.226C91.0416 154.794 90.636 154.814 89.9668 154.449C77.5366 147.595 65.086 140.761 52.6355 133.928C52.5341 133.867 52.4327 133.766 52.3516 133.705C56.3666 129.832 60.3005 125.898 64.1532 121.883Z" fill="#A3ACB9"/>
<path id="Vector_7" d="M115.938 140.515C120.865 137.797 125.772 135.06 130.7 132.343C138.142 128.246 145.584 124.171 153.005 120.054C153.776 119.628 154.202 119.689 154.83 120.318C158.44 124.008 162.11 127.658 165.76 131.308C165.638 131.694 165.314 131.734 165.071 131.876C152.802 138.629 140.555 145.361 128.287 152.093C128.064 152.215 127.82 152.296 127.597 152.397C127.192 151.951 126.806 151.505 126.401 151.079C122.893 147.551 119.405 144.023 115.938 140.515Z" fill="#A3ACB9"/>
<path id="Vector_8" d="M53.5234 98.4017C58.0048 95.9278 62.4659 93.4337 66.9473 90.9598C74.5718 86.7623 82.2165 82.6053 89.8207 78.3673C90.6723 77.9009 91.1184 78.0226 91.747 78.6714C95.3362 82.3214 98.9862 85.9309 102.596 89.5403C102.575 89.9256 102.291 89.9662 102.089 90.0676C89.9423 96.7389 77.7959 103.41 65.6293 110.082C65.4873 110.163 65.3251 110.203 65.1629 110.264C63.6015 108.683 62.0604 107.101 60.499 105.519C58.1873 103.147 55.8554 100.774 53.5234 98.4017Z" fill="#A3ACB9"/>
<path id="Vector_9" d="M147.45 88.2187C146.375 89.4962 145.32 89.8409 144.144 89.3137C142.948 88.7662 142.542 87.8132 142.745 86.0084C143.475 84.9945 144.307 84.2443 145.706 84.5687C146.821 84.8323 147.409 85.542 147.673 86.637C147.815 87.1845 147.551 87.6712 147.45 88.2187Z" fill="#0E0E0E"/>
<path id="Vector_10" d="M107.014 152.844C108.697 153.249 109.548 154.121 109.548 155.439C109.548 156.697 108.717 157.568 107.014 158.055C104.803 157.771 104.033 155.804 104.702 154.405C105.148 153.412 105.98 153.006 107.014 152.844Z" fill="#0E0E0E"/>
</g>
</g>
<g id="Layer_4">
<g id="Group_3">
<path id="Vector_11" d="M139.703 60.4224C139.946 60.179 140.21 59.9965 140.494 59.8343C143.313 58.2121 146.131 56.5899 148.95 54.9474C149.68 54.5215 149.943 54.6027 150.349 55.3124C150.795 56.0627 151.221 56.8332 151.667 57.5835C151.87 57.9079 151.89 58.2324 151.85 58.5974C151.424 61.416 151.018 64.2143 150.613 67.0329C150.592 67.114 150.613 67.1749 150.613 67.3168C151.099 67.0329 151.545 66.7896 151.991 66.526C152.945 65.9785 153.877 65.431 154.83 64.8835C155.439 64.5388 155.743 64.6199 156.088 65.2079C156.554 66.019 157.02 66.8302 157.487 67.6413C157.811 68.2293 157.73 68.5538 157.122 68.8985C154.141 70.6221 151.14 72.3457 148.139 74.0896C148.098 74.1099 148.037 74.1504 147.997 74.191C147.835 74.191 147.693 74.191 147.53 74.191C147.307 74.0288 147.145 73.826 147.003 73.5827C146.598 72.8527 146.172 72.1024 145.746 71.3927C145.523 71.0277 145.442 70.6627 145.523 70.2571C145.847 68.0468 146.192 65.8568 146.496 63.6465C146.598 62.9774 146.8 62.3082 146.719 61.6188C146.74 61.6593 146.76 61.6593 146.78 61.6188C146.78 61.5985 146.78 61.5985 146.78 61.5782C146.76 61.5985 146.74 61.6188 146.719 61.639C146.557 61.6188 146.435 61.7607 146.314 61.8215C145.056 62.5313 143.82 63.2613 142.562 63.9913C141.954 64.3563 141.63 64.2549 141.285 63.6465C140.758 62.734 140.23 61.8215 139.703 60.909C139.703 60.7265 139.703 60.5643 139.703 60.4224ZM148.281 56.9752C146.395 58.0499 144.489 59.1449 142.603 60.2196C142.197 60.4427 141.589 60.6049 141.467 60.9496C141.346 61.3146 141.873 61.7404 142.055 62.1866C142.197 62.4907 142.339 62.5313 142.643 62.3488C144.164 61.4565 145.705 60.5846 147.226 59.6924C147.53 59.5099 147.814 59.4288 148.118 59.6518C148.402 59.8546 148.423 60.1588 148.362 60.4832C147.875 63.7277 147.409 66.9924 146.922 70.2368C146.902 70.399 146.881 70.5613 146.983 70.7235C147.307 71.2507 147.611 71.7779 147.895 72.3254C147.997 72.5079 148.058 72.5282 148.24 72.4268C150.471 71.129 152.701 69.8313 154.932 68.5335C155.216 68.3713 155.5 68.2293 155.763 68.0671C155.865 68.0063 156.027 67.9657 155.946 67.8035C155.682 67.3168 155.479 66.7693 155.074 66.4246C154.891 66.2624 154.425 66.749 154.08 66.9113C154.06 66.9315 154.04 66.9518 154.019 66.9721C152.843 67.6413 151.667 68.3104 150.491 68.9796C150.126 69.1824 149.741 69.5474 149.274 69.2229C148.808 68.8985 149.011 68.4118 149.051 67.986C149.213 66.7085 149.396 65.431 149.578 64.1535C149.599 64.0724 149.639 63.9913 149.66 63.8899C149.862 62.4704 150.065 61.0713 150.288 59.6518C150.43 58.8204 150.45 58.0702 149.923 57.2996C149.274 56.306 149.335 56.2654 148.281 56.9752Z" fill="#020304"/>
<path id="Vector_12" d="M173.711 40.0984C173.995 39.7536 174.279 39.4089 174.563 39.0439C175.03 39.267 175.374 39.1453 175.678 38.7398C175.942 38.3748 176.226 38.0503 176.51 37.6853C177.645 36.2861 178.761 34.887 179.896 33.4675C180.119 33.2039 180.241 32.92 180.079 32.5753C179.916 32.2509 179.633 32.1698 179.308 32.19C179.207 32.19 179.085 32.19 178.984 32.19C175.962 32.19 172.961 32.19 169.94 32.2103C169.534 32.2103 169.453 32.0886 169.473 31.7236C169.494 30.73 169.514 29.7567 169.473 28.7631C169.453 28.3373 169.534 28.1953 170.001 28.1953C171.177 28.2359 172.373 28.2156 173.549 28.2156C176.875 28.2156 180.2 28.2156 183.526 28.2359C183.526 29.5945 183.506 30.9734 183.546 32.332C183.546 32.7375 183.445 33.0823 183.242 33.427C181.965 35.5764 180.667 37.7056 179.389 39.855C179.105 40.3417 178.7 40.7675 178.619 41.3556C178.477 41.3556 178.436 41.4367 178.436 41.5786C178.355 41.7003 178.274 41.822 178.173 41.9436C177.179 43.2009 176.165 44.4378 175.171 45.6748C174.969 45.9181 174.867 46.1817 175.009 46.4859C175.151 46.8103 175.435 46.9117 175.76 46.9117C175.901 46.9117 176.043 46.9117 176.165 46.9117C178.619 46.9117 181.052 46.9117 183.506 46.932C183.506 48.25 183.506 49.5681 183.506 50.8861C178.923 50.8861 174.34 50.8861 169.757 50.9064C169.453 50.9064 169.453 50.7645 169.453 50.5414C169.453 49.3045 169.473 48.0878 169.453 46.8509C169.453 46.567 169.534 46.3642 169.717 46.1411C171.015 44.5189 172.312 42.917 173.61 41.2948C174.036 40.8081 174.036 40.6053 173.711 40.0984Z" fill="#FDD890"/>
<path id="Vector_13" d="M173.711 40.1008C174.035 40.6077 174.035 40.8105 173.63 41.2972C172.332 42.9194 171.034 44.5416 169.736 46.1435C169.554 46.3666 169.473 46.5694 169.473 46.8533C169.493 48.0902 169.473 49.3069 169.473 50.5438C169.473 50.7669 169.473 50.9088 169.777 50.9088C174.36 50.8885 178.942 50.8885 183.525 50.8885C184.133 50.8885 184.762 50.8885 185.37 50.9088C185.593 50.9088 185.654 50.848 185.654 50.6249C185.654 49.4894 185.654 48.3538 185.654 47.2183C185.654 46.9952 185.593 46.9344 185.37 46.9344C184.762 46.9547 184.133 46.9547 183.525 46.9547C181.072 46.9547 178.638 46.9547 176.185 46.9344C176.043 46.9344 175.901 46.9344 175.779 46.9344C175.455 46.9344 175.171 46.833 175.029 46.5085C174.887 46.2044 174.988 45.9408 175.191 45.6974C176.185 44.4605 177.198 43.2033 178.192 41.9663C178.293 41.8447 178.375 41.723 178.456 41.6013C178.537 41.5608 178.598 41.4797 178.638 41.3783C178.658 41.358 178.699 41.358 178.719 41.3174C180.99 38.4988 183.241 35.6802 185.512 32.8616C185.614 32.7399 185.675 32.6183 185.675 32.4358C185.675 31.1177 185.675 29.8199 185.675 28.5019C185.675 28.2788 185.614 28.218 185.391 28.218C184.782 28.2383 184.154 28.2383 183.545 28.2383C180.22 28.2383 176.894 28.2383 173.569 28.218C172.393 28.218 171.196 28.2383 170.02 28.1977C169.554 28.1774 169.473 28.3397 169.493 28.7655C169.533 29.7591 169.513 30.7324 169.493 31.726C169.473 32.091 169.554 32.2127 169.959 32.2127C172.981 32.1924 175.982 32.1924 179.003 32.1924C179.105 32.1924 179.226 32.1924 179.328 32.1924C179.652 32.1722 179.936 32.2735 180.098 32.5777C180.26 32.9224 180.139 33.186 179.916 33.4699C178.78 34.8691 177.665 36.2683 176.529 37.6877C176.245 38.0324 175.962 38.3772 175.698 38.7422C175.394 39.1477 175.049 39.2694 174.583 39.0463C174.238 38.5394 174.238 38.3569 174.623 37.8499C175.637 36.5724 176.671 35.3152 177.685 34.0377C177.787 33.916 177.888 33.7741 178.03 33.5916C177.401 33.5916 176.854 33.5916 176.306 33.5916C173.913 33.5916 171.5 33.5916 169.108 33.5916C168.337 33.5916 168.114 33.3685 168.114 32.6183C168.114 30.996 168.114 29.3941 168.114 27.7719C168.114 27.1027 168.357 26.8594 169.027 26.8594C174.725 26.8594 180.423 26.8594 186.121 26.8594C186.83 26.8594 187.053 27.1027 187.053 27.8124C187.053 29.3738 187.033 30.9555 187.053 32.5169C187.053 32.963 186.932 33.3077 186.648 33.6524C183.566 37.4647 180.504 41.2769 177.442 45.0891C177.34 45.2108 177.259 45.3324 177.158 45.4541C177.28 45.596 177.442 45.5149 177.584 45.5149C180.402 45.5149 183.221 45.5149 186.04 45.5149C186.81 45.5149 187.033 45.738 187.033 46.4883C187.033 48.1105 187.033 49.7124 187.033 51.3347C187.033 52.0038 186.79 52.2472 186.121 52.2472C180.423 52.2472 174.725 52.2472 169.027 52.2472C168.317 52.2472 168.094 52.0241 168.094 51.2941C168.094 49.6719 168.094 48.0699 168.094 46.4477C168.094 46.103 168.195 45.8191 168.398 45.5555C169.797 43.8116 171.196 42.088 172.595 40.3441C172.9 39.9791 173.265 39.8777 173.711 40.1008Z" fill="#010101"/>
<path id="Vector_14" d="M162.416 55.8341C164.585 55.2663 166.755 54.6782 168.925 54.1105C169.634 53.928 169.878 54.0699 170.081 54.7594C170.425 55.9963 170.75 57.2535 171.074 58.4905C171.257 59.1799 171.094 59.4435 170.405 59.6463C167.282 60.4777 164.139 61.3294 161.016 62.1607C159.719 62.5055 158.441 62.8502 157.143 63.1949C156.576 63.3369 156.251 63.1746 156.109 62.6068C155.764 61.3293 155.44 60.0518 155.075 58.7744C154.974 58.4093 155.055 58.0849 155.197 57.7605C156.718 54.3132 158.238 50.8457 159.739 47.3782C159.8 47.2363 159.861 47.0944 159.921 46.9524C159.779 46.851 159.658 46.9321 159.536 46.9727C157.488 47.5202 155.44 48.0677 153.392 48.6152C152.642 48.818 152.378 48.676 152.175 47.9257C151.851 46.6888 151.506 45.4721 151.182 44.2352C150.999 43.5457 151.141 43.2821 151.851 43.0996C155.582 42.0857 159.333 41.0921 163.064 40.0782C163.713 39.8957 164.362 39.7132 165.031 39.551C165.701 39.3685 165.984 39.551 166.187 40.2202C166.512 41.4166 166.816 42.6332 167.161 43.8296C167.282 44.2352 167.242 44.6002 167.059 44.9855C165.538 48.4327 164.018 51.9002 162.517 55.3677C162.456 55.5096 162.355 55.6313 162.375 55.7935C162.355 55.8138 162.334 55.8138 162.314 55.8341C162.334 55.8341 162.375 55.8341 162.416 55.8341ZM162.132 52.691C163.328 49.9535 164.524 47.2363 165.741 44.5191C165.802 44.3771 165.802 44.2149 165.761 44.073C165.518 43.1605 165.254 42.2277 165.031 41.3152C164.971 41.0719 164.849 41.0516 164.646 41.1124C164.038 41.2949 163.409 41.4571 162.781 41.6396C159.496 42.5116 156.19 43.3835 152.905 44.2555C152.682 44.3163 152.642 44.3974 152.702 44.6205C152.905 45.3505 153.128 46.0602 153.291 46.7902C153.372 47.1146 153.473 47.1755 153.798 47.0944C155.075 46.7294 156.353 46.4049 157.63 46.0602C158.705 45.7763 159.8 45.4721 160.874 45.1882C161.179 45.1071 161.483 45.1071 161.726 45.3707C161.969 45.6344 161.929 45.9385 161.787 46.2224C161.746 46.2832 161.726 46.3644 161.686 46.4252C159.982 50.2982 158.299 54.151 156.596 58.0241C156.494 58.2471 156.413 58.4702 156.494 58.7338C156.738 59.626 156.981 60.5182 157.204 61.4105C157.265 61.6943 157.387 61.7146 157.65 61.6538C158.928 61.2888 160.226 60.9644 161.523 60.6196C163.531 60.0721 165.538 59.5246 167.566 58.9771C168.174 58.8149 168.783 58.6527 169.391 58.5107C169.614 58.4499 169.594 58.3485 169.553 58.166C169.351 57.3955 169.128 56.6249 168.945 55.8544C168.884 55.6313 168.783 55.5907 168.58 55.6516C167.992 55.8341 167.404 55.9963 166.816 56.1585C166.694 56.1788 166.573 56.1991 166.451 56.2396C164.748 56.6857 163.044 57.1521 161.341 57.5982C160.935 57.6996 160.651 57.5982 160.449 57.2332C160.307 56.9696 160.408 56.7263 160.53 56.483C161.037 55.3069 161.523 54.151 162.03 52.9749C162.051 52.8735 162.091 52.7721 162.132 52.691Z" fill="#020304"/>
<path id="Vector_15" d="M154.975 68.5271C152.744 69.8249 150.514 71.1226 148.283 72.4204C148.1 72.5218 148.019 72.5015 147.938 72.319C147.634 71.7715 147.33 71.2443 147.026 70.7171C146.924 70.5549 146.945 70.3926 146.965 70.2304C147.452 66.986 147.918 63.7212 148.405 60.4768C148.445 60.1524 148.445 59.8685 148.161 59.6454C147.857 59.4224 147.553 59.5035 147.269 59.686C145.748 60.5782 144.207 61.4501 142.686 62.3424C142.382 62.5249 142.24 62.4843 142.098 62.1801C141.916 61.7543 141.389 61.3285 141.51 60.9432C141.612 60.6188 142.24 60.4565 142.646 60.2132C144.532 59.1182 146.438 58.0435 148.324 56.9688C148.77 57.3743 148.912 57.9624 149.256 58.4085C149.621 58.8951 149.662 59.4224 149.662 60.0104C149.642 61.3893 149.662 62.7682 149.662 64.1471C149.479 65.4246 149.297 66.7021 149.135 67.9796C149.074 68.4054 148.891 68.8921 149.358 69.2165C149.824 69.5612 150.209 69.176 150.574 68.9732C151.75 68.304 152.927 67.6349 154.103 66.9657C154.488 67.4118 154.752 67.9593 154.975 68.5271Z" fill="#FDD890"/>
<path id="Vector_16" d="M149.62 64.1526C149.62 62.7737 149.599 61.3948 149.62 60.016C149.64 59.4279 149.579 58.9007 149.214 58.414C148.869 57.9476 148.707 57.3596 148.281 56.9743C149.336 56.2646 149.275 56.3051 149.985 57.319C150.512 58.0896 150.471 58.8398 150.35 59.6712C150.106 61.0704 149.924 62.4899 149.721 63.9093C149.68 63.9904 149.64 64.0715 149.62 64.1526Z" fill="#FD9B00"/>
<path id="Vector_17" d="M154.975 68.5322C154.752 67.9644 154.488 67.4169 154.062 66.9708C154.083 66.9505 154.103 66.9099 154.123 66.9099C154.468 66.7477 154.934 66.2611 155.117 66.4233C155.502 66.768 155.725 67.3155 155.989 67.8022C156.07 67.9644 155.908 68.0049 155.806 68.0658C155.523 68.228 155.239 68.3902 154.975 68.5322Z" fill="#FD9B00"/>
<path id="Vector_18" d="M183.524 28.2547C184.133 28.2547 184.761 28.2547 185.37 28.2344C185.593 28.2344 185.654 28.2952 185.654 28.5183C185.654 29.8363 185.654 31.1341 185.654 32.4522C185.654 32.6144 185.593 32.736 185.491 32.878C183.22 35.6966 180.969 38.5152 178.698 41.3338C178.678 41.3541 178.658 41.3744 178.617 41.3947C178.678 40.8066 179.104 40.3808 179.388 39.8941C180.645 37.7447 181.943 35.6155 183.241 33.466C183.443 33.1416 183.545 32.7766 183.545 32.371C183.504 30.9922 183.524 29.6335 183.524 28.2547Z" fill="#FD9B00"/>
<path id="Vector_19" d="M183.523 46.9343C184.132 46.9343 184.76 46.9343 185.369 46.9141C185.592 46.9141 185.653 46.9749 185.653 47.198C185.653 48.3335 185.653 49.4691 185.653 50.6046C185.653 50.8277 185.592 50.8885 185.369 50.8885C184.76 50.8682 184.132 50.8682 183.523 50.8682C183.523 49.5705 183.523 48.2524 183.523 46.9343Z" fill="#FD9B00"/>
<path id="Vector_20" d="M178.62 41.375C178.6 41.4764 178.539 41.5372 178.438 41.5981C178.438 41.4561 178.498 41.375 178.62 41.375Z" fill="#00A0F3"/>
<path id="Vector_21" d="M167.545 58.9391C165.538 59.4866 163.53 60.0341 161.503 60.5816C160.205 60.9263 158.927 61.2507 157.63 61.6157C157.366 61.6968 157.244 61.6563 157.183 61.3724C156.96 60.4802 156.717 59.588 156.474 58.6957C156.393 58.4321 156.474 58.2091 156.575 57.986C158.278 54.113 159.961 50.2602 161.665 46.3871C161.705 46.3263 161.726 46.2452 161.766 46.1843C161.908 45.8802 161.949 45.5963 161.705 45.3327C161.462 45.0488 161.158 45.0691 160.854 45.1502C159.779 45.4341 158.684 45.7382 157.609 46.0221C156.332 46.3668 155.054 46.6913 153.777 47.0563C153.473 47.1374 153.351 47.0766 153.27 46.7521C153.108 46.0221 152.885 45.2921 152.682 44.5824C152.621 44.3796 152.661 44.2782 152.885 44.2174C156.19 43.3455 159.475 42.4735 162.76 41.6016C162.963 41.703 162.983 41.926 163.044 42.1085C163.287 43.0007 163.51 43.893 163.753 44.7649C163.794 44.9474 163.814 45.1096 163.774 45.2921C163.307 47.2185 162.841 49.1449 162.395 51.0916C162.273 51.5985 162.05 52.1055 162.131 52.653C161.928 52.6732 162.01 52.8152 162.01 52.9368C161.503 54.113 161.016 55.2688 160.509 56.4449C160.408 56.6882 160.306 56.9316 160.428 57.1952C160.61 57.5602 160.915 57.6616 161.32 57.5602C163.023 57.0938 164.727 56.6477 166.43 56.2016C166.552 56.161 166.673 56.161 166.795 56.1204C167.038 57.0735 167.302 58.0063 167.545 58.9391Z" fill="#FDD890"/>
<path id="Vector_22" d="M162.127 52.6744C162.046 52.1269 162.269 51.62 162.39 51.113C162.836 49.1867 163.303 47.24 163.769 45.3136C163.81 45.1311 163.81 44.9689 163.749 44.7864C163.506 43.8942 163.283 43.0222 163.039 42.13C162.978 41.9475 162.958 41.7244 162.755 41.623C163.384 41.4405 163.992 41.2783 164.621 41.0958C164.844 41.035 164.945 41.0755 165.006 41.2986C165.249 42.2111 165.493 43.1439 165.736 44.0564C165.777 44.1983 165.777 44.3605 165.716 44.5025C164.54 47.24 163.323 49.9572 162.127 52.6744Z" fill="#FD9B00"/>
<path id="Vector_23" d="M167.547 58.9402C167.304 58.0074 167.04 57.0746 166.797 56.1418C167.385 55.9796 167.973 55.8174 168.561 55.6349C168.764 55.574 168.865 55.6146 168.926 55.8377C169.129 56.6082 169.332 57.3788 169.534 58.1493C169.575 58.3115 169.595 58.4332 169.372 58.494C168.764 58.636 168.155 58.7982 167.547 58.9402Z" fill="#FD9B00"/>
<path id="Vector_24" d="M162.01 52.9558C162.01 52.8544 161.949 52.6922 162.131 52.6719C162.091 52.7733 162.05 52.8747 162.01 52.9558Z" fill="#00A0F3"/>
</g>
</g>
</g>
</g>
</svg>
