<svg xmlns="http://www.w3.org/2000/svg" width="120" height="120" viewBox="0 0 120 120" fill="none">
  <g clip-path="url(#clip0_3397_16735)">
    <path d="M105.706 63.6307C105.706 78.5057 105.631 93.3807 105.753 108.253C105.788 112.437 102.785 115.656 98.4002 115.615C83.8783 115.49 69.3377 115.571 54.8283 115.559C54.498 115.536 54.1675 115.602 53.8705 115.748C53.5736 115.895 53.3207 116.117 53.1377 116.393C51.7055 118.114 49.715 119.279 47.5127 119.684C46.8265 119.823 46.1132 119.712 45.501 119.373C44.8887 119.033 44.4176 118.486 44.1721 117.831C43.3565 115.843 42.0408 115.362 40.0127 115.521C37.5315 115.718 35.0127 115.584 32.5127 115.565C28.519 115.531 25.7846 112.787 25.7346 108.787C25.7111 108.397 25.7111 108.005 25.7346 107.615C25.8065 106.924 25.5002 106.587 24.9502 106.128C23.3002 104.746 21.544 104.121 19.3565 103.868C16.2721 103.512 14.2815 100.634 14.2783 97.3682C14.2658 86.7432 14.2658 76.1244 14.2783 65.5119C14.2783 53.4088 14.3033 41.3057 14.2596 29.2026C14.2261 28.1325 14.419 27.0675 14.8255 26.0772C15.2321 25.0868 15.8433 24.1935 16.619 23.4557C23.5752 16.5557 30.5054 9.62757 37.4096 2.67132C38.1564 1.87744 39.0624 1.25022 40.0684 0.830713C41.0743 0.411206 42.1575 0.208868 43.2471 0.236944C57.8471 0.274444 72.4502 0.255693 87.0502 0.255693C91.5502 0.255693 94.2377 2.94632 94.2377 7.47444C94.2377 8.60882 94.2721 9.74007 94.2377 10.8713C94.2065 11.5307 94.4033 11.7682 95.0815 11.7307C96.094 11.6776 97.1189 11.7901 98.1252 11.7057C102.738 11.3182 105.813 14.7869 105.76 19.2401C105.6 31.9651 105.703 44.6932 105.703 57.4213L105.706 63.6307ZM58.9658 100.128L58.9252 100.318C59.1158 100.337 59.3064 100.371 59.5002 100.371C68.7919 100.371 78.0846 100.371 87.3783 100.371C89.4565 100.371 90.4846 99.2682 90.5033 97.1369C90.5033 92.9963 90.5033 88.8588 90.5033 84.7182C90.5033 58.9869 90.5033 33.2578 90.5033 7.53069C90.5033 5.12132 89.5065 4.01507 87.3033 4.01507C72.6992 4.01507 58.096 4.00673 43.494 3.99007C42.6408 3.99007 42.4815 4.25257 42.4877 5.04319C42.5221 10.5869 42.5065 16.1338 42.5033 21.6776C42.5415 22.4188 42.4805 23.1618 42.3221 23.8869C41.5408 26.7963 39.1971 28.4901 35.8158 28.5026C30.3471 28.5244 24.8783 28.5432 19.4158 28.4807C18.3033 28.4651 18.019 28.7119 18.0221 29.8557C18.0617 52.1119 18.0721 74.3682 18.0533 96.6245C18.0345 97.0527 18.0439 97.4818 18.0814 97.9088C18.1375 98.4356 18.3442 98.935 18.6767 99.3473C19.0093 99.7597 19.4535 100.067 19.9564 100.234C20.5814 100.468 20.9439 100.428 20.8939 99.5494C20.8031 98.2994 21.0107 97.0456 21.4997 95.8915C21.9887 94.7374 22.7451 93.7162 23.7064 92.9119C24.0627 92.5994 24.0783 92.3745 23.9502 91.9338C23.1408 89.1213 24.069 86.8994 26.6408 85.4057C28.9992 84.0369 31.3617 82.6765 33.7283 81.3244C34.3052 81.0002 34.8255 80.5844 35.2689 80.0932C39.7731 75.1557 44.2815 70.2286 48.794 65.3119C49.6408 64.3932 50.5971 63.5744 49.9752 62.1182C49.9209 61.8492 49.9348 61.571 50.0158 61.3088C50.1523 60.3563 50.5814 59.4697 51.2437 58.7716C51.9059 58.0735 52.7687 57.5984 53.7127 57.4119C54.6752 57.2 55.6805 57.3074 56.5765 57.7179C57.4725 58.1284 58.2103 58.8196 58.6783 59.6869C60.4971 62.7744 62.2783 65.8838 64.0533 68.9994C64.3658 69.5588 64.6377 69.7869 65.3877 69.6744C66.8603 69.4429 68.3685 69.6622 69.7142 70.3033C71.06 70.9445 72.1804 71.9776 72.9283 73.267C73.6763 74.5564 74.0169 76.0419 73.9053 77.5284C73.7938 79.0149 73.2354 80.4329 72.3033 81.5963C71.8658 82.1526 71.8533 82.5338 72.194 83.1026C73.9752 86.1213 75.7221 89.1588 77.4627 92.2026C78.769 94.4869 78.4002 96.8901 76.5252 98.4213C74.7158 99.8995 72.2814 99.7932 70.3439 98.1088C70.2344 97.979 70.0917 97.8813 69.931 97.8262C69.7702 97.7712 69.5976 97.7608 69.4314 97.7963C65.9377 98.587 62.4533 99.3526 58.9658 100.128ZM52.2158 67.1088C47.5815 72.1744 43.0846 77.1088 38.5533 82.0088C38.0721 82.5307 38.2908 82.8682 38.5533 83.3213C41.3846 88.2088 44.2221 93.0932 47.0158 98.0088C47.3658 98.6338 47.7065 98.8057 48.3908 98.6338C54.5471 97.2495 60.7033 95.8651 66.8721 94.5494C67.9033 94.3307 67.7877 94.0432 67.3564 93.2994C64.1002 87.7119 60.8846 82.1026 57.669 76.5026L52.2158 67.1088ZM49.8502 114.215C49.7158 113.981 49.5846 113.74 49.4471 113.506L45.2502 106.249C44.2002 104.434 44.219 104.474 42.3721 105.493C41.6471 105.893 41.7283 106.218 42.0877 106.824C43.494 109.193 44.8471 111.593 46.2221 113.984C47.4502 116.115 47.4502 116.118 49.4627 114.706C49.6346 114.581 49.9377 114.549 49.8502 114.215ZM30.3783 103.243L26.1533 95.937C25.3885 96.554 24.8665 97.4215 24.6795 98.3862C24.4925 99.351 24.6526 100.351 25.1315 101.209C25.62 102.118 26.4171 102.822 27.3791 103.195C28.3412 103.568 29.4048 103.585 30.3783 103.243ZM69.6877 78.7213C71.1846 76.0119 68.8064 73.0963 66.6346 73.4463L69.6877 78.7213Z" fill="#DEEBF8"/>
    <path d="M58.9652 100.127C62.4527 99.3523 65.9465 98.5867 69.4309 97.7992C69.597 97.7637 69.7696 97.7741 69.9304 97.8291C70.0911 97.8842 70.2338 97.9818 70.3434 98.1117C72.2808 99.7867 74.7184 99.893 76.5246 98.4242C78.3996 96.8961 78.7684 94.4898 77.4621 92.2055C75.7215 89.1617 73.9746 86.1242 72.1934 83.1055C71.8527 82.5242 71.8809 82.168 72.3027 81.5992C73.2348 80.4358 73.7932 79.0178 73.9048 77.5313C74.0163 76.0448 73.6757 74.5594 72.9277 73.2699C72.1798 71.9805 71.0594 70.9474 69.7136 70.3062C68.3679 69.6651 66.8597 69.4458 65.3871 69.6773C64.6371 69.7898 64.3715 69.5617 64.0527 69.0023C62.2777 65.8773 60.4965 62.7773 58.6777 59.6898C58.2097 58.8225 57.4719 58.1313 56.5759 57.7208C55.6799 57.3103 54.6746 57.2029 53.7121 57.4148C52.7681 57.6013 51.9053 58.0764 51.2431 58.7745C50.5808 59.4726 50.1518 60.3592 50.0152 61.3117C49.9342 61.5739 49.9203 61.8521 49.9746 62.1211C50.5996 63.5773 49.6402 64.3961 48.7934 65.3148C44.2746 70.2294 39.7715 75.1576 35.284 80.0992C34.8406 80.5904 34.3202 81.0062 33.7434 81.3305C31.3746 82.6805 29.0121 84.0409 26.6559 85.4117C24.084 86.9055 23.1559 89.1148 23.9652 91.9398C24.0934 92.3805 24.0777 92.6055 23.7215 92.918C22.7601 93.7222 22.0037 94.7435 21.5147 95.8975C21.0257 97.0516 20.8181 98.3054 20.909 99.5555C20.959 100.434 20.5965 100.474 19.9715 100.24C19.4686 100.073 19.0243 99.7657 18.6917 99.3533C18.3592 98.941 18.1526 98.4416 18.0965 97.9148C18.0589 97.4878 18.0495 97.0587 18.0684 96.6305C18.0684 74.3742 18.0579 52.118 18.0371 29.8617C18.0371 28.718 18.3184 28.4711 19.4309 28.4867C24.8965 28.5492 30.3684 28.5305 35.8309 28.5086C39.2027 28.5086 41.5559 26.8023 42.3371 23.893C42.4956 23.1679 42.5565 22.4248 42.5184 21.6836C42.5184 16.1398 42.5371 10.593 42.5027 5.04922C42.5027 4.25859 42.6559 3.99609 43.509 3.99609C58.1132 4.02526 72.7163 4.03359 87.3184 4.02109C89.5059 4.02109 90.5183 5.12734 90.5183 7.53672C90.5183 33.2638 90.5183 58.993 90.5183 84.7242C90.5183 88.8648 90.5183 93.0023 90.5183 97.143C90.5183 99.2742 89.484 100.371 87.3933 100.377C78.0996 100.392 68.8069 100.392 59.5152 100.377C59.3215 100.377 59.1309 100.343 58.9402 100.324L58.9652 100.127ZM66.9684 29.0617C71.5309 29.0617 76.0944 29.0617 80.659 29.0617C82.3527 29.0617 83.0059 28.418 83.009 26.743C83.0215 22.8805 83.0215 19.019 83.009 15.1586C83.009 13.4023 82.384 12.7648 80.609 12.7648C71.5611 12.7648 62.5121 12.7648 53.4621 12.7648C51.6809 12.7648 51.0559 13.3898 51.0527 15.1461C51.0527 18.9669 51.0527 22.7898 51.0527 26.6148C51.0527 28.4492 51.6777 29.0617 53.5121 29.0617C57.9975 29.0617 62.4829 29.0617 66.9684 29.0617ZM54.2215 41.543H80.2152C80.605 41.5581 80.9953 41.5498 81.384 41.518C81.7988 41.4973 82.1914 41.3247 82.4871 41.0331C82.7828 40.7414 82.9608 40.3512 82.9871 39.9367C83.0688 39.509 82.9879 39.0662 82.7602 38.6951C82.5324 38.3239 82.1742 38.0513 81.7559 37.9305C81.2666 37.7916 80.7559 37.745 80.2496 37.793H28.2621C27.7184 37.793 27.1684 37.7398 26.6496 37.9773C26.2614 38.124 25.9379 38.4036 25.7365 38.7663C25.535 39.1291 25.4688 39.5516 25.5496 39.9586C25.581 40.3521 25.7492 40.7222 26.0248 41.0047C26.3005 41.2872 26.6664 41.4644 27.059 41.5055C27.4469 41.5493 27.8378 41.5619 28.2277 41.543H54.2215ZM54.384 50.3398H42.7934C37.7184 50.3398 32.6434 50.3398 27.5715 50.3398C26.2559 50.3398 25.509 51.0836 25.5277 52.2148C25.5434 53.2961 26.2902 53.993 27.5184 54.068C27.7496 54.068 27.9871 54.068 28.2215 54.068C45.5861 54.068 62.9527 54.068 80.3215 54.068C80.7868 54.0889 81.2528 54.0447 81.7059 53.9367C82.6652 53.6617 83.0871 52.9555 82.9934 51.9805C82.9775 51.566 82.8093 51.172 82.521 50.8739C82.2327 50.5758 81.8445 50.3946 81.4309 50.3648C81.0033 50.3189 80.573 50.3043 80.1434 50.3211L54.384 50.3398ZM35.4434 66.5898C38.0559 66.5898 40.6715 66.5898 43.284 66.5898C44.6809 66.5898 45.4715 65.8898 45.4715 64.7148C45.4715 63.5398 44.659 62.8398 43.284 62.8398C38.0965 62.8273 32.909 62.8273 27.7215 62.8398C26.3215 62.8398 25.534 63.5461 25.534 64.7148C25.534 65.8836 26.3121 66.5711 27.7215 66.5898C30.2934 66.5867 32.8684 66.5773 35.4434 66.5773V66.5898ZM82.7058 76.5305C81.6152 76.5305 80.5184 76.493 79.4371 76.5305C78.9649 76.5289 78.5102 76.7086 78.1665 77.0324C77.8229 77.3563 77.6166 77.7997 77.5902 78.2711C77.571 78.5155 77.602 78.7612 77.6813 78.9932C77.7606 79.2252 77.8865 79.4385 78.0513 79.62C78.2161 79.8014 78.4163 79.9473 78.6396 80.0485C78.8629 80.1498 79.1045 80.2042 79.3496 80.2086C81.5288 80.2836 83.7069 80.2836 85.884 80.2086C86.13 80.2122 86.3739 80.1641 86.6001 80.0674C86.8263 79.9707 87.0296 79.8276 87.197 79.6473C87.3643 79.4669 87.4919 79.2535 87.5715 79.0207C87.6511 78.788 87.6809 78.5411 87.659 78.2961C87.6246 77.2648 86.8996 76.5617 85.7434 76.518C84.7309 76.4992 83.7184 76.5305 82.7058 76.5305ZM76.8277 59.5211C76.7309 58.643 76.284 57.993 75.3902 57.7586C74.4965 57.5242 73.7809 57.8867 73.3152 58.6742C72.3048 60.3846 71.309 62.1023 70.3277 63.8273C69.6559 65.0148 69.8684 66.1148 70.834 66.6742C71.7996 67.2336 72.8777 66.8836 73.5684 65.7086C74.5371 64.0648 75.4746 62.4023 76.4215 60.7492C76.6584 60.3807 76.7982 59.9582 76.8277 59.5211ZM30.4059 79.1055C31.3809 79.1055 32.3559 79.1461 33.3277 79.1055C34.5434 79.0398 35.259 78.2805 35.2309 77.1836C35.2059 76.1461 34.5027 75.418 33.334 75.3898C31.3861 75.3398 29.4371 75.3398 27.4871 75.3898C26.2371 75.4148 25.5277 76.1555 25.5246 77.243C25.5215 78.3305 26.2527 79.0617 27.4809 79.118C28.4559 79.143 29.4309 79.1086 30.4059 79.1055ZM76.8746 72.8961C77.0555 72.8866 77.2337 72.8486 77.4027 72.7836C79.434 71.6336 81.484 70.5148 83.4652 69.2867C84.2715 68.7867 84.3715 67.6492 83.8527 66.8805C83.2652 66.0086 82.384 65.7398 81.5027 66.2055C79.5465 67.243 77.6371 68.3742 75.7434 69.5305C75.0027 69.9836 74.8059 70.7805 75.0746 71.593C75.3434 72.4055 75.9746 72.8367 76.8746 72.8961Z" fill="#FDFDFD"/>
    <path d="M52.2148 67.1094L57.6523 76.5187C60.8835 82.1187 64.0991 87.7281 67.3398 93.3156C67.771 94.05 67.8867 94.3375 66.8554 94.5656C60.6867 95.8812 54.5304 97.2656 48.3741 98.65C47.6898 98.8062 47.3491 98.625 46.9991 98.025C44.2054 93.1187 41.3742 88.2344 38.5367 83.3375C38.2742 82.8844 38.0554 82.5469 38.5367 82.025C43.0835 77.1063 47.5804 72.1875 52.2148 67.1094Z" fill="#347BFA"/>
    <path d="M49.8509 114.216C49.9384 114.55 49.6353 114.582 49.4634 114.703C47.4509 116.116 47.4509 116.113 46.2228 113.982C44.8478 111.591 43.4946 109.191 42.0884 106.822C41.729 106.216 41.6478 105.885 42.3728 105.491C44.2196 104.472 44.2009 104.432 45.2509 106.247L49.4478 113.507C49.5853 113.75 49.7165 113.982 49.8509 114.216Z" fill="#347BFA"/>
    <path d="M30.3787 103.244C29.4042 103.585 28.3397 103.567 27.3775 103.192C26.4153 102.817 25.6189 102.111 25.1319 101.2C24.6556 100.343 24.4969 99.3451 24.6838 98.3825C24.8707 97.4199 25.3913 96.5541 26.1537 95.9375L30.3787 103.244Z" fill="#347BFA"/>
    <path d="M69.6883 78.7218L66.6445 73.4374C68.8164 73.0968 71.1945 76.0124 69.6883 78.7218Z" fill="#F8F8F8"/>
    <path d="M66.9684 29.0625C62.4809 29.0625 57.9954 29.0625 53.5121 29.0625C51.6684 29.0625 51.0559 28.4375 51.0527 26.6156C51.0527 22.7906 51.0527 18.9677 51.0527 15.1469C51.0527 13.4 51.6777 12.7656 53.4621 12.7656C62.5121 12.7656 71.5611 12.7656 80.609 12.7656C82.384 12.7656 83.0027 13.3906 83.009 15.1594C83.009 19.0219 83.009 22.8833 83.009 26.7437C83.009 28.4187 82.3527 29.0594 80.659 29.0625C76.0923 29.0625 71.5288 29.0625 66.9684 29.0625Z" fill="#347BFA"/>
    <path d="M54.221 41.5378H28.2273C27.8373 41.5567 27.4465 41.5442 27.0585 41.5003C26.6659 41.4593 26.3001 41.2821 26.0244 40.9996C25.7487 40.717 25.5806 40.3469 25.5492 39.9534C25.4684 39.5464 25.5346 39.124 25.736 38.7612C25.9374 38.3984 26.261 38.1188 26.6492 37.9722C27.1679 37.7347 27.7179 37.7878 28.2617 37.7878H80.2492C80.7554 37.7398 81.2662 37.7865 81.7554 37.9253C82.1738 38.0461 82.5319 38.3188 82.7597 38.6899C82.9875 39.0611 83.0684 39.5039 82.9867 39.9316C82.9603 40.346 82.7823 40.7363 82.4866 41.0279C82.191 41.3196 81.7983 41.4922 81.3835 41.5128C80.9948 41.5446 80.6045 41.553 80.2148 41.5378H54.221Z" fill="#347BFA"/>
    <path d="M54.3753 50.3349H80.1316C80.5612 50.3181 80.9916 50.3327 81.4191 50.3786C81.8327 50.4083 82.2209 50.5896 82.5092 50.8877C82.7975 51.1858 82.9657 51.5798 82.9816 51.9942C83.0753 52.9692 82.6535 53.6755 81.6941 53.9505C81.241 54.0585 80.775 54.1027 80.3097 54.0817C62.9451 54.0817 45.5785 54.0817 28.2097 54.0817C27.9753 54.0817 27.7378 54.0817 27.5066 54.0817C26.2785 54.0067 25.5316 53.3099 25.516 52.2286C25.4972 51.0849 26.2441 50.3536 27.5597 50.3536C32.6316 50.3317 37.7066 50.3536 42.7816 50.3536L54.3753 50.3349Z" fill="#347BFA"/>
    <path d="M35.4438 66.5777C32.8688 66.5777 30.2937 66.5777 27.7188 66.5777C26.3094 66.5777 25.5312 65.8902 25.5312 64.7027C25.5312 63.5152 26.3219 62.8277 27.7188 62.8277C32.9062 62.8152 38.0937 62.8152 43.2812 62.8277C44.6656 62.8277 45.4687 63.5559 45.4687 64.7027C45.4687 65.8496 44.6687 66.5559 43.2812 66.5777C40.6719 66.5871 38.0563 66.5777 35.4438 66.5777Z" fill="#347BFA"/>
    <path d="M82.7071 76.5315C83.7196 76.5315 84.7321 76.5002 85.7446 76.5315C86.9009 76.5752 87.6196 77.2783 87.6602 78.3096C87.6821 78.5546 87.6523 78.8015 87.5727 79.0343C87.4932 79.267 87.3656 79.4804 87.1982 79.6607C87.0309 79.8411 86.8275 79.9842 86.6013 80.0809C86.3752 80.1776 86.1312 80.2257 85.8852 80.2221C83.7102 80.2908 81.5321 80.2908 79.3508 80.2221C79.1057 80.2177 78.8641 80.1633 78.6408 80.062C78.4176 79.9608 78.2174 79.815 78.0526 79.6335C77.8877 79.452 77.7618 79.2387 77.6825 79.0067C77.6032 78.7747 77.5722 78.529 77.5915 78.2846C77.6225 77.8165 77.8308 77.3778 78.1739 77.0579C78.517 76.738 78.9692 76.5609 79.4384 76.5627C80.5259 76.5158 81.6258 76.5627 82.7071 76.5627V76.5315Z" fill="#347BFA"/>
    <path d="M76.8276 59.5223C76.7981 59.9595 76.6584 60.382 76.4214 60.7505C75.4839 62.4036 74.5464 64.0661 73.5683 65.7098C72.8776 66.8848 71.8058 67.2411 70.8339 66.6755C69.862 66.1098 69.6558 65.0161 70.3276 63.8286C71.3047 62.1015 72.3006 60.3838 73.3151 58.6755C73.7808 57.888 74.487 57.5255 75.3901 57.7598C76.2933 57.9942 76.7308 58.6442 76.8276 59.5223Z" fill="#347BFA"/>
    <path d="M30.4066 79.1086C29.4316 79.1086 28.4566 79.143 27.4816 79.1086C26.2535 79.0555 25.5254 78.3242 25.5254 77.2336C25.5254 76.143 26.2504 75.4055 27.4879 75.3805C29.4379 75.3367 31.3869 75.3367 33.3348 75.3805C34.5035 75.4086 35.2098 76.1367 35.2316 77.1742C35.2598 78.2711 34.5441 79.0305 33.3285 79.0961C32.3566 79.1461 31.3816 79.1055 30.4066 79.1086Z" fill="#347BFA"/>
    <path d="M76.8755 72.8969C75.9661 72.8375 75.3442 72.4125 75.0755 71.5938C74.8067 70.775 75.0036 69.9844 75.7442 69.5313C77.638 68.375 79.5473 67.2438 81.5036 66.2063C82.3848 65.7406 83.2661 66.0094 83.8536 66.8813C84.3723 67.65 84.2723 68.7875 83.4661 69.2875C81.4848 70.5156 79.4348 71.6344 77.4036 72.7844C77.2346 72.8494 77.0563 72.8874 76.8755 72.8969Z" fill="#347BFA"/>
  </g>
  <defs>
    <clipPath id="clip0_3397_16735">
      <rect width="120" height="120" fill="white"/>
    </clipPath>
  </defs>
</svg>