<svg id="Layer_1" data-name="Layer 1" xmlns="http://www.w3.org/2000/svg" viewBox="0 0 384 384"><defs><style>.cls-1{fill:#fdfdfd;}.cls-2{fill:#deebf8;}.cls-3{fill:#347bfa;}.cls-4{fill:#f8f8f8;}</style></defs><title>marketing report icon</title><path class="cls-1" d="M318.07,299.63q0-94.29-.07-188.56c0-2.57.5-3.07,3.07-3.07q188.93.12,377.86,0c2.57,0,3.07.5,3.07,3.07q-.12,188.93,0,377.86c0,2.57-.5,3.07-3.07,3.07q-188.92-.12-377.86,0c-2.57,0-3.07-.5-3.07-3.07Q318.14,394.28,318.07,299.63Zm338.19,12V291.75c0-40.73-.33-81.46.18-122.18.17-14.25-9.67-25.35-24.43-24.11-3.22.27-6.5-.09-9.74.08-2.17.12-2.8-.64-2.7-2.75.15-3.62,0-7.24,0-10.87,0-14.49-8.6-23.1-23-23.1-46.72,0-93.45.06-140.17-.06a24.77,24.77,0,0,0-18.68,7.79q-33.12,33.39-66.53,66.51a24.33,24.33,0,0,0-7.55,18.39c.14,38.73.06,77.46.06,116.19q0,51,0,101.94c0,10.45,6.38,19.66,16.25,20.8,7,.81,12.62,2.81,17.9,7.23,1.76,1.47,2.74,2.55,2.51,4.76a31.27,31.27,0,0,0,0,3.75c.16,12.8,8.91,21.58,21.69,21.69,8,.06,16,.49,24-.14,6.49-.51,10.7,1,13.31,7.39A9.42,9.42,0,0,0,470.06,491a30.62,30.62,0,0,0,18-10.53,6,6,0,0,1,5.41-2.67c46.48,0,93-.22,139.43.18,14,.13,23.64-10.17,23.53-23.56C656,406.82,656.26,359.22,656.26,311.62Z" transform="translate(-318 -108)"/><path class="cls-2" d="M656.26,311.62c0,47.6-.24,95.2.15,142.79.11,13.39-9.5,23.69-23.53,23.56-46.47-.4-93-.14-139.43-.18a6,6,0,0,0-5.41,2.67,30.62,30.62,0,0,1-18,10.53,9.42,9.42,0,0,1-10.69-5.93c-2.61-6.36-6.82-7.9-13.31-7.39-7.94.63-16,.2-24,.14-12.78-.11-21.53-8.89-21.69-21.69a31.27,31.27,0,0,1,0-3.75c.23-2.21-.75-3.29-2.51-4.76-5.28-4.42-10.9-6.42-17.9-7.23-9.87-1.14-16.24-10.35-16.25-20.8q-.06-51,0-101.94c0-38.73.08-77.46-.06-116.19a24.33,24.33,0,0,1,7.55-18.39q33.39-33.12,66.53-66.51a24.77,24.77,0,0,1,18.68-7.79c46.72.12,93.45.06,140.17.06,14.4,0,23,8.61,23,23.1,0,3.63.11,7.25,0,10.87-.1,2.11.53,2.87,2.7,2.75,3.24-.17,6.52.19,9.74-.08,14.76-1.24,24.6,9.86,24.43,24.11-.51,40.72-.18,81.45-.18,122.18ZM506.69,428.41l-.13.61c.61.06,1.22.17,1.84.17q44.6,0,89.21,0c6.65,0,9.94-3.53,10-10.35,0-13.25,0-26.49,0-39.74q0-123.51,0-247c0-7.71-3.19-11.25-10.24-11.25q-70.1,0-140.19-.08c-2.73,0-3.24.84-3.22,3.37.11,17.74.06,35.49.05,53.23a26.69,26.69,0,0,1-.58,7.07c-2.5,9.31-10,14.73-20.82,14.77-17.5.07-35,.13-52.48-.07-3.56-.05-4.47.74-4.46,4.4q.19,106.83.1,213.66a31.26,31.26,0,0,0,.09,4.11,8.82,8.82,0,0,0,6,7.44c2,.75,3.16.62,3-2.19a25.3,25.3,0,0,1,9-21.24c1.14-1,1.19-1.72.78-3.13-2.59-9,.38-16.11,8.61-20.89q11.32-6.57,22.68-13.06a19.54,19.54,0,0,0,4.93-3.94Q452.48,340.6,474.14,317c2.71-2.94,5.77-5.56,3.78-10.22a5.25,5.25,0,0,1,.13-2.59,14.86,14.86,0,0,1,11.83-12.47A14.51,14.51,0,0,1,505.77,299c5.82,9.88,11.52,19.83,17.2,29.8,1,1.79,1.87,2.52,4.27,2.16a23.65,23.65,0,0,1,22.13,38.15c-1.4,1.78-1.44,3-.35,4.82,5.7,9.66,11.29,19.38,16.86,29.12,4.18,7.31,3,15-3,19.9-5.79,4.73-13.58,4.39-19.78-1a3,3,0,0,0-2.92-1C529,423.48,517.85,425.93,506.69,428.41Zm-21.6-105.66c-14.83,16.21-29.22,32-43.72,47.68-1.54,1.67-.84,2.75,0,4.2,9.06,15.64,18.14,31.27,27.08,47,1.12,2,2.21,2.55,4.4,2,19.7-4.43,39.4-8.86,59.14-13.07,3.3-.7,2.93-1.62,1.55-4-10.42-17.88-20.71-35.83-31-53.75Zm-7.57,150.74c-.43-.75-.85-1.52-1.29-2.27L462.8,448c-3.36-5.81-3.3-5.68-9.21-2.42-2.32,1.28-2.06,2.32-.91,4.26,4.5,7.58,8.83,15.26,13.23,22.91,3.93,6.82,3.93,6.83,10.37,2.31C476.83,474.66,477.8,474.56,477.52,473.49Zm-62.31-35.11L401.69,415a13.33,13.33,0,0,0-3.27,16.87A13.85,13.85,0,0,0,415.21,438.38ZM541,359.91c4.79-8.67-2.82-18-9.77-16.88Z" transform="translate(-318 -108)"/><path class="cls-1" d="M506.69,428.41c11.16-2.48,22.34-4.93,33.49-7.45a3,3,0,0,1,2.92,1c6.2,5.36,14,5.7,19.78,1,6-4.89,7.18-12.59,3-19.9-5.57-9.74-11.16-19.46-16.86-29.12-1.09-1.86-1-3,.35-4.82a23.65,23.65,0,0,0-22.13-38.15c-2.4.36-3.25-.37-4.27-2.16-5.68-10-11.38-19.92-17.2-29.8a14.51,14.51,0,0,0-15.89-7.28,14.86,14.86,0,0,0-11.83,12.47,5.25,5.25,0,0,0-.13,2.59c2,4.66-1.07,7.28-3.78,10.22q-21.69,23.59-43.23,47.31a19.54,19.54,0,0,1-4.93,3.94q-11.37,6.48-22.68,13.06c-8.23,4.78-11.2,11.85-8.61,20.89.41,1.41.36,2.13-.78,3.13a25.3,25.3,0,0,0-9,21.24c.16,2.81-1,2.94-3,2.19a8.82,8.82,0,0,1-6-7.44,31.26,31.26,0,0,1-.09-4.11q0-106.83-.1-213.66c0-3.66.9-4.45,4.46-4.4,17.49.2,35,.14,52.48.07,10.79,0,18.32-5.46,20.82-14.77a26.69,26.69,0,0,0,.58-7.07c0-17.74.06-35.49-.05-53.23,0-2.53.49-3.37,3.22-3.37q70.1.14,140.19.08c7,0,10.24,3.54,10.24,11.25q0,123.49,0,247c0,13.25,0,26.49,0,39.74,0,6.82-3.31,10.33-10,10.35q-44.61.07-89.21,0c-.62,0-1.23-.11-1.84-.17ZM532.3,201q21.9,0,43.81,0c5.42,0,7.51-2.06,7.52-7.42q.06-18.54,0-37.07c0-5.62-2-7.66-7.68-7.66q-43.43,0-86.87,0c-5.7,0-7.7,2-7.71,7.62q0,18.34,0,36.7c0,5.87,2,7.83,7.87,7.83Q510.77,201,532.3,201Zm-40.79,39.94h83.18a31.09,31.09,0,0,0,3.74-.08,5.41,5.41,0,0,0,5.13-5.06,5.59,5.59,0,0,0-3.94-6.42,13.12,13.12,0,0,0-4.82-.44H408.44c-1.74,0-3.5-.17-5.16.59a5.61,5.61,0,0,0-3.52,6.34,5.41,5.41,0,0,0,4.83,4.95,23.27,23.27,0,0,0,3.74.12Zm.52,28.15H454.94c-16.24,0-32.48,0-48.71,0-4.21,0-6.6,2.38-6.54,6,.05,3.46,2.44,5.69,6.37,5.93.74,0,1.5,0,2.25,0q83.35,0,166.72,0a16,16,0,0,0,4.43-.42c3.07-.88,4.42-3.14,4.12-6.26a5.39,5.39,0,0,0-5-5.17,28.23,28.23,0,0,0-4.12-.14Zm-60.61,52c8.36,0,16.73,0,25.09,0,4.47,0,7-2.24,7-6s-2.6-6-7-6q-24.9-.06-49.8,0c-4.48,0-7,2.26-7,6s2.49,5.94,7,6C414.94,321.08,423.18,321.05,431.42,321.05ZM582.66,352.9v0c-3.49,0-7-.12-10.46,0a5.9,5.9,0,0,0-5.91,5.57,5.75,5.75,0,0,0,5.63,6.2q10.46.36,20.91,0a5.62,5.62,0,0,0,5.68-6.12c-.11-3.3-2.43-5.55-6.13-5.69C589.14,352.8,585.9,352.9,582.66,352.9Zm-18.81-54.43c-.31-2.81-1.74-4.89-4.6-5.64s-5.15.41-6.64,2.93q-4.85,8.21-9.56,16.49c-2.15,3.8-1.47,7.32,1.62,9.11s6.54.67,8.75-3.09c3.1-5.26,6.1-10.58,9.13-15.87A8.3,8.3,0,0,0,563.85,298.47ZM415.3,361.14c3.12,0,6.24.13,9.35,0,3.89-.21,6.18-2.64,6.09-6.15-.08-3.32-2.33-5.65-6.07-5.74q-9.35-.24-18.71,0c-4,.08-6.27,2.45-6.28,5.93s2.33,5.82,6.26,6C409.06,361.26,412.18,361.15,415.3,361.14ZM564,341.27a5.51,5.51,0,0,0,1.69-.36c6.5-3.68,13.06-7.26,19.4-11.19,2.58-1.6,2.9-5.24,1.24-7.7-1.88-2.79-4.7-3.65-7.52-2.16-6.26,3.32-12.37,6.94-18.43,10.64-2.37,1.45-3,4-2.14,6.6S561.12,341.08,564,341.27Z" transform="translate(-318 -108)"/><path class="cls-3" d="M485.09,322.75l17.4,30.11c10.34,17.92,20.63,35.87,31,53.75,1.38,2.35,1.75,3.27-1.55,4-19.74,4.21-39.44,8.64-59.14,13.07-2.19.5-3.28-.08-4.4-2-8.94-15.7-18-31.33-27.08-47-.84-1.45-1.54-2.53,0-4.2C455.87,354.74,470.26,339,485.09,322.75Z" transform="translate(-318 -108)"/><path class="cls-3" d="M477.52,473.49c.28,1.07-.69,1.17-1.24,1.56-6.44,4.52-6.44,4.51-10.37-2.31-4.4-7.65-8.73-15.33-13.23-22.91-1.15-1.94-1.41-3,.91-4.26,5.91-3.26,5.85-3.39,9.21,2.42l13.43,23.23C476.67,472,477.09,472.74,477.52,473.49Z" transform="translate(-318 -108)"/><path class="cls-3" d="M415.21,438.38a13.85,13.85,0,0,1-16.79-6.54A13.33,13.33,0,0,1,401.69,415Z" transform="translate(-318 -108)"/><path class="cls-4" d="M541,359.91,531.26,343C538.21,341.91,545.82,351.24,541,359.91Z" transform="translate(-318 -108)"/><path class="cls-3" d="M532.3,201q-21.54,0-43.06,0c-5.9,0-7.86-2-7.87-7.83q0-18.36,0-36.7c0-5.59,2-7.62,7.71-7.62q43.44,0,86.87,0c5.68,0,7.66,2,7.68,7.66q0,18.54,0,37.07c0,5.36-2.1,7.41-7.52,7.42Q554.19,201,532.3,201Z" transform="translate(-318 -108)"/><path class="cls-3" d="M491.51,240.92H408.33a23.27,23.27,0,0,1-3.74-.12,5.41,5.41,0,0,1-4.83-4.95,5.61,5.61,0,0,1,3.52-6.34c1.66-.76,3.42-.59,5.16-.59H574.8a13.12,13.12,0,0,1,4.82.44,5.59,5.59,0,0,1,3.94,6.42,5.41,5.41,0,0,1-5.13,5.06,31.09,31.09,0,0,1-3.74.08Z" transform="translate(-318 -108)"/><path class="cls-3" d="M492,269.07h82.42a28.23,28.23,0,0,1,4.12.14,5.39,5.39,0,0,1,5,5.17c.3,3.12-1.05,5.38-4.12,6.26a16,16,0,0,1-4.43.42q-83.35,0-166.72,0c-.75,0-1.51,0-2.25,0-3.93-.24-6.32-2.47-6.37-5.93-.06-3.66,2.33-6,6.54-6,16.23-.07,32.47,0,48.71,0Z" transform="translate(-318 -108)"/><path class="cls-3" d="M431.42,321.05c-8.24,0-16.48,0-24.72,0-4.51,0-7-2.2-7-6s2.53-6,7-6q24.9-.06,49.8,0c4.43,0,7,2.33,7,6s-2.56,5.93-7,6C448.15,321.08,439.78,321.05,431.42,321.05Z" transform="translate(-318 -108)"/><path class="cls-3" d="M582.66,352.9c3.24,0,6.48-.1,9.72,0,3.7.14,6,2.39,6.13,5.69a5.62,5.62,0,0,1-5.68,6.12q-10.44.33-20.91,0a5.75,5.75,0,0,1-5.63-6.2A5.9,5.9,0,0,1,572.2,353c3.48-.15,7,0,10.46,0Z" transform="translate(-318 -108)"/><path class="cls-3" d="M563.85,298.47a8.3,8.3,0,0,1-1.3,3.93c-3,5.29-6,10.61-9.13,15.87-2.21,3.76-5.64,4.9-8.75,3.09s-3.77-5.31-1.62-9.11q4.69-8.29,9.56-16.49c1.49-2.52,3.75-3.68,6.64-2.93S563.54,295.66,563.85,298.47Z" transform="translate(-318 -108)"/><path class="cls-3" d="M415.3,361.15c-3.12,0-6.24.11-9.36,0-3.93-.17-6.26-2.51-6.26-6s2.32-5.85,6.28-5.93q9.36-.21,18.71,0c3.74.09,6,2.42,6.07,5.74.09,3.51-2.2,5.94-6.09,6.15C421.54,361.27,418.42,361.14,415.3,361.15Z" transform="translate(-318 -108)"/><path class="cls-3" d="M564,341.27c-2.91-.19-4.9-1.55-5.76-4.17s-.23-5.15,2.14-6.6c6.06-3.7,12.17-7.32,18.43-10.64,2.82-1.49,5.64-.63,7.52,2.16,1.66,2.46,1.34,6.1-1.24,7.7-6.34,3.93-12.9,7.51-19.4,11.19A5.51,5.51,0,0,1,564,341.27Z" transform="translate(-318 -108)"/></svg>