<svg xmlns="http://www.w3.org/2000/svg" width="121" height="120" viewBox="0 0 121 120" fill="none">
  <path d="M107.336 63.7538V111.898C107.336 116.923 104.524 119.748 99.5239 119.748H28.8989C24.252 119.748 21.7114 117.56 21.1239 112.982C21.0551 112.454 20.8333 112.379 20.3958 112.319C15.8989 111.694 13.6708 109.135 13.6676 104.594C13.6676 80.2194 13.6624 55.8548 13.652 31.5007C13.6181 30.352 13.8259 29.209 14.2619 28.1458C14.698 27.0826 15.3526 26.1229 16.1833 25.3288C23.777 17.7955 31.3437 10.233 38.8833 2.6413C39.6034 1.87397 40.4755 1.2651 41.444 0.853494C42.4124 0.441891 43.456 0.23659 44.5083 0.250679C60.5499 0.269429 76.5979 0.269429 92.652 0.250679C96.6833 0.250679 99.527 2.8663 99.8676 6.86005C99.9176 7.46318 100.108 7.62255 100.683 7.68505C104.899 8.1663 107.327 10.8913 107.327 15.1319C107.337 31.3444 107.341 47.5517 107.336 63.7538ZM96.1583 56.2538V7.99755C96.1583 5.1663 95.0083 4.01005 92.2051 4.01005C76.5114 4.01005 60.8176 3.99964 45.1239 3.9788C44.0208 3.9788 43.8739 4.31943 43.8739 5.28193C43.9145 11.3726 43.902 17.4694 43.8895 23.5538C43.8895 27.8257 41.2145 30.4882 36.9583 30.4913C30.8676 30.4913 24.7708 30.5257 18.6864 30.4632C17.5739 30.4632 17.3801 30.7913 17.3801 31.8163C17.4072 55.983 17.4145 80.1496 17.402 104.316C17.402 107.523 18.477 108.604 21.6739 108.604H91.9645C95.1051 108.604 96.1583 107.544 96.1583 104.388V56.2538Z" fill="#DEEBF8"/>
  <path d="M96.1531 56.2531V104.378C96.1531 107.534 95.1 108.594 91.9594 108.594H21.6844C18.4875 108.594 17.4125 107.513 17.4125 104.306C17.4125 80.1396 17.4052 55.9729 17.3906 31.8063C17.3906 30.7813 17.5844 30.4406 18.6969 30.4531C24.7875 30.5156 30.8844 30.4844 36.9687 30.4813C41.225 30.4813 43.8938 27.8156 43.9 23.5438C43.9 17.4531 43.925 11.3563 43.8844 5.2719C43.8844 4.3094 44.0156 3.96565 45.1344 3.96877C60.8281 4.01252 76.5219 4.02294 92.2156 4.00002C95.0281 4.00002 96.1656 5.15627 96.1688 7.98752L96.1531 56.2531ZM33.5969 69.4938C33.5969 70.6656 33.5656 71.8375 33.5969 73.0063C33.6281 74.175 34.3406 75.0719 35.3594 74.9344C37.2344 74.6844 38.0531 75.4875 38.3344 77.1844C38.3729 77.376 38.4541 77.5565 38.5719 77.7125C39.3969 78.8438 39.2375 79.7031 38.1094 80.6188C37.0312 81.4938 37.0312 82.5313 37.9281 83.4625C39.5531 85.15 41.2156 86.8 42.8938 88.4344C43.625 89.1438 44.7031 89.4 45.2906 88.5969C46.6219 86.7813 47.9969 87.2563 49.5125 88.1313C49.5802 88.1707 49.6542 88.1982 49.7312 88.2125C51.1125 88.3969 51.5 89.1844 51.3844 90.5344C51.2687 91.8844 52.0344 92.7219 53.3594 92.7469C55.6594 92.7906 57.9656 92.7875 60.2656 92.7469C61.3156 92.725 62.2688 92.15 62.125 91.0719C61.8531 89.0625 62.8531 88.2969 64.55 87.9469C64.6275 87.9361 64.7019 87.9095 64.7687 87.8688C65.9969 86.9313 66.9562 87.1031 67.9562 88.3438C68.7562 89.3375 69.8 89.2813 70.7188 88.3938C72.4042 86.7667 74.0594 85.1094 75.6844 83.4219C76.4375 82.6406 76.5656 81.5469 75.7406 80.9219C74.1781 79.725 74.3312 78.5219 75.2625 77.1188C75.3295 77.0256 75.3754 76.919 75.3969 76.8063C75.6 75.3156 76.4062 74.8063 77.9156 74.9688C79.1281 75.0969 79.9156 74.3438 79.9344 73.2031C79.9812 70.7844 79.9719 68.3625 79.9344 65.9406C79.9344 64.9594 79.3094 64.1094 78.3719 64.2438C76.2531 64.5563 75.4969 63.425 75.1156 61.6813C75.0971 61.6053 75.0631 61.534 75.0156 61.4719C74.1438 60.3063 74.3344 59.4063 75.4906 58.4688C76.5 57.6531 76.5094 56.575 75.6719 55.7031C74.025 53.9844 72.3344 52.3063 70.6219 50.6531C69.8844 49.9438 68.7969 49.7781 68.2156 50.5688C67.0031 52.2156 65.7594 52.025 64.3125 51.0875C64.1829 50.9979 64.036 50.9362 63.8813 50.9063C62.4563 50.725 62.0062 49.9688 62.1531 48.5281C62.2812 47.1938 61.5594 46.4406 60.3719 46.4188C57.95 46.3781 55.5312 46.3875 53.1094 46.4188C52.1125 46.4344 51.2719 47.1188 51.4219 47.9969C51.8 50.2438 50.4469 50.8438 48.7656 51.2969C48.6882 51.31 48.614 51.3376 48.5469 51.3781C47.4375 52.2469 46.625 51.9125 45.7531 50.9031C44.8156 49.825 43.7687 49.8313 42.8031 50.7688C41.1531 52.3719 39.5281 54.0063 37.9187 55.6531C37.1625 56.4281 36.9344 57.5281 37.7844 58.1531C39.5563 59.4219 39.0812 60.7188 38.2312 62.1625C38.173 62.2639 38.1338 62.3751 38.1156 62.4906C37.9125 63.9156 37.1219 64.325 35.7063 64.2031C34.2906 64.0813 33.6031 64.8656 33.575 66.3563C33.5781 67.3875 33.5938 68.4406 33.5969 69.4938ZM69.9844 22.325C75.9531 22.325 81.9219 22.325 87.8906 22.325C89.6562 22.325 90.2562 21.7 90.2594 19.9219C90.2594 16.9198 90.2594 13.9167 90.2594 10.9125C90.2594 9.03752 89.6812 8.4469 87.8438 8.4469H52.2688C50.425 8.4469 49.8281 9.03752 49.8219 10.9C49.8219 13.8167 49.8219 16.7427 49.8219 19.6781C49.8219 21.775 50.3687 22.325 52.4312 22.3281L69.9844 22.325ZM24.2469 79.7406V81.15C24.2469 87.2771 24.2469 93.4073 24.2469 99.5406C24.2469 101.509 24.8719 102.116 26.8563 102.116C35.6417 102.116 44.4271 102.116 53.2125 102.116C53.6388 102.127 54.0647 102.08 54.4781 101.975C54.885 101.882 55.2429 101.641 55.4829 101.299C55.7229 100.958 55.8281 100.539 55.7781 100.125C55.7798 99.6878 55.6145 99.2664 55.316 98.947C55.0174 98.6275 54.6082 98.4341 54.1719 98.4063C53.7834 98.3698 53.393 98.3583 53.0031 98.3719C45.0375 98.3719 37.0656 98.3719 29.1062 98.3875C28.275 98.3875 27.9625 98.25 27.9688 97.3188C28.0156 91.7375 27.9906 86.1531 28 80.5688C28 80.3719 27.85 80.0906 28.2406 79.9688C28.5875 80.3531 28.9281 80.7781 29.3188 81.1531C30.1375 81.9406 31.1719 81.9656 31.9438 81.2531C32.1244 81.1009 32.2727 80.9139 32.3799 80.7034C32.4871 80.4929 32.551 80.263 32.5679 80.0273C32.5848 79.7917 32.5543 79.555 32.4782 79.3314C32.4022 79.1077 32.2821 78.9015 32.125 78.725C30.6229 76.9271 29.0771 75.1656 27.4875 73.4406C27.3243 73.2418 27.1194 73.0812 26.8872 72.9703C26.6551 72.8593 26.4014 72.8007 26.1442 72.7986C25.8869 72.7966 25.6323 72.851 25.3984 72.9582C25.1645 73.0653 24.957 73.2226 24.7906 73.4188C23.1812 75.1719 21.6062 76.9594 20.1031 78.7969C19.4531 79.5844 19.5875 80.4938 20.3156 81.2313C20.4787 81.402 20.6744 81.5383 20.8911 81.632C21.1078 81.7256 21.3412 81.7748 21.5773 81.7765C21.8134 81.7783 22.0474 81.7326 22.2655 81.6421C22.4836 81.5517 22.6813 81.4183 22.8469 81.25C23.2687 80.8625 23.6219 80.4 24.2469 79.7406ZM46.6531 37.025H26.8437C24.825 37.025 24.2406 37.5906 24.2406 39.5688C24.2406 48.3896 24.2406 57.2094 24.2406 66.0281C24.2271 66.4558 24.2809 66.8829 24.4 67.2938C24.5383 67.6775 24.8004 68.0042 25.1449 68.2226C25.4894 68.4409 25.8968 68.5385 26.3028 68.4998C26.7088 68.4611 27.0905 68.2885 27.3876 68.009C27.6847 67.7296 27.8803 67.3592 27.9437 66.9563C27.9876 66.5286 28.0001 66.0983 27.9813 65.6688C27.9813 57.7094 27.9969 49.7469 27.9813 41.7875C27.9813 40.9688 28.1906 40.75 29.0094 40.7531C34.4344 40.7906 39.8594 40.775 45.2844 40.775H46.6281C46.0031 41.3375 45.575 41.7125 45.1844 42.1094C44.8352 42.432 44.627 42.879 44.6048 43.3538C44.5826 43.8286 44.7481 44.2931 45.0656 44.6469C45.3708 45.0107 45.8053 45.2418 46.2776 45.2913C46.7498 45.3409 47.2228 45.2051 47.5969 44.9125C49.4219 43.3834 51.2115 41.8156 52.9656 40.2094C53.1545 40.0498 53.3069 39.8513 53.4122 39.6276C53.5175 39.4038 53.5735 39.16 53.5761 38.9127C53.5788 38.6654 53.5282 38.4204 53.4277 38.1945C53.3272 37.9685 53.1792 37.7668 52.9937 37.6031C51.2479 35.9886 49.4615 34.4167 47.6344 32.8875C47.4547 32.7346 47.2467 32.6186 47.0222 32.5462C46.7977 32.4738 46.5611 32.4464 46.326 32.4656C46.0908 32.4847 45.8618 32.5501 45.652 32.6579C45.4421 32.7657 45.2556 32.9138 45.1031 33.0938C44.3969 33.8813 44.4344 34.8875 45.2312 35.7125C45.5969 36.1031 46.0219 36.45 46.6531 37.025ZM66.9656 98.3688C67.5906 97.7875 68.0156 97.4313 68.3906 97.05C68.7523 96.7151 68.9676 96.2512 68.9898 95.7588C69.012 95.2663 68.8394 94.7849 68.5094 94.4188C68.3571 94.2386 68.1704 94.0907 67.9601 93.9838C67.7499 93.8769 67.5203 93.8131 67.285 93.7962C67.0498 93.7793 66.8135 93.8097 66.5901 93.8855C66.3668 93.9612 66.1608 94.0809 65.9844 94.2375C64.1906 95.7375 62.4292 97.2771 60.7 98.8563C59.8187 99.6594 59.7969 100.731 60.6562 101.538C62.4031 103.15 64.2 104.716 66.025 106.225C66.2056 106.377 66.4149 106.491 66.6404 106.561C66.8659 106.63 67.103 106.654 67.3378 106.63C67.5726 106.607 67.8003 106.536 68.0075 106.423C68.2146 106.31 68.3969 106.157 68.5437 105.972C68.8494 105.612 69.0082 105.151 68.9885 104.679C68.9688 104.208 68.7721 103.761 68.4375 103.428C68.0594 103.022 67.6375 102.659 67.0531 102.1H86.7187C88.7844 102.1 89.3375 101.538 89.3375 99.45C89.3375 90.6688 89.3375 81.8886 89.3375 73.1094C89.3523 72.7968 89.345 72.4835 89.3156 72.1719C89.2787 71.7579 89.0966 71.3702 88.8015 71.0775C88.5065 70.7847 88.1174 70.6056 87.7031 70.5719C86.7969 70.4531 86.1406 70.8844 85.75 71.7375C85.5964 72.1796 85.542 72.6501 85.5906 73.1156C85.5906 78.8531 85.5906 84.5896 85.5906 90.325C85.5906 92.7063 85.5906 95.0865 85.5906 97.4656C85.5906 97.9438 85.6687 98.3656 84.9156 98.3625C79.0281 98.3563 73.15 98.3688 66.9594 98.3688H66.9656ZM85.5906 59.4094C85.0594 58.8031 84.7312 58.3875 84.3625 58.0125C83.5844 57.2313 82.4875 57.1563 81.7312 57.8094C81.5406 57.9638 81.3833 58.1552 81.2687 58.372C81.1541 58.5889 81.0846 58.8267 81.0645 59.0711C81.0443 59.3156 81.0739 59.5616 81.1515 59.7943C81.229 60.0269 81.3529 60.2415 81.5156 60.425C82.9969 62.1875 84.5146 63.9188 86.0687 65.6188C86.9125 66.5563 88.0062 66.575 88.8406 65.6688C90.4281 63.95 91.9656 62.1813 93.4688 60.3906C93.7734 60.0252 93.9236 59.5554 93.8874 59.081C93.8512 58.6066 93.6315 58.165 93.275 57.85C92.9086 57.5213 92.4277 57.3498 91.936 57.3726C91.4443 57.3954 90.9812 57.6107 90.6469 57.9719C90.2437 58.3625 89.8844 58.7969 89.3375 59.3875V58.0063C89.3375 51.8375 89.3375 45.6698 89.3375 39.5031C89.3375 37.5844 88.7656 37.025 86.8125 37.025H60.3438C60.031 37.0059 59.7173 37.0154 59.4062 37.0531C59.0132 37.092 58.6457 37.2652 58.3656 37.5436C58.0855 37.822 57.91 38.1885 57.8687 38.5813C57.7827 38.9871 57.8424 39.4104 58.0372 39.7767C58.2321 40.143 58.5497 40.4289 58.9344 40.5844C59.4112 40.7613 59.9224 40.8254 60.4281 40.7719C68.3531 40.7719 76.275 40.8094 84.2 40.7375C85.45 40.7375 85.6187 41.1063 85.6062 42.2125C85.5469 47.4813 85.5813 52.75 85.5813 58.0188L85.5906 59.4094Z" fill="#FCFCFC"/>
  <path d="M33.6021 69.4935C33.6021 68.4403 33.5833 67.3872 33.6021 66.3341C33.6302 64.8435 34.2896 64.056 35.7333 64.181C37.1771 64.306 37.9396 63.8935 38.1427 62.4685C38.1609 62.353 38.2001 62.2418 38.2583 62.1403C39.1083 60.6966 39.5833 59.3997 37.8115 58.131C36.9615 57.506 37.1865 56.4153 37.9458 55.631C39.5552 53.9841 41.1802 52.3497 42.8302 50.7466C43.7958 49.8091 44.8458 49.8091 45.7802 50.881C46.6521 51.8903 47.4646 52.2247 48.574 51.356C48.6411 51.3154 48.7153 51.2878 48.7927 51.2747C50.474 50.8216 51.8271 50.2216 51.449 47.9747C51.299 47.0966 52.1396 46.4122 53.1365 46.3966C55.5583 46.3622 57.9771 46.3528 60.399 46.3966C61.5865 46.4185 62.3083 47.1716 62.1802 48.506C62.0458 49.931 62.4927 50.6935 63.9083 50.8841C64.0631 50.914 64.2099 50.9757 64.3396 51.0653C65.7865 52.0028 67.0302 52.1935 68.2427 50.5466C68.824 49.756 69.9114 49.9216 70.6489 50.631C72.3614 52.2841 74.0521 53.9622 75.699 55.681C76.5365 56.5528 76.5271 57.631 75.5177 58.4466C74.3615 59.3841 74.1708 60.2841 75.0427 61.4497C75.0902 61.5118 75.1242 61.5831 75.1427 61.6591C75.5239 63.4028 76.2802 64.5278 78.399 64.2216C79.3365 64.0872 79.9396 64.9372 79.9615 65.9185C79.9958 68.3403 80.0052 70.7622 79.9615 73.181C79.9427 74.3091 79.1552 75.0747 77.9427 74.9466C76.4333 74.7841 75.6271 75.2935 75.424 76.7841C75.4025 76.8968 75.3566 77.0035 75.2896 77.0966C74.3521 78.4997 74.2052 79.7028 75.7677 80.8997C76.5927 81.5247 76.4646 82.6216 75.7114 83.3997C74.0865 85.083 72.4313 86.7403 70.7458 88.3716C69.8271 89.2591 68.7833 89.3091 67.9833 88.3216C66.9833 87.0716 66.0239 86.906 64.7958 87.8466C64.729 87.8873 64.6546 87.9139 64.5771 87.9247C62.8802 88.2747 61.8802 89.0403 62.1521 91.0497C62.2958 92.1278 61.3427 92.7028 60.2927 92.7247C57.9927 92.7685 55.6865 92.7716 53.3865 92.7247C52.0615 92.6966 51.2958 91.906 51.4115 90.5122C51.5271 89.1185 51.1396 88.3747 49.7583 88.1903C49.6813 88.176 49.6073 88.1485 49.5396 88.1091C48.024 87.2341 46.649 86.7591 45.3177 88.5747C44.7302 89.3778 43.6521 89.1216 42.9208 88.4122C41.2427 86.7778 39.5802 85.1278 37.9552 83.4403C37.0583 82.5028 37.0583 81.4716 38.1365 80.5966C39.2646 79.681 39.424 78.8216 38.599 77.6903C38.4812 77.5343 38.4 77.3538 38.3615 77.1622C38.0802 75.4653 37.249 74.6622 35.3865 74.9122C34.3677 75.0497 33.6646 74.1278 33.624 72.9841C33.5833 71.8403 33.6021 70.6653 33.6021 69.4935ZM69.2271 84.4935C69.4864 84.2903 69.6458 84.181 69.7802 84.0591C70.0917 83.7084 70.4269 83.3795 70.7833 83.0747C71.674 82.4341 71.7583 81.8872 70.8271 81.1622C69.8958 80.4372 69.7208 79.4747 70.3615 78.4591C71.4724 76.7151 72.2669 74.7886 72.7083 72.7685C72.924 71.7747 73.5958 71.2685 74.6365 71.2278C76.2239 71.1653 76.224 71.1497 76.224 69.5278C76.2067 69.3324 76.2067 69.1358 76.224 68.9403C76.3802 68.0591 76.0333 67.8216 75.1521 67.856C73.6052 67.9185 72.9646 67.4747 72.6896 66.2528C72.2515 64.2724 71.4687 62.3843 70.3771 60.6747C69.8021 59.7841 69.8677 58.9216 70.6083 58.1122C71.6771 56.9435 71.6677 56.9341 70.5364 55.8028C70.3893 55.6751 70.2534 55.535 70.1302 55.3841C69.5865 54.6028 69.1427 54.7278 68.5365 55.3841C67.5365 56.481 66.7177 56.6341 65.6646 55.9528C63.9562 54.8573 62.0646 54.0782 60.0802 53.6528C59.074 53.4372 58.5646 52.7716 58.4677 51.7622C58.3115 50.1185 58.3083 50.1185 56.6927 50.1185C56.5377 50.131 56.382 50.131 56.2271 50.1185C55.3083 49.956 54.9771 50.3247 55.099 51.2435C55.2365 52.4247 54.8177 53.3591 53.5677 53.6372C51.548 54.08 49.6218 54.8744 47.8771 55.9841C47.5088 56.2509 47.0569 56.3766 46.6038 56.3381C46.1507 56.2997 45.7264 56.0998 45.4083 55.7747C44.1583 54.681 44.1583 54.6903 42.9427 55.8997C42.8424 56.0152 42.7303 56.1199 42.6083 56.2122C41.8646 56.7185 41.949 57.131 42.6083 57.731C43.8896 58.9216 43.9177 59.5091 43.0208 60.9841C42.0632 62.5032 41.3829 64.1803 41.0115 65.9372C40.7771 67.1122 40.1396 67.8122 38.8802 67.8653C37.3521 67.9435 37.3521 67.9653 37.3521 69.5372C37.3615 69.6547 37.3615 69.7728 37.3521 69.8903C37.1833 70.9153 37.524 71.3185 38.6396 71.2403C40.0396 71.1403 40.6333 71.6091 40.9302 72.881C41.378 74.8605 42.1691 76.7463 43.2677 78.4528C43.5261 78.8021 43.6533 79.2312 43.627 79.6649C43.6007 80.0986 43.4226 80.5092 43.124 80.8247C42.0021 82.1997 42.0052 82.2028 43.2833 83.481C43.3421 83.5314 43.3965 83.5868 43.4458 83.6466C44.0177 84.5091 44.524 84.3622 45.1177 83.6247C45.8646 82.7028 46.8021 82.3747 47.8958 83.081C49.6006 84.1817 51.4887 84.9681 53.4708 85.4028C54.574 85.6466 55.2427 86.3403 55.099 87.4747C54.9302 88.8247 55.4677 89.206 56.6958 88.9903C56.9275 88.9513 57.1641 88.9513 57.3958 88.9903C58.2677 89.1341 58.5302 88.8091 58.5052 87.9153C58.4521 86.1685 58.8677 85.6841 60.524 85.306C62.2697 84.8982 63.9353 84.2022 65.4521 83.2466C66.7833 82.4247 67.4083 82.5091 68.5396 83.6341C68.7833 83.9091 68.9833 84.2028 69.2302 84.5028L69.2271 84.4935Z" fill="#347BFA"/>
  <path d="M69.9906 22.3187H52.4375C50.375 22.3187 49.8312 21.7656 49.8281 19.6688C49.8281 16.7521 49.8281 13.826 49.8281 10.8906C49.8281 9.01563 50.4313 8.4375 52.275 8.4375H87.85C89.6875 8.4375 90.2656 9.02812 90.2656 10.9031C90.2656 13.9052 90.2656 16.9083 90.2656 19.9125C90.2656 21.6969 89.6625 22.3156 87.8969 22.3156C81.926 22.324 75.9573 22.325 69.9906 22.3187Z" fill="#347BFA"/>
  <path d="M24.2499 79.7342C23.6437 80.3936 23.2812 80.8561 22.8499 81.2405C22.6844 81.4088 22.4867 81.5422 22.2686 81.6326C22.0505 81.7231 21.8164 81.7688 21.5803 81.767C21.3442 81.7653 21.1109 81.7161 20.8942 81.6224C20.6774 81.5288 20.4817 81.3925 20.3187 81.2217C19.5906 80.4842 19.4562 79.5749 20.1062 78.7874C21.6187 76.9499 23.1937 75.1624 24.7937 73.4092C24.9601 73.2131 25.1676 73.0558 25.4015 72.9487C25.6354 72.8415 25.89 72.787 26.1472 72.7891C26.4045 72.7912 26.6582 72.8498 26.8903 72.9607C27.1224 73.0717 27.3273 73.2322 27.4906 73.4311C29.076 75.1561 30.6197 76.9176 32.1218 78.7155C32.2789 78.892 32.399 79.0982 32.475 79.3218C32.5511 79.5455 32.5816 79.7822 32.5647 80.0178C32.5478 80.2535 32.4839 80.4833 32.3767 80.6939C32.2695 80.9044 32.1212 81.0913 31.9406 81.2436C31.1687 81.9561 30.1343 81.9311 29.3156 81.1436C28.9249 80.7686 28.5843 80.3436 28.2374 79.9592C27.8468 80.0811 27.9968 80.3624 27.9968 80.5592C27.9968 86.1436 28.0124 91.728 27.9656 97.3092C27.9656 98.2467 28.2781 98.3811 29.1031 98.378C37.0687 98.3499 45.0406 98.3592 52.9999 98.3624C53.3899 98.3487 53.7802 98.3602 54.1687 98.3967C54.605 98.4246 55.0143 98.618 55.3128 98.9375C55.6113 99.2569 55.7766 99.6783 55.7749 100.115C55.8249 100.53 55.7197 100.948 55.4797 101.29C55.2397 101.631 54.8818 101.872 54.4749 101.965C54.0616 102.07 53.6357 102.118 53.2093 102.106C44.4218 102.106 35.6364 102.106 26.8531 102.106C24.8593 102.106 24.2437 101.5 24.2437 99.5311C24.2437 93.3999 24.2437 87.2697 24.2437 81.1405L24.2499 79.7342Z" fill="#347BFA"/>
  <path d="M46.6536 37.0185C46.0286 36.4435 45.5974 36.0966 45.2192 35.706C44.4224 34.881 44.3849 33.8748 45.0911 33.0873C45.2436 32.9073 45.4301 32.7592 45.64 32.6514C45.8498 32.5436 46.0788 32.4782 46.314 32.4591C46.5491 32.4399 46.7857 32.4673 47.0102 32.5397C47.2347 32.6121 47.4427 32.7281 47.6224 32.881C49.4432 34.4123 51.2297 35.9841 52.9817 37.5966C53.1672 37.7603 53.3152 37.962 53.4157 38.1879C53.5161 38.4139 53.5668 38.6589 53.5641 38.9062C53.5615 39.1535 53.5055 39.3973 53.4002 39.6211C53.2948 39.8448 53.1425 40.0433 52.9536 40.2029C51.2036 41.8112 49.414 43.3789 47.5849 44.906C47.2108 45.1986 46.7378 45.3344 46.2655 45.2848C45.7933 45.2353 45.3588 45.0042 45.0536 44.6404C44.7361 44.2866 44.5706 43.8221 44.5928 43.3473C44.615 42.8725 44.8232 42.4255 45.1724 42.1029C45.563 41.6935 46.0036 41.331 46.6161 40.7685H45.2724C39.8474 40.7685 34.4224 40.7841 28.9974 40.7466C28.1786 40.7466 27.9661 40.9623 27.9692 41.781C28.0005 49.7404 27.988 57.7185 27.9692 65.6623C27.9881 66.0918 27.9756 66.5221 27.9317 66.9498C27.8683 67.3527 27.6726 67.723 27.3756 68.0025C27.0785 68.282 26.6968 68.4546 26.2908 68.4933C25.8847 68.532 25.4774 68.4344 25.1329 68.2161C24.7884 67.9977 24.5263 67.671 24.388 67.2873C24.2689 66.8763 24.2151 66.4493 24.2286 66.0216C24.2286 57.2029 24.2286 48.3831 24.2286 39.5623C24.2286 37.5841 24.813 37.0185 26.8317 37.0185H46.6536Z" fill="#347BFA"/>
  <path d="M66.9592 98.3646C73.1498 98.3646 79.028 98.3646 84.9092 98.3646C85.6623 98.3646 85.5873 97.9459 85.5842 97.4677C85.5842 95.0886 85.5842 92.7084 85.5842 90.3271C85.5842 84.5938 85.5842 78.8573 85.5842 73.1177C85.5356 72.6522 85.59 72.1817 85.7436 71.7396C86.1311 70.8896 86.7905 70.4552 87.6967 70.574C88.113 70.6081 88.5036 70.789 88.7989 71.0843C89.0942 71.3796 89.2751 71.7702 89.3092 72.1865C89.3386 72.4981 89.3459 72.8114 89.3311 73.124C89.3311 81.9052 89.3311 90.6854 89.3311 99.4646C89.3311 101.552 88.778 102.115 86.7123 102.115H67.0592C67.6436 102.674 68.0655 103.036 68.4436 103.443C68.7782 103.776 68.9749 104.222 68.9946 104.694C69.0143 105.165 68.8555 105.627 68.5498 105.986C68.403 106.171 68.2207 106.325 68.0136 106.438C67.8064 106.551 67.5787 106.621 67.3439 106.645C67.1091 106.669 66.872 106.645 66.6465 106.575C66.421 106.506 66.2117 106.391 66.0311 106.24C64.2061 104.715 62.4092 103.149 60.6623 101.552C59.803 100.758 59.8248 99.6771 60.7061 98.8709C62.4311 97.2896 64.1926 95.75 65.9905 94.2521C66.1669 94.0955 66.3728 93.9758 66.5962 93.9001C66.8196 93.8243 67.0559 93.7939 67.2911 93.8108C67.5264 93.8277 67.7559 93.8915 67.9662 93.9984C68.1765 94.1053 68.3632 94.2532 68.5155 94.4334C68.8455 94.7995 69.0181 95.2809 68.9959 95.7734C68.9737 96.2658 68.7584 96.7297 68.3967 97.0646C67.9967 97.4365 67.5905 97.7834 66.9592 98.3646Z" fill="#347BFA"/>
  <path d="M85.5868 59.4096V58.019C85.5868 52.7502 85.5524 47.4815 85.6118 42.2127C85.6118 41.1065 85.4493 40.7252 84.2056 40.7377C76.2806 40.8096 68.3587 40.7752 60.4337 40.7721C59.928 40.8256 59.4167 40.7615 58.9399 40.5846C58.5553 40.4291 58.2376 40.1431 58.0428 39.7768C57.8479 39.4106 57.7883 38.9873 57.8743 38.5815C57.9156 38.1887 58.091 37.8222 58.3711 37.5438C58.6512 37.2654 59.0188 37.0922 59.4118 37.0533C59.7228 37.0155 60.0366 37.0061 60.3493 37.0252H86.8118C88.7649 37.0252 89.3368 37.5846 89.3368 39.5033C89.3368 45.6721 89.3368 51.8398 89.3368 58.0065V59.3783C89.8837 58.7877 90.2431 58.3533 90.6462 57.9627C90.9806 57.6015 91.4436 57.3862 91.9353 57.3634C92.427 57.3406 92.9079 57.5121 93.2743 57.8408C93.6309 58.1558 93.8506 58.5974 93.8867 59.0718C93.9229 59.5462 93.7727 60.016 93.4681 60.3815C91.9618 62.1721 90.4274 63.9408 88.8399 65.6596C88.0056 66.5658 86.9118 66.5346 86.0681 65.6096C84.516 63.9096 82.9983 62.1783 81.5149 60.4158C81.3522 60.2323 81.2283 60.0178 81.1508 59.7851C81.0733 59.5524 81.0437 59.3064 81.0638 59.0619C81.084 58.8175 81.1534 58.5797 81.268 58.3628C81.3826 58.146 81.54 57.9546 81.7306 57.8002C82.4899 57.1471 83.5837 57.2221 84.3618 58.0033C84.7274 58.3877 85.0556 58.8033 85.5868 59.4096Z" fill="#347BFA"/>
  <path d="M69.2299 84.5028C68.983 84.1903 68.783 83.9091 68.533 83.6622C67.4017 82.5372 66.7767 82.4528 65.4455 83.2747C63.9286 84.2303 62.2631 84.9263 60.5174 85.3341C58.8611 85.7122 58.4455 86.1966 58.4986 87.9435C58.5236 88.8372 58.2611 89.1622 57.3892 89.0185C57.1575 88.9794 56.9209 88.9794 56.6892 89.0185C55.4611 89.2341 54.9236 88.8528 55.0924 87.5028C55.2361 86.3685 54.5674 85.6747 53.4642 85.431C51.4821 84.9962 49.594 84.2098 47.8892 83.1091C46.7955 82.3966 45.858 82.731 45.1111 83.6528C44.5174 84.3903 44.0111 84.5372 43.4392 83.6747C43.3899 83.615 43.3355 83.5595 43.2767 83.5091C41.9986 82.231 41.9955 82.2278 43.1174 80.8528C43.416 80.5373 43.5941 80.1267 43.6204 79.693C43.6467 79.2594 43.5195 78.8303 43.2611 78.481C42.1625 76.7745 41.3714 74.8886 40.9236 72.9091C40.6111 71.6372 40.033 71.1685 38.633 71.2685C37.5174 71.3466 37.1767 70.956 37.3455 69.9185C37.3549 69.8009 37.3549 69.6829 37.3455 69.5653C37.3455 68.0028 37.3455 67.9716 38.8736 67.8935C40.1236 67.831 40.7705 67.1403 41.0049 65.9653C41.3763 64.2084 42.0567 62.5314 43.0142 61.0122C43.9111 59.5372 43.883 58.9497 42.6017 57.7591C41.9549 57.1591 41.8705 56.7466 42.6017 56.2403C42.7237 56.148 42.8358 56.0433 42.9361 55.9278C44.1455 54.7185 44.1517 54.7091 45.4017 55.8028C45.7198 56.1279 46.1441 56.3278 46.5972 56.3663C47.0503 56.4047 47.5022 56.2791 47.8705 56.0122C49.6152 54.9025 51.5414 54.1081 53.5611 53.6653C54.8111 53.3872 55.2299 52.4528 55.0924 51.2716C54.983 50.3528 55.3017 49.9841 56.2205 50.1466C56.3754 50.1591 56.5312 50.1591 56.6861 50.1466C58.3017 50.1466 58.3049 50.1466 58.4611 51.7903C58.558 52.7997 59.0674 53.4653 60.0736 53.681C62.058 54.1064 63.9496 54.8855 65.658 55.981C66.7111 56.6528 67.533 56.5091 68.5299 55.4122C69.1361 54.7497 69.5798 54.6247 70.1236 55.4122C70.2468 55.5631 70.3828 55.7032 70.5299 55.831C71.6611 56.9622 71.6705 56.9716 70.6017 58.1403C69.8611 58.9497 69.7955 59.8122 70.3705 60.7028C71.4613 62.4034 72.2461 64.2817 72.6892 66.2528C72.9674 67.4747 73.6049 67.9185 75.1517 67.856C76.033 67.8216 76.3799 68.0591 76.2236 68.9403C76.2064 69.1358 76.2064 69.3324 76.2236 69.5278C76.2236 71.1497 76.2236 71.1653 74.6361 71.2278C73.5955 71.2685 72.9236 71.7747 72.708 72.7685C72.2666 74.7886 71.4721 76.7151 70.3611 78.4591C69.7361 79.4747 69.908 80.4497 70.8267 81.1622C71.7455 81.8747 71.6736 82.4341 70.783 83.0747C70.4274 83.3817 70.0933 83.7127 69.783 84.0653C69.6486 84.1966 69.4892 84.2997 69.2299 84.5028ZM43.8267 69.5028C43.7962 71.2265 44.1088 72.939 44.7463 74.5408C45.3838 76.1425 46.3336 77.6014 47.5403 78.8326C48.747 80.0638 50.1865 81.0428 51.775 81.7124C53.3636 82.382 55.0695 82.729 56.7934 82.7332C58.5174 82.7373 60.2249 82.3985 61.8167 81.7365C63.4084 81.0745 64.8527 80.1026 66.0653 78.8772C67.2778 77.6518 68.2346 76.1974 68.8798 74.5988C69.525 73.0001 69.8459 71.2891 69.8236 69.5653C69.7962 66.1367 68.4282 62.8548 66.0122 60.4218C63.5961 57.9888 60.3239 56.5979 56.8955 56.5466C49.7767 56.4497 43.8611 62.3153 43.8267 69.4935V69.5028Z" fill="#FCFCFC"/>
  <path d="M43.8284 69.4885C43.8628 62.301 49.7659 56.4447 56.8971 56.5322C60.311 56.5987 63.5617 58.0056 65.9468 60.4491C68.3319 62.8925 69.6599 66.1762 69.6439 69.5907C69.6279 73.0052 68.2692 76.2763 65.8612 78.6973C63.4533 81.1182 60.1896 82.4946 56.7753 82.5291C55.0676 82.5275 53.3771 82.1884 51.8009 81.5313C50.2247 80.8742 48.794 79.9121 47.5908 78.7003C46.3877 77.4884 45.4359 76.0507 44.7902 74.4699C44.1446 72.889 43.8177 71.1961 43.8284 69.4885ZM55.3659 74.6635C55.9549 74.63 56.5072 74.3662 56.9034 73.9291C58.9284 71.8728 60.9659 69.8385 62.9878 67.7697C63.8846 66.8478 63.9034 65.7447 63.1034 64.9728C62.3034 64.201 61.2534 64.2572 60.3159 65.1697C59.3127 66.151 58.3377 67.1635 57.3471 68.1541C56.7221 68.7791 56.1127 69.8603 55.4221 69.9228C54.6096 69.9978 54.0784 68.7853 53.3627 68.201C53.3315 68.1791 53.3096 68.1447 53.2784 68.1197C52.3409 67.2635 51.244 67.2166 50.4659 68.001C49.6878 68.7853 49.7346 69.876 50.6471 70.7916C51.744 71.901 52.8846 72.9791 53.9971 74.0572C54.3657 74.4172 54.8516 74.6324 55.3659 74.6635Z" fill="#347BFA"/>
  <path d="M55.3634 74.6661C54.8535 74.6322 54.3726 74.4172 54.0072 74.0599C52.8947 72.9693 51.7541 71.9037 50.6572 70.7943C49.7447 69.8755 49.6978 68.8005 50.4759 68.0036C51.2541 67.2068 52.3353 67.2661 53.2884 68.1224C53.3197 68.1474 53.3416 68.1818 53.3728 68.2036C54.0884 68.788 54.6228 70.0005 55.4322 69.9255C56.1228 69.863 56.7228 68.7912 57.3572 68.1568C58.3478 67.1662 59.3228 66.1536 60.3259 65.1724C61.2634 64.2599 62.3134 64.2005 63.1134 64.9755C63.9134 65.7505 63.8947 66.8505 62.9978 67.7724C60.9822 69.8411 58.9353 71.8755 56.9134 73.9318C56.5142 74.3719 55.9569 74.6359 55.3634 74.6661Z" fill="#FCFCFC"/>
</svg>