<svg xmlns="http://www.w3.org/2000/svg" width="120" height="120" viewBox="0 0 120 120" fill="none">
  <g clip-path="url(#clip0_3397_16767)">
    <path d="M108.52 60.0528V112.993C108.52 117.347 106.141 119.74 101.816 119.74C73.9414 119.74 46.0664 119.706 18.1914 119.784C14.4571 119.784 11.4289 117.162 11.4414 112.997C11.5289 83.9883 11.5362 54.9799 11.4633 25.9716C11.4335 24.9424 11.6219 23.9185 12.0161 22.9673C12.4104 22.0161 13.0016 21.1591 13.7508 20.4528C19.7925 14.4966 25.7862 8.51222 31.7321 2.49972C32.4272 1.76443 33.2698 1.18421 34.2047 0.797016C35.1395 0.409824 36.1456 0.224388 37.1571 0.252843C58.7071 0.284093 80.2581 0.290344 101.81 0.271594C106.141 0.271594 108.516 2.65909 108.52 7.00909V60.0528ZM104.77 60.0216V6.85284C104.77 4.77784 104.01 4.00597 101.957 4.00597C80.5258 4.00597 59.0946 3.99868 37.6633 3.98409C36.7758 3.98409 36.5727 4.20909 36.5789 5.07784C36.6258 9.80284 36.6071 14.5247 36.6008 19.2497C36.6008 23.1778 34.3758 25.3935 30.4289 25.3997C25.8227 25.3997 21.2164 25.4403 16.6102 25.3747C15.5164 25.3747 15.1914 25.5778 15.1946 26.7466C15.2321 55.4362 15.2414 84.1289 15.2227 112.825C15.2227 115.359 15.8477 115.99 18.4071 115.99H101.563C104.12 115.99 104.763 115.365 104.763 112.84L104.77 60.0216Z" fill="#DEEBF8"/>
    <path d="M104.77 60.0223V112.835C104.77 115.354 104.126 115.985 101.57 115.985H18.4195C15.8695 115.985 15.2352 115.36 15.2352 112.819C15.2352 84.1254 15.2258 55.4327 15.207 26.741C15.207 25.5723 15.5195 25.3535 16.6227 25.3691C21.2289 25.4348 25.8352 25.4035 30.4414 25.3941C34.3883 25.3941 36.607 23.1723 36.6133 19.2441C36.6133 14.5191 36.6383 9.79727 36.5914 5.07227C36.5914 4.20352 36.7883 3.97852 37.6758 3.97852C59.107 4.00768 80.5383 4.01497 101.97 4.00039C104.01 4.00039 104.782 4.77227 104.782 6.84727L104.77 60.0223ZM93.7508 45.8191C93.7508 38.4066 93.7508 30.9921 93.7508 23.5754C93.7508 21.8723 93.1258 21.2285 91.4383 21.216C88.3549 21.1952 85.2716 21.1952 82.1883 21.216C80.4227 21.216 79.8008 21.841 79.8008 23.6285C79.8008 38.4598 79.8008 53.2889 79.8008 68.116C79.8008 69.9379 80.4258 70.5285 82.3008 70.5316C85.2674 70.5316 88.2341 70.5316 91.2008 70.5316C93.1852 70.5316 93.7508 69.9598 93.7539 67.9473L93.7508 45.8191ZM44.0633 49.8254V67.9816C44.0633 69.9004 44.6883 70.5285 46.5633 70.5316C49.5695 70.5316 52.5758 70.5316 55.582 70.5316C57.4164 70.5316 58.082 69.9066 58.082 68.0816C58.082 55.9379 58.082 43.7952 58.082 31.6535C58.082 29.8848 57.457 29.2441 55.6945 29.2348C52.6487 29.2181 49.6029 29.2181 46.557 29.2348C44.6477 29.2348 44.082 29.8316 44.082 31.7879L44.0633 49.8254ZM43.482 79.8941C39.0695 79.8941 34.6591 79.8941 30.2508 79.8941C27.5914 79.8941 26.232 81.2598 26.2289 83.9285C26.2289 91.3035 26.2289 98.6796 26.2289 106.057C26.2289 108.694 27.6289 110.088 30.2758 110.088C39.0258 110.088 47.7674 110.088 56.5008 110.088C59.0914 110.088 60.5164 108.704 60.5227 106.147C60.5352 98.6931 60.5352 91.2389 60.5227 83.7848C60.5227 81.2848 59.1133 79.9004 56.5945 79.8941C52.2383 79.8879 47.8664 79.8941 43.4977 79.8941H43.482ZM75.9383 54.091C75.9383 49.4098 75.9383 44.7296 75.9383 40.0504C75.9383 38.3691 75.2883 37.7316 73.5977 37.7254C70.5164 37.7254 67.4362 37.7254 64.357 37.7254C62.5914 37.7254 61.9445 38.3504 61.9445 40.1066C61.9445 49.4671 61.9445 58.8275 61.9445 68.1879C61.9445 69.8566 62.632 70.5254 64.2977 70.5316C67.3372 70.5316 70.3789 70.5316 73.4227 70.5316C75.3227 70.5316 75.9383 69.9066 75.9414 68.0129C75.9393 63.3733 75.9383 58.7327 75.9383 54.091ZM82.782 11.9035C82.3945 12.3191 82.2758 12.4629 82.1414 12.5879C77.9226 16.4785 73.6852 20.3473 69.507 24.2754C68.8601 24.8848 68.4852 24.7723 67.857 24.3473C62.857 20.9598 57.8414 17.5931 52.8102 14.2473C51.0352 13.0598 50.4008 13.1629 49.1039 14.8504C44.8914 20.3191 40.682 25.791 36.4758 31.266C34.9279 33.2764 33.3831 35.2858 31.8414 37.2941C31.2539 38.0598 31.1758 38.8785 31.7414 39.6723C32.2539 40.3879 32.9914 40.5473 33.8289 40.2973C34.4352 40.1254 34.7664 39.6254 35.1195 39.1629C40.3508 32.3629 45.5779 25.5577 50.8008 18.7473C51.3164 18.0723 51.6414 17.9191 52.4289 18.4598C57.4289 21.866 62.4477 25.2066 67.4695 28.566C68.7445 29.416 69.4602 29.366 70.5945 28.3316C72.1789 26.8848 73.7445 25.416 75.3227 23.9566C78.382 21.1441 81.4445 18.3129 84.5633 15.4348C84.757 16.1785 84.4445 16.7535 84.3914 17.3535C84.2851 18.541 84.8758 19.416 85.932 19.6098C86.9258 19.7941 87.8851 19.0941 88.1008 17.9473C88.5477 15.5723 88.9758 13.1941 89.3508 10.8098C89.5789 9.41289 88.8633 8.53477 87.4477 8.45977C85.0695 8.32852 82.6914 8.23164 80.3133 8.14727C79.0445 8.10664 78.2758 8.74101 78.1852 9.81914C78.0945 10.8973 78.8102 11.7535 80.0977 11.866C80.8664 11.9598 81.6414 11.9066 82.7695 11.9066L82.782 11.9035ZM26.2508 59.6691C26.2508 62.5191 26.2508 65.3691 26.2508 68.2191C26.2508 69.8535 26.8945 70.5223 28.4883 70.5285C31.6487 70.5431 34.8102 70.5431 37.9727 70.5285C39.4633 70.5285 40.1852 69.8785 40.1945 68.4285C40.2195 62.6493 40.2195 56.8723 40.1945 51.0973C40.1945 49.6254 39.4914 48.9816 38.007 48.9754C34.8445 48.9587 31.6831 48.9587 28.5227 48.9754C26.8914 48.9754 26.257 49.6191 26.2508 51.241C26.2508 54.0629 26.2508 56.8754 26.2508 59.6691ZM79.8977 84.0285H68.7664C68.3376 84.0138 67.9084 84.0305 67.482 84.0785C66.4445 84.2348 65.8789 84.8816 65.8758 85.9098C65.8758 86.8879 66.4258 87.5129 67.3914 87.7098C67.7372 87.7678 68.088 87.7898 68.4383 87.7754C76.0112 87.7754 83.5831 87.7754 91.1539 87.7754C91.5812 87.7954 92.0091 87.7565 92.4258 87.6598C92.8177 87.5459 93.1604 87.3044 93.3994 86.9735C93.6384 86.6426 93.7599 86.2414 93.7449 85.8336C93.7298 85.4257 93.5789 85.0346 93.3161 84.7223C93.0534 84.41 92.6938 84.1944 92.2945 84.1098C91.8711 84.0414 91.4419 84.0152 91.0133 84.0316L79.8977 84.0285ZM79.7914 105.938C83.6977 105.938 87.6029 105.938 91.507 105.938C92.9352 105.938 93.7258 105.285 93.7539 104.125C93.782 102.919 92.957 102.197 91.4883 102.194C83.7195 102.194 75.9497 102.194 68.1789 102.194C66.707 102.194 65.8539 102.91 65.8633 104.069C65.8727 105.229 66.6976 105.919 68.1945 105.922C72.0612 105.933 75.9268 105.938 79.7914 105.938ZM79.7914 96.8535H88.8102C89.8633 96.8535 90.9195 96.8754 91.9695 96.8316C93.0195 96.7879 93.6258 96.2066 93.7477 95.166C93.8043 94.6928 93.672 94.2163 93.3795 93.8401C93.0869 93.4639 92.6577 93.2183 92.1852 93.1566C91.9156 93.1134 91.6424 93.0966 91.3695 93.1066C83.6779 93.1066 75.9872 93.1066 68.2977 93.1066C67.8738 93.0922 67.4506 93.1525 67.0477 93.2848C66.6748 93.4288 66.3591 93.6907 66.1488 94.0307C65.9384 94.3706 65.8449 94.77 65.8824 95.168C65.9199 95.566 66.0864 95.9408 66.3565 96.2355C66.6267 96.5302 66.9857 96.7285 67.3789 96.8004C67.7665 96.8489 68.1574 96.8646 68.5476 96.8473L79.7914 96.8535Z" fill="#FDFDFD"/>
    <path d="M93.75 45.8184V67.9465C93.75 69.959 93.1813 70.5309 91.1969 70.5309C88.2302 70.5309 85.2635 70.5309 82.2969 70.5309C80.4219 70.5309 79.7969 69.9371 79.7969 68.1152C79.7969 53.2861 79.7969 38.4569 79.7969 23.6277C79.7969 21.8527 80.4219 21.2246 82.1844 21.2152C85.2698 21.1965 88.3531 21.1965 91.4344 21.2152C93.1344 21.2152 93.7469 21.8715 93.7469 23.5746C93.7615 30.9829 93.7625 38.3975 93.75 45.8184Z" fill="#347BFA"/>
    <path d="M44.0773 49.8246V31.7871C44.0773 29.8309 44.643 29.2402 46.5523 29.234C49.6003 29.2215 52.6461 29.2215 55.6898 29.234C57.443 29.234 58.0742 29.884 58.0773 31.6527C58.0773 43.7944 58.0773 55.9371 58.0773 68.0809C58.0773 69.8965 57.4211 70.5277 55.5773 70.5309C52.5711 70.5309 49.5648 70.5309 46.5586 70.5309C44.6836 70.5309 44.0586 69.9059 44.0586 67.9809L44.0773 49.8246Z" fill="#347BFA"/>
    <path d="M43.4965 79.8937C47.8715 79.8937 52.2465 79.8937 56.6215 79.8937C59.1402 79.8937 60.5434 81.2719 60.5496 83.7844C60.5621 91.2385 60.5621 98.6927 60.5496 106.147C60.5496 108.703 59.1184 110.087 56.5277 110.087C47.7777 110.087 39.0361 110.087 30.3027 110.087C27.6559 110.087 26.259 108.694 26.2559 106.056C26.2559 98.6771 26.2559 91.301 26.2559 83.9281C26.2559 81.2594 27.6184 79.8969 30.2777 79.8937C34.6757 79.8896 39.0819 79.8896 43.4965 79.8937ZM43.3715 106.344C47.509 106.344 51.6465 106.344 55.784 106.344C56.3559 106.344 56.8152 106.412 56.809 105.544C56.7777 98.4812 56.7777 91.4167 56.809 84.35C56.809 83.7906 56.659 83.6125 56.0934 83.625C54.3746 83.6594 52.6559 83.6688 50.9402 83.625C50.2746 83.6063 50.1715 83.8781 50.1871 84.45C50.2246 85.7 50.1871 86.95 50.1871 88.2C50.2081 88.7085 50.0796 89.212 49.8174 89.6483C49.5553 90.0845 49.171 90.4344 48.7121 90.6545C48.2532 90.8746 47.7399 90.9554 47.2355 90.8868C46.7312 90.8183 46.2581 90.6034 45.8746 90.2687C45.2059 89.7281 44.5277 89.2031 43.8871 88.6312C43.5246 88.3187 43.2621 88.3 42.8965 88.6312C42.3184 89.1531 41.6871 89.6188 41.0934 90.1219C40.1871 90.8938 39.1934 91.2062 38.0715 90.6625C36.9496 90.1187 36.5371 89.1906 36.5621 87.9875C36.5871 86.7844 36.5402 85.5656 36.5777 84.3562C36.5965 83.8031 36.4371 83.6219 35.8652 83.6344C34.1902 83.6688 32.509 83.6938 30.834 83.6344C30.0434 83.6031 29.9684 83.9125 29.9715 84.5719C29.9902 91.5177 29.9902 98.4656 29.9715 105.416C29.9715 106.206 30.2121 106.375 30.9559 106.369C35.0934 106.325 39.2309 106.344 43.3715 106.344Z" fill="#347BFA"/>
    <path d="M75.9383 54.0902C75.9383 58.7319 75.9383 63.3725 75.9383 68.0121C75.9383 69.9152 75.3133 70.5277 73.4195 70.5309C70.3758 70.5309 67.3341 70.5309 64.2945 70.5309C62.6289 70.5309 61.9445 69.8559 61.9414 68.1871C61.9414 58.8246 61.9414 49.4642 61.9414 40.1059C61.9414 38.3559 62.5883 37.7277 64.3539 37.7246C67.4351 37.7246 70.5154 37.7246 73.5945 37.7246C75.2851 37.7246 75.932 38.3684 75.9351 40.0496C75.9372 44.7309 75.9383 49.4111 75.9383 54.0902Z" fill="#347BFA"/>
    <path d="M82.7686 11.9062C81.6405 11.9062 80.8655 11.9594 80.0967 11.9062C78.8155 11.7937 78.0905 10.9687 78.1842 9.85935C78.278 8.74998 79.0436 8.14685 80.3123 8.18747C82.6905 8.2656 85.0686 8.36247 87.4467 8.49997C88.8623 8.57497 89.578 9.4531 89.3498 10.85C88.9592 13.2344 88.5311 15.6125 88.0998 17.9875C87.8842 19.1343 86.9248 19.8344 85.9311 19.65C84.8748 19.4562 84.2842 18.5812 84.3905 17.3937C84.4436 16.7937 84.7561 16.2187 84.5623 15.475C81.4373 18.3531 78.3811 21.1718 75.3217 23.9968C73.7436 25.4531 72.178 26.9218 70.5936 28.3718C69.4623 29.4062 68.7467 29.4562 67.4686 28.6062C62.4467 25.2468 57.4155 21.9062 52.428 18.5C51.6405 17.9593 51.3155 18.1125 50.7998 18.7875C45.5915 25.6062 40.3644 32.4114 35.1186 39.2031C34.7623 39.6656 34.4342 40.1656 33.828 40.3375C32.9967 40.5718 32.2655 40.4125 31.7405 39.7125C31.1748 38.9187 31.253 38.1 31.8405 37.3344C33.38 35.3218 34.9248 33.3125 36.4748 31.3062C40.6832 25.8312 44.8925 20.3593 49.103 14.8906C50.3998 13.2031 51.0342 13.1 52.8092 14.2875C57.83 17.6479 62.8457 21.0146 67.8561 24.3875C68.4811 24.8125 68.8592 24.925 69.5061 24.3156C73.6842 20.3875 77.9217 16.5187 82.1405 12.6281C82.2623 12.4656 82.3811 12.3219 82.7686 11.9062Z" fill="#347BFA"/>
    <path d="M26.25 59.668C26.25 56.8555 26.25 54.043 26.25 51.2305C26.25 49.6086 26.875 48.9711 28.5219 48.9648C31.6823 48.9648 34.8437 48.9648 38.0062 48.9648C39.4906 48.9648 40.1937 49.6148 40.1937 51.0867C40.2167 56.8617 40.2167 62.6388 40.1937 68.418C40.1937 69.868 39.4625 70.5117 37.9719 70.518C34.8094 70.5326 31.6479 70.5326 28.4875 70.518C26.8938 70.518 26.2562 69.843 26.25 68.2086C26.25 65.368 26.25 62.518 26.25 59.668Z" fill="#347BFA"/>
    <path d="M79.8875 84.0278H91.0125C91.4411 84.0114 91.8703 84.0375 92.2938 84.1059C92.693 84.1905 93.0526 84.4061 93.3154 84.7184C93.5781 85.0307 93.729 85.4219 93.7441 85.8297C93.7592 86.2376 93.6376 86.6388 93.3986 86.9697C93.1596 87.3005 92.8169 87.5421 92.425 87.6559C92.0084 87.7526 91.5804 87.7915 91.1531 87.7716C83.5802 87.7716 76.0083 87.7716 68.4375 87.7716C68.0872 87.7859 67.7364 87.7639 67.3906 87.7059C66.425 87.5091 65.875 86.8841 65.875 85.9059C65.875 84.8778 66.4438 84.2309 67.4813 84.0747C67.9076 84.0267 68.3369 84.01 68.7656 84.0247L79.8875 84.0278Z" fill="#347BFA"/>
    <path d="M79.7914 105.937C75.9269 105.937 72.0612 105.937 68.1946 105.937C66.6977 105.937 65.8696 105.268 65.8633 104.084C65.8571 102.9 66.7071 102.209 68.1789 102.209C75.9477 102.209 83.7175 102.209 91.4883 102.209C92.9571 102.209 93.7821 102.934 93.7539 104.14C93.7258 105.3 92.9352 105.95 91.5071 105.953C87.6008 105.942 83.6956 105.937 79.7914 105.937Z" fill="#347BFA"/>
    <path d="M79.7847 96.8411H68.5347C68.1445 96.8584 67.7535 96.8428 67.3659 96.7942C66.9727 96.7224 66.6137 96.524 66.3435 96.2293C66.0734 95.9347 65.9069 95.5598 65.8694 95.1618C65.8319 94.7638 65.9255 94.3645 66.1358 94.0245C66.3462 93.6846 66.6618 93.4226 67.0347 93.2786C67.4377 93.1464 67.8608 93.0861 68.2847 93.1005C75.9743 93.1005 83.6649 93.1005 91.3566 93.1005C91.6294 93.0904 91.9026 93.1072 92.1722 93.1505C92.6448 93.2121 93.074 93.4577 93.3665 93.834C93.6591 94.2102 93.7914 94.6866 93.7347 95.1598C93.6128 96.1911 93.0003 96.7817 91.9566 96.8255C90.9128 96.8692 89.8503 96.8442 88.7972 96.8473L79.7847 96.8411Z" fill="#347BFA"/>
    <path d="M43.3727 106.344C39.2321 106.344 35.0946 106.326 30.9571 106.36C30.2133 106.36 29.9696 106.197 29.9727 105.407C30.0039 98.4568 30.0039 91.5088 29.9727 84.563C29.9727 83.9005 30.0446 83.5911 30.8352 83.6255C32.5102 83.6943 34.1914 83.6693 35.8664 83.6255C36.4383 83.6255 36.5977 83.7943 36.5789 84.3474C36.5414 85.5568 36.5789 86.7693 36.5633 87.9786C36.5477 89.188 36.9664 90.1193 38.0727 90.6536C39.1789 91.188 40.1883 90.8849 41.0946 90.113C41.6883 89.6099 42.3196 89.1443 42.8977 88.6224C43.2602 88.2943 43.5227 88.3099 43.8883 88.6224C44.5289 89.1943 45.2071 89.7193 45.8758 90.2599C46.2593 90.5945 46.7324 90.8094 47.2367 90.878C47.7411 90.9465 48.2544 90.8658 48.7133 90.6456C49.1722 90.4255 49.5565 90.0757 49.8186 89.6394C50.0808 89.2032 50.2093 88.6997 50.1883 88.1911C50.1883 86.9411 50.2133 85.6911 50.1883 84.4411C50.1727 83.8693 50.2758 83.5974 50.9414 83.6161C52.6571 83.663 54.3789 83.6536 56.0946 83.6161C56.6602 83.6161 56.8133 83.7818 56.8102 84.3411C56.7956 91.4078 56.7956 98.4724 56.8102 105.535C56.8102 106.404 56.3571 106.335 55.7852 106.335C51.6477 106.337 47.5102 106.34 43.3727 106.344ZM36.7383 105.057C37.9071 105.057 39.0789 105.082 40.2477 105.057C41.6008 105.022 42.2758 104.391 42.3227 103.057C42.3727 101.616 42.3696 100.169 42.3227 98.7286C42.2789 97.388 41.6196 96.7255 40.2696 96.7036C37.9279 96.6641 35.5873 96.6641 33.2477 96.7036C31.9164 96.7286 31.2539 97.4349 31.2227 98.7661C31.1873 100.17 31.1873 101.574 31.2227 102.979C31.2539 104.369 31.9321 105.029 33.3446 105.063C34.4727 105.082 35.6071 105.06 36.7383 105.057Z" fill="#FDFDFD"/>
    <path d="M36.7383 105.057C35.607 105.057 34.4727 105.082 33.3445 105.057C31.932 105.023 31.2539 104.363 31.2227 102.973C31.1914 101.582 31.1914 100.16 31.2227 98.7602C31.2539 97.4289 31.9164 96.7227 33.2477 96.6977C35.5893 96.6581 37.9299 96.6581 40.2695 96.6977C41.6195 96.7195 42.2789 97.382 42.3227 98.7227C42.3664 100.163 42.3695 101.61 42.3227 103.051C42.2758 104.385 41.6008 105.016 40.2477 105.051C39.0789 105.082 37.907 105.057 36.7383 105.057Z" fill="#347BFA"/>
  </g>
  <defs>
    <clipPath id="clip0_3397_16767">
      <rect width="120" height="120" fill="white"/>
    </clipPath>
  </defs>
</svg>