<svg width="200" height="200" viewBox="0 0 200 200" fill="none" xmlns="http://www.w3.org/2000/svg">
<g id="ph:check-circle-duotone">
<g id="Group">
<path id="Vector" opacity="0.2" d="M175 100C175 114.834 170.601 129.334 162.36 141.668C154.119 154.001 142.406 163.614 128.701 169.291C114.997 174.968 99.9168 176.453 85.3683 173.559C70.8197 170.665 57.456 163.522 46.967 153.033C36.4781 142.544 29.335 129.18 26.4411 114.632C23.5472 100.083 25.0325 85.0032 30.7091 71.2987C36.3856 57.5943 45.9986 45.8809 58.3323 37.6398C70.666 29.3987 85.1664 25 100 25C119.891 25 138.968 32.9018 153.033 46.967C167.098 61.0322 175 80.1088 175 100Z" fill="#8ECEAF"/>
<path id="Vector_2" d="M135.672 76.8281C136.253 77.4086 136.714 78.0979 137.029 78.8566C137.343 79.6154 137.505 80.4287 137.505 81.25C137.505 82.0713 137.343 82.8846 137.029 83.6434C136.714 84.4021 136.253 85.0914 135.672 85.6719L91.9219 129.422C91.3415 130.003 90.6522 130.464 89.8934 130.779C89.1347 131.093 88.3214 131.255 87.5 131.255C86.6787 131.255 85.8654 131.093 85.1067 130.779C84.3479 130.464 83.6586 130.003 83.0782 129.422L64.3282 110.672C63.1554 109.499 62.4966 107.909 62.4966 106.25C62.4966 104.591 63.1554 103.001 64.3282 101.828C65.5009 100.655 67.0915 99.9965 68.75 99.9965C70.4086 99.9965 71.9992 100.655 73.1719 101.828L87.5 116.164L126.828 76.8281C127.409 76.247 128.098 75.786 128.857 75.4715C129.615 75.157 130.429 74.9951 131.25 74.9951C132.071 74.9951 132.885 75.157 133.643 75.4715C134.402 75.786 135.091 76.247 135.672 76.8281ZM181.25 100C181.25 116.07 176.485 131.779 167.557 145.14C158.629 158.502 145.94 168.916 131.093 175.065C116.247 181.215 99.9099 182.824 84.1489 179.689C68.388 176.554 53.9106 168.815 42.5476 157.452C31.1846 146.089 23.4463 131.612 20.3112 115.851C17.1762 100.09 18.7852 83.7535 24.9348 68.907C31.0844 54.0605 41.4985 41.371 54.86 32.4431C68.2214 23.5152 83.9303 18.75 100 18.75C121.542 18.7727 142.195 27.3403 157.427 42.5727C172.66 57.8051 181.227 78.4581 181.25 100ZM168.75 100C168.75 86.4025 164.718 73.1104 157.164 61.8045C149.609 50.4987 138.872 41.6868 126.31 36.4833C113.747 31.2798 99.9238 29.9183 86.5876 32.571C73.2514 35.2237 61.0013 41.7715 51.3864 51.3864C41.7716 61.0013 35.2238 73.2514 32.571 86.5875C29.9183 99.9237 31.2798 113.747 36.4833 126.309C41.6868 138.872 50.4987 149.609 61.8046 157.164C73.1105 164.718 86.4026 168.75 100 168.75C118.227 168.729 135.702 161.479 148.591 148.591C161.479 135.702 168.729 118.227 168.75 100Z" fill="#8ECEAF"/>
</g>
</g>
</svg>
