<?xml version="1.0" encoding="UTF-8" standalone="no"?>
<svg
   width="100"
   height="100"
   viewBox="0 0 100 100"
   fill="none"
   version="1.1"
   id="svg6"
   sodipodi:docname="ph_error-duotone.svg"
   inkscape:version="1.2.1 (9c6d41e410, 2022-07-14)"
   xmlns:inkscape="http://www.inkscape.org/namespaces/inkscape"
   xmlns:sodipodi="http://sodipodi.sourceforge.net/DTD/sodipodi-0.dtd"
   xmlns="http://www.w3.org/2000/svg"
   xmlns:svg="http://www.w3.org/2000/svg">
  <defs
     id="defs10" />
  <sodipodi:namedview
     id="namedview8"
     pagecolor="#ffffff"
     bordercolor="#000000"
     borderopacity="0.25"
     inkscape:showpageshadow="2"
     inkscape:pageopacity="0.0"
     inkscape:pagecheckerboard="0"
     inkscape:deskcolor="#d1d1d1"
     showgrid="false"
     inkscape:zoom="4.145"
     inkscape:cx="33.293124"
     inkscape:cy="55.006031"
     inkscape:window-width="1920"
     inkscape:window-height="1009"
     inkscape:window-x="-8"
     inkscape:window-y="-8"
     inkscape:window-maximized="1"
     inkscape:current-layer="svg6" />
  <g
     id="ph:warning-duotone"
     style="fill:#ff0000">
    <g
       id="Group"
       style="fill:#ff0000">
      <path
         id="Vector"
         opacity="0.2"
         d="M84.1584 84.3789H15.8302C10.9005 84.3789 7.80679 79.2188 10.2013 75.0391L44.3654 15.7148C46.8263 11.418 53.1623 11.418 55.6232 15.7148L89.7873 75.0391C92.1818 79.2188 89.088 84.3789 84.1584 84.3789Z"
         fill="#FFBC6C"
         fill-opacity="0.5"
         style="fill:#ff0000" />
      <path
         id="Vector_2"
         d="M92.4964 73.4729L58.3362 14.1487C57.4826 12.6953 56.264 11.4902 54.8011 10.6528C53.3382 9.8155 51.6819 9.375 49.9964 9.375C48.3108 9.375 46.6545 9.8155 45.1917 10.6528C43.7288 11.4902 42.5102 12.6953 41.6565 14.1487L7.49638 73.4729C6.67503 74.8787 6.24219 76.4776 6.24219 78.1057C6.24219 79.7339 6.67503 81.3327 7.49638 82.7385C8.33907 84.2007 9.55564 85.4124 11.0212 86.2492C12.4868 87.086 14.1487 87.5178 15.8362 87.5003H84.1565C85.8428 87.5164 87.503 87.0839 88.9671 86.2472C90.4312 85.4105 91.6465 84.1996 92.4886 82.7385C93.3111 81.3334 93.7453 79.7349 93.7467 78.1068C93.748 76.4786 93.3165 74.8794 92.4964 73.4729ZM87.0784 79.6096C86.7806 80.1176 86.3531 80.5373 85.8396 80.8256C85.3262 81.1139 84.7453 81.2605 84.1565 81.2503H15.8362C15.2475 81.2605 14.6666 81.1139 14.1531 80.8256C13.6397 80.5373 13.2121 80.1176 12.9143 79.6096C12.6446 79.1529 12.5023 78.6322 12.5023 78.1018C12.5023 77.5714 12.6446 77.0507 12.9143 76.594L47.0745 17.2698C47.3783 16.7642 47.8078 16.3459 48.3212 16.0554C48.8346 15.765 49.4144 15.6123 50.0042 15.6123C50.594 15.6123 51.1738 15.765 51.6872 16.0554C52.2006 16.3459 52.6301 16.7642 52.9339 17.2698L87.094 76.594C87.3614 77.0521 87.501 77.5735 87.4983 78.104C87.4955 78.6344 87.3505 79.1543 87.0784 79.6096ZM46.8714 56.2503V40.6253C46.8714 39.7965 47.2006 39.0016 47.7867 38.4155C48.3727 37.8295 49.1676 37.5003 49.9964 37.5003C50.8252 37.5003 51.62 37.8295 52.2061 38.4155C52.7921 39.0016 53.1214 39.7965 53.1214 40.6253V56.2503C53.1214 57.0791 52.7921 57.8739 52.2061 58.46C51.62 59.046 50.8252 59.3753 49.9964 59.3753C49.1676 59.3753 48.3727 59.046 47.7867 58.46C47.2006 57.8739 46.8714 57.0791 46.8714 56.2503ZM54.6839 70.3128C54.6839 71.2399 54.409 72.1461 53.8939 72.917C53.3788 73.6878 52.6467 74.2887 51.7902 74.6434C50.9337 74.9982 49.9912 75.0911 49.0819 74.9102C48.1726 74.7293 47.3374 74.2829 46.6818 73.6273C46.0263 72.9718 45.5798 72.1365 45.3989 71.2272C45.2181 70.318 45.3109 69.3755 45.6657 68.5189C46.0205 67.6624 46.6213 66.9303 47.3921 66.4152C48.163 65.9002 49.0693 65.6253 49.9964 65.6253C51.2396 65.6253 52.4319 66.1191 53.3109 66.9982C54.19 67.8773 54.6839 69.0696 54.6839 70.3128Z"
         fill="#FFBC6C"
         fill-opacity="0.5"
         style="fill:#ff0000" />
    </g>
  </g>
</svg>
