<svg width="100" height="100" viewBox="0 0 100 100" fill="none" xmlns="http://www.w3.org/2000/svg">
<g id="ph:question-duotone">
<g id="Group">
<path id="Vector" opacity="0.2" d="M87.5 50C87.5 57.4168 85.3007 64.667 81.1801 70.8339C77.0596 77.0007 71.2029 81.8072 64.3506 84.6455C57.4984 87.4838 49.9584 88.2264 42.6841 86.7795C35.4098 85.3325 28.728 81.761 23.4835 76.5165C18.239 71.272 14.6675 64.5902 13.2206 57.3159C11.7736 50.0416 12.5162 42.5016 15.3545 35.6494C18.1928 28.7971 22.9993 22.9404 29.1661 18.8199C35.333 14.6993 42.5832 12.5 50 12.5C59.9456 12.5 69.4839 16.4509 76.5165 23.4835C83.5491 30.5161 87.5 40.0544 87.5 50Z" fill="#FFBC15"/>
<path id="Vector_2" d="M54.6875 70.3125C54.6875 71.2396 54.4126 72.1459 53.8975 72.9167C53.3825 73.6876 52.6504 74.2884 51.7938 74.6432C50.9373 74.998 49.9948 75.0908 49.0855 74.9099C48.1762 74.7291 47.341 74.2826 46.6855 73.6271C46.0299 72.9715 45.5835 72.1363 45.4026 71.227C45.2217 70.3177 45.3145 69.3752 45.6693 68.5187C46.0241 67.6621 46.6249 66.9301 47.3958 66.415C48.1666 65.8999 49.0729 65.625 50 65.625C51.2432 65.625 52.4355 66.1189 53.3146 66.9979C54.1937 67.877 54.6875 69.0693 54.6875 70.3125ZM50 28.125C41.3828 28.125 34.375 34.4336 34.375 42.1875V43.75C34.375 44.5788 34.7043 45.3737 35.2903 45.9597C35.8764 46.5458 36.6712 46.875 37.5 46.875C38.3288 46.875 39.1237 46.5458 39.7097 45.9597C40.2958 45.3737 40.625 44.5788 40.625 43.75V42.1875C40.625 37.8906 44.832 34.375 50 34.375C55.168 34.375 59.375 37.8906 59.375 42.1875C59.375 46.4844 55.168 50 50 50C49.1712 50 48.3764 50.3292 47.7903 50.9153C47.2043 51.5013 46.875 52.2962 46.875 53.125V56.25C46.875 57.0788 47.2043 57.8737 47.7903 58.4597C48.3764 59.0458 49.1712 59.375 50 59.375C50.8288 59.375 51.6237 59.0458 52.2097 58.4597C52.7958 57.8737 53.125 57.0788 53.125 56.25V55.9687C60.25 54.6602 65.625 48.9766 65.625 42.1875C65.625 34.4336 58.6172 28.125 50 28.125ZM90.625 50C90.625 58.0349 88.2424 65.8893 83.7785 72.57C79.3145 79.2508 72.9698 84.4578 65.5465 87.5326C58.1233 90.6074 49.955 91.4119 42.0745 89.8444C34.194 88.2769 26.9553 84.4077 21.2738 78.7262C15.5923 73.0447 11.7231 65.806 10.1556 57.9255C8.58809 50.0451 9.3926 41.8767 12.4674 34.4535C15.5422 27.0302 20.7492 20.6855 27.43 16.2215C34.1107 11.7576 41.9652 9.375 50 9.375C60.7709 9.38637 71.0975 13.6701 78.7137 21.2863C86.3299 28.9026 90.6136 39.2291 90.625 50ZM84.375 50C84.375 43.2013 82.359 36.5552 78.5818 30.9023C74.8046 25.2493 69.436 20.8434 63.1548 18.2416C56.8736 15.6399 49.9619 14.9591 43.2938 16.2855C36.6257 17.6119 30.5007 20.8858 25.6932 25.6932C20.8858 30.5006 17.6119 36.6257 16.2855 43.2938C14.9592 49.9619 15.6399 56.8735 18.2417 63.1547C20.8434 69.436 25.2494 74.8046 30.9023 78.5818C36.5552 82.3589 43.2013 84.375 50 84.375C59.1137 84.3647 67.8511 80.7397 74.2954 74.2954C80.7397 67.8511 84.3647 59.1136 84.375 50Z" fill="#FFBC15"/>
</g>
</g>
</svg>
