<svg width="100" height="100" viewBox="0 0 100 100" fill="none" xmlns="http://www.w3.org/2000/svg">
<g id="ph:shield-check-duotone">
<g id="Group">
<path id="Vector" opacity="0.2" d="M84.375 21.875V44.832C84.375 77.7148 56.5195 88.6094 50.9609 90.457C50.3383 90.6719 49.6617 90.6719 49.0391 90.457C43.4805 88.6172 15.625 77.7344 15.625 44.8398V21.875C15.625 21.0462 15.9542 20.2513 16.5403 19.6653C17.1263 19.0792 17.9212 18.75 18.75 18.75H81.25C82.0788 18.75 82.8737 19.0792 83.4597 19.6653C84.0458 20.2513 84.375 21.0462 84.375 21.875Z" fill="#0457BC"/>
<path id="Vector_2" d="M81.25 15.625H18.75C17.0924 15.625 15.5027 16.2835 14.3306 17.4556C13.1585 18.6277 12.5 20.2174 12.5 21.875V44.8359C12.5 79.8398 42.1172 91.4531 48.0469 93.4258C49.3133 93.8565 50.6867 93.8565 51.9531 93.4258C57.8906 91.4531 87.5 79.8398 87.5 44.8359V21.875C87.5 20.2174 86.8415 18.6277 85.6694 17.4556C84.4973 16.2835 82.9076 15.625 81.25 15.625ZM81.25 44.8398C81.25 75.4727 55.332 85.707 50 87.4883C44.7148 85.7266 18.75 75.5 18.75 44.8398V21.875H81.25V44.8398ZM32.1641 55.3359C31.5777 54.7496 31.2483 53.9543 31.2483 53.125C31.2483 52.2957 31.5777 51.5004 32.1641 50.9141C32.7504 50.3277 33.5457 49.9983 34.375 49.9983C35.2043 49.9983 35.9996 50.3277 36.5859 50.9141L43.75 58.0781L63.4141 38.4141C63.7044 38.1237 64.0491 37.8934 64.4284 37.7363C64.8078 37.5791 65.2144 37.4983 65.625 37.4983C66.0356 37.4983 66.4422 37.5791 66.8216 37.7363C67.2009 37.8934 67.5456 38.1237 67.8359 38.4141C68.1263 38.7044 68.3566 39.0491 68.5137 39.4284C68.6709 39.8078 68.7517 40.2144 68.7517 40.625C68.7517 41.0356 68.6709 41.4422 68.5137 41.8215C68.3566 42.2009 68.1263 42.5456 67.8359 42.8359L45.9609 64.7109C45.6707 65.0015 45.3261 65.232 44.9467 65.3892C44.5673 65.5465 44.1607 65.6275 43.75 65.6275C43.3393 65.6275 42.9327 65.5465 42.5533 65.3892C42.1739 65.232 41.8293 65.0015 41.5391 64.7109L32.1641 55.3359Z" fill="#0457BC"/>
</g>
</g>
</svg>
