<svg width="100" height="100" viewBox="0 0 100 100" fill="none" xmlns="http://www.w3.org/2000/svg">
<g id="ph:shield-warning-fill">
<path id="Vector" d="M81.25 15.625H18.75C17.0924 15.625 15.5027 16.2835 14.3306 17.4556C13.1585 18.6277 12.5 20.2174 12.5 21.875V44.832C12.5 79.8398 42.1172 91.4492 48.0469 93.418C49.3129 93.8513 50.6871 93.8513 51.9531 93.418C57.8906 91.4453 87.5 79.8359 87.5 44.8281V21.875C87.5 20.2174 86.8415 18.6277 85.6694 17.4556C84.4973 16.2835 82.9076 15.625 81.25 15.625ZM46.875 37.5C46.875 36.6712 47.2042 35.8763 47.7903 35.2903C48.3763 34.7042 49.1712 34.375 50 34.375C50.8288 34.375 51.6237 34.7042 52.2097 35.2903C52.7958 35.8763 53.125 36.6712 53.125 37.5V53.125C53.125 53.9538 52.7958 54.7487 52.2097 55.3347C51.6237 55.9208 50.8288 56.25 50 56.25C49.1712 56.25 48.3763 55.9208 47.7903 55.3347C47.2042 54.7487 46.875 53.9538 46.875 53.125V37.5ZM50 71.875C49.0729 71.875 48.1666 71.6001 47.3958 71.085C46.6249 70.5699 46.0241 69.8379 45.6693 68.9813C45.3145 68.1248 45.2217 67.1823 45.4026 66.273C45.5834 65.3637 46.0299 64.5285 46.6854 63.8729C47.341 63.2174 48.1762 62.7709 49.0855 62.5901C49.9948 62.4092 50.9373 62.502 51.7938 62.8568C52.6504 63.2116 53.3824 63.8124 53.8975 64.5833C54.4126 65.3541 54.6875 66.2604 54.6875 67.1875C54.6875 68.4307 54.1936 69.623 53.3146 70.5021C52.4355 71.3811 51.2432 71.875 50 71.875Z" fill="#0457BC"/>
</g>
</svg>
