<svg xmlns="http://www.w3.org/2000/svg" width="121" height="120" viewBox="0 0 121 120" fill="none">
  <g clip-path="url(#clip0_3361_8516)">
    <path d="M18.4375 10.5078H19.6875C41.9438 10.5078 64.1989 10.5078 86.4531 10.5078C90.4844 10.5078 93.4687 12.5922 94.5594 16.1328C94.8136 16.9938 94.9369 17.8882 94.925 18.7859C94.925 27.8089 94.925 36.8286 94.925 45.8453C94.925 46.6078 94.7688 46.9172 93.9875 47.0234C91.938 47.3209 89.9398 47.9014 88.05 48.7484C87.8031 48.8547 87.5063 49.1766 87.2688 48.7141C86.725 47.6547 85.7531 47.6422 84.75 47.6422C75.1438 47.6422 65.5385 47.6422 55.9344 47.6422C53.3187 47.6422 50.7031 47.6266 48.0875 47.6422C46.6906 47.6422 45.9 48.3859 45.9219 49.5547C45.9003 49.9902 46.0463 50.4175 46.3299 50.7488C46.6135 51.0801 47.0132 51.2901 47.4469 51.3359C47.8738 51.3892 48.3047 51.4049 48.7344 51.3828H83.3469C82.0375 52.5453 80.8469 53.4609 79.8594 54.5734C79.7344 54.7141 79.5813 54.8141 79.3781 54.6109C78.6563 53.8828 77.7188 54.0391 76.8344 54.0391C67.5031 54.0391 58.1708 54.0391 48.8375 54.0391C48.4476 54.0286 48.0574 54.0401 47.6687 54.0734C46.5906 54.1984 45.9406 54.9078 45.9469 55.9234C45.9531 56.9391 46.6219 57.6453 47.6906 57.7672C48.041 57.7938 48.3926 57.8 48.7437 57.7859H77.1812C76.4562 59.2297 75.7906 60.5703 75.1062 61.9047C74.8437 62.4172 74.3438 62.1984 73.95 62.1984C65.5521 62.2109 57.1573 62.2109 48.7656 62.1984C48.3367 62.1779 47.9067 62.1967 47.4812 62.2547C46.4594 62.4484 45.9187 63.0984 45.9531 64.1453C45.9875 65.1359 46.5437 65.7297 47.5156 65.8828C47.9416 65.9356 48.371 65.9555 48.8 65.9422C56.5687 65.9422 64.3375 65.9422 72.1094 65.9734C72.6219 65.9734 73.5938 65.4109 73.6719 66.4422C73.7938 68.2078 73.4062 68.5953 72.0406 68.5953H48.7375C48.3476 68.5822 47.9573 68.5926 47.5687 68.6266C47.1535 68.6467 46.7605 68.8196 46.4651 69.1121C46.1697 69.4046 45.9929 69.796 45.9687 70.2109C45.8531 71.1828 46.2812 71.8609 47.2187 72.2078C47.7097 72.3427 48.221 72.3882 48.7281 72.3422C56.4969 72.3422 64.2656 72.3641 72.0375 72.3172C73.0156 72.3172 73.3219 72.5953 73.3281 73.5234C73.3512 74.304 73.4496 75.0805 73.6219 75.8422C73.7781 76.5766 73.5656 76.7797 72.8125 76.7797C70.825 76.7328 68.8313 76.7641 66.8406 76.7641H48.6844C48.2558 76.745 47.8265 76.7702 47.4031 76.8391C47.0055 76.9256 46.648 77.1422 46.3871 77.4545C46.1262 77.7669 45.9768 78.1572 45.9624 78.5639C45.9481 78.9706 46.0697 79.3706 46.3079 79.7005C46.5462 80.0304 46.8875 80.2716 47.2781 80.3859C47.7743 80.4885 48.2814 80.5284 48.7875 80.5047C57.1437 80.5047 65.4989 80.5047 73.8531 80.5047C74.2469 80.5047 74.7594 80.2828 75.0125 80.7891C75.4002 81.4614 75.7056 82.178 75.9219 82.9234C76.0094 83.3109 75.4312 83.1328 75.1687 83.1359C72.7469 83.1547 70.3281 83.1359 67.9062 83.1359H48.575C48.2249 83.1176 47.8739 83.126 47.525 83.1609C47.1287 83.1902 46.7552 83.3576 46.4696 83.634C46.1841 83.9104 46.0046 84.2783 45.9625 84.6734C45.8737 85.0791 45.9317 85.5031 46.1263 85.8699C46.3209 86.2367 46.6394 86.5226 47.025 86.6766C47.4617 86.8491 47.9319 86.9196 48.4 86.8828H77.8156C78.15 86.8828 78.5 86.7453 78.7812 87.1016C80.0612 88.6524 81.5039 90.0615 83.0844 91.3047H48.3156C46.8406 91.3047 46.1062 91.7953 45.9562 92.8672C45.9094 93.1098 45.9128 93.3594 45.9663 93.6006C46.0198 93.8418 46.1222 94.0695 46.2672 94.2696C46.4122 94.4696 46.5967 94.6378 46.8093 94.7637C47.0219 94.8896 47.258 94.9706 47.5031 95.0016C47.9269 95.0663 48.356 95.0904 48.7844 95.0734H84.4094C85.4562 95.0734 86.5469 95.2172 87.25 94.1359C87.4656 93.8016 87.7312 94.0578 87.9656 94.1609C89.9985 95.0589 92.1426 95.6801 94.3406 96.0078C94.8469 96.0828 94.9656 96.2672 94.9656 96.7391C94.9469 100.411 94.9656 104.08 94.9469 107.752C94.9469 108.892 94.3406 109.423 93.1812 109.48C92.9094 109.48 92.6344 109.48 92.3625 109.48H24.1687C21.8219 109.48 21.5687 109.223 21.5687 106.842C21.5687 77.6359 21.5687 48.4307 21.5687 19.2266C21.5781 16.0422 20.7656 13.1641 18.4375 10.5078ZM66.6687 36.8359C72.9187 36.8359 79.1583 36.8359 85.3875 36.8359C86.7031 36.8359 87.4719 36.1297 87.475 34.9984C87.4781 33.8672 86.7094 33.1609 85.4125 33.0922C85.1813 33.0922 84.9469 33.0922 84.7125 33.0922H48.6781C48.1334 33.0386 47.5835 33.1025 47.0656 33.2797C46.8068 33.3924 46.5767 33.5621 46.3927 33.7762C46.2086 33.9902 46.0752 34.2431 46.0025 34.5159C45.9298 34.7887 45.9196 35.0744 45.9728 35.3516C46.0259 35.6289 46.141 35.8906 46.3094 36.1172C46.7875 36.7422 47.4437 36.8484 48.1844 36.8484C54.3469 36.8318 60.5083 36.8276 66.6687 36.8359ZM66.7312 22.2984H83.6938C84.3594 22.2984 85.0219 22.3266 85.6844 22.2984C86.1574 22.296 86.6105 22.1074 86.9456 21.7735C87.2807 21.4395 87.4709 20.9871 87.475 20.5141C87.5006 20.0412 87.3426 19.5767 87.034 19.2174C86.7254 18.8582 86.2901 18.632 85.8187 18.5859C85.5072 18.5566 85.1939 18.5493 84.8812 18.5641C72.7542 18.5641 60.626 18.5641 48.4969 18.5641C48.07 18.5405 47.6421 18.5826 47.2281 18.6891C46.8073 18.798 46.4438 19.0632 46.2116 19.4307C45.9794 19.7982 45.8959 20.2403 45.9781 20.6672C46.0781 21.6047 46.6531 22.1266 47.5406 22.2797C47.8902 22.3188 48.2425 22.3282 48.5938 22.3078L66.7312 22.2984ZM62.8406 39.4859C58.1177 39.4859 53.3969 39.4859 48.6781 39.4859C48.2105 39.466 47.7423 39.5049 47.2844 39.6016C46.8924 39.7126 46.5486 39.9509 46.307 40.2789C46.0655 40.607 45.94 41.0061 45.9504 41.4133C45.9608 41.8205 46.1064 42.2127 46.3644 42.528C46.6223 42.8433 46.9779 43.0638 47.375 43.1547C47.7978 43.2289 48.2275 43.2561 48.6562 43.2359C58.175 43.2359 67.6958 43.2359 77.2187 43.2359C77.5694 43.2454 77.9203 43.2297 78.2687 43.1891C79.3156 43.0453 79.8937 42.3734 79.9 41.3734C79.9062 40.3734 79.3281 39.6922 78.2875 39.5328C77.9009 39.4853 77.5112 39.4675 77.1219 39.4797L62.8406 39.4859ZM62.8406 28.6703H77.2375C79.0312 28.6703 79.9281 28.0453 79.9156 26.7953C79.9031 25.5453 78.9781 24.9203 77.2062 24.9203C67.6833 24.9203 58.1625 24.9203 48.6437 24.9203C48.1783 24.9061 47.7129 24.9523 47.2594 25.0578C46.3531 25.3047 45.9219 25.9578 45.9437 26.8859C45.9687 28.0078 46.7375 28.6609 48.0906 28.6641C53.0135 28.6745 57.9323 28.6755 62.8469 28.6672L62.8406 28.6703ZM62.9187 97.7047C57.9625 97.7047 53.0094 97.7047 48.0531 97.7047C46.5312 97.7047 45.5937 98.8109 46.0094 100.105C46.3656 101.214 47.2594 101.458 48.3312 101.455C58.0479 101.442 67.7635 101.442 77.4781 101.455C77.7916 101.472 78.1061 101.454 78.4156 101.402C78.6834 101.347 78.9357 101.233 79.1544 101.069C79.3731 100.905 79.5528 100.695 79.6806 100.453C79.8085 100.211 79.8813 99.9444 79.8938 99.6713C79.9063 99.3982 79.8583 99.1258 79.7531 98.8734C79.3625 97.9359 78.6156 97.6984 77.675 97.7016C72.7594 97.7109 67.8437 97.7016 62.925 97.7016L62.9187 97.7047ZM34.2125 101.252C34.4889 101.257 34.763 101.201 35.0153 101.088C35.2676 100.975 35.4918 100.808 35.6719 100.598C37.5969 98.6609 39.5312 96.7297 41.4344 94.7672C42.3094 93.8641 42.3031 92.7047 41.5031 91.9547C40.7031 91.2047 39.6969 91.2578 38.7969 92.1266C37.8125 93.0641 36.8781 94.0766 35.8969 95.0266C35.3187 95.5859 34.8281 96.6078 34.1312 96.5734C33.5406 96.5453 33 95.5984 32.4344 95.0609C32.3781 95.0078 32.325 94.9516 32.2656 94.8984C31.3281 94.0734 30.3281 94.0328 29.5469 94.7891C28.7656 95.5453 28.7719 96.6641 29.6719 97.6016C30.7125 98.6578 31.7906 99.6797 32.8594 100.708C33.0313 100.892 33.2416 101.036 33.4754 101.13C33.7092 101.224 33.9609 101.266 34.2125 101.252ZM34.2125 86.7109C34.4867 86.7133 34.7581 86.6555 35.0076 86.5415C35.257 86.4276 35.4785 86.2604 35.6562 86.0516C37.5812 84.1109 39.5156 82.1797 41.4187 80.2172C42.3 79.3109 42.3 78.1672 41.4969 77.4047C40.6937 76.6422 39.7 76.6984 38.7937 77.5734C37.8875 78.4484 36.9875 79.4109 36.0594 80.3047C35.4344 80.9297 34.9 82.0016 34.1187 82.0141C33.5344 82.0141 32.9375 80.9953 32.3438 80.4297L32.2594 80.3516C31.3219 79.5172 30.3344 79.4734 29.5437 80.2359C28.7531 80.9984 28.7625 82.1109 29.6625 83.0328C30.7031 84.0891 31.7781 85.1109 32.8469 86.1391C33.0193 86.3308 33.232 86.482 33.4697 86.582C33.7074 86.6819 33.9642 86.7281 34.2219 86.7172L34.2125 86.7109ZM42.0656 20.4266C42.0578 20.0929 41.9512 19.769 41.7593 19.4958C41.5674 19.2227 41.2988 19.0126 40.9875 18.8922C40.6511 18.7269 40.2708 18.6729 39.9017 18.738C39.5326 18.8032 39.1938 18.9842 38.9344 19.2547C38.0156 20.1547 37.1187 21.0766 36.2094 21.9859C35.5844 22.6109 35.0094 23.6484 34.2844 23.7797C33.4187 23.9328 32.9312 22.7016 32.225 22.1328C31.2875 21.3828 30.2406 21.3391 29.5031 22.0922C28.7656 22.8453 28.7719 23.9328 29.6187 24.7984C30.625 25.8401 31.6542 26.8505 32.7062 27.8297C33.7344 28.7984 34.6781 28.8047 35.6719 27.8297C37.6125 25.9109 39.5219 23.9609 41.4437 22.0234C41.6573 21.8185 41.8236 21.5695 41.931 21.2937C42.0384 21.0179 42.0844 20.722 42.0656 20.4266ZM42.0656 64.2516C42.0813 63.8988 41.9912 63.5493 41.8069 63.2481C41.6226 62.9469 41.3525 62.7076 41.0312 62.5609C40.703 62.3772 40.3229 62.3082 39.951 62.3648C39.5792 62.4214 39.2368 62.6004 38.9781 62.8734C38.0156 63.7828 37.1031 64.7484 36.1656 65.6859C35.5406 66.3109 34.9437 67.3297 34.2219 67.4453C33.5 67.5609 32.9281 66.4047 32.2687 65.8328C31.2906 64.9859 30.2437 64.9547 29.4719 65.7859C28.7 66.6172 28.7906 67.6141 29.6562 68.4953C30.6406 69.4984 31.6531 70.4734 32.6719 71.4391C33.7594 72.4766 34.6594 72.4891 35.7187 71.4391C37.6312 69.5453 39.5125 67.6172 41.4062 65.7047C41.6133 65.5234 41.7793 65.3 41.893 65.0494C42.0068 64.7988 42.0656 64.5268 42.0656 64.2516ZM42.0656 35.4453C42.0656 34.3797 41.7187 33.8016 41.0219 33.4672C40.6934 33.2864 40.3145 33.219 39.9438 33.2755C39.5732 33.332 39.2315 33.5092 38.9719 33.7797C37.9875 34.7172 37.0437 35.7109 36.075 36.6703C35.4687 37.2734 34.9031 38.2328 34.2188 38.3484C33.5344 38.4641 32.9688 37.3422 32.3438 36.8047C32.2844 36.7578 32.2344 36.6953 32.175 36.6453C31.2719 35.8828 30.1875 35.9047 29.4656 36.6984C28.7437 37.4922 28.7969 38.4922 29.5969 39.3172C30.6385 40.3797 31.6969 41.4161 32.7719 42.4266C33.7562 43.3484 34.6875 43.3641 35.6469 42.4047C37.5875 40.4859 39.4937 38.5328 41.4156 36.5984C41.8188 36.1922 42.0875 35.7391 42.0812 35.4453H42.0656ZM42.0656 49.6484C42.0704 49.2954 41.9694 48.9489 41.7756 48.6537C41.5817 48.3586 41.304 48.1282 40.9781 47.9922C40.6444 47.8221 40.2643 47.7655 39.8955 47.8309C39.5267 47.8963 39.1892 48.0802 38.9344 48.3547C37.9781 49.2766 37.0594 50.2297 36.1219 51.1672C35.4969 51.7922 34.8906 52.7891 34.1656 52.9016C33.4969 53.0078 32.9312 51.8766 32.2906 51.3141C31.3156 50.4516 30.2812 50.3922 29.4969 51.1891C28.7125 51.9859 28.775 53.0641 29.6906 53.9797C30.6062 54.8953 31.6312 55.9047 32.6156 56.8484C33.7375 57.9234 34.6469 57.9297 35.7406 56.8328C37.6156 54.9578 39.4719 53.0641 41.3437 51.1859C41.5697 50.9985 41.7515 50.7635 41.8763 50.4978C42.0011 50.232 42.0657 49.942 42.0656 49.6484Z" fill="#DEEBF8"/>
    <path d="M119.075 71.511C119.069 75.6782 117.828 79.7502 115.508 83.212C113.188 86.6738 109.894 89.3698 106.041 90.9591C102.189 92.5485 97.9521 92.9597 93.8661 92.1408C89.78 91.3219 86.0286 89.3096 83.0863 86.3586C80.144 83.4075 78.1429 79.6501 77.3361 75.5617C76.5293 71.4733 76.9531 67.2374 78.5538 63.3899C80.1546 59.5423 82.8604 56.2558 86.329 53.9461C89.7977 51.6365 93.8734 50.4073 98.0406 50.4141C103.626 50.429 108.977 52.6585 112.92 56.6135C116.863 60.5684 119.077 65.926 119.075 71.511ZM112.728 71.5297C112.737 68.6161 111.882 65.7652 110.269 63.3385C108.656 60.9118 106.36 59.0183 103.67 57.8982C100.98 56.778 98.0185 56.4816 95.1601 57.0464C92.3017 57.6111 89.6753 59.0117 87.6137 61.0707C85.5521 63.1297 84.1481 65.7543 83.5797 68.612C83.0113 71.4696 83.304 74.4317 84.4207 77.1229C85.5374 79.8141 87.4279 82.1132 89.8525 83.7288C92.2772 85.3445 95.127 86.204 98.0406 86.1985C101.924 86.1691 105.64 84.6148 108.387 81.8708C111.135 79.1267 112.694 75.4127 112.728 71.5297Z" fill="#347BFA"/>
    <path d="M10.2693 26.806C8.16302 26.806 6.05677 26.8216 3.95052 26.806C2.45052 26.806 1.94427 26.2591 1.93802 24.7403C1.93802 22.6747 1.91927 20.6091 1.93802 18.5403C1.97552 14.1278 5.29115 10.6528 9.56615 10.5247C10.6008 10.4748 11.6351 10.6306 12.6091 10.983C13.5831 11.3355 14.4776 11.8776 15.2408 12.578C16.004 13.2784 16.6207 14.1231 17.0552 15.0634C17.4898 16.0037 17.7335 17.0209 17.7724 18.056C17.9224 20.7372 17.7912 23.4341 17.8318 26.1247C17.8318 26.8622 17.4255 26.8153 16.938 26.8153C14.713 26.8028 12.4911 26.806 10.2693 26.806Z" fill="#DEEBF8"/>
    <path d="M104.475 35.5573C104.475 33.0573 104.444 30.5573 104.475 28.0573C104.491 27.2854 104.272 27.0073 103.491 27.076C102.751 27.1291 102.009 27.1291 101.269 27.076C100.135 27.0104 99.7658 26.3291 100.435 25.4479C102.622 22.5573 104.85 19.6948 107.081 16.8354C107.644 16.1166 108.253 16.1666 108.81 16.8823C111.003 19.7198 113.191 22.5593 115.372 25.401C115.641 25.7448 115.869 26.101 115.6 26.5698C115.331 27.0385 114.941 27.0823 114.5 27.0854C113.797 27.0854 113.091 27.1385 112.394 27.0854C111.56 27.0073 111.353 27.326 111.36 28.1323C111.394 32.8916 111.36 37.651 111.36 42.4135C111.36 44.4635 111.241 44.5791 109.15 44.5791C108.135 44.5791 107.122 44.5791 106.106 44.5791C104.725 44.5635 104.441 44.2948 104.435 42.9323C104.466 40.476 104.475 38.0166 104.475 35.5573Z" fill="#347BFA"/>
    <path d="M66.667 36.8371C60.5045 36.8371 54.343 36.8371 48.1826 36.8371C47.442 36.8371 46.7857 36.7278 46.3076 36.1059C46.1392 35.8793 46.0241 35.6176 45.971 35.3403C45.9179 35.063 45.928 34.7774 46.0007 34.5046C46.0734 34.2318 46.2068 33.9789 46.3909 33.7649C46.575 33.5508 46.805 33.3811 47.0639 33.2684C47.5817 33.0912 48.1316 33.0273 48.6764 33.0809H84.7107C84.9451 33.0809 85.1795 33.0809 85.4107 33.0809C86.7076 33.1496 87.4795 33.8653 87.4732 34.9871C87.467 36.109 86.7014 36.8215 85.3857 36.8246C79.1482 36.8392 72.9086 36.8434 66.667 36.8371Z" fill="#FAFAFA"/>
    <path d="M66.7246 22.2981H48.5996C48.2484 22.3184 47.8961 22.309 47.5465 22.2699C46.6434 22.1168 46.0684 21.5887 45.984 20.6574C45.9018 20.2306 45.9853 19.7884 46.2175 19.421C46.4497 19.0535 46.8132 18.7883 47.234 18.6793C47.648 18.5729 48.0759 18.5307 48.5027 18.5543C60.6298 18.5543 72.7579 18.5543 84.8871 18.5543C85.1997 18.5395 85.513 18.5468 85.8246 18.5762C86.2959 18.6222 86.7313 18.8484 87.0399 19.2077C87.3485 19.5669 87.5065 20.0314 87.4809 20.5043C87.4768 20.9774 87.2866 21.4298 86.9515 21.7637C86.6164 22.0976 86.1633 22.2862 85.6902 22.2887C85.0277 22.3293 84.3652 22.2887 83.6996 22.2887L66.7246 22.2981Z" fill="#FCFCFC"/>
    <path d="M62.8361 39.4803H77.1174C77.5067 39.4681 77.8964 39.4859 78.283 39.5334C79.3236 39.6928 79.9049 40.3646 79.8955 41.374C79.8861 42.3834 79.3111 43.0459 78.2642 43.1896C77.9158 43.2303 77.5649 43.2459 77.2142 43.2365C67.6913 43.2365 58.1705 43.2365 48.6518 43.2365C48.223 43.2567 47.7933 43.2295 47.3705 43.1553C46.9734 43.0644 46.6178 42.8439 46.3599 42.5286C46.1019 42.2133 45.9563 41.8211 45.9459 41.4139C45.9355 41.0066 46.061 40.6075 46.3025 40.2795C46.5441 39.9514 46.8879 39.7131 47.2799 39.6021C47.7378 39.5054 48.206 39.4666 48.6736 39.4865C53.3924 39.4782 58.1132 39.4761 62.8361 39.4803Z" fill="#F7F7F7"/>
    <path d="M62.843 28.6681C57.9263 28.6681 53.0096 28.6681 48.093 28.6681C46.7399 28.6681 45.9711 28.0119 45.9461 26.89C45.9242 25.9525 46.3555 25.3088 47.2617 25.0619C47.7153 24.9564 48.1806 24.9102 48.6461 24.9244C58.169 24.9244 67.6898 24.9244 77.2086 24.9244C78.9649 24.9244 79.9055 25.5838 79.918 26.7994C79.9305 28.015 79.0336 28.6744 77.2399 28.6744L62.843 28.6681Z" fill="#F8F8F8"/>
    <path d="M62.9206 97.6987C67.8394 97.6987 72.755 97.6987 77.6706 97.6987C78.6081 97.6987 79.3581 97.9424 79.7487 98.8706C79.8539 99.1229 79.9019 99.3954 79.8894 99.6684C79.8769 99.9415 79.8041 100.208 79.6763 100.45C79.5484 100.692 79.3687 100.902 79.15 101.066C78.9313 101.23 78.679 101.344 78.4112 101.399C78.1017 101.452 77.7872 101.469 77.4737 101.452C67.7571 101.452 58.0414 101.452 48.3269 101.452C47.2581 101.452 46.3612 101.211 46.005 100.102C45.5894 98.8081 46.5269 97.7049 48.0487 97.7018C52.9987 97.6893 57.9644 97.6987 62.9206 97.6987Z" fill="#FCFCFC"/>
    <path d="M34.2077 101.25C33.9558 101.264 33.7041 101.222 33.4702 101.127C33.2364 101.033 33.0262 100.888 32.8546 100.703C31.7858 99.675 30.7077 98.6531 29.6671 97.5969C28.7671 96.6781 28.7296 95.575 29.5421 94.7844C30.3546 93.9937 31.3265 94.0687 32.2608 94.8937C32.3202 94.9469 32.3733 95.0031 32.4296 95.0562C32.9952 95.5937 33.5358 96.5406 34.1264 96.5687C34.8233 96.6031 35.3139 95.5812 35.8921 95.0219C36.8733 94.0844 37.8077 93.0719 38.7921 92.1219C39.6921 91.2531 40.7015 91.2093 41.4983 91.95C42.2952 92.6906 42.3046 93.85 41.4296 94.7625C39.5264 96.725 37.5921 98.6562 35.6671 100.594C35.4873 100.804 35.2632 100.972 35.0109 101.085C34.7586 101.199 34.4843 101.255 34.2077 101.25Z" fill="#F8F8F8"/>
    <path d="M34.2162 86.7185C33.9615 86.7304 33.7074 86.6865 33.4715 86.5898C33.2356 86.4932 33.0237 86.3462 32.8506 86.1592C31.7818 85.1311 30.7068 84.1092 29.6662 83.0529C28.7662 82.1342 28.7287 81.0342 29.5474 80.256C30.3662 79.4779 31.3224 79.5373 32.2631 80.3717L32.3474 80.4498C32.9412 81.0154 33.5381 82.0435 34.1224 82.0342C34.9037 82.0342 35.4256 80.9404 36.0631 80.3248C37.0006 79.431 37.8693 78.4873 38.7974 77.5936C39.7256 76.6998 40.6974 76.6748 41.5005 77.4248C42.3037 78.1748 42.3037 79.3185 41.4224 80.2373C39.5193 82.1998 37.5849 84.1311 35.6599 86.0717C35.481 86.2782 35.259 86.4431 35.0096 86.5548C34.7602 86.6666 34.4894 86.7224 34.2162 86.7185Z" fill="#F8F8F8"/>
    <path d="M42.0608 20.4279C42.0778 20.722 42.0307 21.0163 41.9228 21.2903C41.8149 21.5644 41.6487 21.8118 41.4358 22.0154C39.5139 23.9529 37.6046 25.9029 35.6639 27.8217C34.6702 28.806 33.7265 28.7998 32.6983 27.8217C31.6702 26.8435 30.6171 25.8248 29.6108 24.7904C28.764 23.9248 28.7452 22.8498 29.4952 22.0842C30.2452 21.3185 31.2858 21.3748 32.2171 22.1248C32.9233 22.6935 33.4108 23.9248 34.2764 23.7717C35.0014 23.6404 35.5671 22.6123 36.2014 21.9779C37.1108 21.0685 38.0077 20.1467 38.9264 19.2467C39.1859 18.9761 39.5247 18.7952 39.8938 18.73C40.2629 18.6648 40.6432 18.7188 40.9796 18.8842C41.2929 19.0047 41.5632 19.216 41.7558 19.491C41.9484 19.766 42.0546 20.0922 42.0608 20.4279Z" fill="#FAFAFA"/>
    <path d="M42.0599 64.2514C42.0581 64.5252 41.9981 64.7956 41.8839 65.0445C41.7697 65.2934 41.6039 65.5152 41.3974 65.6951C39.5036 67.6076 37.6224 69.5357 35.7099 71.4295C34.6505 72.4826 33.7505 72.4701 32.663 71.4295C31.6442 70.4639 30.6317 69.4888 29.6474 68.4857C28.7817 67.6045 28.7317 66.5639 29.463 65.7764C30.1942 64.9889 31.2817 64.9764 32.2599 65.8232C32.9192 66.3951 33.4567 67.5576 34.213 67.4357C34.9692 67.3139 35.5224 66.3076 36.1567 65.6764C37.0942 64.7389 38.0099 63.7764 38.9692 62.8639C39.2279 62.5908 39.5703 62.4118 39.9422 62.3552C40.314 62.2986 40.6941 62.3676 41.0224 62.5514C41.3457 62.6981 41.6176 62.9387 41.8026 63.2418C41.9876 63.5449 42.0772 63.8967 42.0599 64.2514Z" fill="#FAFAFA"/>
    <path d="M42.0773 35.4424C42.0773 35.7362 41.8148 36.1893 41.4148 36.5924C39.4929 38.5268 37.5867 40.4799 35.6461 42.3987C34.6867 43.3362 33.7554 43.3362 32.7711 42.4205C31.6898 41.4122 30.6315 40.3757 29.5961 39.3112C28.7961 38.4862 28.7711 37.4362 29.4648 36.6924C30.1586 35.9487 31.2711 35.8768 32.1742 36.6393C32.2336 36.6893 32.2836 36.7518 32.3429 36.7987C32.9898 37.3362 33.5086 38.4487 34.2179 38.3424C34.9273 38.2362 35.4679 37.2674 36.0742 36.6643C37.0429 35.7049 37.9867 34.7174 38.9711 33.7737C39.2307 33.5032 39.5724 33.326 39.943 33.2695C40.3137 33.213 40.6926 33.2803 41.0211 33.4612C41.7304 33.7987 42.0617 34.3737 42.0773 35.4424Z" fill="#FCFCFC"/>
    <path d="M42.0614 49.6456C42.0642 49.9382 42.0027 50.2279 41.8812 50.4941C41.7597 50.7604 41.5812 50.9966 41.3582 51.1862C39.4832 53.0612 37.6332 54.9643 35.7551 56.8331C34.652 57.93 33.7426 57.9237 32.6301 56.8487C31.6457 55.9112 30.6645 54.9518 29.7051 53.98C28.7457 53.0081 28.7301 51.9831 29.5114 51.1893C30.2926 50.3956 31.3301 50.4518 32.3051 51.3143C32.9301 51.8768 33.5051 53.0081 34.1801 52.9018C34.9051 52.7893 35.502 51.7956 36.1364 51.1675C37.0739 50.23 37.9895 49.2737 38.9489 48.355C39.2037 48.0805 39.5411 47.8966 39.91 47.8312C40.2788 47.7657 40.6589 47.8224 40.9926 47.9925C41.3145 48.1311 41.5879 48.3623 41.7782 48.6566C41.9685 48.9509 42.067 49.2952 42.0614 49.6456Z" fill="#FCFCFC"/>
    <path d="M112.728 71.5313C112.718 74.4392 111.847 77.279 110.224 79.6922C108.602 82.1054 106.301 83.9837 103.611 85.0901C100.922 86.1965 97.9655 86.4814 95.1145 85.9087C92.2635 85.336 89.6461 83.9315 87.5927 81.8724C85.5393 79.8134 84.142 77.1921 83.5771 74.3395C83.0123 71.487 83.3053 68.531 84.4191 65.8448C85.5329 63.1586 87.4176 60.8627 89.8353 59.2468C92.2529 57.6309 95.0951 56.7675 98.003 56.7656C101.909 56.7854 105.649 58.3487 108.408 61.1147C111.166 63.8806 112.719 67.625 112.728 71.5313ZM102.956 66.6312C102.956 65.6687 102.122 64.6219 100.75 64C100.175 63.7375 99.8343 63.5094 99.8468 62.7687C99.8353 62.293 99.64 61.8402 99.3019 61.5054C98.9638 61.1705 98.5091 60.9796 98.0333 60.9728C97.5575 60.9659 97.0975 61.1436 96.7498 61.4685C96.4022 61.7935 96.1939 62.2404 96.1687 62.7156C96.1687 63.5156 95.8562 63.8406 95.2124 64.1937C93.3905 65.1906 92.5249 67.1219 92.8218 69.2437C93.0843 71.1187 94.5405 72.6656 96.4905 73.2062C97.1012 73.3219 97.7222 73.3743 98.3437 73.3625C99.0843 73.4125 99.5281 73.85 99.5156 74.5594C99.5031 75.2687 99.0687 75.6875 98.3155 75.7156C97.5624 75.7437 96.8218 75.7156 96.203 75.0375C96.045 74.8635 95.8538 74.7229 95.6406 74.6238C95.4275 74.5247 95.1967 74.4691 94.9618 74.4604C94.7269 74.4517 94.4927 74.4899 94.2727 74.5729C94.0528 74.6559 93.8517 74.782 93.6812 74.9437C93.3254 75.2544 93.1021 75.6897 93.0574 76.1599C93.0126 76.6301 93.1498 77.0996 93.4406 77.4719C93.873 78.13 94.4953 78.6411 95.2249 78.9375C95.878 79.1937 96.1624 79.5 96.1624 80.2625C96.1724 80.7507 96.3758 81.2149 96.728 81.553C97.0803 81.8912 97.5524 82.0756 98.0405 82.0656C98.5287 82.0557 98.9929 81.8522 99.3311 81.5C99.6692 81.1478 99.8536 80.6757 99.8437 80.1875C99.8437 79.4312 100.156 79.1375 100.756 78.8125C101.603 78.3572 102.295 77.6582 102.74 76.8058C103.186 75.9534 103.366 74.9869 103.256 74.0313C103.152 73.0375 102.748 72.0989 102.098 71.3403C101.448 70.5817 100.582 70.039 99.6155 69.7844C98.9593 69.5969 98.303 69.6531 97.6437 69.5969C96.9124 69.5344 96.4999 69.1062 96.5312 68.3625C96.5272 68.2145 96.5537 68.0673 96.609 67.9301C96.6644 67.7928 96.7474 67.6684 96.853 67.5646C96.9585 67.4608 97.0843 67.3799 97.2225 67.3268C97.3607 67.2738 97.5083 67.2498 97.6562 67.2562C98.4843 67.2 99.2437 67.2219 99.8656 67.975C100.387 68.6 101.184 68.6406 101.909 68.3125C102.238 68.1768 102.515 67.9416 102.703 67.6401C102.891 67.3385 102.979 66.9857 102.956 66.6312Z" fill="#FCFCFC"/>
    <path d="M102.953 66.6274C102.975 66.9823 102.886 67.3353 102.698 67.6369C102.51 67.9385 102.231 68.1735 101.903 68.3087C101.178 68.6368 100.381 68.6024 99.8589 67.9712C99.2339 67.2181 98.4776 67.1962 97.6495 67.2524C97.5016 67.2459 97.354 67.27 97.2158 67.323C97.0776 67.3761 96.9518 67.457 96.8463 67.5608C96.7408 67.6646 96.6577 67.789 96.6024 67.9262C96.547 68.0635 96.5205 68.2107 96.5245 68.3587C96.4933 69.1024 96.9058 69.5306 97.637 69.5931C98.2964 69.6493 98.9526 69.593 99.6089 69.7805C100.575 70.0352 101.441 70.5779 102.091 71.3365C102.741 72.0951 103.145 73.0337 103.249 74.0274C103.359 74.9831 103.179 75.9496 102.734 76.8019C102.288 77.6543 101.597 78.3534 100.749 78.8087C100.143 79.1212 99.812 79.4337 99.837 80.1837C99.8419 80.4254 99.7992 80.6657 99.7112 80.8909C99.6233 81.1161 99.4918 81.3218 99.3244 81.4962C99.157 81.6706 98.9568 81.8103 98.7354 81.9073C98.514 82.0044 98.2756 82.0569 98.0339 82.0618C97.7921 82.0667 97.5518 82.024 97.3266 81.936C97.1014 81.8481 96.8958 81.7167 96.7214 81.5492C96.547 81.3818 96.4073 81.1816 96.3102 80.9602C96.2132 80.7388 96.1607 80.5004 96.1557 80.2587C96.1557 79.4962 95.8682 79.1899 95.2182 78.9337C94.4886 78.6373 93.8663 78.1262 93.4339 77.4681C93.1431 77.0958 93.0059 76.6263 93.0507 76.1561C93.0955 75.6858 93.3187 75.2506 93.6745 74.9399C93.845 74.7782 94.0462 74.6521 94.2661 74.5691C94.486 74.4861 94.7202 74.4478 94.9551 74.4566C95.19 74.4653 95.4208 74.5208 95.634 74.6199C95.8471 74.719 96.0383 74.8597 96.1964 75.0337C96.8214 75.7243 97.5214 75.7431 98.3089 75.7118C99.0964 75.6806 99.4995 75.2587 99.5089 74.5555C99.5182 73.8524 99.0776 73.4087 98.337 73.3587C97.7156 73.3705 97.0946 73.3181 96.4839 73.2024C94.5339 72.6618 93.0776 71.1149 92.8151 69.2399C92.5182 67.1181 93.3839 65.1774 95.2057 64.1899C95.8526 63.8368 96.1714 63.5118 96.162 62.7118C96.1872 62.2366 96.3955 61.7896 96.7432 61.4647C97.0908 61.1398 97.5508 60.9621 98.0266 60.9689C98.5024 60.9758 98.9571 61.1667 99.2952 61.5016C99.6333 61.8364 99.8286 62.2892 99.8401 62.7649C99.8401 63.5056 100.168 63.7337 100.743 63.9962C102.118 64.6181 102.949 65.6649 102.953 66.6274Z" fill="#347BFA"/>
  </g>
  <defs>
    <clipPath id="clip0_3361_8516">
      <rect width="120" height="120" fill="white" transform="translate(0.5)"/>
    </clipPath>
  </defs>
</svg>