<svg xmlns="http://www.w3.org/2000/svg" width="24" height="24" viewBox="0 0 24 24" fill="none">
  <path d="M22.2452 9.17487C22.1648 8.92074 22.0099 8.69664 21.8006 8.53164C21.5913 8.36663 21.3373 8.26836 21.0714 8.24955L15.423 7.79299L13.2461 2.52424C13.1445 2.27728 12.9719 2.06607 12.75 1.91744C12.5282 1.76881 12.2672 1.68945 12.0002 1.68945C11.7331 1.68945 11.4721 1.76881 11.2503 1.91744C11.0284 2.06607 10.8558 2.27728 10.7542 2.52424L8.57734 7.79112L2.9289 8.24955C2.66282 8.26849 2.40858 8.36705 2.19925 8.5324C1.98992 8.69776 1.83518 8.92227 1.75515 9.17674C1.67173 9.43054 1.66531 9.70335 1.73672 9.96078C1.80813 10.2182 1.95416 10.4487 2.1564 10.6233L6.4689 14.3367L5.1564 19.8914C5.09482 20.1514 5.11174 20.4238 5.20503 20.6741C5.29831 20.9244 5.46378 21.1414 5.68046 21.2977C5.89448 21.4562 6.15139 21.5464 6.41755 21.5565C6.6837 21.5665 6.94668 21.4959 7.17203 21.3539L12.0002 18.3858L16.8358 21.3586C17.0611 21.5006 17.3241 21.5712 17.5903 21.5612C17.8564 21.5511 18.1133 21.4609 18.3273 21.3024C18.544 21.1461 18.7095 20.9291 18.8028 20.6788C18.8961 20.4284 18.913 20.1561 18.8514 19.8961L17.5389 14.3414L21.8439 10.6233C22.0465 10.4486 22.1928 10.2178 22.2642 9.95994C22.3356 9.70212 22.329 9.42892 22.2452 9.17487ZM21.107 9.77205L16.5423 13.7096C16.4645 13.7768 16.4065 13.864 16.3748 13.9619C16.343 14.0597 16.3387 14.1644 16.3623 14.2646L17.7573 20.1511C17.7696 20.1955 17.7675 20.2427 17.7516 20.2859C17.7356 20.3291 17.7065 20.3663 17.6683 20.3921C17.6337 20.4188 17.5916 20.4341 17.5479 20.4358C17.5042 20.4374 17.4611 20.4254 17.4245 20.4014L12.2945 17.2496C12.206 17.1952 12.1041 17.1664 12.0002 17.1664C11.8962 17.1664 11.7943 17.1952 11.7058 17.2496L6.57578 20.4005C6.53923 20.4245 6.4961 20.4365 6.4524 20.4348C6.4087 20.4331 6.36662 20.4179 6.33203 20.3911C6.29301 20.366 6.26293 20.3291 6.2461 20.2858C6.22926 20.2426 6.22652 20.1951 6.23828 20.1502L7.63328 14.2636C7.65689 14.1635 7.6526 14.0588 7.62086 13.961C7.58913 13.8631 7.53116 13.7758 7.45328 13.7086L2.88859 9.77112C2.85278 9.74195 2.82694 9.70236 2.81468 9.65783C2.80241 9.61331 2.80432 9.56607 2.82015 9.52268C2.83238 9.47991 2.85765 9.44202 2.89244 9.41429C2.92722 9.38656 2.96979 9.37037 3.01421 9.36799L9.00671 8.88424C9.10997 8.87585 9.20891 8.83912 9.29262 8.77807C9.37632 8.71703 9.44154 8.63406 9.48109 8.5383L11.7902 2.9508C11.8062 2.90944 11.8345 2.87391 11.8711 2.84885C11.9077 2.8238 11.9511 2.81039 11.9955 2.81039C12.0398 2.81039 12.0832 2.8238 12.1198 2.84885C12.1565 2.87391 12.1847 2.90944 12.2008 2.9508L14.5098 8.5383C14.5494 8.63406 14.6146 8.71703 14.6983 8.77807C14.782 8.83912 14.881 8.87585 14.9842 8.88424L20.9767 9.36799C21.0211 9.37037 21.0637 9.38656 21.0985 9.41429C21.1333 9.44202 21.1585 9.47991 21.1708 9.52268C21.1873 9.56572 21.1901 9.61285 21.1787 9.65754C21.1673 9.70222 21.1422 9.74224 21.107 9.77205Z" fill="#697386"/>
</svg>