<svg xmlns="http://www.w3.org/2000/svg" width="193" height="192" viewBox="0 0 193 192" fill="none">
  <path d="M41.7812 80.7469C41.7812 58.3935 41.7812 36.0435 41.7812 13.6969C41.7812 8.21687 43.1612 6.79688 48.5612 6.79688C84.5212 6.79688 120.481 6.79688 156.441 6.79688C161.141 6.79688 163.151 8.79687 163.151 13.6469C163.151 32.2569 163.151 50.8569 163.151 69.4569C163.151 72.0169 162.881 73.0369 159.821 72.1069C141.191 66.4369 122.761 74.8069 115.821 92.8869C112.432 101.332 112.498 110.77 116.006 119.167C119.513 127.563 126.182 134.243 134.571 137.767C140.381 140.307 146.571 142.027 153.071 140.317C153.663 140.124 154.307 140.168 154.866 140.44C155.426 140.713 155.858 141.192 156.071 141.777C158.048 145.475 159.13 149.585 159.231 153.777C159.259 153.961 159.245 154.149 159.189 154.327C159.134 154.505 159.04 154.668 158.913 154.805C158.786 154.941 158.63 155.047 158.457 155.115C158.283 155.183 158.097 155.211 157.911 155.197C156.911 155.257 155.911 155.247 154.911 155.247H49.3712C43.2112 155.247 41.7812 153.787 41.7812 147.467V80.7469ZM114.501 69.0469C121.081 69.0469 124.501 64.6769 123.341 57.3869C123.173 56.6856 123.163 55.9556 123.311 55.25C123.46 54.5443 123.764 53.8805 124.201 53.3069C127.281 49.0869 130.391 44.8869 133.371 40.5969C134.371 39.1569 135.131 38.5069 137.211 38.7969C138.895 39.0441 140.615 38.7865 142.153 38.0568C143.691 37.327 144.978 36.1578 145.851 34.6969C147.121 32.8211 147.693 30.5603 147.471 28.3065C147.248 26.0526 146.243 23.9478 144.631 22.3569C141.481 19.2269 136.301 18.5369 132.981 21.0169C129.661 23.4969 126.471 27.7869 129.151 33.0169C129.871 34.4169 130.371 35.6769 129.281 37.1469C126.281 41.2469 123.221 45.3569 120.281 49.5169C120.004 50.0623 119.528 50.481 118.952 50.6873C118.375 50.8937 117.742 50.872 117.181 50.6269C114.911 49.9669 112.231 49.5269 110.311 51.0269C107.451 53.2469 105.511 51.8869 102.981 50.5169C100.451 49.1469 100.371 46.8669 99.7213 44.6769C98.1713 39.4869 93.6512 36.6269 88.5912 37.5869C86.1299 38.1227 83.9649 39.5757 82.5365 41.6505C81.108 43.7254 80.5233 46.2664 80.9012 48.7569C81.2812 51.5769 72.6012 60.9269 69.8112 60.6869C69.4496 60.6055 69.0925 60.5054 68.7412 60.3869C63.2812 59.2869 57.6313 63.4669 56.9213 69.1169C56.3613 73.6869 61.3012 79.1669 66.2712 79.4769C71.6812 79.8169 77.0512 75.1569 76.0512 69.7369C75.1612 64.9269 77.5312 62.6569 80.3112 60.0269C81.2113 59.1669 82.1213 58.3069 82.9513 57.3769C83.4559 56.6827 84.1734 56.1723 84.9946 55.9232C85.8159 55.6741 86.696 55.7 87.5013 55.9969C88.817 56.4137 90.2031 56.5621 91.5773 56.4333C92.9515 56.3045 94.2859 55.901 95.5013 55.2469C98.8913 53.2469 104.441 56.2469 104.771 60.1369C105.251 66.1169 108.501 69.0669 114.501 69.0469ZM87.0113 126.767H65.6713C63.8006 126.703 61.9279 126.74 60.0612 126.877C59.6859 126.877 59.315 126.958 58.974 127.115C58.633 127.272 58.3299 127.5 58.0858 127.785C57.8416 128.07 57.662 128.405 57.5594 128.766C57.4567 129.127 57.4335 129.506 57.4912 129.877C57.5512 131.647 58.6012 132.287 60.0512 132.557C60.9166 132.667 61.7903 132.697 62.6613 132.647H110.951C111.956 132.717 112.966 132.646 113.951 132.437C115.241 132.067 116.751 131.587 116.581 129.787C116.528 129.091 116.242 128.434 115.768 127.922C115.294 127.41 114.661 127.073 113.971 126.967C112.869 126.778 111.749 126.705 110.631 126.747L87.0113 126.767ZM85.8813 92.9969C93.9913 92.9969 102.111 92.9969 110.221 92.9969C112.011 92.9969 114.421 93.5169 114.371 90.6369C114.321 88.2569 112.441 87.7569 110.371 87.7569C94.1412 87.7569 77.9112 87.7569 61.6812 87.7569C59.8012 87.7569 57.6812 87.6969 57.5812 90.3969C57.4912 93.2569 59.6712 92.9769 61.5812 92.9769L85.8813 92.9969ZM84.5013 119.237H107.691C109.471 119.237 111.521 119.387 111.381 116.787C111.261 114.637 109.651 113.987 107.671 113.987H61.3012C59.3012 113.987 57.7112 114.657 57.6112 116.807C57.4912 119.407 59.5513 119.237 61.3213 119.237H84.5013ZM83.8513 101.237C76.5013 101.237 69.1513 101.237 61.7913 101.237C59.8613 101.237 57.4212 100.747 57.5512 103.897C57.6612 106.567 59.8512 106.447 61.7112 106.457C76.4112 106.457 91.1213 106.457 105.821 106.457C107.871 106.457 109.821 106.057 109.761 103.597C109.701 101.137 107.761 101.177 105.911 101.187C98.5813 101.247 91.2312 101.227 83.8712 101.227L83.8513 101.237Z" fill="#DEEBF8"/>
  <path d="M26.0391 95.6477C26.0391 73.0477 26.0391 50.4511 26.0391 27.8577C26.0391 22.1877 29.7791 19.4477 35.1591 21.0877C35.5805 21.1815 35.9516 21.4294 36.1995 21.7828C36.4474 22.1362 36.5543 22.5696 36.4991 22.9977C36.4991 23.9977 36.4991 24.9977 36.4991 25.9977V148.458C36.4991 156.238 40.6991 160.458 48.4991 160.458C79.9591 160.458 111.419 160.474 142.879 160.508C144.649 160.508 147.419 159.198 147.449 162.988C147.449 166.938 146.059 169.108 142.789 169.448C141.916 169.493 141.042 169.493 140.169 169.448H32.6991C26.9591 169.448 26.0491 168.508 26.0391 162.658V95.6477Z" fill="#DEEBF8"/>
  <path d="M11.8409 111.098C11.8409 88.625 11.8409 66.1517 11.8409 43.6784C11.8409 38.3584 13.6709 36.5484 18.3209 36.7584C20.0109 36.8384 20.9209 37.2984 20.8009 39.1284C20.7309 40.1284 20.8009 41.1284 20.8009 42.1284C20.8009 82.3284 20.8809 122.538 20.7209 162.748C20.7209 169.298 23.8709 174.908 32.8109 174.828C64.9009 174.528 96.9909 174.698 129.081 174.738C130.851 174.738 133.191 173.798 133.291 177.258C133.431 182.498 132.471 184.788 129.231 185.178C128.358 185.228 127.484 185.228 126.611 185.178H18.3509C13.0909 185.178 11.8509 183.918 11.8409 178.498C11.8343 156.052 11.8343 133.585 11.8409 111.098Z" fill="#DEEBF8"/>
  <path d="M118.964 105.199C118.244 89.7393 132.594 75.2593 149.344 75.5593C157.261 75.7934 164.775 79.1032 170.292 84.7864C175.809 90.4695 178.895 98.0787 178.894 105.999C178.974 121.939 164.964 135.869 149.004 135.709C131.944 135.499 117.974 121.549 118.964 105.199ZM169.964 105.619C169.734 93.1093 160.864 84.3693 148.964 84.3293C136.714 84.2793 127.794 92.3893 127.514 105.579C127.514 111.204 129.748 116.599 133.726 120.577C137.704 124.555 143.098 126.789 148.724 126.789C154.349 126.789 159.744 124.555 163.721 120.577C167.699 116.599 169.934 111.204 169.934 105.579L169.964 105.619Z" fill="#347BFA"/>
  <path d="M181.127 175.001C180.807 176.351 180.477 177.631 179.247 178.201C178.692 178.5 178.061 178.627 177.434 178.565C176.806 178.502 176.212 178.254 175.727 177.851C174.768 177.053 174.034 176.019 173.597 174.851C171.067 168.501 168.437 162.191 165.807 155.851C164.917 153.731 164.327 151.981 167.317 150.851C169.797 149.951 171.177 149.851 172.267 152.851C174.747 159.741 177.707 166.461 180.477 173.251C180.707 173.881 180.927 174.461 181.127 175.001Z" fill="#347BFA"/>
  <path d="M162.424 138C163.18 138.196 163.85 138.637 164.329 139.254C164.808 139.871 165.07 140.629 165.074 141.41C165.264 143 168.184 144.9 165.644 146.03C162.914 147.26 162.774 144.15 162.094 142.45C161.504 140.94 159.664 139.18 162.424 138Z" fill="#347BFA"/>
  <path d="M114.497 69.0496C108.497 69.0496 105.247 66.1197 104.737 60.1497C104.407 56.2696 98.8575 53.2897 95.4675 55.2597C94.2521 55.9138 92.9178 56.3172 91.5436 56.4461C90.1694 56.5749 88.7833 56.4265 87.4675 56.0097C86.6623 55.7128 85.7821 55.6869 84.9609 55.936C84.1396 56.1851 83.4221 56.6955 82.9175 57.3897C82.0875 58.3197 81.1775 59.1797 80.2775 60.0397C77.4975 62.6697 75.1275 64.9397 76.0175 69.7497C77.0175 75.1697 71.6475 79.8296 66.2375 79.4896C61.2375 79.1796 56.3275 73.6997 56.8875 69.1297C57.5975 63.4797 63.2475 59.2997 68.7075 60.3997C69.0587 60.5181 69.4159 60.6183 69.7775 60.6997C72.5675 60.9397 81.2475 51.5896 80.8675 48.7696C80.4896 46.2791 81.0743 43.7382 82.5027 41.6633C83.9311 39.5885 86.0961 38.1355 88.5575 37.5997C93.6175 36.5997 98.1375 39.4997 99.6875 44.6897C100.337 46.8797 100.387 49.1397 102.947 50.5297C105.507 51.9197 107.417 53.2597 110.277 51.0397C112.197 49.5397 114.877 49.9797 117.147 50.6397C117.708 50.8848 118.342 50.9065 118.918 50.7001C119.494 50.4938 119.97 50.0751 120.247 49.5297C123.247 45.3697 126.247 41.2597 129.247 37.1597C130.337 35.6897 129.837 34.4297 129.117 33.0297C126.437 27.7897 129.747 23.4097 132.947 21.0297C136.147 18.6497 141.447 19.2397 144.597 22.3697C146.209 23.9606 147.214 26.0654 147.437 28.3193C147.66 30.5731 147.087 32.8339 145.817 34.7097C144.944 36.1706 143.657 37.3398 142.119 38.0695C140.581 38.7993 138.862 39.0568 137.177 38.8097C135.097 38.5197 134.347 39.1697 133.337 40.6097C130.337 44.8997 127.247 49.0997 124.167 53.3197C123.73 53.8933 123.426 54.5571 123.278 55.2627C123.129 55.9684 123.139 56.6984 123.307 57.3997C124.497 64.6796 121.077 68.9996 114.497 69.0496ZM142.217 29.3997C142.307 26.5097 140.457 25.2097 138.137 24.9397C135.457 24.6297 134.137 26.7697 133.557 28.9397C133.027 30.7997 135.797 33.7097 137.927 33.6097C140.497 33.5097 141.807 31.7897 142.217 29.3997ZM89.9575 51.0697C93.3375 51.0697 94.8075 49.2297 94.7675 46.8697C94.7939 46.3016 94.697 45.7347 94.4836 45.2076C94.2701 44.6806 93.9451 44.206 93.5308 43.8165C93.1166 43.4269 92.623 43.1317 92.0838 42.951C91.5447 42.7703 90.9728 42.7084 90.4075 42.7697C87.5575 42.7697 86.2575 44.6997 86.1575 47.0397C86.0475 49.6497 87.9575 50.9097 89.9575 51.0697ZM62.7375 69.9197C62.7975 72.1297 64.5875 74.1596 66.5375 74.2096C68.9075 74.2796 71.2075 72.0397 70.9775 69.7497C70.7175 67.2297 69.2975 65.3396 66.7375 65.4896C66.1706 65.4749 65.6073 65.583 65.0862 65.8065C64.5651 66.0301 64.0985 66.3637 63.7185 66.7846C63.3385 67.2054 63.0541 67.7036 62.8847 68.2447C62.7154 68.7859 62.6651 69.3573 62.7375 69.9197ZM118.267 59.9997C118.267 57.3197 117.047 55.5697 114.267 55.5397C113.701 55.4799 113.128 55.5463 112.59 55.7342C112.052 55.922 111.562 56.2267 111.156 56.6263C110.749 57.0259 110.437 57.5106 110.24 58.0454C110.043 58.5802 109.967 59.152 110.017 59.7197C110.017 62.0597 111.017 63.7197 113.837 63.7797C116.657 63.8397 118.207 62.9097 118.267 59.9997Z" fill="#347BFA"/>
  <path d="M87.0119 126.769H110.602C111.72 126.727 112.839 126.801 113.942 126.989C114.631 127.096 115.265 127.432 115.739 127.944C116.212 128.456 116.499 129.114 116.552 129.809C116.722 131.609 115.212 132.089 113.922 132.459C112.937 132.669 111.927 132.739 110.922 132.669H62.6619C61.791 132.72 60.9173 132.69 60.0519 132.579C58.6019 132.309 57.5519 131.669 57.4919 129.899C57.4341 129.529 57.4574 129.15 57.56 128.789C57.6626 128.427 57.8422 128.093 58.0864 127.808C58.3306 127.523 58.6336 127.294 58.9746 127.137C59.3156 126.98 59.6866 126.899 60.0619 126.899C61.9286 126.763 63.8013 126.726 65.6719 126.789L87.0119 126.769Z" fill="#347BFA"/>
  <path d="M85.8812 93.0014H61.5012C59.6212 93.0014 57.4412 93.2814 57.5012 90.4214C57.5812 87.7214 59.7212 87.7814 61.6012 87.7814C77.8312 87.7814 94.0612 87.7814 110.291 87.7814C112.381 87.7814 114.291 88.2814 114.291 90.6614C114.341 93.5414 111.931 93.0113 110.141 93.0213C102.111 93.0513 93.9912 93.0014 85.8812 93.0014Z" fill="#347BFA"/>
  <path d="M84.5009 119.242H61.3009C59.5309 119.242 57.4709 119.412 57.5909 116.812C57.6909 114.662 59.3009 113.992 61.2809 113.992H107.671C109.671 113.992 111.261 114.642 111.381 116.792C111.521 119.392 109.471 119.242 107.691 119.242H84.5009Z" fill="#347BFA"/>
  <path d="M83.8675 101.229C91.2275 101.229 98.5775 101.229 105.927 101.229C107.807 101.229 109.727 101.309 109.777 103.639C109.827 105.969 107.887 106.499 105.837 106.499C91.1375 106.499 76.4275 106.499 61.7275 106.499C59.8675 106.499 57.6775 106.609 57.5675 103.939C57.4375 100.789 59.8775 101.279 61.8075 101.279C69.1675 101.209 76.4975 101.229 83.8675 101.229Z" fill="#347BFA"/>
  <path d="M169.951 105.617C169.951 111.243 167.717 116.638 163.739 120.615C159.761 124.593 154.366 126.827 148.741 126.827C143.116 126.827 137.721 124.593 133.744 120.615C129.766 116.638 127.531 111.243 127.531 105.617C127.811 92.4274 136.731 84.3174 148.981 84.3674C160.851 84.3674 169.721 93.1074 169.951 105.617Z" fill="#FEFEFE"/>
  <path d="M142.218 29.4035C141.808 31.7935 140.538 33.5135 137.928 33.6335C135.798 33.7335 133.028 30.8235 133.558 28.9635C134.178 26.7735 135.458 24.6335 138.138 24.9635C140.498 25.2135 142.308 26.5135 142.218 29.4035Z" fill="#C9DBEE"/>
  <path d="M89.9608 51.0663C87.9608 50.9063 86.0508 49.6463 86.1608 47.0663C86.2608 44.7263 87.5608 42.8463 90.4108 42.7963C90.9761 42.7351 91.548 42.797 92.0871 42.9777C92.6263 43.1584 93.1199 43.4536 93.5341 43.8432C93.9484 44.2327 94.2734 44.7073 94.4869 45.2343C94.7003 45.7613 94.7972 46.3283 94.7708 46.8963C94.8108 49.2263 93.3408 51.0763 89.9608 51.0663Z" fill="#C9DBEE"/>
  <path d="M62.743 69.9227C62.6707 69.3603 62.721 68.7889 62.8903 68.2478C63.0596 67.7066 63.3441 67.2085 63.7241 66.7876C64.1041 66.3668 64.5706 66.0331 65.0918 65.8096C65.6129 65.5861 66.1762 65.478 66.743 65.4927C69.303 65.3427 70.7431 67.2327 70.9831 69.7527C71.2131 72.0427 68.9131 74.2827 66.5431 74.2127C64.5931 74.1627 62.803 72.1327 62.743 69.9227Z" fill="#C9DBEE"/>
  <path d="M118.266 59.9969C118.206 62.8669 116.546 63.7969 113.866 63.7769C111.186 63.7569 110.056 62.0569 110.046 59.7169C109.996 59.1493 110.072 58.5775 110.269 58.0427C110.466 57.5079 110.778 57.0232 111.185 56.6236C111.591 56.224 112.081 55.9193 112.619 55.7314C113.157 55.5435 113.73 55.4771 114.296 55.5369C117.046 55.6069 118.236 57.3569 118.266 59.9969Z" fill="#C9DBEE"/>
</svg>