<svg width="98" height="120" viewBox="0 0 98 120" fill="none" xmlns="http://www.w3.org/2000/svg">
<g clip-path="url(#clip0_3761_18559)">
<path d="M0.0234375 113.73V24.0103C0.713437 21.7103 2.44344 20.2003 4.02344 18.5903C8.21344 14.4303 12.3634 10.2203 16.5734 6.0703C18.8034 3.8803 20.7334 1.30031 23.7334 0.0703125H91.9534C95.0034 0.910312 96.8434 2.7703 96.9534 6.0703V113.73C96.8434 117.2 94.3434 119.47 90.6034 119.47H6.45343C5.28941 119.442 4.15524 119.096 3.17343 118.47C2.34572 117.945 1.63761 117.251 1.09497 116.435C0.552333 115.618 0.187278 114.697 0.0234375 113.73ZM93.2434 59.8003C93.2434 42.0603 93.2434 24.3237 93.2434 6.59032C93.2434 4.59032 92.4434 3.77031 90.4634 3.77031C69.2301 3.77031 47.9968 3.77031 26.7634 3.77031C25.6234 3.77031 25.2334 4.11031 25.2534 5.27031C25.2534 9.81031 25.3134 14.3503 25.2534 18.8903C25.3175 19.8205 25.1709 20.7531 24.8246 21.6188C24.4784 22.4845 23.9413 23.2609 23.2534 23.8903C21.89 24.8685 20.2273 25.339 18.5534 25.2203C14.3134 25.2803 10.0634 25.2203 5.81343 25.2203C3.81343 25.2203 3.81343 25.2203 3.81343 27.2203V112.54C3.81343 114.93 4.55343 115.67 6.92343 115.67H90.2434C92.5234 115.67 93.2434 114.9 93.2434 112.59C93.2434 95.017 93.2434 77.4203 93.2434 59.8003Z" fill="#DDEAF7"/>
<path d="M97.2322 113.728H96.9922V6.00781H97.2322V113.728Z" fill="#F5F9FC"/>
<path d="M93.2369 59.8003C93.2369 77.4136 93.2369 95.027 93.2369 112.64C93.2369 114.95 92.4869 115.72 90.2369 115.72H6.90688C4.53688 115.72 3.79688 114.98 3.79688 112.59V27.2703C3.79688 25.2703 3.79688 25.2703 5.79688 25.2703C10.0469 25.2703 14.2969 25.2703 18.5369 25.2703C20.2107 25.389 21.8734 24.9185 23.2369 23.9403C23.9247 23.3109 24.4618 22.5345 24.8081 21.6688C25.1543 20.8031 25.3009 19.8705 25.2369 18.9403C25.2969 14.4003 25.2369 9.8603 25.2369 5.3203C25.2369 4.1603 25.6069 3.82031 26.7469 3.82031C47.9869 3.82031 69.2202 3.82031 90.4469 3.82031C92.4469 3.82031 93.2269 4.6303 93.2269 6.6403C93.2335 24.3336 93.2369 42.0536 93.2369 59.8003Z" fill="#FEFEFE"/>
<path d="M47.4406 84.3636H24.1406C24.1406 68.1836 24.1406 52.0002 24.1406 35.8136C24.1406 35.4636 24.2206 35.3735 24.5806 35.3835H72.7006C73.0606 35.3835 73.1406 35.4636 73.1406 35.8136C73.1406 51.8536 73.1406 67.8936 73.1406 83.9336C73.1406 84.2936 73.0606 84.3736 72.7006 84.3736H49.6306C49.9045 84.262 50.1953 84.1977 50.4906 84.1836C52.8854 83.7045 55.0175 82.3547 56.4748 80.395C57.9321 78.4353 58.6112 76.0048 58.3806 73.5735C58.3565 73.4954 58.3485 73.4132 58.3573 73.3319C58.3661 73.2506 58.3913 73.1719 58.4316 73.1008C58.4719 73.0296 58.5263 72.9674 58.5915 72.918C58.6566 72.8686 58.7312 72.8331 58.8106 72.8136C61.6011 71.5142 64.1139 69.6873 66.2106 67.4336C66.3142 67.3356 66.3941 67.2154 66.4444 67.082C66.4946 66.9486 66.5138 66.8055 66.5006 66.6635C66.4413 65.6545 66.3042 64.6515 66.0906 63.6635C65.5432 61.1238 64.448 58.7341 62.8814 56.6615C61.3148 54.5888 59.3147 52.8832 57.0206 51.6635C56.7506 51.5135 56.6506 51.4336 56.8606 51.1136C58.2758 49.0726 58.8687 46.5727 58.5206 44.1136C58.3013 42.6312 57.7516 41.2171 56.9122 39.9757C56.0728 38.7344 54.9651 37.6976 53.6711 36.942C52.3771 36.1863 50.9297 35.7311 49.4361 35.6101C47.9425 35.489 46.4408 35.7052 45.042 36.2426C43.6432 36.78 42.383 37.6249 41.3547 38.7149C40.3263 39.8049 39.5561 41.112 39.1009 42.5397C38.6457 43.9674 38.5172 45.4791 38.7248 46.9632C38.9325 48.4472 39.471 49.8656 40.3006 51.1136C40.4806 51.3736 40.4806 51.4735 40.1906 51.6335C37.457 53.0688 35.1427 55.189 33.474 57.7867C31.8054 60.3844 30.8394 63.3707 30.6706 66.4536C30.6437 66.6361 30.6614 66.8225 30.7224 66.9967C30.7834 67.1709 30.8857 67.3276 31.0206 67.4536C33.1435 69.7013 35.6754 71.5238 38.4806 72.8235C38.7206 72.9335 38.8606 73.0136 38.8106 73.3436C38.5623 75.5091 39.0379 77.696 40.1631 79.5629C41.2883 81.4298 42.9998 82.8716 45.0306 83.6635C45.8106 83.9935 46.6406 84.1136 47.4406 84.3636Z" fill="#FEFEFE"/>
<path d="M47.4385 84.3599C46.6385 84.1099 45.8085 83.9899 45.0285 83.6999C42.994 82.9072 41.2798 81.4621 40.1543 79.5911C39.0288 77.7201 38.5555 75.5287 38.8085 73.3599C38.8085 73.0299 38.7185 72.9499 38.4785 72.8399C35.6732 71.5402 33.1414 69.7176 31.0185 67.4699C30.8836 67.344 30.7812 67.1872 30.7203 67.0131C30.6593 66.8389 30.6415 66.6525 30.6685 66.4699C30.8372 63.387 31.8032 60.4008 33.4719 57.8031C35.1406 55.2054 37.4549 53.0852 40.1885 51.6499C40.4785 51.4899 40.4785 51.3899 40.2985 51.1299C39.4689 49.882 38.9304 48.4636 38.7227 46.9795C38.515 45.4955 38.6435 43.9838 39.0987 42.5561C39.5539 41.1284 40.3242 39.8213 41.3525 38.7313C42.3809 37.6413 43.641 36.7964 45.0398 36.259C46.4387 35.7216 47.9404 35.5054 49.434 35.6264C50.9276 35.7475 52.3749 36.2027 53.6689 36.9583C54.963 37.714 56.0706 38.7508 56.91 39.9921C57.7494 41.2335 58.2991 42.6475 58.5185 44.1299C58.8665 46.589 58.2737 49.0889 56.8585 51.1299C56.6485 51.4499 56.7485 51.5299 57.0185 51.6799C59.3125 52.8995 61.3127 54.6052 62.8792 56.6779C64.4458 58.7505 65.5411 61.1402 66.0885 63.6799C66.3021 64.6679 66.4392 65.6709 66.4985 66.6799C66.5117 66.8219 66.4924 66.9649 66.4422 67.0983C66.392 67.2317 66.312 67.352 66.2085 67.4499C64.1118 69.7036 61.599 71.5305 58.8085 72.8299C58.7291 72.8494 58.6545 72.885 58.5893 72.9344C58.5241 72.9838 58.4697 73.0459 58.4295 73.1171C58.3892 73.1883 58.3639 73.267 58.3551 73.3483C58.3464 73.4296 58.3543 73.5118 58.3785 73.5899C58.609 76.0212 57.93 78.4516 56.4727 80.4113C55.0154 82.3711 52.8832 83.7209 50.4885 84.1999C50.1931 84.2141 49.9023 84.2783 49.6285 84.3899L47.4385 84.3599ZM65.3085 66.1199C65.057 63.2735 64.0888 60.5371 62.4941 58.1659C60.8993 55.7948 58.73 53.8662 56.1885 52.5599C56.098 52.4973 55.9865 52.4726 55.878 52.4913C55.7696 52.51 55.6728 52.5706 55.6085 52.6599C53.7392 54.4922 51.226 55.5185 48.6085 55.5185C45.991 55.5185 43.4778 54.4922 41.6085 52.6599C41.5749 52.6133 41.5322 52.5739 41.4831 52.544C41.434 52.5142 41.3794 52.4945 41.3225 52.4861C41.2656 52.4777 41.2077 52.4808 41.152 52.4952C41.0963 52.5096 41.0441 52.535 40.9985 52.5699C38.4298 53.8838 36.243 55.8374 34.6491 58.2423C33.0551 60.6472 32.1078 63.4223 31.8985 66.2999C31.8828 66.4157 31.8956 66.5336 31.9356 66.6433C31.9757 66.7531 32.0419 66.8515 32.1285 66.9299C34.0243 68.8663 36.2359 70.4657 38.6685 71.6599C39.0385 71.8399 39.1585 71.8199 39.2985 71.3999C39.992 69.2617 41.4031 67.4288 43.2928 66.2115C45.1826 64.9942 47.4349 64.4673 49.6685 64.7199C51.5695 64.8894 53.3768 65.6223 54.859 66.8247C56.3412 68.0272 57.4308 69.6446 57.9885 71.4699C58.0885 71.7599 58.1585 71.8799 58.4885 71.7099C60.9102 70.5323 63.1175 68.9572 65.0185 67.0499C65.151 66.9391 65.2488 66.7925 65.3002 66.6276C65.3516 66.4627 65.3545 66.2864 65.3085 66.1199ZM48.5885 54.3599C50.3448 54.3579 52.061 53.8352 53.5203 52.8578C54.9795 51.8804 56.1161 50.4923 56.7864 48.8689C57.4566 47.2456 57.6305 45.4599 57.2859 43.7377C56.9413 42.0156 56.0938 40.4342 54.8505 39.1938C53.6072 37.9533 52.024 37.1093 50.3011 36.7686C48.5781 36.4279 46.7929 36.6058 45.171 37.2797C43.5492 37.9537 42.1636 39.0934 41.1895 40.5548C40.2154 42.0162 39.6965 43.7336 39.6985 45.4899C39.6972 46.6568 39.9263 47.8124 40.3729 48.8905C40.8194 49.9686 41.4745 50.9478 42.3006 51.772C43.1266 52.5962 44.1073 53.2491 45.1864 53.6932C46.2654 54.1373 47.4216 54.3639 48.5885 54.3599ZM48.5885 65.7999C46.8745 65.7981 45.1982 66.3032 43.7706 67.2517C42.3429 68.2001 41.2276 69.5496 40.565 71.1304C39.9023 72.7111 39.722 74.4525 40.0465 76.1355C40.3711 77.8184 41.1861 79.3679 42.3891 80.5888C43.592 81.8098 45.1291 82.6477 46.8071 82.9973C48.4851 83.3468 50.229 83.1924 51.8194 82.5533C53.4098 81.9142 54.7757 80.8191 55.7453 79.4057C56.7149 77.9923 57.2448 76.3238 57.2685 74.6099C57.2831 73.4613 57.0692 72.3212 56.6394 71.2559C56.2096 70.1907 55.5724 69.2214 54.7648 68.4045C53.9572 67.5876 52.9953 66.9393 51.935 66.4973C50.8747 66.0554 49.7372 65.8285 48.5885 65.8299V65.7999Z" fill="white"/>
<path d="M65.3102 66.1207C65.3528 66.2934 65.3433 66.4749 65.2827 66.6422C65.2222 66.8095 65.1135 66.9551 64.9702 67.0607C63.0692 68.9679 60.862 70.543 58.4402 71.7206C58.1102 71.8906 58.0402 71.7706 57.9402 71.4806C57.3826 69.6553 56.2929 68.038 54.8107 66.8355C53.3286 65.633 51.5213 64.9001 49.6202 64.7306C47.3866 64.478 45.1343 65.005 43.2446 66.2223C41.3549 67.4396 39.9438 69.2724 39.2502 71.4106C39.1102 71.8306 38.9902 71.8506 38.6202 71.6706C36.1877 70.4765 33.9761 68.877 32.0802 66.9406C31.9937 66.8622 31.9275 66.7638 31.8874 66.6541C31.8473 66.5443 31.8346 66.4265 31.8502 66.3107C32.0596 63.4331 33.0069 60.658 34.6008 58.253C36.1948 55.8481 38.3815 53.8945 40.9502 52.5807C40.9959 52.5457 41.0481 52.5203 41.1038 52.5059C41.1594 52.4915 41.2174 52.4884 41.2743 52.4968C41.3311 52.5052 41.3857 52.5249 41.4349 52.5547C41.484 52.5846 41.5266 52.624 41.5602 52.6706C43.4295 54.5029 45.9427 55.5292 48.5602 55.5292C51.1778 55.5292 53.6909 54.5029 55.5602 52.6706C55.6245 52.5813 55.7213 52.5208 55.8298 52.5021C55.9383 52.4834 56.0497 52.508 56.1402 52.5706C58.6898 53.8696 60.8682 55.7939 62.4719 58.1636C64.0756 60.5333 65.0522 63.271 65.3102 66.1207Z" fill="#0457BC"/>
<path d="M48.5923 54.3616C46.8407 54.3634 45.1277 53.8471 43.6688 52.8778C42.2099 51.9085 41.0703 50.5293 40.3933 48.9138C39.7163 47.2984 39.5321 45.5188 39.864 43.799C40.1959 42.0791 41.029 40.4958 42.2585 39.2483C43.488 38.0008 45.059 37.1447 46.7738 36.7878C48.4887 36.431 50.2708 36.5892 51.8959 37.2426C53.521 37.8961 54.9166 39.0156 55.9071 40.4602C56.8975 41.9048 57.4387 43.6101 57.4623 45.3616C57.4796 46.5373 57.2628 47.7047 56.8248 48.7959C56.3868 49.8871 55.7361 50.8803 54.9108 51.7178C54.0854 52.5553 53.1017 53.2203 52.017 53.6742C50.9323 54.128 49.7682 54.3617 48.5923 54.3616Z" fill="#0457BC"/>
<path d="M48.5907 65.8282C50.3085 65.8302 51.9873 66.3412 53.4148 67.2969C54.8423 68.2525 55.9546 69.6098 56.6111 71.1973C57.2676 72.7848 57.4388 74.5312 57.1032 76.216C56.7676 77.9007 55.9402 79.4482 54.7254 80.6629C53.5107 81.8776 51.9632 82.7051 50.2785 83.0407C48.5937 83.3763 46.8473 83.2051 45.2598 82.5486C43.6723 81.8921 42.315 80.7798 41.3594 79.3523C40.4038 77.9248 39.8927 76.2461 39.8907 74.5282C39.8867 73.3846 40.109 72.2515 40.5449 71.1941C40.9807 70.1368 41.6214 69.1762 42.43 68.3675C43.2387 67.5589 44.1993 66.9182 45.2566 66.4824C46.314 66.0465 47.4471 65.8242 48.5907 65.8282ZM51.6807 73.9482C51.0007 73.9482 50.3207 73.9482 49.6307 73.9482C49.2207 73.9482 49.1407 73.8182 49.1507 73.4382C49.1507 72.0782 49.1507 70.7282 49.1507 69.3782C49.1691 69.252 49.1516 69.1233 49.1003 69.0066C49.0491 68.8899 48.966 68.7899 48.8607 68.7182C48.4407 68.4682 48.0007 68.7782 48.0007 69.3482C48.0007 70.7182 48.0007 72.0782 48.0007 73.4482C48.0007 73.8482 47.8907 73.9482 47.5007 73.9482C46.1307 73.9482 44.7607 73.9482 43.3907 73.9482C42.9007 73.9482 42.6307 74.2282 42.7307 74.6382C42.8307 75.0482 43.0807 75.0882 43.4207 75.0882H47.5707C47.9007 75.0882 48.0007 75.1582 48.0007 75.5082C48.0007 76.8682 48.0007 78.2382 48.0007 79.6082C48.0007 80.1182 48.1907 80.3682 48.5807 80.3582C48.9707 80.3482 49.1407 80.1182 49.1407 79.5882C49.1407 78.2382 49.1407 76.8882 49.1407 75.5382C49.1407 75.1882 49.2207 75.0782 49.5807 75.0782C50.9807 75.0782 52.3807 75.0782 53.7807 75.0782C54.1707 75.0782 54.4307 74.8882 54.4207 74.4782C54.4107 74.0682 54.1507 73.9282 53.7707 73.9382L51.6807 73.9482Z" fill="#0457BC"/>
<path d="M51.6813 73.948H53.7813C54.1613 73.948 54.4113 74.088 54.4313 74.488C54.4513 74.888 54.1813 75.088 53.7913 75.088C52.3913 75.088 50.9913 75.088 49.5913 75.088C49.2313 75.088 49.1413 75.198 49.1513 75.548C49.1513 76.898 49.1513 78.248 49.1513 79.598C49.1513 80.128 48.9713 80.368 48.5913 80.368C48.2113 80.368 48.0113 80.128 48.0113 79.618C48.0113 78.248 48.0113 76.878 48.0113 75.518C48.0113 75.168 47.9113 75.088 47.5813 75.098H43.4313C43.0913 75.098 42.8213 75.008 42.7413 74.648C42.6613 74.288 42.9113 73.958 43.4013 73.958C44.7713 73.958 46.1413 73.958 47.5113 73.958C47.9013 73.958 48.0213 73.858 48.0113 73.458C48.0113 72.088 48.0113 70.728 48.0113 69.358C48.0113 68.788 48.4513 68.478 48.8713 68.728C48.9766 68.7998 49.0597 68.8997 49.1109 69.0164C49.1622 69.1331 49.1796 69.2619 49.1613 69.388C49.1613 70.738 49.1613 72.088 49.1613 73.448C49.1613 73.828 49.2313 73.978 49.6413 73.958C50.3213 73.918 51.0013 73.948 51.6813 73.948Z" fill="#F7FAFC"/>
</g>
<defs>
<clipPath id="clip0_3761_18559">
<rect width="97.25" height="119.75" fill="white"/>
</clipPath>
</defs>
</svg>
