<svg width="151" height="192" viewBox="0 0 151 192" fill="none" xmlns="http://www.w3.org/2000/svg">
<path id="dataeGPT-brain-icon" d="M150.5 66.6933C150.405 67.4061 150.334 68.123 150.212 68.8319C149.798 71.2817 148.677 73.557 146.987 75.3781C145.654 76.8598 143.997 78.0134 142.145 78.7489C141.983 78.7957 141.843 78.8988 141.751 79.0398C141.659 79.1807 141.62 79.35 141.641 79.5171C141.655 80.5835 141.641 81.6478 141.641 82.7142C141.641 88.9109 141.624 95.1095 141.655 101.308C141.655 103.411 140.733 104.847 138.891 105.767C134.732 107.842 130.574 109.92 126.418 112.001C125.79 112.315 125.168 112.639 124.534 112.941C124.385 112.995 124.259 113.097 124.175 113.232C124.091 113.366 124.054 113.524 124.07 113.682C124.082 113.879 124.07 114.077 124.07 114.262C124.07 130.921 124.07 147.579 124.07 164.237C124.079 164.381 124.079 164.526 124.07 164.671C124.015 165.157 124.22 165.404 124.688 165.574C128.061 166.798 130.494 169.089 132.09 172.268C132.858 173.811 133.304 175.495 133.399 177.217C133.654 181.31 132.275 184.798 129.404 187.639C127.208 189.839 124.285 191.164 121.183 191.365C117.871 191.672 114.568 190.692 111.957 188.63C109.22 186.516 107.498 183.737 106.957 180.311C106.225 175.68 107.601 171.703 110.907 168.407C111.925 167.396 113.124 166.585 114.442 166.016C115 165.775 115.231 165.445 115.231 164.811C115.212 156.507 115.212 148.203 115.231 139.898C115.25 139.661 115.2 139.423 115.087 139.213C114.975 139.003 114.805 138.83 114.598 138.713C109.397 135.301 104.205 131.878 99.021 128.445C96.4755 126.766 93.9617 125.034 91.3571 123.453C89.7457 122.475 88.942 121.053 88.3357 119.365C86.8053 115.108 85.19 110.874 83.6319 106.63C83.5715 106.434 83.4503 106.263 83.2859 106.141C83.1215 106.019 82.9224 105.952 82.7176 105.951C80.2678 105.702 77.9466 104.733 76.047 103.166C75.2015 102.445 74.4259 101.646 73.7307 100.779C73.3594 100.339 73.0415 100.228 72.4945 100.366C65.3855 102.159 58.2666 103.921 51.1675 105.724C49.8342 106.074 48.4329 106.074 47.0996 105.724C39.8978 103.903 32.6841 102.14 25.4783 100.331C24.9432 100.196 24.6568 100.315 24.331 100.739C22.2082 103.476 19.4771 105.254 16.0628 105.846C12.1351 106.529 8.5589 105.613 5.44081 103.121C2.86714 101.122 1.16325 98.2082 0.683699 94.9851C0.0774594 91.166 0.972009 87.6964 3.3634 84.6277C4.76676 82.8542 6.60288 81.4716 8.69515 80.6131C9.18883 80.4038 9.32311 80.1234 9.32311 79.6257C9.31126 73.7898 9.31126 67.9551 9.32311 62.1218C9.32311 61.6202 9.19278 61.3319 8.69515 61.1344C7.1079 60.5212 5.66839 59.579 4.47122 58.3698C2.63564 56.576 1.36456 54.2847 0.814421 51.7778C0.264281 49.271 0.459083 46.658 1.37485 44.2604C2.4274 41.4168 4.44326 39.032 7.07193 37.5207C9.4143 36.1095 12.1518 35.4975 14.8721 35.777C16.1794 35.9073 17.4728 36.3121 18.7327 36.715C19.3251 36.9026 19.6568 36.8196 20.0656 36.4069C22.5867 33.8609 25.1202 31.3273 27.6663 28.8062C30.6416 25.8599 33.628 22.9262 36.6256 20.0049C37.0206 19.6099 37.1331 19.3019 36.9159 18.7569C36.2682 17.1277 35.8555 15.4294 35.9128 13.664C36.0135 10.6269 36.9515 7.886 38.8867 5.50054C40.7065 3.23654 43.2252 1.63936 46.049 0.958676C46.7204 0.786875 47.4175 0.703936 48.1027 0.579529H50.1367C50.2622 0.640187 50.3949 0.684646 50.5316 0.711835C52.6426 0.830319 54.5344 1.59849 56.286 2.71618C58.4936 4.10599 60.2179 6.14407 61.2228 8.55149C61.4676 9.1281 61.7895 9.31965 62.4076 9.31768C67.3879 9.29003 72.3681 9.30188 77.3484 9.30188C78.1955 9.30188 79.0427 9.27423 79.8859 9.30188C80.1015 9.33349 80.3212 9.28477 80.5032 9.16499C80.6853 9.04521 80.817 8.86271 80.8733 8.6522C81.001 8.31335 81.1514 7.98348 81.3235 7.66484C82.1343 6.12266 83.2424 4.75623 84.5838 3.6443C86.0056 2.51871 87.532 1.62811 89.2895 1.16207C90.1248 0.940903 90.9759 0.790824 91.8211 0.593352H94.4356C94.563 0.650985 94.6951 0.697242 94.8306 0.731582C99.2974 1.43063 102.599 3.79833 104.742 7.75172C105.781 9.6806 106.286 11.8518 106.205 14.0412C106.164 15.621 106.008 15.3208 107.376 16.0021C112.247 18.4258 117.126 20.8422 122.013 23.2513C124.558 24.5053 127.08 25.8007 129.647 26.9757C131.448 27.7991 132.455 29.0945 132.923 31.014C134.679 38.2059 136.515 45.3781 138.306 52.5621C138.43 53.0696 138.638 53.3659 139.179 53.4429C142.271 53.8793 144.86 55.2952 146.963 57.5799C148.663 59.3944 149.79 61.6691 150.206 64.1202C150.326 64.8291 150.403 65.5459 150.494 66.2588L150.5 66.6933ZM91.8349 26.9599C91.3965 26.8552 91.3018 27.1988 91.1635 27.4713C89.2033 31.3892 87.2417 35.307 85.2789 39.2249C85.0814 39.6001 85.0597 39.8923 85.3815 40.1905C85.4784 40.2986 85.5675 40.4134 85.6481 40.5341C87.4254 42.7458 88.4937 45.2379 88.624 48.0933C88.6418 48.4883 88.784 48.7174 89.1671 48.8358C89.8602 49.0491 90.5494 49.292 91.2327 49.523C94.1256 50.4867 97.0206 51.4425 99.9076 52.4239C100.382 52.5858 100.707 52.5444 101.067 52.1711C101.703 51.5096 102.41 50.9192 103.065 50.2754C106.446 46.9513 109.822 43.6219 113.194 40.2873C115.551 37.9551 117.889 35.6032 120.235 33.2612C120.32 33.1763 120.409 33.0914 120.492 33.0045C120.857 32.6095 120.853 32.574 120.409 32.3272C120.283 32.2561 120.15 32.1948 120.014 32.1297C117.431 30.8599 114.842 29.5981 112.263 28.3185C109.272 26.8335 106.274 25.3564 103.306 23.8279C102.542 23.433 101.924 23.2829 101.359 24.0511C101.324 24.0847 101.284 24.1126 101.241 24.134C98.584 26.2478 95.2166 27.2595 91.8349 26.9599ZM132.777 88.9662V86.8651C132.777 84.4677 132.777 82.0704 132.777 79.6751C132.777 79.4243 132.747 79.1064 132.597 78.9365C132.175 78.4547 131.519 78.4942 131.045 78.9681C128.409 81.6044 125.759 84.2268 123.146 86.8848C122.368 87.6877 121.372 88.2463 120.281 88.4922C118.658 88.8766 117.036 89.2716 115.415 89.6771L98.5095 93.8694C97.4155 94.1419 97.4274 94.1419 97.2457 95.2616C97.1805 95.6664 97.3049 95.8777 97.6841 96.0416C101.304 97.6036 104.916 99.1834 108.533 100.751C111.971 102.24 115.423 103.713 118.853 105.218C119.064 105.326 119.299 105.378 119.536 105.371C119.772 105.364 120.004 105.297 120.208 105.177C124.137 103.187 128.074 101.216 132.017 99.2624C132.568 98.9918 132.791 98.67 132.785 98.0479C132.759 95.0226 132.777 91.9974 132.777 88.9701V88.9662ZM85.4467 79.6553C85.8713 79.7758 85.9542 79.448 86.0786 79.1972C89.121 73.1177 92.1614 67.0369 95.1999 60.9547C95.504 60.3465 95.4823 60.2912 94.8503 60.0779C92.0522 59.1399 89.25 58.2138 86.4538 57.2699C86.0589 57.1376 85.812 57.1613 85.5139 57.5029C84.2705 58.9614 82.7256 60.133 80.9858 60.9369C79.1604 61.7934 77.1602 62.2119 75.1446 62.1593C72.9064 62.121 70.7189 61.4863 68.8077 60.3208C68.2923 60.0009 67.9507 60.0977 67.5221 60.4255C65.9878 61.6004 64.4337 62.7517 62.8875 63.9128C62.1825 64.4421 62.1825 64.444 62.7927 65.0523L77.9289 80.1925C78.0316 80.2952 78.1402 80.3899 78.237 80.5005C78.5056 80.7967 78.8037 80.8086 79.1552 80.6506C79.5305 80.4836 79.9149 80.3379 80.3065 80.2142C81.9677 79.6976 83.7133 79.5078 85.4467 79.6553ZM54.9274 69.9298C54.7635 70.0424 54.6035 70.1451 54.4534 70.2576C51.6888 72.3298 48.9209 74.4019 46.1497 76.4741C45.6225 76.869 45.5928 76.9519 45.8002 77.572C47.8105 83.6107 49.8234 89.6488 51.8389 95.6861C52.0364 96.3023 52.0601 96.3141 52.6545 96.166C58.5931 94.6836 64.5304 93.2006 70.4665 91.7169C70.9364 91.6004 71.1181 91.3694 71.209 90.8895C71.3835 89.9401 71.6209 89.0033 71.9199 88.0854C72.2279 87.1534 72.2753 87.1692 71.5723 86.4662C66.2524 81.1423 60.9312 75.8198 55.6086 70.4986C55.4724 70.3623 55.3381 70.2241 55.192 70.1036C55.1091 70.0379 55.0206 69.9798 54.9274 69.9298ZM129.856 55.3268C129.785 55.0266 129.75 54.8607 129.708 54.6968C128.559 50.0891 127.406 45.4874 126.248 40.8915C126.163 40.6534 126.055 40.424 125.927 40.2063C125.729 40.3357 125.54 40.4782 125.362 40.6328C121.981 43.9556 118.604 47.287 115.231 50.6269C112.876 52.961 110.529 55.3063 108.19 57.6628C107.566 58.2869 107.562 58.2928 108.071 59.0452C110.836 63.1263 113.608 67.212 116.387 71.3023C117.553 73.0255 118.719 74.7501 119.884 76.476C120.279 77.0685 120.305 77.0685 120.784 76.5965C122.141 75.2478 123.482 73.8832 124.848 72.5463C124.989 72.4336 125.086 72.2743 125.12 72.097C125.155 71.9197 125.125 71.736 125.036 71.5787C124.246 69.7699 123.987 67.8722 124.049 65.9093C124.123 63.3764 124.957 60.9244 126.442 58.8714C127.235 57.7104 128.227 56.6978 129.37 55.8797C129.556 55.7178 129.72 55.5319 129.856 55.3268ZM45.3144 47.3805C45.4534 47.6132 45.6127 47.8333 45.7903 48.038C48.9841 51.2437 52.1818 54.4447 55.3835 57.6411C55.8555 58.1111 55.8634 58.1111 56.3966 57.7122C58.3338 56.2647 60.2571 54.8015 62.2062 53.3678C62.6861 53.0144 62.7986 52.6648 62.6564 52.0783C62.1601 50.0012 62.1601 47.8364 62.6564 45.7592C62.957 44.4602 63.4729 43.2207 64.1829 42.0922C64.3962 41.7565 64.4416 41.4899 64.1315 41.2035C64.0536 41.1111 63.9829 41.0127 63.9203 40.9093C61.6296 37.8537 59.3382 34.7982 57.0462 31.7426C55.8733 30.1747 54.699 28.6074 53.5233 27.0408C53.0514 26.4129 53.0514 26.4208 52.2575 26.6321C51.8843 26.7308 51.5052 26.8098 51.124 26.871C50.4131 26.9836 50.4053 26.9737 50.2295 27.6708C48.6405 34.032 47.0515 40.3919 45.4625 46.7505C45.425 46.9144 45.3875 47.0783 45.3144 47.3805ZM71.1379 18.1684H70.348C67.7334 18.1684 65.1189 18.1822 62.5044 18.1565C61.9021 18.1565 61.5032 18.2632 61.2978 18.905C61.1227 19.4348 60.8727 19.9369 60.5553 20.3959C60.192 20.9271 60.2789 21.3042 60.656 21.7979C63.0869 24.993 65.4823 28.2158 67.8934 31.4267C69.0111 32.9176 70.1367 34.4006 71.2504 35.8955C71.4479 36.1522 71.6059 36.3062 71.9653 36.1956C73.3822 35.7905 74.8603 35.6427 76.3294 35.7592C76.9218 35.7928 77.2477 35.5795 77.5142 35.0424C78.7445 32.5187 80.0142 30.0128 81.2662 27.5009C81.9376 26.1581 82.5992 24.8114 83.2864 23.4764C83.4838 23.1091 83.5036 22.8406 83.1738 22.5187C82.1351 21.5057 81.4361 20.2497 80.8989 18.9247C80.6481 18.3086 80.3065 18.1585 79.7141 18.1644C76.8507 18.1901 73.9953 18.1684 71.1379 18.1684ZM115.198 120.854C115.198 118.626 115.198 116.4 115.198 114.173C115.198 113.316 115.198 113.326 114.432 112.999C111.435 111.703 108.441 110.405 105.449 109.104C101.611 107.438 97.7756 105.77 93.942 104.1C93.4542 103.889 92.9546 103.682 92.4609 103.508C92.1608 103.405 91.9771 103.52 92.0877 103.875C92.1588 104.106 92.2358 104.337 92.3187 104.563C93.6872 108.236 95.0636 111.903 96.4143 115.581C96.57 116.039 96.8782 116.428 97.2871 116.685C99.6568 118.222 102.026 119.77 104.396 121.33C107.769 123.552 111.14 125.778 114.509 128.008C114.692 128.113 114.882 128.204 115.077 128.281C115.135 128.059 115.174 127.832 115.194 127.604C115.2 125.35 115.198 123.099 115.198 120.854ZM32.3484 53.3323C30.5119 53.3323 28.6734 53.3441 26.835 53.3323C26.6419 53.3102 26.4473 53.3577 26.2862 53.4663C26.1251 53.5749 26.0081 53.7375 25.9562 53.9247C25.7212 54.5309 25.7113 54.5704 26.2564 55.1095C30.0176 58.8207 33.786 62.5351 37.5617 66.2529C38.474 67.1534 39.3764 68.0657 40.2868 68.9681C40.7587 69.4361 40.7666 69.4361 41.2978 69.0373C43.5214 67.368 45.7423 65.6973 47.9605 64.0254C48.6241 63.5258 48.628 63.5159 48.0652 62.9512C45.0215 59.9048 41.9798 56.8578 38.94 53.8102C38.7839 53.6451 38.5937 53.5161 38.3825 53.4321C38.1714 53.3482 37.9445 53.3115 37.7177 53.3244C35.9286 53.3441 34.1395 53.3323 32.3484 53.3323ZM18.1837 70.854C18.1837 73.7845 18.1837 76.713 18.1837 79.6435C18.1837 80.1826 18.3812 80.4551 18.8768 80.6703C19.6382 80.9872 20.3659 81.3795 21.049 81.8414C21.5387 82.1771 21.8587 82.1376 22.3286 81.8236C24.6825 80.2438 27.068 78.7154 29.4376 77.1632C30.5514 76.4326 31.6599 75.6954 32.7631 74.9515C33.2923 74.5981 33.2884 74.5921 32.8282 74.1202L32.7769 74.0688L19.8523 61.3082C19.7743 61.2155 19.6847 61.1332 19.5857 61.0633C19.4874 61.0001 19.3729 60.9666 19.256 60.9666C18.5431 61.0258 18.1936 61.4109 18.1936 62.1376C18.1857 65.0444 18.1824 67.9498 18.1837 70.854ZM95.4842 85.4492C95.8614 85.3603 96.1438 85.2951 96.4262 85.226C99.1908 84.5441 101.962 83.8622 104.74 83.1802C107.063 82.6036 109.387 82.023 111.711 81.4385C112.354 81.2766 112.364 81.2213 112.011 80.698C108.983 76.222 105.963 71.7499 102.953 67.2817C102.398 66.4602 102.4 66.4583 101.965 67.3232C99.3784 72.497 96.7922 77.6707 94.2066 82.8445C94.1105 82.9843 94.0384 83.1391 93.9933 83.3027C93.9533 83.5237 93.9815 83.7517 94.0743 83.9563C94.3625 84.3737 94.6806 84.7697 95.0261 85.1411C95.1638 85.2645 95.318 85.3682 95.4842 85.4492ZM120.072 184.081C123.296 184.239 126.108 181.352 126.14 178.091C126.171 174.831 123.308 171.999 120.107 172.021C118.505 172.025 116.97 172.662 115.835 173.792C114.7 174.923 114.057 176.456 114.047 178.058C114.021 181.433 116.902 184.243 120.072 184.081ZM26.598 89.8034C26.6612 90.1293 26.7105 90.3425 26.7441 90.5578C26.8942 91.5353 26.8922 91.5451 27.8677 91.7801C30.8759 92.5213 33.8827 93.2612 36.8883 93.9997C38.4681 94.3947 40.034 94.7896 41.6098 95.1707C42.2891 95.3366 42.3326 95.2774 42.1213 94.5921L42.0739 94.4539L38.2627 83.0183C38.2153 82.8801 38.1639 82.7438 38.1225 82.6056C38.0257 82.2738 37.8282 82.2659 37.5735 82.4318C37.4925 82.4831 37.4136 82.5384 37.3326 82.5918C34.6996 84.3163 32.0667 86.0396 29.4337 87.7616C28.6438 88.277 27.844 88.7766 27.064 89.3078C26.8894 89.4537 26.7329 89.6201 26.598 89.8034ZM31.4775 44.4677H35.9799C36.912 44.4677 36.9159 44.4678 37.143 43.5614C38.3594 38.7009 39.5752 33.8411 40.7903 28.982C40.8259 28.8418 40.8614 28.7016 40.8851 28.5574C40.8869 28.491 40.8802 28.4247 40.8654 28.3599C40.7998 28.3834 40.7369 28.4138 40.6778 28.4508C40.585 28.5278 40.504 28.6186 40.4171 28.7035C37.3997 31.6735 34.3824 34.6442 31.365 37.6155C29.6272 39.3354 27.9092 41.0732 26.1715 42.7952C25.8733 43.0894 25.6817 43.356 25.8693 43.8062C26.1083 44.3749 26.1793 44.4678 26.831 44.4697C28.3812 44.4717 29.9234 44.4658 31.4775 44.4677ZM53.4779 13.7865C53.4799 13.2113 53.3669 12.6415 53.1456 12.1106C52.9244 11.5797 52.5993 11.0983 52.1894 10.6947C51.7796 10.2911 51.2933 9.97348 50.759 9.76042C50.2248 9.54735 49.6533 9.44315 49.0782 9.45393C48.217 9.46214 47.3775 9.72536 46.6657 10.2103C45.954 10.6953 45.4018 11.3803 45.0791 12.1789C44.7564 12.9774 44.6775 13.8537 44.8524 14.697C45.0273 15.5403 45.4482 16.313 46.0618 16.9173C46.6755 17.5216 47.4545 17.9305 48.3005 18.0925C49.1464 18.2544 50.0213 18.162 50.8148 17.827C51.6083 17.4921 52.2847 16.9295 52.7587 16.2103C53.2327 15.4912 53.483 14.6477 53.4779 13.7865ZM97.3464 13.8082C97.5439 11.6597 95.4408 9.37889 93.002 9.44406C90.5138 9.5112 88.6754 11.3714 88.6793 13.7885C88.6683 14.3605 88.7716 14.929 88.9832 15.4606C89.1948 15.9922 89.5105 16.4762 89.9116 16.8842C90.3128 17.2922 90.7914 17.6159 91.3194 17.8364C91.8473 18.0569 92.414 18.1698 92.9862 18.1684C95.4566 18.1941 97.4728 16.1068 97.3464 13.8082ZM79.7714 48.9346C79.9688 46.6933 77.692 44.5388 75.4902 44.5902C73.1007 44.6356 71.1102 46.4642 71.1458 48.9701C71.1813 51.5669 73.1027 53.2967 75.4902 53.2948C76.0609 53.3017 76.6272 53.193 77.1548 52.9753C77.6825 52.7576 78.1606 52.4354 78.5604 52.028C78.9602 51.6206 79.2734 51.1366 79.4812 50.6049C79.689 50.0733 79.787 49.5051 79.7694 48.9346H79.7714ZM13.7307 44.6099C11.282 44.5902 9.36261 46.4366 9.3863 49.0017C9.37998 49.5708 9.48856 50.1352 9.70553 50.6614C9.9225 51.1875 10.2434 51.6644 10.649 52.0635C11.0546 52.4627 11.5366 52.7759 12.0662 52.9844C12.5957 53.1929 13.1618 53.2924 13.7307 53.277C16.3808 53.2335 18.0474 51.241 18.0751 48.8615C18.0751 46.6755 15.9858 44.4658 13.7307 44.6099ZM79.9155 92.8129C79.9688 95.3327 81.8112 97.1198 84.0881 97.1573C86.7204 97.2027 88.5589 95.3307 88.5845 92.8386C88.6102 90.4334 86.7915 88.5219 84.2718 88.4942C83.1219 88.491 82.0177 88.9438 81.2012 89.7534C80.3846 90.5629 79.9223 91.6631 79.9155 92.8129ZM132.921 66.4938C132.901 67.072 133.002 67.648 133.215 68.1857C133.429 68.7234 133.751 69.211 134.163 69.6181C134.574 70.0251 135.064 70.3427 135.604 70.551C136.144 70.7593 136.721 70.8537 137.299 70.8283C139.797 70.7612 141.507 69.132 141.555 66.4958C141.6 64.0333 139.623 62.2343 137.303 62.1514C134.983 62.0685 132.755 64.2466 132.921 66.4938ZM18.0356 92.8327C18.039 92.2612 17.929 91.6947 17.7118 91.1661C17.4947 90.6375 17.1748 90.1572 16.7707 89.7531C16.3666 89.349 15.8864 89.0292 15.3577 88.812C14.8291 88.5949 14.2627 88.4849 13.6912 88.4883C11.4025 88.4982 9.32509 90.3741 9.37051 92.8722C9.41592 95.3702 11.2406 97.1573 13.784 97.1573C16.6276 97.1573 18.1166 94.7244 18.0356 92.8327Z" fill="#E3E8EE"/>
</svg>
