<svg xmlns="http://www.w3.org/2000/svg" width="30" height="30" viewBox="0 0 30 30" fill="none">
  <circle cx="15" cy="15" r="15" fill="white"/>
  <path d="M19.4736 6.65151V23.3182C19.4736 25.1845 20.8141 26.2222 22.2368 26.2222C23.5526 26.2222 24.9999 25.3384 24.9999 23.3182V6.77777C24.9999 5.06928 23.6842 4 22.2368 4C20.7894 4 19.4736 5.17976 19.4736 6.65151Z" fill="#F9AB00"/>
  <path d="M12.2368 15.111V23.318C12.2368 25.1844 13.5773 26.2221 15 26.2221C16.3158 26.2221 17.7631 25.3382 17.7631 23.318V15.2372C17.7631 13.5288 16.4473 12.4595 15 12.4595C13.5526 12.4595 12.2368 13.6392 12.2368 15.111Z" fill="#E37400"/>
  <path d="M10.5 23.5C10.5 25.0182 9.26823 26.25 7.75 26.25C6.23177 26.25 5 25.0182 5 23.5C5 21.9818 6.23177 20.75 7.75 20.75C9.26823 20.75 10.5 21.9818 10.5 23.5Z" fill="#E37400"/>
</svg>