<svg xmlns="http://www.w3.org/2000/svg" width="28" height="27" viewBox="0 0 28 27" fill="none">
  <path d="M27.5 4C27.5 4.26522 27.3946 4.51957 27.2071 4.70711C27.0196 4.89464 26.7652 5 26.5 5H24.5V7C24.5 7.26522 24.3946 7.51957 24.2071 7.70711C24.0196 7.89464 23.7652 8 23.5 8C23.2348 8 22.9804 7.89464 22.7929 7.70711C22.6054 7.51957 22.5 7.26522 22.5 7V5H20.5C20.2348 5 19.9804 4.89464 19.7929 4.70711C19.6054 4.51957 19.5 4.26522 19.5 4C19.5 3.73478 19.6054 3.48043 19.7929 3.29289C19.9804 3.10536 20.2348 3 20.5 3H22.5V1C22.5 0.734783 22.6054 0.48043 22.7929 0.292893C22.9804 0.105357 23.2348 0 23.5 0C23.7652 0 24.0196 0.105357 24.2071 0.292893C24.3946 0.48043 24.5 0.734783 24.5 1V3H26.5C26.7652 3 27.0196 3.10536 27.2071 3.29289C27.3946 3.48043 27.5 3.73478 27.5 4ZM9.50001 11.7812V22.5C9.50038 23.5033 9.16546 24.4779 8.54846 25.269C7.93147 26.0602 7.06779 26.6224 6.09464 26.8665C5.1215 27.1105 4.0947 27.0224 3.1774 26.616C2.26009 26.2097 1.50489 25.5084 1.03177 24.6237C0.558656 23.739 0.394767 22.7215 0.566142 21.733C0.737518 20.7445 1.23433 19.8415 1.97764 19.1677C2.72095 18.4939 3.66813 18.0877 4.66869 18.0139C5.66925 17.94 6.6658 18.2026 7.50001 18.76V5C7.50004 4.777 7.57461 4.56042 7.71186 4.38466C7.84911 4.20891 8.04117 4.08408 8.25751 4.03L15.2575 2.28C15.513 2.22077 15.7815 2.26426 16.0052 2.4011C16.2289 2.53795 16.3899 2.7572 16.4535 3.01162C16.5171 3.26604 16.4782 3.53526 16.3452 3.76129C16.2123 3.98731 15.9958 4.15204 15.7425 4.22L9.50001 5.78125V9.71875L18.2575 7.53C18.513 7.47076 18.7815 7.51426 19.0052 7.6511C19.2289 7.78795 19.3899 8.0072 19.4535 8.26162C19.5171 8.51604 19.4782 8.78526 19.3452 9.01128C19.2123 9.23731 18.9958 9.40204 18.7425 9.47L9.50001 11.7812ZM7.50001 22.5C7.50001 22.0055 7.35338 21.5222 7.07868 21.1111C6.80398 20.7 6.41353 20.3795 5.95671 20.1903C5.4999 20.0011 4.99723 19.9516 4.51228 20.048C4.02733 20.1445 3.58187 20.3826 3.23224 20.7322C2.88261 21.0819 2.64451 21.5273 2.54804 22.0123C2.45158 22.4972 2.50109 22.9999 2.69031 23.4567C2.87953 23.9135 3.19996 24.304 3.61108 24.5787C4.0222 24.8534 4.50555 25 5.00001 25C5.66305 25 6.29893 24.7366 6.76777 24.2678C7.23661 23.7989 7.50001 23.163 7.50001 22.5ZM25.5 12V18.5C25.5004 19.5033 25.1655 20.4779 24.5485 21.269C23.9315 22.0602 23.0678 22.6224 22.0946 22.8665C21.1215 23.1105 20.0947 23.0224 19.1774 22.616C18.2601 22.2097 17.5049 21.5084 17.0318 20.6237C16.5587 19.739 16.3948 18.7215 16.5661 17.733C16.7375 16.7445 17.2343 15.8415 17.9776 15.1677C18.721 14.4939 19.6681 14.0877 20.6687 14.0139C21.6692 13.94 22.6658 14.2026 23.5 14.76V12C23.5 11.7348 23.6054 11.4804 23.7929 11.2929C23.9804 11.1054 24.2348 11 24.5 11C24.7652 11 25.0196 11.1054 25.2071 11.2929C25.3946 11.4804 25.5 11.7348 25.5 12ZM23.5 18.5C23.5 18.0055 23.3534 17.5222 23.0787 17.1111C22.804 16.7 22.4135 16.3795 21.9567 16.1903C21.4999 16.0011 20.9972 15.9516 20.5123 16.048C20.0273 16.1445 19.5819 16.3826 19.2322 16.7322C18.8826 17.0819 18.6445 17.5273 18.548 18.0123C18.4516 18.4972 18.5011 18.9999 18.6903 19.4567C18.8795 19.9135 19.2 20.304 19.6111 20.5787C20.0222 20.8534 20.5056 21 21 21C21.3283 21 21.6534 20.9353 21.9567 20.8097C22.26 20.6841 22.5356 20.4999 22.7678 20.2678C22.9999 20.0356 23.1841 19.76 23.3097 19.4567C23.4353 19.1534 23.5 18.8283 23.5 18.5Z" fill="#3C4257"/>
</svg>