<svg width="181" height="180" viewBox="0 0 181 180" fill="none" xmlns="http://www.w3.org/2000/svg">
<path d="M39.2031 75.7031C39.2031 54.7469 39.2031 33.7937 39.2031 12.8437C39.2031 7.70624 40.4969 6.375 45.5594 6.375C79.2719 6.375 112.984 6.375 146.697 6.375C151.103 6.375 152.987 8.24999 152.987 12.7969C152.987 30.2437 152.987 47.6812 152.987 65.1187C152.987 67.5187 152.734 68.475 149.866 67.6031C132.4 62.2875 115.122 70.1344 108.616 87.0844C105.438 95.0013 105.5 103.85 108.789 111.722C112.077 119.593 118.328 125.856 126.194 129.159C131.641 131.541 137.444 133.153 143.538 131.55C144.092 131.369 144.696 131.41 145.221 131.666C145.745 131.921 146.15 132.37 146.35 132.919C148.203 136.386 149.217 140.239 149.313 144.169C149.338 144.341 149.325 144.518 149.273 144.685C149.222 144.851 149.133 145.004 149.014 145.132C148.895 145.26 148.749 145.36 148.587 145.423C148.424 145.487 148.249 145.513 148.075 145.5C147.138 145.556 146.2 145.547 145.263 145.547H46.3187C40.5437 145.547 39.2031 144.178 39.2031 138.253V75.7031ZM107.378 64.7344C113.547 64.7344 116.753 60.6375 115.666 53.8031C115.508 53.1457 115.498 52.4613 115.638 51.7998C115.777 51.1382 116.062 50.5159 116.472 49.9781C119.359 46.0219 122.275 42.0844 125.069 38.0625C126.006 36.7125 126.719 36.1031 128.669 36.375C130.248 36.6067 131.86 36.3653 133.301 35.6811C134.743 34.997 135.95 33.9009 136.769 32.5312C137.959 30.7727 138.496 28.6532 138.287 26.5402C138.078 24.4273 137.136 22.454 135.625 20.9625C132.672 18.0281 127.816 17.3813 124.703 19.7063C121.591 22.0313 118.6 26.0531 121.112 30.9563C121.787 32.2688 122.256 33.45 121.234 34.8281C118.422 38.6719 115.553 42.525 112.797 46.425C112.536 46.9363 112.091 47.3289 111.55 47.5223C111.01 47.7157 110.416 47.6955 109.891 47.4656C107.762 46.8469 105.25 46.4344 103.45 47.8406C100.769 49.9219 98.95 48.6469 96.5781 47.3625C94.2063 46.0781 94.1313 43.9406 93.5219 41.8875C92.0688 37.0219 87.8312 34.3406 83.0875 35.2406C80.78 35.7429 78.7503 37.1051 77.4111 39.0503C76.072 40.9955 75.5238 43.3777 75.8781 45.7125C76.2344 48.3563 68.0969 57.1219 65.4812 56.8969C65.1422 56.8206 64.8074 56.7267 64.4781 56.6156C59.3594 55.5844 54.0625 59.5031 53.3969 64.8C52.8719 69.0844 57.5031 74.2219 62.1625 74.5125C67.2344 74.8313 72.2687 70.4625 71.3312 65.3812C70.4969 60.8719 72.7188 58.7437 75.325 56.2781C76.1687 55.4719 77.0219 54.6656 77.8 53.7938C78.2731 53.143 78.9457 52.6644 79.7157 52.4309C80.4856 52.1974 81.3107 52.2216 82.0656 52.5C83.2992 52.8908 84.5986 53.0299 85.887 52.9092C87.1753 52.7884 88.4262 52.4101 89.5656 51.7969C92.7438 49.9219 97.9469 52.7344 98.2562 56.3813C98.7062 61.9875 101.753 64.7531 107.378 64.7344ZM81.6063 118.847H61.6C59.8463 118.787 58.0907 118.822 56.3406 118.95C55.9887 118.95 55.641 119.026 55.3213 119.173C55.0016 119.32 54.7175 119.534 54.4886 119.802C54.2597 120.069 54.0913 120.383 53.9951 120.721C53.8989 121.06 53.8771 121.415 53.9312 121.763C53.9875 123.422 54.9719 124.022 56.3312 124.275C57.1425 124.378 57.9616 124.407 58.7781 124.359H104.05C104.992 124.425 105.939 124.359 106.863 124.162C108.072 123.816 109.487 123.366 109.328 121.678C109.279 121.026 109.01 120.41 108.566 119.93C108.121 119.45 107.528 119.134 106.881 119.034C105.847 118.858 104.798 118.788 103.75 118.828L81.6063 118.847ZM80.5469 87.1875C88.15 87.1875 95.7625 87.1875 103.366 87.1875C105.044 87.1875 107.303 87.675 107.256 84.975C107.209 82.7438 105.447 82.275 103.506 82.275C88.2906 82.275 73.075 82.275 57.8594 82.275C56.0969 82.275 54.1094 82.2187 54.0156 84.75C53.9312 87.4312 55.975 87.1688 57.7656 87.1688L80.5469 87.1875ZM79.2531 111.787H100.994C102.663 111.787 104.584 111.928 104.453 109.491C104.341 107.475 102.831 106.866 100.975 106.866H57.5031C55.6281 106.866 54.1375 107.494 54.0437 109.509C53.9312 111.947 55.8625 111.787 57.5219 111.787H79.2531ZM78.6438 94.9125C71.7531 94.9125 64.8625 94.9125 57.9625 94.9125C56.1531 94.9125 53.8656 94.4531 53.9875 97.4062C54.0906 99.9094 56.1437 99.7969 57.8875 99.8062C71.6687 99.8062 85.4594 99.8062 99.2406 99.8062C101.163 99.8062 102.991 99.4313 102.934 97.125C102.878 94.8188 101.059 94.8562 99.325 94.8656C92.4531 94.9219 85.5625 94.9031 78.6625 94.9031L78.6438 94.9125Z" fill="#DEEBF8"/>
<path d="M24.4453 89.6693C24.4453 68.4818 24.4453 47.2974 24.4453 26.1161C24.4453 20.8005 27.9516 18.2318 32.9953 19.7693C33.3904 19.8572 33.7383 20.0896 33.9707 20.4209C34.2032 20.7522 34.3033 21.1585 34.2516 21.5599C34.2516 22.4974 34.2516 23.4349 34.2516 24.3724V139.179C34.2516 146.472 38.1891 150.429 45.5016 150.429C74.9953 150.429 104.489 150.444 133.983 150.476C135.642 150.476 138.239 149.247 138.267 152.801C138.267 156.504 136.964 158.538 133.898 158.857C133.08 158.899 132.26 158.899 131.442 158.857H30.6891C25.3078 158.857 24.4547 157.976 24.4453 152.491V89.6693Z" fill="#DEEBF8"/>
<path d="M11.1297 104.154C11.1297 83.0855 11.1297 62.0167 11.1297 40.948C11.1297 35.9605 12.8453 34.2636 17.2047 34.4605C18.7891 34.5355 19.6422 34.9667 19.5297 36.6824C19.4641 37.6199 19.5297 38.5574 19.5297 39.4949C19.5297 77.1824 19.6047 114.879 19.4547 152.576C19.4547 158.717 22.4078 163.976 30.7891 163.901C60.8734 163.62 90.9578 163.779 121.042 163.817C122.702 163.817 124.895 162.935 124.989 166.179C125.12 171.092 124.22 173.239 121.183 173.604C120.365 173.651 119.545 173.651 118.727 173.604H17.2328C12.3016 173.604 11.1391 172.423 11.1297 167.342C11.1234 146.298 11.1234 125.235 11.1297 104.154Z" fill="#DEEBF8"/>
<path d="M111.554 98.6277C110.879 84.134 124.332 70.559 140.036 70.8402C147.458 71.0597 154.503 74.1627 159.675 79.4906C164.847 84.8186 167.739 91.9522 167.739 99.3777C167.814 114.321 154.679 127.381 139.717 127.231C123.723 127.034 110.626 113.956 111.554 98.6277ZM159.367 99.0215C159.151 87.2934 150.836 79.0996 139.679 79.0621C128.195 79.0152 119.832 86.6183 119.57 98.984C119.57 104.258 121.665 109.315 125.394 113.044C129.123 116.773 134.181 118.868 139.454 118.868C144.728 118.868 149.786 116.773 153.515 113.044C157.244 109.315 159.339 104.258 159.339 98.984L159.367 99.0215Z" fill="#347BFA"/>
<path d="M169.843 164.066C169.543 165.332 169.234 166.532 168.081 167.066C167.561 167.347 166.969 167.466 166.381 167.407C165.793 167.349 165.235 167.116 164.781 166.738C163.882 165.991 163.193 165.021 162.784 163.926C160.412 157.972 157.946 152.057 155.481 146.113C154.646 144.126 154.093 142.485 156.896 141.426C159.221 140.582 160.515 140.488 161.537 143.301C163.862 149.76 166.637 156.06 169.234 162.426C169.45 163.016 169.656 163.56 169.843 164.066Z" fill="#347BFA"/>
<path d="M152.3 129.375C153.009 129.559 153.637 129.972 154.086 130.551C154.536 131.129 154.781 131.84 154.785 132.572C154.963 134.063 157.7 135.844 155.319 136.903C152.76 138.056 152.628 135.141 151.991 133.547C151.438 132.131 149.713 130.481 152.3 129.375Z" fill="#347BFA"/>
<path d="M107.378 64.7306C101.753 64.7306 98.7066 61.9838 98.2285 56.3869C97.9191 52.7494 92.716 49.9556 89.5379 51.8025C88.3985 52.4158 87.1475 52.794 85.8592 52.9148C84.5709 53.0355 83.2714 52.8964 82.0379 52.5056C81.283 52.2273 80.4579 52.203 79.6879 52.4366C78.918 52.6701 78.2453 53.1486 77.7723 53.7994C76.9941 54.6713 76.141 55.4775 75.2972 56.2838C72.691 58.7494 70.4691 60.8775 71.3035 65.3869C72.241 70.4681 67.2066 74.8369 62.1347 74.5181C57.4472 74.2275 52.8441 69.09 53.3691 64.8056C54.0348 59.5088 59.3316 55.59 64.4504 56.6213C64.7796 56.7323 65.1145 56.8262 65.4535 56.9025C68.0691 57.1275 76.2066 48.3619 75.8504 45.7181C75.4961 43.3833 76.0442 41.0011 77.3834 39.0559C78.7226 37.1108 80.7522 35.7486 83.0597 35.2463C87.8035 34.3088 92.041 37.0275 93.4941 41.8931C94.1035 43.9463 94.1504 46.065 96.5504 47.3681C98.9504 48.6713 100.741 49.9275 103.422 47.8463C105.222 46.44 107.735 46.8525 109.863 47.4713C110.389 47.7011 110.982 47.7214 111.523 47.528C112.063 47.3345 112.509 46.942 112.769 46.4306C115.582 42.5306 118.394 38.6775 121.207 34.8338C122.229 33.4556 121.76 32.2744 121.085 30.9619C118.572 26.0494 121.675 21.9431 124.675 19.7119C127.675 17.4806 132.644 18.0338 135.597 20.9681C137.108 22.4596 138.05 24.4329 138.259 26.5459C138.468 28.6589 137.931 30.7784 136.741 32.5369C135.922 33.9065 134.715 35.0026 133.274 35.6868C131.832 36.3709 130.22 36.6124 128.641 36.3806C126.691 36.1088 125.988 36.7181 125.041 38.0681C122.228 42.09 119.332 46.0275 116.444 49.9838C116.034 50.5216 115.749 51.1438 115.61 51.8054C115.47 52.467 115.48 53.1513 115.638 53.8088C116.753 60.6338 113.547 64.6838 107.378 64.7306ZM133.366 27.5588C133.45 24.8494 131.716 23.6306 129.541 23.3775C127.029 23.0869 125.791 25.0931 125.247 27.1275C124.75 28.8713 127.347 31.5994 129.344 31.5056C131.753 31.4119 132.982 29.7994 133.366 27.5588ZM84.3722 47.8744C87.541 47.8744 88.9191 46.1494 88.8816 43.9369C88.9064 43.4044 88.8156 42.8728 88.6155 42.3787C88.4153 41.8846 88.1106 41.4397 87.7223 41.0745C87.3339 40.7093 86.8711 40.4325 86.3657 40.2631C85.8602 40.0937 85.3241 40.0357 84.7941 40.0931C82.1223 40.0931 80.9035 41.9025 80.8098 44.0963C80.7066 46.5431 82.4972 47.7244 84.3722 47.8744ZM58.8535 65.5463C58.9097 67.6181 60.5879 69.5213 62.416 69.5681C64.6379 69.6338 66.7941 67.5338 66.5785 65.3869C66.3348 63.0244 65.0035 61.2525 62.6035 61.3931C62.0721 61.3793 61.544 61.4807 61.0554 61.6902C60.5669 61.8998 60.1295 62.2126 59.7732 62.6071C59.4169 63.0017 59.1503 63.4687 58.9915 63.976C58.8328 64.4833 58.7857 65.019 58.8535 65.5463ZM110.913 56.2463C110.913 53.7338 109.769 52.0931 107.163 52.065C106.632 52.0089 106.094 52.0712 105.59 52.2474C105.086 52.4235 104.626 52.7091 104.246 53.0838C103.865 53.4584 103.571 53.9127 103.387 54.4141C103.202 54.9156 103.131 55.4516 103.178 55.9838C103.178 58.1775 104.116 59.7338 106.76 59.79C109.403 59.8463 110.857 58.9744 110.913 56.2463Z" fill="#347BFA"/>
<path d="M81.6025 118.847H103.718C104.766 118.807 105.816 118.876 106.849 119.053C107.496 119.153 108.089 119.468 108.534 119.948C108.978 120.428 109.247 121.045 109.296 121.697C109.456 123.384 108.04 123.834 106.831 124.181C105.907 124.377 104.96 124.444 104.018 124.378H58.7743C57.9579 124.425 57.1387 124.397 56.3275 124.294C54.9681 124.041 53.9837 123.441 53.9275 121.781C53.8733 121.433 53.8951 121.078 53.9913 120.74C54.0875 120.401 54.2559 120.088 54.4848 119.82C54.7137 119.553 54.9978 119.339 55.3175 119.192C55.6372 119.045 55.985 118.969 56.3368 118.969C58.0869 118.841 59.8425 118.806 61.5962 118.866L81.6025 118.847Z" fill="#347BFA"/>
<path d="M80.5449 87.1907H57.6886C55.9261 87.1907 53.8824 87.4532 53.9386 84.772C54.0136 82.2407 56.0199 82.297 57.7824 82.297C72.998 82.297 88.2136 82.297 103.429 82.297C105.389 82.297 107.179 82.7657 107.179 84.997C107.226 87.697 104.967 87.2001 103.289 87.2095C95.7605 87.2376 88.148 87.1907 80.5449 87.1907Z" fill="#347BFA"/>
<path d="M79.2484 111.789H57.4984C55.8391 111.789 53.9078 111.948 54.0203 109.511C54.1141 107.495 55.6234 106.867 57.4797 106.867H100.97C102.845 106.867 104.336 107.477 104.448 109.492C104.58 111.93 102.658 111.789 100.989 111.789H79.2484Z" fill="#347BFA"/>
<path d="M78.6609 94.9009C85.5609 94.9009 92.4515 94.9009 99.3422 94.9009C101.105 94.9009 102.905 94.9759 102.952 97.1603C102.998 99.3447 101.18 99.8415 99.2578 99.8415C85.4765 99.8415 71.6859 99.8415 57.9047 99.8415C56.1609 99.8415 54.1078 99.9447 54.0047 97.4415C53.8828 94.4884 56.1703 94.9478 57.9797 94.9478C64.8797 94.8822 71.7515 94.9009 78.6609 94.9009Z" fill="#347BFA"/>
<path d="M159.363 99.0158C159.363 104.29 157.268 109.347 153.538 113.076C149.809 116.805 144.752 118.9 139.478 118.9C134.204 118.9 129.147 116.805 125.418 113.076C121.689 109.347 119.594 104.29 119.594 99.0158C119.856 86.6502 128.219 79.0471 139.703 79.094C150.831 79.094 159.147 87.2877 159.363 99.0158Z" fill="#FEFEFE"/>
<path d="M133.36 27.5614C132.976 29.802 131.785 31.4145 129.338 31.527C127.342 31.6208 124.745 28.8927 125.242 27.1489C125.823 25.0958 127.023 23.0895 129.535 23.3989C131.748 23.6333 133.445 24.852 133.36 27.5614Z" fill="#C9DBEE"/>
<path d="M84.3714 47.8762C82.4964 47.7262 80.7058 46.5449 80.8089 44.1262C80.9027 41.9324 82.1214 40.1699 84.7933 40.123C85.3233 40.0656 85.8594 40.1236 86.3649 40.293C86.8703 40.4624 87.3331 40.7393 87.7215 41.1044C88.1098 41.4696 88.4145 41.9145 88.6146 42.4086C88.8148 42.9027 88.9055 43.4343 88.8808 43.9668C88.9183 46.1512 87.5402 47.8855 84.3714 47.8762Z" fill="#C9DBEE"/>
<path d="M58.8504 65.5516C58.7826 65.0243 58.8297 64.4887 58.9885 63.9813C59.1472 63.474 59.4139 63.007 59.7701 62.6124C60.1264 62.2179 60.5638 61.9051 61.0523 61.6955C61.5409 61.486 62.069 61.3846 62.6004 61.3984C65.0004 61.2578 66.3504 63.0297 66.5754 65.3922C66.7911 67.5391 64.6348 69.6391 62.4129 69.5734C60.5848 69.5266 58.9067 67.6235 58.8504 65.5516Z" fill="#C9DBEE"/>
<path d="M110.908 56.2481C110.852 58.9387 109.295 59.8106 106.783 59.7919C104.27 59.7731 103.211 58.1794 103.202 55.9856C103.154 55.4534 103.226 54.9174 103.41 54.416C103.595 53.9146 103.888 53.4603 104.269 53.0856C104.65 52.711 105.109 52.4253 105.613 52.2492C106.118 52.0731 106.655 52.0108 107.186 52.0669C109.764 52.1325 110.88 53.7731 110.908 56.2481Z" fill="#C9DBEE"/>
<g clip-path="url(#clip0_2580_15318)">
<path d="M137.131 86.2671C137.479 86.2824 137.827 86.2872 138.175 86.3131C141.491 86.5257 144.376 88.9266 145.192 92.1492C146.085 95.6755 144.521 99.2516 141.323 100.98C141.16 101.068 141.111 101.15 141.142 101.336C141.281 102.14 141.411 102.946 141.524 103.754C141.694 104.937 140.969 106.027 139.809 106.355C138.722 106.662 137.527 106.082 137.059 105.021C136.973 104.822 136.913 104.613 136.882 104.398C136.646 102.906 136.41 101.414 136.174 99.9214C135.966 98.5804 136.792 97.4318 138.128 97.1891C139.739 96.8985 140.831 95.5322 140.75 93.9086C140.673 92.3808 139.418 91.1235 137.835 90.9889C135.894 90.8229 134.265 92.562 134.531 94.5228C134.664 95.5043 134.362 96.3083 133.551 96.884C132.159 97.8701 130.206 97.0376 129.913 95.3484C129.286 91.7393 131.448 88.0285 134.898 86.7811C135.144 86.6923 135.412 86.6612 135.635 86.5098L137.131 86.2671Z" fill="#347BFA"/>
<path d="M140.114 112.803C140.056 112.715 139.964 112.745 139.881 112.735C138.782 112.587 137.892 111.609 137.866 110.521C137.838 109.333 138.644 108.318 139.778 108.114C140.328 108.009 140.896 108.106 141.381 108.386C141.865 108.666 142.233 109.11 142.417 109.639C142.853 110.902 142.194 112.232 140.932 112.632C140.913 112.639 140.901 112.666 140.886 112.684L140.114 112.803Z" fill="#347BFA"/>
</g>
<defs>
<clipPath id="clip0_2580_15318">
<rect width="26.6834" height="26.6834" fill="white" transform="translate(123.234 88.4609) rotate(-8.981)"/>
</clipPath>
</defs>
</svg>
