<?xml version="1.0" encoding="UTF-8"?>
<svg id="Layer_2" data-name="Layer 2" xmlns="http://www.w3.org/2000/svg" xmlns:xlink="http://www.w3.org/1999/xlink" viewBox="0 0 313.14 394.89">
  <defs>
    <style>
      .cls-1, .cls-2, .cls-3 {
        fill: none;
      }

      .cls-4 {
        fill: url(#linear-gradient);
      }

      .cls-2 {
        clip-path: url(#clippath-1);
      }

      .cls-5 {
        fill: #cedeef;
      }

      .cls-6 {
        fill: url(#linear-gradient-3);
      }

      .cls-7 {
        fill: url(#linear-gradient-2);
      }

      .cls-3 {
        clip-path: url(#clippath);
      }
    </style>
    <linearGradient id="linear-gradient" x1="-33.27" y1="46.67" x2="363.4" y2="448.14" gradientUnits="userSpaceOnUse">
      <stop offset="0" stop-color="#e5f0fa"/>
      <stop offset=".41" stop-color="#e1edf8"/>
      <stop offset=".8" stop-color="#d6e4f4"/>
      <stop offset=".99" stop-color="#cddef1"/>
    </linearGradient>
    <clipPath id="clippath">
      <path class="cls-1" d="m28.48,20.97s-.07-10.26.29-14.23c.08-.91.32-1.8.76-2.6C30.73,2,33.58-.23,40.8.02c8.31.29,153.23.25,176,.25,2.04,0,4.02.6,5.72,1.73,10.3,6.85,48.32,34.79,88.15,97.1,1.15,1.8,1.78,3.88,1.85,6.01.82,28.19,5.39,230.69-30.25,282.65-2.29,3.34-6.04,5.36-10.08,5.43-34.72.6-216.04,3.54-268.1-.1,0,0-7.7-3.12-1.93-14.18s34.38-94.83,26.81-225.19c-.1-1.75-.16-3.51-.16-5.27l-.31-127.47Z"/>
    </clipPath>
    <linearGradient id="linear-gradient-2" x1="219.37" y1="42.73" x2="330.94" y2="69.04" gradientUnits="userSpaceOnUse">
      <stop offset=".06" stop-color="#5093fd"/>
      <stop offset=".84" stop-color="#3774f3"/>
    </linearGradient>
    <clipPath id="clippath-1">
      <path class="cls-1" d="m28.48,20.97s-.07-10.26.29-14.23c.08-.91.32-1.8.76-2.6C30.73,2,33.58-.23,40.8.02c8.31.29,153.23.25,176,.25,2.04,0,4.02.6,5.72,1.73,10.3,6.85,48.32,34.79,88.15,97.1,1.15,1.8,1.78,3.88,1.85,6.01.82,28.19,5.39,230.69-30.25,282.65-2.29,3.34-6.04,5.36-10.08,5.43-34.72.6-216.04,3.54-268.1-.1,0,0-7.7-3.12-1.93-14.18s34.38-94.83,26.81-225.19c-.1-1.75-.16-3.51-.16-5.27l-.31-127.47Z"/>
    </clipPath>
    <linearGradient id="linear-gradient-3" x1="12.11" y1="407.95" x2="341.09" y2="329.94" gradientUnits="userSpaceOnUse">
      <stop offset="0" stop-color="#c9dbef"/>
      <stop offset=".37" stop-color="#c5d8ed"/>
      <stop offset=".68" stop-color="#bbcfe7"/>
      <stop offset=".95" stop-color="#aac1de"/>
      <stop offset="1" stop-color="#a7bedd"/>
    </linearGradient>
  </defs>
  <g id="report">
    <g>
      <path class="cls-4" d="m28.48,20.97s-.07-10.26.29-14.23c.08-.91.32-1.8.76-2.6C30.73,2,33.58-.23,40.8.02c8.31.29,153.23.25,176,.25,2.04,0,4.02.6,5.72,1.73,10.3,6.85,48.32,34.79,88.15,97.1,1.15,1.8,1.78,3.88,1.85,6.01.82,28.19,5.39,230.69-30.25,282.65-2.29,3.34-6.04,5.36-10.08,5.43-34.72.6-216.04,3.54-268.1-.1,0,0-7.7-3.12-1.93-14.18s34.38-94.83,26.81-225.19c-.1-1.75-.16-3.51-.16-5.27l-.31-127.47Z"/>
      <g>
        <path class="cls-5" d="m106.68,194.07c-.54,12.79-2.32,51.48-4.63,66.01-.39,2.43,1.7,4.61,4.42,4.61h15.47c3.15,0,5.74-2.24,5.88-5.09.68-13.62,2.47-50.79,2.62-64.7.03-2.84-2.4-5.21-5.53-5.37-3.72-.2-8.75-.36-13.2-.12-2.75.15-4.93,2.16-5.03,4.66Z"/>
        <path class="cls-5" d="m146.16,173.15c-.54,16.58-2.32,66.73-4.63,85.57-.39,3.15,1.7,5.97,4.42,5.97h15.47c3.15,0,5.74-2.91,5.88-6.6.68-17.65,2.47-65.84,2.62-83.87.03-3.68-2.4-6.75-5.53-6.96-3.72-.26-8.75-.46-13.2-.15-2.75.19-4.93,2.81-5.03,6.04Z"/>
        <path class="cls-5" d="m186.44,149.87c-.54,20.79-2.32,83.69-4.63,107.33-.39,3.96,1.7,7.49,4.42,7.49h15.47c3.15,0,5.74-3.64,5.88-8.27.68-22.14,2.47-82.58,2.62-105.19.03-4.62-2.4-8.46-5.53-8.73-3.72-.32-8.75-.58-13.2-.19-2.75.24-4.93,3.52-5.03,7.57Z"/>
      </g>
      <g class="cls-3">
        <path class="cls-7" d="m217.9-8.12s9.23,44.19,7.79,87.38c-.08,2.52-.2,4.92-.06,7.44.21,3.77,2.28,11.63,14.01,10.1,1.93-.25,5.44-.77,7.38-.95,11.7-1.08,46.38-3.05,74.31,8.97,33.72,14.51-73.27-109.34-103.43-112.94Z"/>
      </g>
      <g class="cls-2">
        <path class="cls-6" d="m0,385.33c28,.91,77.8-2.07,106.68-3.35,56.79-3.39,125.14-9.56,159.35-20.74,24.57-35.08,27.99-42.78,44-106.56,0,0,18.59,138.5,3.12,161.57-15.47,23.07-338.97,17.03-331.83-9.34S0,385.33,0,385.33Z"/>
      </g>
    </g>
  </g>
</svg>