<svg width="98" height="120" viewBox="0 0 98 120" fill="none" xmlns="http://www.w3.org/2000/svg">
<g clip-path="url(#clip0_3781_16579)">
<path d="M0 113.745V24.0908C0.69964 21.792 2.39877 20.2928 3.99794 18.6936C8.19579 14.4958 12.2937 10.2979 16.5915 6.20004C18.7903 4.00117 20.7893 1.40251 23.7878 0.203125H91.9527C94.9512 1.00271 96.8502 2.90174 96.9501 6.20004V113.845C96.8502 117.343 94.3515 119.542 90.5534 119.542H6.39671C5.22646 119.517 4.08548 119.171 3.09841 118.542C1.47697 117.411 0.364402 115.688 0 113.745ZM93.1521 59.8724V6.69978C93.1521 4.70081 92.3525 3.90122 90.3535 3.90122H26.6863C25.5868 3.90122 25.187 4.20107 25.187 5.40045C25.187 9.89814 25.287 14.4958 25.187 18.9935C25.2446 19.9225 25.0951 20.8527 24.7494 21.7169C24.4037 22.5812 23.8704 23.3578 23.1881 23.9909C21.8221 24.9595 20.1601 25.4193 18.4905 25.2902C14.2927 25.3902 9.99486 25.2902 5.79702 25.2902C3.79805 25.2902 3.79805 25.2902 3.79805 27.2892V112.545C3.79805 114.944 4.49769 115.644 6.89645 115.644H90.1536C92.4525 115.644 93.1521 114.844 93.1521 112.545V59.8724Z" fill="#DDEAF7"/>
<path d="M97.153 113.738H96.9531V6.09375H97.153V113.738Z" fill="#F5F9FC"/>
<path d="M97.1504 6.09848H96.9506C96.8506 2.80018 94.9516 1.0011 91.9531 0.101562H96.6507C97.1504 0.101562 97.2504 0.201511 97.2504 0.701254C97.1505 2.50033 97.1504 4.2994 97.1504 6.09848Z" fill="#FDFDFE"/>
<path d="M93.1509 59.8713V112.644C93.1509 114.943 92.3513 115.743 90.1525 115.743H6.89528C4.49652 115.743 3.79688 115.043 3.79688 112.644V27.388C3.79688 25.389 3.79688 25.389 5.79585 25.389H18.4893C20.1539 25.4698 21.8005 25.0144 23.1869 24.0897C23.8693 23.4566 24.4026 22.6799 24.7482 21.8157C25.0939 20.9515 25.2434 20.0213 25.1859 19.0922C25.2858 14.5946 25.1859 9.99692 25.1859 5.49923C25.1859 4.29985 25.5857 4 26.6851 4H90.3524C92.3513 4 93.1509 4.79959 93.1509 6.79856V59.8713Z" fill="#FEFEFE"/>
<path d="M47.374 84.453H24.0859V35.9779C24.0859 35.5781 24.1859 35.5781 24.4857 35.5781H72.561C72.9608 35.5781 72.9608 35.6781 72.9608 35.9779V84.0532C72.9608 84.453 72.8609 84.453 72.561 84.453H49.5728C49.8602 84.3392 50.1638 84.2717 50.4724 84.2531C52.869 83.7828 55.005 82.4376 56.4645 80.4793C57.924 78.521 58.6027 76.0897 58.3683 73.6585C58.327 73.4995 58.3447 73.3308 58.4182 73.1838C58.4918 73.0368 58.616 72.9214 58.7681 72.859C61.5684 71.5705 64.083 69.7355 66.1643 67.4617C66.3641 67.2442 66.4716 66.9575 66.4641 66.6621C66.3642 65.6627 66.2643 64.6632 66.0644 63.6637C65.5132 61.1228 64.4137 58.7329 62.8427 56.6612C61.2717 54.5895 59.2671 52.886 56.969 51.6699C56.6692 51.5699 56.5692 51.47 56.7691 51.1701C58.1762 49.1261 58.7811 46.6354 58.4683 44.1737C58.2714 42.8743 57.8205 41.6264 57.1413 40.5012C56.4622 39.376 55.568 38.3957 54.51 37.6161C53.4519 36.8364 52.2507 36.2729 50.9749 35.9575C49.699 35.6421 48.3735 35.5811 47.0741 35.778C45.7747 35.9749 44.5268 36.4258 43.4016 37.105C42.2765 37.7841 41.2961 38.6782 40.5165 39.7363C39.7369 40.7943 39.1733 41.9956 38.8579 43.2714C38.5425 44.5473 38.4816 45.8727 38.6784 47.1722C38.8641 48.6494 39.4136 50.0575 40.2776 51.2701C40.4775 51.5699 40.4775 51.6699 40.1777 51.7698C37.4336 53.1822 35.1107 55.2936 33.4435 57.8908C31.7764 60.4881 30.824 63.4792 30.6825 66.5622C30.6469 66.7496 30.6655 66.9433 30.7364 67.1204C30.8072 67.2975 30.9273 67.4506 31.0823 67.5617C33.227 69.8075 35.7684 71.6373 38.5785 72.9589C38.7784 73.0589 38.9783 73.1588 38.8783 73.4587C38.6141 75.6201 39.0806 77.8078 40.2035 79.6734C41.3265 81.539 43.0414 82.9752 45.0751 83.7534C45.7748 84.0532 46.5744 84.1532 47.374 84.453Z" fill="#FEFEFE"/>
<path d="M47.3791 84.4543C46.5668 84.2673 45.7659 84.0337 44.9804 83.7547C42.9539 82.9663 41.2462 81.528 40.1248 79.6651C39.0034 77.8021 38.5317 75.6198 38.7836 73.46C38.799 73.3549 38.7776 73.2476 38.7229 73.1565C38.6683 73.0654 38.5837 72.996 38.4837 72.9602C35.6678 71.6486 33.1246 69.8175 30.9876 67.563C30.8523 67.4355 30.7465 67.28 30.6774 67.1074C30.6084 66.9347 30.5778 66.7492 30.5878 66.5635C30.7501 63.4857 31.7109 60.5032 33.3758 57.9095C35.0407 55.3158 37.3522 53.2003 40.0829 51.7711C40.3827 51.5712 40.3827 51.4713 40.1828 51.2714C39.4544 50.1754 38.9489 48.9467 38.6953 47.6554C38.4417 46.364 38.445 45.0354 38.7048 43.7453C39.2297 41.1399 40.768 38.8497 42.9814 37.3785C45.1948 35.9073 47.902 35.3757 50.5074 35.9005C53.1129 36.4253 55.4031 37.9637 56.8743 40.1771C57.6698 41.4255 58.2131 42.8177 58.4734 44.275C58.8356 46.7392 58.2264 49.2478 56.7743 51.2714C56.5744 51.5712 56.6744 51.6712 56.9742 51.7711C59.26 53.0033 61.2547 54.7117 62.8238 56.7807C64.3929 58.8498 65.4997 61.2315 66.0695 63.765C66.3007 64.7489 66.4346 65.7532 66.4693 66.7634C66.4768 67.0587 66.3693 67.3454 66.1695 67.563C64.0882 69.8368 61.5736 71.6718 58.7733 72.9602C58.7011 72.9799 58.6335 73.0136 58.5743 73.0594C58.5151 73.1052 58.4656 73.1623 58.4285 73.2272C58.3913 73.2922 58.3674 73.3638 58.3579 73.4381C58.3485 73.5123 58.3538 73.5877 58.3735 73.6599C58.6078 76.091 57.9292 78.5223 56.4697 80.4806C55.0102 82.439 52.8742 83.7842 50.4776 84.2544C50.169 84.273 49.8654 84.3405 49.578 84.4543H47.3791ZM65.27 66.1637C65.0083 63.3191 64.0389 60.5851 62.4503 58.2109C60.8617 55.8368 58.7043 53.8978 56.1746 52.5707C56.079 52.5136 55.9663 52.4923 55.8564 52.5106C55.7466 52.5289 55.6468 52.5856 55.5749 52.6707C53.7066 54.502 51.1947 55.5278 48.5785 55.5278C45.9623 55.5278 43.4505 54.502 41.5821 52.6707C41.4822 52.4708 41.1823 52.4708 40.9824 52.5707C38.4228 53.8859 36.2429 55.835 34.6507 58.2321C33.0584 60.6292 32.107 63.3943 31.8871 66.2637C31.8918 66.4791 31.9615 66.6882 32.087 66.8634C33.9866 68.7675 36.1802 70.3536 38.5837 71.5609C38.9835 71.7608 39.0834 71.7608 39.1834 71.2611C39.8836 69.121 41.2991 67.2872 43.192 66.0677C45.0849 64.8483 47.3399 64.3175 49.578 64.5645C51.489 64.7158 53.308 65.448 54.7909 66.6629C56.2737 67.8777 57.3495 69.5172 57.8738 71.361C57.9737 71.6609 58.0737 71.7608 58.3735 71.5609C60.777 70.3536 62.9705 68.7675 64.8702 66.8634C65.27 66.8634 65.3699 66.5635 65.27 66.1637ZM48.5785 54.4697C50.3379 54.4697 52.0577 53.948 53.5206 52.9706C54.9834 51.9931 56.1236 50.6039 56.7968 48.9784C57.4701 47.353 57.6463 45.5644 57.303 43.8389C56.9598 42.1133 56.1126 40.5283 54.8685 39.2843C53.6245 38.0402 52.0395 37.193 50.3139 36.8498C48.5884 36.5066 46.7998 36.6827 45.1744 37.356C43.549 38.0293 42.1597 39.1694 41.1823 40.6323C40.2048 42.0951 39.6831 43.815 39.6831 45.5743C39.6884 47.9319 40.6273 50.1914 42.2943 51.8585C43.9614 53.5256 46.2209 54.4645 48.5785 54.4697ZM48.5785 65.8639C46.29 65.8771 44.1 66.7972 42.4887 68.4225C40.8775 70.0478 39.9764 72.2457 39.983 74.5343C39.9896 76.8229 40.9034 79.0155 42.524 80.6314C44.1446 82.2474 46.3399 83.1548 48.6285 83.1548C50.9171 83.1548 53.1124 82.2474 54.733 80.6314C56.3536 79.0155 57.2674 76.8229 57.274 74.5343C57.2806 72.2457 56.3795 70.0478 54.7683 68.4225C53.157 66.7972 50.9671 65.8771 48.6785 65.8639H48.5785Z" fill="white"/>
<path d="M65.2674 66.1697C65.3269 66.3314 65.3296 66.5085 65.2751 66.672C65.2206 66.8355 65.1122 66.9755 64.9676 67.0692C63.0679 68.9734 60.8744 70.5595 58.4709 71.7668C58.1711 71.9667 58.0711 71.7668 57.9712 71.5669C57.4128 69.7422 56.3272 68.1234 54.8511 66.9141C53.3751 65.7048 51.5743 64.9589 49.6754 64.7704C47.4396 64.5384 45.1914 65.0754 43.3018 66.2928C41.4121 67.5101 39.9938 69.3352 39.2808 71.467C39.1808 71.8668 38.9809 71.8668 38.6811 71.7668C36.2776 70.5595 34.084 68.9734 32.1844 67.0692C31.9845 66.8693 31.8846 66.6694 31.9845 66.4696C32.1776 63.5929 33.1182 60.8165 34.7134 58.415C36.3086 56.0134 38.5031 54.0699 41.0798 52.7766C41.2797 52.6766 41.5796 52.6766 41.6795 52.8765C43.5479 54.7079 46.0598 55.7336 48.6759 55.7336C51.2921 55.7336 53.804 54.7079 55.6723 52.8765C55.7723 52.6766 56.0721 52.6766 56.272 52.7766C58.7859 54.0608 60.931 55.9644 62.5049 58.3078C64.0788 60.6511 65.0295 63.3569 65.2674 66.1697Z" fill="#0457BC"/>
<path d="M48.5783 54.4732C46.2544 54.4468 44.0355 53.5017 42.4062 51.8444C40.7769 50.1871 39.8697 47.9523 39.883 45.6283C39.8962 43.3043 40.8286 41.08 42.4766 39.4413C44.1247 37.8026 46.3542 36.8828 48.6783 36.8828C51.0023 36.8828 53.2319 37.8026 54.8799 39.4413C56.5279 41.08 57.4604 43.3043 57.4736 45.6283C57.4868 47.9523 56.5797 50.1871 54.9504 51.8444C53.3211 53.5017 51.1021 54.4468 48.7782 54.4732H48.5783Z" fill="#0457BC"/>
<path d="M39.9904 74.2446C39.7894 69.9286 43.7955 65.8863 48.4715 65.97C50.6817 66.0354 52.7795 66.9594 54.3196 68.5459C55.8598 70.1325 56.7212 72.2567 56.7209 74.4679C56.7433 78.9178 52.8321 82.8066 48.3766 82.762C43.614 82.7033 39.714 78.8089 39.9904 74.2446ZM54.2279 74.3618C54.1637 70.8694 51.6875 68.4295 48.3654 68.4183C44.9456 68.4044 42.4555 70.6684 42.3773 74.3506C42.3773 75.921 43.0011 77.4271 44.1115 78.5375C45.222 79.6479 46.728 80.2718 48.2984 80.2718C49.8688 80.2718 51.3749 79.6479 52.4853 78.5375C53.5957 77.4271 54.2196 75.921 54.2196 74.3506L54.2279 74.3618Z" fill="#0457BC"/>
<path d="M57.3454 93.7325C57.256 94.1094 57.1639 94.4667 56.8205 94.6258C56.6657 94.7094 56.4894 94.7448 56.3142 94.7273C56.1391 94.7099 55.9732 94.6405 55.8379 94.5281C55.5701 94.3055 55.3651 94.0168 55.2432 93.6906C54.5369 91.9179 53.8027 90.1563 53.0685 88.3864C52.8201 87.7946 52.6554 87.306 53.4901 86.9906C54.1824 86.7393 54.5676 86.7114 54.8719 87.5489C55.5643 89.4724 56.3906 91.3484 57.1639 93.2439C57.2281 93.4198 57.2895 93.5817 57.3454 93.7325Z" fill="#0457BC"/>
<path d="M52.1237 83.3984C52.3347 83.4533 52.5217 83.5764 52.6556 83.7485C52.7894 83.9207 52.8625 84.1323 52.8635 84.3504C52.9165 84.7943 53.7317 85.3247 53.0226 85.6402C52.2605 85.9835 52.2214 85.1153 52.0316 84.6407C51.8668 84.2192 51.3532 83.7279 52.1237 83.3984Z" fill="#0457BC"/>
<g clip-path="url(#clip1_3781_16579)">
<path d="M47.6081 70.5636C47.7117 70.5681 47.8154 70.5695 47.9191 70.5773C48.9063 70.6406 49.7655 71.3555 50.0083 72.3151C50.2742 73.3652 49.8086 74.4301 48.8563 74.9447C48.8077 74.971 48.7931 74.9953 48.8025 75.0508C48.8439 75.2902 48.8824 75.5302 48.9163 75.7708C48.9667 76.123 48.7509 76.4476 48.4056 76.5452C48.0817 76.6368 47.726 76.464 47.5866 76.1482C47.5609 76.0889 47.5432 76.0264 47.5338 75.9625C47.4636 75.5182 47.3933 75.0739 47.3231 74.6295C47.261 74.2302 47.5072 73.8882 47.9049 73.8159C48.3848 73.7294 48.7097 73.3225 48.6857 72.839C48.6628 72.3841 48.2892 72.0097 47.8178 71.9696C47.2397 71.9202 46.7545 72.4381 46.8338 73.0219C46.8735 73.3142 46.7835 73.5536 46.5418 73.725C46.1274 74.0187 45.5458 73.7708 45.4586 73.2678C45.272 72.1931 45.9158 71.0881 46.9431 70.7166C47.0164 70.6902 47.0962 70.6809 47.1627 70.6358L47.6081 70.5636Z" fill="#0457BC"/>
<path d="M48.4983 78.4711C48.481 78.4448 48.4537 78.4537 48.4289 78.4507C48.1014 78.4066 47.8364 78.1153 47.8287 77.791C47.8204 77.4373 48.0603 77.1348 48.3982 77.0739C48.562 77.0428 48.7315 77.0716 48.8758 77.155C49.0202 77.2384 49.1297 77.3709 49.1846 77.5283C49.3145 77.9047 49.118 78.3009 48.742 78.4201C48.7364 78.422 48.7329 78.4301 48.7285 78.4354L48.4983 78.4711Z" fill="#0457BC"/>
</g>
</g>
<defs>
<clipPath id="clip0_3781_16579">
<rect width="97.25" height="119.838" fill="white"/>
</clipPath>
<clipPath id="clip1_3781_16579">
<rect width="7.94575" height="7.94575" fill="white" transform="translate(43.4688 71.2188) rotate(-8.981)"/>
</clipPath>
</defs>
</svg>
