<svg xmlns="http://www.w3.org/2000/svg" width="36" height="35" viewBox="0 0 36 35" fill="none">
<path d="M30.9719 15.8166L8.00318 2.70797C7.66413 2.52039 7.27612 2.44014 6.89047 2.47782C6.50482 2.51551 6.13969 2.66935 5.84336 2.91901C5.54703 3.16867 5.33344 3.50239 5.23085 3.87605C5.12826 4.24971 5.1415 4.64571 5.26881 5.01168L9.50709 17.382V17.3916C9.52952 17.4543 9.52952 17.5229 9.50709 17.5857L5.26881 29.9779C5.16531 30.2662 5.13252 30.5752 5.17321 30.8788C5.21389 31.1824 5.32685 31.4718 5.50261 31.7227C5.67836 31.9736 5.91177 32.1787 6.18321 32.3207C6.45466 32.4626 6.75622 32.5374 7.06256 32.5386C7.39419 32.5379 7.72003 32.4518 8.00865 32.2884L30.9665 19.1539C31.2627 18.9874 31.5092 18.7451 31.6808 18.4519C31.8524 18.1586 31.9429 17.825 31.9429 17.4852C31.9429 17.1454 31.8524 16.8118 31.6808 16.5186C31.5092 16.2253 31.2627 15.983 30.9665 15.8166H30.9719ZM30.1585 17.7306L7.19928 30.8611C7.15147 30.891 7.09512 30.9043 7.03898 30.8988C6.98285 30.8934 6.93009 30.8696 6.88892 30.831C6.84347 30.7948 6.8113 30.7446 6.79745 30.6882C6.78359 30.6318 6.78884 30.5724 6.81236 30.5193L10.9864 18.3199H19.0938C19.3114 18.3199 19.52 18.2335 19.6739 18.0796C19.8277 17.9258 19.9141 17.7171 19.9141 17.4996C19.9141 17.282 19.8277 17.0734 19.6739 16.9195C19.52 16.7657 19.3114 16.6793 19.0938 16.6793H10.9973L6.80826 4.47027C6.78817 4.41762 6.78484 4.36004 6.79872 4.30542C6.81261 4.25079 6.84304 4.2018 6.88584 4.16513C6.92864 4.12846 6.98173 4.10592 7.03784 4.10058C7.09394 4.09524 7.15033 4.10737 7.19928 4.13531L30.168 17.2453C30.2104 17.2686 30.2456 17.3031 30.2697 17.3451C30.2938 17.387 30.306 17.4348 30.3047 17.4832C30.305 17.5332 30.2915 17.5824 30.2657 17.6253C30.2399 17.6682 30.2028 17.7032 30.1585 17.7265V17.7306Z" fill="#A3ACB9"/>
</svg>