<svg xmlns="http://www.w3.org/2000/svg" width="36" height="35" viewBox="0 0 36 35" fill="none">
<path d="M32.2221 17.4882C32.2231 17.8779 32.12 18.2609 31.9233 18.5974C31.7267 18.9339 31.4438 19.2118 31.1038 19.4023L8.1473 32.5286C7.81748 32.7157 7.44502 32.8145 7.06586 32.8157C6.7162 32.815 6.3718 32.7305 6.06154 32.5693C5.75127 32.408 5.48419 32.1747 5.28266 31.889C5.08114 31.6032 4.95105 31.2733 4.9033 30.9269C4.85556 30.5806 4.89154 30.2278 5.00824 29.8982L8.7475 18.9675C8.78434 18.8594 8.85413 18.7655 8.94707 18.699C9.04 18.6326 9.15142 18.5969 9.26566 18.597H19.0971C19.247 18.5973 19.3955 18.5668 19.5331 18.5074C19.6708 18.4479 19.7947 18.3608 19.8973 18.2515C19.9999 18.1421 20.0789 18.0128 20.1294 17.8716C20.1799 17.7304 20.2008 17.5804 20.1909 17.4308C20.1661 17.1495 20.0359 16.888 19.8265 16.6986C19.6171 16.5093 19.3439 16.406 19.0616 16.4095H9.27524C9.16115 16.4097 9.04986 16.3742 8.95695 16.308C8.86403 16.2418 8.79415 16.1482 8.75707 16.0403L5.00551 5.10285C4.85941 4.68373 4.84427 4.2301 4.96208 3.80218C5.07989 3.37425 5.32508 2.99229 5.6651 2.70701C6.00512 2.42174 6.42388 2.24664 6.86576 2.20497C7.30765 2.16331 7.75175 2.25705 8.1391 2.47374L31.1079 15.5837C31.4457 15.7739 31.7269 16.0505 31.9227 16.3852C32.1185 16.7198 32.2218 17.1005 32.2221 17.4882Z" fill="#0457BC"/>
</svg>