<svg xmlns="http://www.w3.org/2000/svg" width="122" height="122" viewBox="0 0 122 122" fill="none">
  <path d="M87.7539 43.6211C88.1898 44.0564 88.5355 44.5734 88.7714 45.1425C89.0073 45.7115 89.1287 46.3215 89.1287 46.9375C89.1287 47.5535 89.0073 48.1635 88.7714 48.7325C88.5355 49.3016 88.1898 49.8186 87.7539 50.2539L54.9414 83.0664C54.5061 83.5022 53.9891 83.848 53.4201 84.0839C52.851 84.3198 52.241 84.4412 51.625 84.4412C51.009 84.4412 50.399 84.3198 49.83 84.0839C49.2609 83.848 48.744 83.5022 48.3086 83.0664L34.2461 69.0039C33.3666 68.1243 32.8724 66.9314 32.8724 65.6875C32.8724 64.4436 33.3666 63.2507 34.2461 62.3711C35.1257 61.4915 36.3186 60.9974 37.5625 60.9974C38.8064 60.9974 39.9994 61.4915 40.8789 62.3711L51.625 73.123L81.1211 43.6211C81.5565 43.1853 82.0734 42.8395 82.6425 42.6036C83.2115 42.3677 83.8215 42.2463 84.4375 42.2463C85.0535 42.2463 85.6635 42.3677 86.2326 42.6036C86.8016 42.8395 87.3186 43.1853 87.7539 43.6211ZM121.938 61C121.938 73.0523 118.364 84.8339 111.668 94.8551C104.972 104.876 95.4547 112.687 84.3198 117.299C73.1849 121.911 60.9324 123.118 49.1117 120.767C37.291 118.415 26.433 112.612 17.9107 104.089C9.38844 95.5671 3.58471 84.709 1.23342 72.8883C-1.11786 61.0676 0.0889033 48.8151 4.70112 37.6802C9.31333 26.5454 17.1238 17.0282 27.145 10.3323C37.1661 3.63642 48.9477 0.0625 61 0.0625C77.1564 0.0795614 92.6462 6.50522 104.071 17.9295C115.495 29.3538 121.92 44.8436 121.938 61ZM112.563 61C112.563 50.8019 109.538 40.8328 103.873 32.3534C98.2069 23.874 90.154 17.2651 80.7321 13.3625C71.3103 9.45982 60.9428 8.43871 50.9407 10.4283C40.9385 12.4178 31.751 17.3287 24.5398 24.5398C17.3287 31.751 12.4178 40.9385 10.4283 50.9407C8.43874 60.9428 9.45984 71.3103 13.3625 80.7321C17.2651 90.1539 23.874 98.2069 32.3534 103.873C40.8328 109.538 50.8019 112.562 61 112.562C74.6705 112.547 87.7766 107.11 97.4431 97.4431C107.11 87.7766 112.547 74.6705 112.563 61Z" fill="#8ECEAF"/>
</svg>