<svg xmlns="http://www.w3.org/2000/svg" width="100" height="100" viewBox="0 0 100 100" fill="none">
  <path opacity="0.5" d="M30.1875 8.33594H69.8125C74.6417 8.33594 77.0542 8.33594 79.0042 9.0151C80.8427 9.66672 82.5063 10.7335 83.8656 12.1325C85.2249 13.5316 86.2433 15.2252 86.8417 17.0818C87.5 19.0901 87.5 21.5734 87.5 26.5443V84.8943C87.5 88.4693 83.3958 90.3693 80.8 87.9943C80.0717 87.3213 79.1166 86.9476 78.125 86.9476C77.1334 86.9476 76.1783 87.3213 75.45 87.9943L73.4375 89.8359C72.1616 91.0158 70.4878 91.6711 68.75 91.6711C67.0122 91.6711 65.3384 91.0158 64.0625 89.8359C62.7866 88.6561 61.1128 88.0008 59.375 88.0008C57.6372 88.0008 55.9634 88.6561 54.6875 89.8359C53.4116 91.0158 51.7378 91.6711 50 91.6711C48.2622 91.6711 46.5884 91.0158 45.3125 89.8359C44.0366 88.6561 42.3628 88.0008 40.625 88.0008C38.8872 88.0008 37.2134 88.6561 35.9375 89.8359C34.6616 91.0158 32.9878 91.6711 31.25 91.6711C29.5122 91.6711 27.8384 91.0158 26.5625 89.8359L24.55 87.9943C23.8217 87.3213 22.8666 86.9476 21.875 86.9476C20.8834 86.9476 19.9283 87.3213 19.2 87.9943C16.6042 90.3693 12.5 88.4693 12.5 84.8943V26.5443C12.5 21.5734 12.5 19.0859 13.1583 17.0859C14.4083 13.2818 17.3042 10.2984 20.9958 9.0151C22.9458 8.33594 25.3583 8.33594 30.1875 8.33594Z" fill="#0457BC"/>
  <path d="M29.1641 28.125C28.3353 28.125 27.5404 28.4542 26.9544 29.0403C26.3683 29.6263 26.0391 30.4212 26.0391 31.25C26.0391 32.0788 26.3683 32.8737 26.9544 33.4597C27.5404 34.0458 28.3353 34.375 29.1641 34.375H31.2474C32.0762 34.375 32.8711 34.0458 33.4571 33.4597C34.0432 32.8737 34.3724 32.0788 34.3724 31.25C34.3724 30.4212 34.0432 29.6263 33.4571 29.0403C32.8711 28.4542 32.0762 28.125 31.2474 28.125H29.1641ZM43.7474 28.125C42.9186 28.125 42.1237 28.4542 41.5377 29.0403C40.9516 29.6263 40.6224 30.4212 40.6224 31.25C40.6224 32.0788 40.9516 32.8737 41.5377 33.4597C42.1237 34.0458 42.9186 34.375 43.7474 34.375H70.8307C71.6595 34.375 72.4544 34.0458 73.0404 33.4597C73.6265 32.8737 73.9557 32.0788 73.9557 31.25C73.9557 30.4212 73.6265 29.6263 73.0404 29.0403C72.4544 28.4542 71.6595 28.125 70.8307 28.125H43.7474ZM29.1641 42.7083C28.3353 42.7083 27.5404 43.0376 26.9544 43.6236C26.3683 44.2097 26.0391 45.0045 26.0391 45.8333C26.0391 46.6621 26.3683 47.457 26.9544 48.043C27.5404 48.6291 28.3353 48.9583 29.1641 48.9583H31.2474C32.0762 48.9583 32.8711 48.6291 33.4571 48.043C34.0432 47.457 34.3724 46.6621 34.3724 45.8333C34.3724 45.0045 34.0432 44.2097 33.4571 43.6236C32.8711 43.0376 32.0762 42.7083 31.2474 42.7083H29.1641ZM43.7474 42.7083C42.9186 42.7083 42.1237 43.0376 41.5377 43.6236C40.9516 44.2097 40.6224 45.0045 40.6224 45.8333C40.6224 46.6621 40.9516 47.457 41.5377 48.043C42.1237 48.6291 42.9186 48.9583 43.7474 48.9583H70.8307C71.6595 48.9583 72.4544 48.6291 73.0404 48.043C73.6265 47.457 73.9557 46.6621 73.9557 45.8333C73.9557 45.0045 73.6265 44.2097 73.0404 43.6236C72.4544 43.0376 71.6595 42.7083 70.8307 42.7083H43.7474ZM29.1641 57.2917C28.3353 57.2917 27.5404 57.6209 26.9544 58.207C26.3683 58.793 26.0391 59.5879 26.0391 60.4167C26.0391 61.2455 26.3683 62.0403 26.9544 62.6264C27.5404 63.2124 28.3353 63.5417 29.1641 63.5417H31.2474C32.0762 63.5417 32.8711 63.2124 33.4571 62.6264C34.0432 62.0403 34.3724 61.2455 34.3724 60.4167C34.3724 59.5879 34.0432 58.793 33.4571 58.207C32.8711 57.6209 32.0762 57.2917 31.2474 57.2917H29.1641ZM43.7474 57.2917C42.9186 57.2917 42.1237 57.6209 41.5377 58.207C40.9516 58.793 40.6224 59.5879 40.6224 60.4167C40.6224 61.2455 40.9516 62.0403 41.5377 62.6264C42.1237 63.2124 42.9186 63.5417 43.7474 63.5417H70.8307C71.6595 63.5417 72.4544 63.2124 73.0404 62.6264C73.6265 62.0403 73.9557 61.2455 73.9557 60.4167C73.9557 59.5879 73.6265 58.793 73.0404 58.207C72.4544 57.6209 71.6595 57.2917 70.8307 57.2917H43.7474Z" fill="#0457BC"/>
</svg>